<?xml version="1.0" encoding="utf-8"?>
<!-- Generator: Adobe Illustrator 24.0.0, SVG Export Plug-In . SVG Version: 6.00 Build 0)  -->
<svg version="1.1" id="Layer_1" xmlns="http://www.w3.org/2000/svg" xmlns:xlink="http://www.w3.org/1999/xlink" x="0px" y="0px"
	 viewBox="0 0 380.464 250.12" style="enable-background:new 0 0 380.464 250.12;" xml:space="preserve">
<style type="text/css">
	.st0{opacity:0.1;fill:#6C63FF;enable-background:new    ;}
	.st1{fill:url(#Path_442_1_);}
	.st2{fill:#65617D;}
	.st3{opacity:0.1;enable-background:new    ;}
	.st4{fill:#EBBBC2;}
	.st5{fill:#E7EFFD;}
	.st6{fill:#3F3D56;}
	.st7{fill:#5F5D7E;}
	.st8{fill:#AF503F;}
	.st9{fill:#5162A7;}
	.st10{fill:#7E5328;}
	.st11{opacity:0.1;}
	.st12{fill:#E6E8EC;}
	.st13{fill:#6C63FF;}
	.st14{fill:#FF9F5B;}
	.st15{fill:#7E7B88;}
	.st16{opacity:0.7;}
	.st17{fill:url(#Path_568_1_);}
	.st18{fill:#FBBEBE;}
	.st19{opacity:0.05;enable-background:new    ;}
	.st20{fill:#40407C;}
	.st21{fill:none;}
	.st22{fill:#F7CDDD;}
	.st23{fill:#FFCE4A;}
	.st24{fill:#7C5C5C;}
	.st25{fill:#3ACC6C;}
	.st26{opacity:0.5;}
</style>
<g id="Group_2340" transform="translate(0.05 0.983)">
	<path id="Path_441" class="st0" d="M352.764,204.26c-1.187,1.044-2.401,2.058-3.642,3.043c-0.209,0.169-0.424,0.331-0.636,0.5
		c-4.424,3.432-9.069,6.57-13.905,9.393l-0.9,0.526c-0.219,0.132-0.434,0.255-0.662,0.377c-5.052,2.917-10.293,5.6-15.6,8.144
		l-0.056,0.03l-0.4,0.189c-4.277,2.051-8.619,4.013-13.024,5.887l-0.106,0.04c-1.987,0.837-3.973,1.651-5.959,2.443
		c-0.811,0.331-1.626,0.639-2.44,0.953c-1.533,0.586-3.069,1.162-4.618,1.715l-0.192,0.073l-0.331,0.116l-0.414,0.152
		c-4.041,1.443-8.137,2.777-12.286,4l-0.073,0.02c-2.893,0.843-5.806,1.624-8.737,2.341l-0.4,0.1
		c-4.3,1.04-8.677,1.933-13.077,2.649l-1.013,0.162c-3.218,0.505-6.458,0.918-9.72,1.238c-18.338,1.771-36.895,0.331-55.121-2.139
		c-36.8-4.993-73.118-14.352-106.238-29.022c-6.357-2.814-12.59-5.827-18.7-9.038c-0.05-0.027-0.093-0.053-0.142-0.076
		c-3.657-1.923-7.265-3.926-10.823-6.009c-1.043-0.6-2.079-1.218-3.109-1.837c-1.267-0.764-2.528-1.537-3.784-2.318
		c-1.655-1.033-3.311-2.091-4.966-3.175l-0.775-0.516l-0.3-0.2c-0.42-0.281-0.834-0.563-1.251-0.848
		c-15.56-10.594-29.436-23.433-35.991-39.5c-7.575-18.54-2.728-42.046,16.034-53c6.449-3.774,13.945-5.824,21.52-7.515l0.775-0.172
		c1.281-0.281,2.563-0.553,3.837-0.824c4.466-0.947,8.956-1.887,13.4-2.937l0,0c2.318-0.546,4.612-1.119,6.893-1.738l0.934-0.258
		c5.501-1.476,10.882-3.371,16.094-5.668h0.033c0.559-0.248,1.111-0.505,1.655-0.771c0.351-0.166,0.7-0.331,1.053-0.513
		c5.957-2.889,11.417-6.707,16.173-11.313c0.367-0.371,0.725-0.748,1.073-1.126c0.268-0.295,0.533-0.593,0.788-0.891
		c3.215-3.748,5.44-7.909,5.863-12.326l0,0c0.142-1.484,0.075-2.981-0.2-4.446c-0.52-2.778-1.023-5.5-1.394-8.148
		c-0.816-4.746-0.805-9.597,0.033-14.339l0,0c1.097-5.149,3.677-9.865,7.421-13.567c0.638-0.662,1.326-1.324,2.063-1.986
		c3.419-3,7.288-5.444,11.465-7.244c0.517-0.221,1.036-0.441,1.559-0.662c11.614-4.7,25.569-5.681,38.607-5.032
		c12.181,0.627,24.284,2.31,36.173,5.032c0.944,0.212,1.887,0.434,2.824,0.662c10.115,2.45,20.068,5.527,29.8,9.214
		c25.287,9.512,49.155,22.718,71.452,37.292l0.662,0.43c0.933,0.607,1.859,1.216,2.778,1.828c1.781,1.181,3.548,2.369,5.3,3.566
		l1.182,0.8c0.583,0.4,1.162,0.8,1.738,1.2l1.775,1.228l0,0c0.083,0.05,0.163,0.107,0.238,0.169l1.51,1.046
		c0.874,0.609,1.741,1.222,2.612,1.837l0,0l1.867,1.324c0.387,0.278,0.778,0.553,1.165,0.834l1.986,1.45l0.444,0.331
		c0.093,0.066,0.185,0.132,0.275,0.205l0.056,0.036c5.383,3.95,10.637,8.045,15.56,12.385l0.636,0.563l0.066,0.06
		c0.536,0.477,1.073,0.96,1.6,1.447c6.369,5.675,12.042,12.087,16.9,19.1C389.268,133.348,382.848,177.814,352.764,204.26z"/>
	
		<linearGradient id="Path_442_1_" gradientUnits="userSpaceOnUse" x1="-304.4536" y1="622.5107" x2="-304.4536" y2="623.5107" gradientTransform="matrix(108.1632 0 0 -194.4099 33244.7031 121260.7734)">
		<stop  offset="0" style="stop-color:#808080;stop-opacity:0.251"/>
		<stop  offset="0.54" style="stop-color:#808080;stop-opacity:0.122"/>
		<stop  offset="1" style="stop-color:#808080;stop-opacity:0.102"/>
	</linearGradient>
	<path id="Path_442" class="st1" d="M361.75,102.793c0,0-2.907-1.208-3.225-3.827s-3.364-2.675-3.483-2.678c0,0,0-0.238,0.02-0.6
		c0.053-1.037-0.08-2.075-0.391-3.066c-0.375-0.724-1.019-1.272-1.794-1.526c-0.13-0.947-0.454-1.857-0.953-2.672
		c-0.719-0.754-0.997-1.826-0.735-2.834c0.143-0.839-0.003-1.702-0.414-2.447c-0.279-0.681-0.843-1.206-1.543-1.434h-0.056
		c-1.516-0.367-3.215-0.93-3.215-0.93s-0.172,0.033-0.427,0.07l-0.212-0.07c-0.366,0.068-0.735,0.114-1.106,0.139
		c-0.326,0.011-0.644-0.093-0.9-0.295c-0.53-0.579-4.807-1.679-5.6-1.679c-1.061-0.224-2.091-0.576-3.066-1.05l-2.268-1.732
		c-0.767-0.833-1.434-1.753-1.986-2.741l-0.026-0.036l0,0c-0.165-0.375-0.304-0.761-0.417-1.155
		c-0.023-0.073-0.04-0.146-0.063-0.225l0,0c0.46-0.484,0.882-1.004,1.26-1.554v-0.017c0.1-0.142,0.2-0.3,0.295-0.447
		c0.139-0.221,0.273-0.449,0.4-0.685c0.053-0.1,0.1-0.209,0.156-0.308c0.112-0.005,0.224-0.023,0.331-0.056l0.142-0.053
		c0.131-0.06,0.253-0.137,0.364-0.228l0.106-0.1c0.298-0.281,0.525-0.63,0.662-1.016c0.036-0.113,0.07-0.228,0.1-0.331
		c0.005-0.041,0.015-0.081,0.03-0.119c0.01-0.036,0.036-0.159,0.05-0.242l0.02-0.132c0.006-0.079,0.02-0.158,0.04-0.235
		c0.007-0.045,0.007-0.091,0-0.136c0-0.1,0.026-0.2,0.036-0.3c0.046-0.374,0.086-0.742,0.166-1.106c0.002-0.006,0.002-0.011,0-0.017
		c0.173-0.702,0.436-1.378,0.781-2.013c0.331-0.639,0.7-1.268,0.993-1.927l0,0c0.086-0.189,0.169-0.381,0.242-0.573
		s0.146-0.424,0.212-0.639c0.007-0.068,0.023-0.135,0.046-0.2c0.044-0.156,0.079-0.314,0.106-0.473
		c0.018-0.069,0.031-0.139,0.04-0.209c0.04-0.219,0.066-0.437,0.086-0.662c0.107-1.254-0.079-2.515-0.543-3.685
		c-0.394-0.993-0.993-1.871-1.387-2.854c-0.606-1.493-0.765-3.182-1.506-4.605c-1.241-2.383-4.025-3.517-6.578-2.678
		c-1.146,0.424-2.142,1.255-3.311,1.629c-1.556,0.5-3.228,0.122-4.844-0.1s-3.4-0.242-4.7,0.811c-1.493,1.215-1.9,3.5-3.311,4.83
		c-0.341,0.309-0.709,0.586-1.1,0.828c-0.285,0.2-0.573,0.387-0.841,0.609c-0.438,0.346-0.775,0.804-0.977,1.324
		c-0.014,0.037-0.026,0.075-0.036,0.113c-0.015,0.044-0.027,0.09-0.036,0.136c-0.005,0.052-0.012,0.104-0.023,0.156
		c-0.003,0.036-0.003,0.073,0,0.109c-0.005,0.079-0.005,0.159,0,0.238l0,0v0.04c0.007,0.089,0.021,0.178,0.043,0.265v0.073
		c0.016,0.075,0.038,0.148,0.066,0.219c0.002,0.014,0.002,0.029,0,0.043c0.029,0.081,0.062,0.161,0.1,0.238
		c0.009,0.042,0.024,0.082,0.046,0.119c0.019,0.031,0.035,0.065,0.046,0.1c0.205,0.387,0.37,0.794,0.49,1.215
		c0.065,0.268,0.047,0.55-0.05,0.808c-0.051,0.129-0.123,0.248-0.212,0.354c-0.115,0.145-0.239,0.282-0.371,0.411
		c-1.051,1.094-1.864,2.393-2.387,3.817c-0.06,0.162-0.116,0.331-0.169,0.493l0,0l0.069,0.02c1.632-0.474,0.64,0.124,0.728,0.129
		c0.362,0.019,0.725-0.01,1.079-0.086c0.059-0.01,0.117-0.024,0.175-0.04l0,0c0.018-0.003,0.036-0.009,0.053-0.017h0.033
		c0.297-0.077,0.586-0.177,0.867-0.3c0.066-0.03,0.136-0.056,0.2-0.089v1.232c0.251,4.236,2.642,8.053,6.343,10.128
		c0.189,0.109,0.374,0.212,0.566,0.308c0.017,0.113,0.033,0.228,0.046,0.331s0.026,0.189,0.036,0.285l-0.146-0.136
		c-0.124-0.054-0.259-0.081-0.394-0.079c-0.22-0.002-0.437,0.054-0.629,0.162c-0.337,0.193-0.621,0.468-0.824,0.8
		c-0.658,0.893-1.556,1.582-2.589,1.986c0,0-9.6,1.52-9.979,2.778l-4.489,0.265c0,0-1.586,0.209-1.741,3.513v0.076
		c-0.023,0.394-0.053,0.745-0.089,1.059v0.046c-0.278,2.2-0.907,2.437-0.907,2.437s-1.851,3.251-1.692,4.93
		c0.002,0.013,0.002,0.027,0,0.04l0,0c0.022,0.227,0.007,0.456-0.043,0.679c-0.207,0.758-0.705,1.404-1.386,1.796l-0.209,2.98
		c-1.102-0.11-2.089,0.684-2.218,1.784c-0.203,1.083-0.656,2.104-1.324,2.98c0,0-2.9,2.414-3.062,4.456l-1.8,1.1
		c0,0-4.168-0.944-5.122-2.622c0,0-0.113-0.113-0.291-0.275l-0.026-0.04c-0.001,0.007-0.001,0.013,0,0.02
		c-0.54-0.559-1.123-1.073-1.745-1.539c0.123,0.265,0.153,0.564,0.086,0.848l-0.311-0.331l-0.831-0.927c0,0-1.189-1.112-2.86-2.44
		l0,0c-0.382-0.305-0.785-0.616-1.208-0.934c-2.139-1.586-4.711-3.195-6.621-3.437c-0.04-0.079-0.2-0.679-0.573-0.679
		c-0.157,0.013-0.304,0.084-0.411,0.2c-2.24,2.059-2.386,5.544-0.327,7.784c0.093,0.102,0.191,0.2,0.291,0.294l0.434,0.4
		l1.344,1.258l4.536,4.238c0.056,0.04,0.109,0.083,0.166,0.119l0.268,0.331l0.209,0.268l0.361,0.46l0.52,0.662
		c-0.026,0.07-0.056,0.136-0.079,0.2c-0.2,0.477-0.364,0.94-0.5,1.364v0.046c-0.033,0.106-0.066,0.205-0.1,0.3
		c-0.007,0.035-0.018,0.068-0.033,0.1c-0.033,0.1-0.06,0.2-0.089,0.288c-0.019,0.056-0.034,0.114-0.046,0.172
		c-0.009,0.034-0.02,0.067-0.033,0.1c-0.149,0.526-0.242,0.93-0.291,1.155l-0.351-0.109l0.331,0.149
		c0.001,0.019,0.001,0.037,0,0.056l-0.02,0.106c0.1,0.05,0.212,0.1,0.331,0.142l0.076,0.033l1.3,0.573l0,0
		c0.262,0.116,0.546,0.238,0.851,0.377s0.54,0.242,0.834,0.367l0,0c3.39,1.51,8.141,3.678,8.479,4.112
		c1.99,1.716,4.803,2.105,7.184,0.993c1.792-0.857,3.175-2.383,3.85-4.251c0,0,3.066-4.244,3.172-4.873
		c0.079-0.483,1.5-1.03,2.152-1.258l0.063-0.02l0.265-0.086v0.8c0.042,2.35-0.119,4.7-0.483,7.022c-0.002,0.007-0.002,0.013,0,0.02
		c-0.104,0.604-0.281,1.193-0.526,1.755c-1.215,2.569-3.483,13.951-3.483,13.951h0.053c0.132-0.024,0.266-0.031,0.4-0.02
		c-0.046,0.212-0.076,0.377-0.1,0.49s-0.033,0.169-0.033,0.169h0.04c0.127-0.024,0.255-0.032,0.384-0.023
		c0.043,0.002,0.087,0.008,0.129,0.017c-0.006,0.08-0.017,0.159-0.033,0.238v0.083c0,0.013-0.02,0.1-0.026,0.159
		c-0.275,1.894-1.069,6.823-1.069,6.823c-0.134,1.252-0.418,2.484-0.848,3.668c-0.278,0.856-0.428,1.749-0.444,2.649
		c0,0.166-0.023,0.331-0.036,0.5c-0.086,1.4-0.1,2.718-0.1,2.718l-0.023,0.086l-0.778,3.529c0.013,0.034,0.027,0.067,0.043,0.1l0,0
		c0.056,0.106,0.146,0.288,0.275,0.513l0,0l0.04,0.086c0.468,0.954,1.088,1.826,1.834,2.582c0.173,0.172,0.359,0.33,0.556,0.473l0,0
		c-0.004,0.039-0.012,0.078-0.023,0.116c-0.007,0.033-0.02,0.126-0.03,0.185c-0.067,0.456-0.193,0.901-0.374,1.324
		c-0.208,0.456-0.337,0.945-0.381,1.444l0,0c-0.04,0.356-0.051,0.715-0.033,1.073l-0.043,0.2l0,0
		c-0.116,0.54-0.447,2.122-0.626,3.41c-0.043,0.295-0.083,0.579-0.106,0.844c-0.022,0.246-0.022,0.492,0,0.738
		c0.02,0.414-0.002,0.829-0.066,1.238c-0.006,0.122-0.021,0.244-0.043,0.364c-0.179,1.165-0.473,2.387-0.473,2.387l-0.95,9.121v0.54
		c0.002,0.08-0.004,0.16-0.02,0.238c0,0.215-0.033,0.47-0.056,0.768c0,0.111-0.007,0.221-0.02,0.331
		c0.003,0.105-0.004,0.211-0.02,0.315v0.172c0.002,0.088-0.004,0.175-0.017,0.262c-0.008,0.084-0.008,0.168,0,0.252v0.235
		c-0.03,0.487-0.063,1.013-0.086,1.546v0.51c0.004,0.17-0.004,0.341-0.023,0.51v3.37c0.007,0.352,0.033,0.704,0.079,1.053
		c0.036,0.258,0.063,0.53,0.076,0.808v0.384c0.003,0.064,0.003,0.128,0,0.192v1.503c-0.083,1.139-0.238,2.063-0.262,2.208l0,0v0.311
		c0,0.083,0.02,0.189,0.03,0.3v0.166l0,0c-0.003,0.065,0.004,0.129,0.02,0.192c0.02,0.066,0,0.063,0,0.1
		c0,0.119,0.02,0.242,0.033,0.371s0.03,0.268,0.04,0.407l0.02,0.262c0,0.126,0.026,0.258,0.036,0.387v0.132
		c0,0.089,0.02,0.175,0.026,0.268l0.03,0.407c0,0.089,0.02,0.182,0.026,0.271c0.004,0.046,0.004,0.093,0,0.139l0.043,0.536
		c-0.003,0.089,0.003,0.177,0.017,0.265c0,0.139,0.02,0.281,0.033,0.414s0,0.3,0.023,0.444c0.016,0.133,0.023,0.266,0.02,0.4
		c0.038,0.373,0.038,0.749,0,1.122c-0.086,0.377-0.364,1.434-0.523,2.579c0,0.1-0.03,0.205-0.04,0.311
		c-0.005,0.062-0.005,0.123,0,0.185l-0.02,0.248c0,0.2-0.023,0.4-0.023,0.6c-0.015,0.446,0.035,0.892,0.149,1.324
		c0.076,0.287,0.131,0.579,0.165,0.874c-0.002,0.049,0.003,0.099,0.017,0.146c0,0.106,0.023,0.215,0.033,0.331
		s0.017,0.225,0.023,0.331c0,0.232,0.02,0.47,0.03,0.712v0.48c0.023,1.4-0.043,2.764-0.063,3.115v0.086c0,0,0.331,5.877,0.685,7.76
		c0.046,0.248,0.079,0.5,0.1,0.758c-0.003,0.096,0.003,0.193,0.017,0.288c0.046,1.091-0.03,2.184-0.225,3.258
		c-0.099,1.354-0.274,2.702-0.526,4.036c-0.323,0.456-0.489,1.004-0.474,1.563v0.026c-0.025,1.499,0.611,2.932,1.738,3.92
		l0.159,0.156l0.192-0.073c1.549-0.553,3.086-1.129,4.619-1.715c0.814-0.315,1.629-0.629,2.44-0.953
		c2.004-0.793,3.99-1.607,5.959-2.443l0,0c-0.094-0.049-0.162-0.136-0.189-0.238c-0.3-0.811,0.149-3.311,0.242-3.695
		s0.95-8.552,0.95-8.552c-0.178-1.219-0.142-2.459,0.106-3.665c0.437-1.1-0.53-5.353-0.53-5.353
		c-0.192-0.399-0.082-0.877,0.265-1.152c0.6-0.629,0.371-6.241,0.371-6.241s-0.053-2.834-0.053-3.569
		c0.155-1.492,0.565-2.947,1.212-4.3c0.576-0.894,0.215-3.675,0.215-3.675l0,0l0.033-0.212c0.008-0.099,0.024-0.198,0.046-0.295
		l0.05-0.281c0.251-1.536,0.593-3.057,1.026-4.552c0.689-2.2,1.48-6.082,1.48-6.082l4.618-12.385l0,0l0.152-0.384l0.056-0.152
		c1.313,2.504,2.084,5.256,2.263,8.078c0.268,1.964,0.41,3.944,0.427,5.926c0.037,2.401,0.195,4.799,0.473,7.184
		c0,0,0.682,8.5,0.682,8.863s0.848,6.9,1.377,7.9s-0.53,4.039-0.844,4.354s0.106,8.025,0.106,8.025s-0.8,6.082-0.953,7.34
		c-0.03,0.228-0.076,0.573-0.126,0.993c5.3-2.543,10.545-5.228,15.6-8.144c0.219-0.122,0.434-0.245,0.662-0.377l0.036-7.525
		c0.197-1.64,0.179-3.298-0.053-4.933c-0.424-1.42-0.844-4.138-0.262-4.873s0.053-4.142,0.053-4.142s0-7.188,0.791-8.969
		s0.53-13.058,0.53-13.058l0.209-7.4c0,0,1.685-1.6,1.324-9.863v-0.281c1.841-0.116,3.917-0.182,4.231,0.076
		c0.5,0.4,3.337,2.238,5.532,1.781l0,0c0.363-0.069,0.708-0.213,1.013-0.421c0.921-0.632,1.805-1.315,2.649-2.046l-0.841-14.147l0,0
		l-0.089-1.573c0.159,0.242,0.3,0.457,0.417,0.662c0.331,0.5,0.513,0.811,0.513,0.811c0-2.2,6.234-9.333,6.234-9.333
		s5.81-7.5,7.075-8.393s3.751-5.612,3.751-5.612c0.367-0.9,0.79-1.776,1.268-2.622C368.635,115.903,361.75,102.793,361.75,102.793z
		 M348.35,122.876c-0.115,0.521-0.355,1.006-0.7,1.414c-0.027-0.331-0.053-0.639-0.08-0.97v-0.086
		c-0.371-4.615-0.768-10.2-0.586-10.743c0.169-0.892,0.242-1.8,0.219-2.708l0,0c0.023-1.268,0-2.476,0-2.476l0,0l0.06-0.083
		c1.066,3.311,4.373,7.171,4.373,7.171s0.583,1.679,1.268,1.732s0.42,2.2,0.42,2.2c-0.319,0.051-0.624,0.164-0.9,0.331
		c-0.326,0.188-0.638,0.399-0.934,0.632l0,0C349.969,120.442,348.383,122.339,348.35,122.876z"/>
	<path id="Path_443" class="st2" d="M268.651,117.132c0,0,1.927-10.1,8.118-10.151l4.529,9.316l-3.046,2.069
		C278.252,118.366,271.71,118.575,268.651,117.132z"/>
	<path id="Path_444" class="st3" d="M281.285,116.284l-3.033,2.082c-2.654,0.073-5.308-0.149-7.913-0.662
		c-0.58-0.135-1.146-0.327-1.688-0.573c0.004-0.055,0.015-0.11,0.033-0.162c-0.001-0.013-0.001-0.027,0-0.04
		c0.285-1.267,0.677-2.507,1.172-3.708c0.189-0.454,0.407-0.92,0.639-1.387c0.825-1.81,2.199-3.314,3.927-4.3
		c0.645-0.316,1.346-0.5,2.063-0.54h0.275l0.1,0.205l1.53,3.149L281.285,116.284z"/>
	<path id="Path_445" class="st2" d="M332.707,158.235c0,0,6.506-0.622,7.078-0.156s4.267,2.864,6.456,1.354s0.728-6.767,0.728-6.976
		s-0.209-7.651-0.209-7.651l-3.9-5.257l-4.893-9.21l-9.992-0.993l0.258,14.627l-0.05,7.5L332.707,158.235z"/>
	<path id="Path_446" class="st3" d="M332.707,158.235c0,0,6.506-0.622,7.078-0.156s4.267,2.864,6.456,1.354s0.728-6.767,0.728-6.976
		s-0.209-7.651-0.209-7.651l-3.9-5.257l-4.893-9.21l-9.992-0.993l0.258,14.627l-0.05,7.5L332.707,158.235z"/>
	<path id="Path_447" class="st4" d="M275.455,106.71c0,0-0.513,6.35-4.486,6.449c-0.906-0.555-1.784-1.156-2.629-1.8
		c-3.476-2.6-8.989-7.6-7.466-12.25c2.185-6.661,12.8,5.628,12.8,5.628l0.818,0.914L275.455,106.71z"/>
	<path id="Path_448" class="st3" d="M275.455,106.709c0,0-0.513,6.35-4.486,6.449c-0.906-0.555-1.784-1.156-2.629-1.8l-0.331-0.434
		c0.671,0.352,1.412,0.552,2.169,0.586c1.226,0.063,2.359-0.651,2.831-1.784c0.417-0.817,0.784-1.658,1.1-2.519
		c0.189-0.505,0.323-1.029,0.4-1.563L275.455,106.709z"/>
	<path id="Path_449" class="st5" d="M273.736,118.213l-0.891-1.146l-2.98-3.857l-1.545-1.971c0.67,0.35,1.409,0.549,2.165,0.583
		c1.228,0.066,2.364-0.649,2.835-1.785c0.418-0.817,0.785-1.658,1.1-2.52c0.493-1.4,0.483-2.125,0.308-2.37
		c0.61,0.468,1.186,0.979,1.722,1.53l0.023,0.02l0.285,0.271l0.109,0.212l1.506,3.016v0.126
		C278.504,111.278,279.01,117.35,273.736,118.213z"/>
	<path id="Path_450" class="st6" d="M303.95,233.339c-0.095-0.081-0.199-0.15-0.311-0.205h-0.026
		c-0.622-0.261-0.053-3.49,0.053-3.907s0.937-8.469,0.937-8.469c-0.168-1.211-0.132-2.442,0.106-3.642
		c0.417-1.1-0.523-5.3-0.523-5.3c-0.18-0.397-0.073-0.866,0.261-1.146c0.573-0.626,0.364-6.194,0.364-6.194s-0.05-2.807-0.05-3.539
		c0.151-1.481,0.557-2.925,1.2-4.268c0.573-0.887,0.209-3.642,0.209-3.642l0,0l0.03-0.212c0.017-0.076,0.03-0.175,0.046-0.291
		l0.05-0.278c0.006-0.071,0.018-0.142,0.036-0.212c0.03-0.166,0.063-0.331,0.1-0.543c0.02-0.119,0.043-0.245,0.07-0.371
		c0.076-0.4,0.166-0.834,0.262-1.281c0.03-0.139,0.063-0.281,0.1-0.42s0.079-0.331,0.122-0.5c0.026-0.1,0.05-0.2,0.079-0.3
		c0.076-0.3,0.159-0.6,0.248-0.881c0.662-2.188,1.46-6.039,1.46-6.039l4.837-12.707l0.056-0.152l0.152,0.295l0,0
		c1.22,2.401,1.929,5.028,2.082,7.717c0.265,1.949,0.404,3.913,0.417,5.88c0.035,2.383,0.191,4.764,0.47,7.131
		c0,0,0.662,8.429,0.662,8.793s0.834,6.873,1.354,7.86s-0.52,4.009-0.834,4.3s0.106,7.966,0.106,7.966s-0.781,6.035-0.94,7.284
		c-0.033,0.3-0.1,0.8-0.169,1.41l0.4-0.189l0.056-0.03c5.3-2.543,10.545-5.228,15.6-8.144l0.043-7.982
		c0.193-1.626,0.176-3.271-0.05-4.893c-0.414-1.4-0.834-4.112-0.265-4.844s0.056-4.109,0.056-4.109s0-7.131,0.778-8.9
		s0.523-12.962,0.523-12.962l0.205-7.337c0,0,1.7-1.619,1.3-10.068c-0.043-0.9-0.109-1.877-0.2-2.943
		c-0.288-3.188-0.579-6.075-0.844-8.575c-0.023-0.215-0.046-0.427-0.07-0.632c-0.026-0.278-0.06-0.553-0.086-0.821
		c-0.063-0.566-0.123-1.109-0.182-1.626c-0.02-0.152-0.036-0.3-0.053-0.45c-0.086-0.741-0.167-1.426-0.242-2.053
		c-0.026-0.245-0.06-0.487-0.086-0.715c-0.043-0.331-0.083-0.662-0.119-0.97c-0.005-0.074-0.015-0.147-0.03-0.219
		c-0.007-0.128-0.022-0.255-0.046-0.381c-0.172-1.351-0.275-2.089-0.275-2.089h-0.046l-5.234,0.046l-11.425,0.109h-0.334
		l-5.959,0.056h-0.364l-2.86,0.03h-0.487l-5.959,0.056h-0.361l-2.462,10.087l-5,11.452c0,0-0.076,1.255-0.252,2.48v0.073
		c0.004,0.041-0.003,0.082-0.02,0.119c-0.017,0.06-0.027,0.122-0.03,0.185c-0.069,0.556-0.211,1.1-0.421,1.619
		c-0.166,0.362-0.278,0.747-0.331,1.142c-0.065,0.419-0.091,0.844-0.076,1.268l0,0v0.07c0,0-0.4,1.8-0.629,3.341
		c-0.043,0.295-0.083,0.579-0.106,0.844c-0.045,0.321-0.06,0.646-0.046,0.97c0.018,0.331,0.006,0.664-0.036,0.993
		c-0.006,0.122-0.021,0.244-0.043,0.364c-0.162,1.218-0.49,2.582-0.49,2.582l-0.94,9.058c0.001,0.01,0.001,0.02,0,0.03v0.377
		c0.002,0.08-0.004,0.16-0.02,0.238c0,0.215-0.033,0.47-0.056,0.768c0,0.111-0.007,0.221-0.02,0.331
		c0.003,0.105-0.004,0.211-0.02,0.315v0.172c0.002,0.088-0.004,0.175-0.017,0.262c-0.008,0.084-0.008,0.168,0,0.252v0.235
		c-0.026,0.487-0.06,1.013-0.083,1.546v0.51c0.004,0.17-0.004,0.341-0.023,0.51v3.4c0.004,0.37,0.03,0.739,0.079,1.106
		c0.033,0.245,0.06,0.5,0.076,0.755v2.059c-0.083,1.139-0.238,2.063-0.262,2.208l0,0v0.311c0,0.083,0.02,0.189,0.03,0.3v0.166l0,0
		c-0.003,0.065,0.004,0.129,0.02,0.192c0.02,0.066,0,0.063,0,0.1c0,0.119,0.02,0.242,0.033,0.371s0.026,0.268,0.04,0.407l0.02,0.262
		c0,0.126,0.026,0.258,0.036,0.387v0.132c0,0.089,0.02,0.175,0.026,0.268l0.03,0.407c0,0.089,0.02,0.182,0.026,0.271v0.139
		l0.043,0.536c-0.003,0.089,0.002,0.177,0.016,0.265c0,0.139,0.02,0.281,0.033,0.414s0,0.3,0.023,0.444
		c0.016,0.133,0.023,0.266,0.02,0.4c0.033,0.361,0.033,0.725,0,1.086c-0.218,0.862-0.39,1.735-0.516,2.615
		c0,0.1-0.03,0.205-0.04,0.311c-0.005,0.062-0.005,0.123,0,0.185l-0.02,0.248c0,0.2-0.023,0.4-0.023,0.6
		c-0.008,0.421,0.042,0.841,0.149,1.248c0.09,0.361,0.151,0.729,0.182,1.1c0.026,0.212,0.043,0.437,0.056,0.662
		s0.02,0.47,0.03,0.712v0.48c0.02,1.573-0.066,3.076-0.066,3.076c-0.001,0.013-0.001,0.027,0,0.04v0.026
		c0.033,0.662,0.331,5.883,0.662,7.638c0.057,0.311,0.096,0.625,0.116,0.94c-0.003,0.096,0.003,0.193,0.017,0.288
		c0.024,1.02-0.055,2.039-0.235,3.043c-0.138,1.358-0.352,2.708-0.642,4.042c-0.357,0.533-0.521,1.172-0.467,1.811v0.026
		c0.054,1.397,0.674,2.712,1.718,3.642l0.371,0.371c1.549-0.553,3.086-1.129,4.618-1.715c0.814-0.315,1.629-0.629,2.44-0.954
		c2.004-0.793,3.99-1.607,5.959-2.443L303.95,233.339z"/>
	<path id="Path_451" class="st4" d="M331.251,76.936l-7.7,8.227c0,0-9.886-3.973-8.846-5.3c0.4-0.523,0.331-2.175,0.106-4
		c-0.364-2.884-1.146-6.2-1.146-6.2s17.279-2.811,15.819,0.106c-0.466,1.098-0.505,2.331-0.109,3.456
		C329.799,74.554,330.432,75.807,331.251,76.936z"/>
	<path id="Path_452" class="st3" d="M329.48,69.755c-0.53,1.063-0.785,1.165-0.454,2.318c-2.258,2.423-5.132,5.075-8.7,5.075
		c-1.914,0.004-3.802-0.438-5.516-1.291c-0.364-2.884-1.146-6.2-1.146-6.2S330.94,66.838,329.48,69.755z"/>
	<path id="Path_453" class="st4" d="M332.711,64.445c0,6.842-5.547,12.389-12.389,12.389c-6.842,0-12.389-5.547-12.389-12.389
		v-0.179c0.049-6.842,5.636-12.348,12.477-12.298c6.842,0.049,12.348,5.636,12.299,12.477H332.711z"/>
	<path id="Path_454" class="st3" d="M334.499,146.167c-1.655,0-7.1,0.06-13.21,0.156h-0.076l-2.016,0.033h-0.063
		c-7.241,0.116-14.375-1.3-17.239-1.03c-6.092,0.573,2.185-5.628,2.185-5.628c4.538,1.1,9.206,1.571,13.872,1.4l1.751-0.093
		c5.532-0.311,11.094-0.831,14-1.705C333.909,140.92,334.204,143.26,334.499,146.167z"/>
	<path id="Path_455" class="st7" d="M334.499,145.856c-1.655,0-7.1,0.056-13.21,0.156h-0.076l-2.016,0.033h-0.063
		c-7.241,0.116-14.375-1.3-17.239-1.03c-6.092,0.569,2.185-5.628,2.185-5.628c4.538,1.101,9.206,1.572,13.872,1.4l1.751-0.089
		c5.532-0.311,11.094-0.834,14-1.705C333.909,140.609,334.204,142.956,334.499,145.856z"/>
	<path id="Path_456" class="st3" d="M316.988,80.382l-9.578,4.476l-7.386,57.137c0,0,4.37-1.986,6.87-0.728s10.2,0.106,10.2,0.106
		s5.628-0.331,6.453,0.311s10.621-2.6,10.621-2.6s1.768-3.956,0.414-4.579s0.417-6.777,0.417-6.777l-0.831-41.222l-1.655-5.3
		l-4.476-2.7l-4.579,3.642l-2.185,0.315L316.988,80.382z"/>
	<path id="Path_457" class="st5" d="M316.988,79.747l-9.575,4.476l-7.39,57.15c0,0,4.37-1.986,6.87-0.728s10.2,0.1,10.2,0.1
		s5.628-0.311,6.453,0.311s10.621-2.6,10.621-2.6s1.768-3.953,0.414-4.579s0.417-6.767,0.417-6.767l-0.831-41.222l-1.655-5.3
		l-4.476-2.708l-4.579,3.642l-2.185,0.311L316.988,79.747z"/>
	<path id="Path_458" class="st3" d="M316.832,82.402c0,0,2.761,3.278,2.708,3.956s-0.156,2.288-0.156,2.288l-2.066,4.218
		c0,0-1.146,5.257-1.146,6.35s-1.821,10.565-1.821,10.565l-2.185,14.567l-2.761,19.1l2.811,4.84l3.331-2.811l4.42-34.034
		l0.937-6.714c0,0,0.993-12.074,0.993-13.322c-0.11-1.519-0.301-3.031-0.573-4.529c0,0,0.679-3.122,3.49-3.85
		s-0.209-0.159-0.209-0.159l-1.612-1.3l-1.407,0.573C321.586,82.14,317.666,80.946,316.832,82.402z"/>
	<path id="Path_459" class="st8" d="M316.521,82.091c0,0,2.758,3.278,2.708,3.953s-0.159,2.291-0.159,2.291l-2.082,4.218
		c0,0-1.146,5.254-1.146,6.347s-1.821,10.568-1.821,10.568l-2.188,14.567l-2.758,19.1l2.811,4.84l3.331-2.811l4.42-34.031
		l0.937-6.714c0,0,0.993-12.074,0.993-13.326c-0.109-1.518-0.301-3.029-0.573-4.526c0,0,0.662-3.125,3.486-3.854
		s-0.205-0.156-0.205-0.156l-1.616-1.3l-1.4,0.573C321.259,81.83,317.355,80.631,316.521,82.091z"/>
	<path id="Path_460" class="st3" d="M314.7,76.625c0,0-0.417,0.311-0.52,2.394c-0.331,2.295-0.854,4.559-1.563,6.767
		c0,0,5.413-3.748,8.121-3.331L314.7,76.625z"/>
	<path id="Path_461" class="st5" d="M314.7,75.999c0,0-0.417,0.315-0.52,2.394c-0.332,2.295-0.854,4.559-1.563,6.767
		c0,0,5.413-3.748,8.121-3.331L314.7,75.999z"/>
	<path id="Path_462" class="st3" d="M329.483,74.96l-8.522,7.5c0,0,7.184,4.268,8.121,5.3s1.874-10.2,1.874-10.2L329.483,74.96z"/>
	<path id="Path_463" class="st5" d="M329.794,74.334l-8.535,7.5c0,0,7.181,4.268,8.118,5.3s1.874-10.2,1.874-10.2L329.794,74.334z"
		/>
	<path id="Path_464" class="st3" d="M315.002,76.624c0,0-0.937-0.47-1.821,0.884c-0.649,0.885-1.532,1.573-2.549,1.986
		c0,0-9.475,1.51-9.839,2.758l-4.423,0.258c0,0-1.563,0.189-1.708,3.5s-0.993,3.589-0.993,3.589s-1.824,3.228-1.655,4.893
		c0.046,1.034-0.499,2.003-1.407,2.5l6.519,16.9c0,0,0.209,6.976-0.993,9.525s-3.437,13.846-3.437,13.846s0.937-0.209,0.884,0.417
		s-1.146,7.443-1.146,7.443c-0.124,1.244-0.403,2.467-0.831,3.642c-0.52,0.937-0.573,5.83-0.573,5.83l-0.859,3.539
		c0,0,1.986,4.423,5,3.8s8.482-12.438,8.482-12.438l3.486-12.75l2.708-12.6l0.781-8.535l1.248-18.894l1.821-12.491
		C313.697,84.226,315.74,77.508,315.002,76.624z"/>
	<path id="Path_465" class="st9" d="M314.7,75.996c0,0-0.937-0.467-1.821,0.887c-0.65,0.886-1.534,1.574-2.553,1.986
		c0,0-9.472,1.51-9.836,2.758l-4.423,0.262c0,0-1.563,0.209-1.718,3.486s-0.993,3.592-0.993,3.592s-1.821,3.228-1.655,4.893
		c0.048,1.032-0.495,2.002-1.4,2.5l6.5,16.9c0,0,0.209,6.976-0.993,9.525s-3.433,13.846-3.433,13.846s0.937-0.209,0.884,0.417
		s-1.146,7.443-1.146,7.443c-0.124,1.244-0.403,2.467-0.831,3.642c-0.52,0.937-0.573,5.83-0.573,5.83l-0.828,3.556
		c0,0,1.986,4.423,5,3.8s8.485-12.442,8.485-12.442l3.486-12.75l2.708-12.581l0.778-8.535l1.251-18.891l1.821-12.491
		C313.41,83.629,315.429,76.886,314.7,75.996z"/>
	<path id="Path_466" class="st3" d="M281.285,116.284l-3.033,2.082c-2.654,0.073-5.308-0.149-7.913-0.662l-1.682-0.745l-0.331-0.149
		l0.348,0.109c1.339,0.48,2.795,0.532,4.165,0.149c4.274-1.437,3.8-8.492,3.642-10.088c0-0.101-0.012-0.201-0.033-0.3
		c-0.001-0.007-0.001-0.013,0-0.02l0.026,0.04c0.058,0.097,0.125,0.189,0.2,0.275c0.06,0.071,0.124,0.137,0.192,0.2l0,0l1.506,3.016
		v0.126L281.285,116.284z"/>
	<path id="Path_467" class="st9" d="M291.747,95.943l-1.457,0.417l-0.209,2.98c-1.091-0.108-2.065,0.682-2.185,1.771
		c-0.202,1.079-0.646,2.098-1.3,2.98c0,0-2.864,2.394-3.019,4.423l-1.771,1.093c0,0-4.112-0.937-5.049-2.6
		c0,0,1.874,13.428-8.118,10.151c0,0,11.19,4.893,11.71,5.569c1.958,1.696,4.729,2.085,7.078,0.993c1.78-0.866,3.145-2.4,3.8-4.268
		c0,0,3.019-4.215,3.122-4.84s2.447-1.354,2.447-1.354l4.476-10.823L291.747,95.943z"/>
	<path id="Path_468" class="st3" d="M328.284,81.204l1.51-6.87c0,0,0.662,2.238,1.354,2.758s2.238,1.718,2.238,1.718
		c0.959,0.47,1.972,0.821,3.016,1.043c0.778,0,5,1.093,5.519,1.655s2.6,0.156,2.6,0.156s1.718,0.573,3.228,0.937
		s2.238,2.864,1.924,3.85c-0.255,1,0.019,2.061,0.728,2.811c0.497,0.806,0.816,1.709,0.937,2.649c0.767,0.25,1.403,0.793,1.771,1.51
		c0.334,1.183,0.457,2.416,0.364,3.642l-7.754,10.925c0.07,1.72,0,3.443-0.209,5.152c-0.311,0.937,1.093,16.865,1.093,16.865
		l1.612,27.377c-0.827,0.725-1.695,1.403-2.6,2.029c-0.47,0.209-0.937-9.681-0.937-10.045s-12.021-18.01-12.021-18.01
		c-0.654-0.995-1.196-2.06-1.616-3.175c0-0.573-1.51-5.827-1.51-5.827l-2.28-10.129L328.284,81.204z"/>
	<path id="Path_469" class="st9" d="M354.121,96.483c0,0.358-0.02,0.6-0.02,0.6l-7.75,10.925l0,0
		c0.071,1.721,0.003,3.445-0.205,5.155c-0.182,0.543,0.215,6.145,0.583,10.743c0.262,3.311,0.51,6.118,0.51,6.118l0.681,11.607
		l0.927,15.766c-0.828,0.725-1.696,1.402-2.6,2.029c-0.467,0.209-0.937-9.681-0.937-10.048s-12.031-18.014-12.031-18.014
		c-0.653-0.997-1.193-2.063-1.612-3.178c0-0.573-1.51-5.83-1.51-5.83l-2.288-10.147l1.04-31.022l0.884-6.87
		c0.553,0.993,1.22,1.919,1.986,2.758c0.685,0.516,2.235,1.718,2.235,1.718c0.96,0.471,1.974,0.821,3.019,1.043
		c0.781,0,5,1.093,5.519,1.655s2.6,0.156,2.6,0.156s1.715,0.573,3.225,0.937s2.238,2.864,1.927,3.85
		c-0.257,1,0.018,2.062,0.728,2.811c0.496,0.807,0.815,1.71,0.937,2.649c0.766,0.251,1.402,0.793,1.771,1.51
		C354.045,94.4,354.174,95.442,354.121,96.483z"/>
	<path id="Path_470" class="st3" d="M297.875,235.832c-0.811,0.331-1.626,0.639-2.44,0.953c-2.553-0.745-4.936-1.622-4.936-1.622
		C292.968,235.251,295.431,235.475,297.875,235.832z"/>
	<path id="Path_471" class="st3" d="M322.507,208.045c0,0,6.194,1.457,6.559,2.447L322.507,208.045z"/>
	<path id="Path_472" class="st3" d="M298.617,212.521c0,0-3.228,0.937-0.1,2.811S298.617,212.521,298.617,212.521z"/>
	<path id="Path_473" class="st3" d="M312.929,162.489c0.364,0,6.039-1.874,8.015-1.04c1.417,0.529,2.914,0.811,4.426,0.831
		L312.929,162.489z"/>
	<path id="Path_474" class="st3" d="M313.677,168.449l-0.056,0.516l-4.854,12.69c0,0-0.781,3.85-1.46,6.036
		c-0.426,1.485-0.764,2.994-1.013,4.519l4.3-26.635L313.677,168.449z"/>
	<path id="Path_475" class="st6" d="M321.216,146.011l-2.016,0.033h-0.065l-1.182-5.247c0.579-0.026,1.165-0.056,1.751-0.093
		L321.216,146.011z"/>
	<path id="Path_476" class="st4" d="M345.772,139.645l-1.295,1.069l-4.314,3.566c0,0-11.71,6.247-14.935,0.311
		c-2.844-5.228,10.432-8.959,13.63-9.773c0.434-0.109,0.682-0.166,0.682-0.166L345.772,139.645z"/>
	<path id="Path_477" class="st3" d="M295.756,88.491c0,0,2.288,1.043,2.807,2.5S295.756,88.491,295.756,88.491z"/>
	<path id="Path_478" class="st3" d="M288.675,104.107c0,0-3.331,4.059-1.986,5.628S288.675,104.107,288.675,104.107z"/>
	<path id="Path_479" class="st3" d="M348.218,90.782c0,0-3.122,0.311-3.228,3.019L348.218,90.782z"/>
	<path id="Path_480" class="st3" d="M319.279,133.46c0.331-0.311,7.5-10.925,9.161-9.992L319.279,133.46z"/>
	<path id="Path_482" class="st10" d="M318.785,60.65c0.225,0.377,0.285,0.867,0.586,1.179c0.5,0.513,1.3,0.248,1.986,0.262
		c1.6,0.026,2.761,1.718,3.148,3.387s0.262,3.443,0.662,5.108c-0.084-1.079,0.451-2.113,1.381-2.668
		c0.923-0.484,2.052-0.325,2.807,0.394c0.6,0.569,0.993,1.483,1.794,1.655s1.543-0.589,1.828-1.417
		c0.2-0.855,0.349-1.72,0.447-2.592c0.354-1.626,1.414-2.956,1.986-4.5c0.698-1.879,0.679-3.949-0.053-5.814
		c-0.391-0.993-0.97-1.857-1.367-2.834c-0.6-1.483-0.755-3.155-1.483-4.569c-1.21-2.363-3.964-3.488-6.482-2.649
		c-1.132,0.427-2.819-1.432-3.968-1.064c-1.536,0.493-3.319,1.286-4.912,1.064s-2.512,1.278-3.794,2.324
		c-1.473,1.205-1.877,3.47-3.261,4.794c-0.583,0.556-1.3,0.91-1.917,1.424c-0.673,0.493-1.072,1.277-1.073,2.112
		c0.093,1.079,1.149,2.059,0.758,3.056c-0.14,0.29-0.337,0.548-0.579,0.761c-1.158,1.216,0.5,1.261,0,2.865
		c2.788,0.871,3.281-0.779,5.463-2.219C314.185,59.74,317.65,58.803,318.785,60.65z"/>
	<path id="Path_483" class="st3" d="M345.772,139.645l-1.295,1.069c-1.142-1.9-5.833-5.7-5.833-5.7l0.2-0.2
		c0.434-0.109,0.682-0.166,0.682-0.166L345.772,139.645z"/>
	<path id="Path_484" class="st5" d="M347.023,137.728c0,0-0.467,1.159-0.947,2.162s-0.993,1.91-1.033,1.172
		c-0.053-1.46-6.089-6.353-6.089-6.353l0.818-0.795l0.95-0.924L347.023,137.728z"/>
	<path id="Path_485" class="st3" d="M347.231,130.024l0.682,11.614c-1.616-2.513-6.055-8.959-8.909-8.75l6.923-7.946
		c0.289-0.32,0.555-0.661,0.795-1.02C346.983,127.226,347.231,130.024,347.231,130.024z"/>
	<path id="Path_486" class="st3" d="M347.026,137.728c0,0-0.467,1.159-0.947,2.162c-1.814-2.49-4.3-5.426-6.29-5.976l0.95-0.924
		L347.026,137.728z"/>
	<path id="Path_487" class="st9" d="M352.227,95.612l1.874,1.457c0,0,3.122,0.053,3.433,2.649s3.175,3.8,3.175,3.8
		s2.135,2.132,2.135,3.122s1.612,2.758,1.612,2.913s1.563,3.331,1.354,3.9s1.655,3.072,1.093,4.009
		c-0.47,0.84-0.887,1.708-1.248,2.6c0,0-2.447,4.685-3.7,5.569s-6.972,8.327-6.972,8.327s-6.141,7.078-6.141,9.27
		c0,0-5.986-10-9.525-9.734l6.923-7.962c0,0,1.2-1.3,1.248-2.082s3.331-4.373,4.893-4.529c0,0,0.258-2.135-0.417-2.185
		s-1.248-1.718-1.248-1.718s-4.582-5.413-4.635-8.85S352.227,95.612,352.227,95.612z"/>
	<path id="Path_488" class="st3" d="M354.986,100.578c0,0-4.373,3.225-3.437,4.268S354.986,100.578,354.986,100.578z"/>
	<path id="Path_489" class="st3" d="M355.194,113.89c0,0,8.118-2.6,8.939,0H355.194z"/>
	<path id="Path_490" class="st3" d="M297.914,99.943c0,0,0,11.866-1.016,13.038S297.914,99.943,297.914,99.943z"/>
	<path id="Path_491" class="st3" d="M344.835,103.766l1.51,4.241C346.345,108.007,346.944,103.845,344.835,103.766z"/>
	<g id="Group_2328" transform="translate(304.78 55.294)" class="st11">
		<path id="Path_492" d="M3.269,2.98C3.65,2.003,2.653,1.047,2.521,0C2.39,0.295,2.333,0.618,2.355,0.94
			c0.066,0.791,0.662,1.526,0.8,2.258C3.2,3.129,3.238,3.056,3.269,2.98z"/>
		<path id="Path_494" d="M28.354,12.237c-0.285,0.828-1.026,1.586-1.828,1.417s-1.192-1.079-1.791-1.655
			c-0.757-0.717-1.887-0.874-2.811-0.391c-0.884,0.527-1.413,1.491-1.381,2.52c0.209-0.636,0.645-1.172,1.225-1.506
			c0.923-0.484,2.052-0.325,2.807,0.394c0.6,0.569,0.993,1.483,1.794,1.655s1.543-0.589,1.828-1.417
			c0.147-0.489,0.243-0.991,0.285-1.5c-0.034,0.162-0.077,0.322-0.129,0.48L28.354,12.237z"/>
		<path id="Path_495" d="M30.801,5.148c-0.586,1.543-1.655,2.874-1.986,4.5c-0.073,0.331-0.113,0.662-0.152,0.993
			c0.354-1.616,1.41-2.943,1.986-4.483c0.261-0.693,0.423-1.42,0.48-2.159C31.05,4.39,30.941,4.774,30.801,5.148z"/>
	</g>
	<circle id="Ellipse_87" class="st12" cx="260.364" cy="97.999" r="0.129"/>
	<path id="Path_496" class="st13" d="M156.318,170.643c0,0,3.642-2.612,7.426-0.993c0,0-1.059,2.245-5.761,2.215L156.318,170.643z"
		/>
	<path id="Path_497" class="st13" d="M155.864,170.796c0,0-0.973,4.38,1.986,7.221c0,0,1.655-1.854-0.222-6.168L155.864,170.796z"/>
	<path id="Path_498" class="st13" d="M151.037,166.81c0,0,0.136-3.7,8.509-2.794c-0.068,1.663-1.165,3.107-2.748,3.619
		C153.917,168.872,152.543,167.975,151.037,166.81z"/>
	<path id="Path_499" class="st13" d="M150.523,166.793c0,0-3.476,1.265-0.04,8.956c1.565-0.573,2.604-2.064,2.6-3.731
		C153.357,168.893,152.093,167.879,150.523,166.793z"/>
	<path id="Path_500" class="st13" d="M145.611,161.754c0,0-0.708-6.049,7.827-5.754c0,0,0.814,5.469-6.267,7.154L145.611,161.754z"
		/>
	<path id="Path_501" class="st13" d="M139.724,155.119c0,0,0.9-6.923,9.489-5.2c0,0,0.258,5.959-8.038,6.784L139.724,155.119z"/>
	<path id="Path_502" class="st14" d="M135.344,148.193c0,0,1.7-6.787,10.2-5.089c0,0-1.775,6.1-9.6,6.29L135.344,148.193z"/>
	<path id="Path_503" class="st14" d="M131.176,141.431c0,0,1.655-7.025,9.856-5.248c0,0-2.463,6.708-9.27,6.413L131.176,141.431z"/>
	<path id="Path_504" class="st14" d="M128.405,134.953c0,0,1.142-8.552,8.81-6.969c0,0-1.907,7.82-8.2,8.184L128.405,134.953z"/>
	<path id="Path_505" class="st14" d="M125.743,127.104c0,0,1.434-8.638,9.2-6.439c0,0-2.7,8.214-8.608,7.615L125.743,127.104z"/>
	<path id="Path_506" class="st14" d="M123.998,119.78c0,0,2.47-8.677,8.416-8.674c0,0-2.516,9.161-7.853,10.373L123.998,119.78z"/>
	<path id="Path_507" class="st14" d="M122.796,112.599c0,0,2.649-10.432,7.509-9.823c0,0-1.8,7.966-7.284,11.422L122.796,112.599z"
		/>
	<path id="Path_508" class="st14" d="M121.939,104.008c0,0,2.523-8.707,7.284-9.23c0,0-1.619,8.532-7.088,11.458L121.939,104.008z"
		/>
	<path id="Path_509" class="st14" d="M121.055,96.013c0,0,3.228-8.74,6.373-9.055c0,0-1.222,8.532-6.006,10.455L121.055,96.013z"/>
	<path id="Path_510" class="st14" d="M120.373,88.563c0,0,1.831-9.432,4.946-10.326c0,0-0.136,7.661-4.6,11.012L120.373,88.563z"/>
	<path id="Path_511" class="st14" d="M118.814,78.84c0,0,2.016-7.539,4.522-8.77c0,0-0.169,8.8-3.86,10.568L118.814,78.84z"/>
	<path id="Path_512" class="st14" d="M117.586,72.46l-0.967-13.12c0,0,5.135,9.734,1.394,15.415L117.586,72.46z"/>
	<path id="Path_513" class="st14" d="M113.404,59.545c0,0-3.794-9.459-4.635-9.962c0,0,6.953,5.959,6.621,13.994L113.404,59.545z"/>
	<path id="Path_514" class="st13" d="M145.376,161.718c0,0-6.065-0.556-5.559,7.966c0,0,5.489,0.662,7-6.443L145.376,161.718z"/>
	<path id="Path_515" class="st13" d="M139.43,154.901c0,0-6.976,0.245-6.072,8.939c0,0,5.893,0.821,7.512-7.356L139.43,154.901z"/>
	<path id="Path_516" class="st13" d="M135.298,148.763c0,0-6.446-2.728-10.2,5.089c0,0,5.943,2.251,10.81-3.874L135.298,148.763z"/>
	<path id="Path_517" class="st13" d="M131.037,141.495c0,0-6.6-2.91-10.124,4.721c0,0,6.843,2.066,10.7-3.556L131.037,141.495z"/>
	<path id="Path_518" class="st13" d="M128.491,135.136c0,0-6.466-5.721-11.213,0.5c0,0,6.562,4.658,11.551,0.818L128.491,135.136z"
		/>
	<path id="Path_519" class="st13" d="M126.091,126.889c0,0-6.512-5.857-11.207,0.709c0,0,7.237,4.731,11.478,0.56L126.091,126.889z"
		/>
	<path id="Path_520" class="st14" d="M124.634,119.504c0,0-5.128-7.423-10.753-5.509c0,0,5.324,7.866,10.767,7.284L124.634,119.504z
		"/>
	<path id="Path_521" class="st14" d="M122.932,112.546c0,0-5.241-9.4-9.783-7.562c0,0,3.794,7.234,9.972,9.167L122.932,112.546z"/>
	<path id="Path_522" class="st14" d="M122.251,103.505c0,0-5.3-7.353-9.952-6.251c0,0,4.383,7.492,10.522,8.416L122.251,103.505z"/>
	<path id="Path_523" class="st14" d="M121.578,95.824c0,0-4.2-8.317-7.366-8.277c0,0,2.188,8.336,7.158,9.7L121.578,95.824z"/>
	<path id="Path_524" class="st14" d="M120.522,88.372c0,0-4.635-8.409-7.886-8.3c0,0,2.49,7.247,7.77,9.062L120.522,88.372z"/>
	<path id="Path_525" class="st14" d="M119.525,79.336c0,0-3.5-6.972-6.2-7.671c0,0,1.943,8.585,5.92,9.568L119.525,79.336z"/>
	<path id="Path_526" class="st14" d="M117.192,72.225l-7.635-10.714c0,0,2.265,10.767,8.767,12.763L117.192,72.225z"/>
	<path id="Path_527" class="st14" d="M111.785,60.491c0,0-8.608-5.466-8.939-6.386c0,0,4.589,7.946,12.548,9.068L111.785,60.491z"/>
	<path id="Path_528" class="st14" d="M111.182,57.909c0,0-9.979-8.883-12.435-8.78c5.352,0.421,10.12,3.541,12.647,8.277
		L111.182,57.909z"/>
	<path id="Path_529" class="st15" d="M119.485,80.714l-0.351,0.06c-2.351-14.087-5.3-22.354-8.327-23.275l0.1-0.331
		C114.112,58.135,117.075,66.282,119.485,80.714z"/>
	<path id="Path_530" class="st15" d="M123.439,114.464l-0.526,0.066c-0.162-1.324-0.3-2.668-0.411-4.013
		c-0.953-11.7-2.149-22.43-3.486-30.459l0.291-0.391c1.324,8.042,2.771,19.09,3.728,30.79
		C123.141,111.812,123.28,113.159,123.439,114.464z"/>
	<path id="Path_531" class="st15" d="M166.46,177.006c-7.274-3.3-13.92-7.837-19.643-13.409
		c-5.891-5.597-10.858-12.091-14.716-19.242c-4.824-8.939-7.982-20.037-9.313-30.883l0.563,0.238
		c2.98,24.341,14.746,40.61,23.933,49.35c5.663,5.517,12.238,10.012,19.434,13.286L166.46,177.006z"/>
	<g id="Group_2329" transform="translate(146.202 33.066)" class="st16">
		<path id="Path_532" class="st13" d="M26.851,133.141c0,0,4.258-1.407,7.383,1.255c0,0-1.679,1.831-6.158,0.4L26.851,133.141z"/>
		<path id="Path_533" class="st13" d="M26.371,133.148c0,0-2.231,3.893-0.245,7.489c0,0,2.129-1.281,1.622-5.959L26.371,133.148z"/>
		<path id="Path_534" class="st13" d="M22.948,127.911c0,0,1.232-3.493,8.939-0.136c-0.559,1.569-2.034,2.625-3.7,2.649
			C25.067,130.755,24.041,129.47,22.948,127.911z"/>
		<path id="Path_535" class="st13" d="M22.468,127.768c0,0-3.7,0.175-2.7,8.538c1.661-0.087,3.092-1.2,3.586-2.788
			C24.558,130.625,23.64,129.245,22.468,127.768z"/>
		<path id="Path_536" class="st14" d="M19.27,121.477c0,0,1.126-5.986,9.184-3.165c0,0-0.851,5.463-8.111,4.966L19.27,121.477z"/>
		<path id="Path_537" class="st14" d="M15.625,113.383c0,0,2.923-6.34,10.594-2.139c0,0-1.52,5.751-9.691,4.082L15.625,113.383z"/>
		<path id="Path_538" class="st14" d="M13.503,105.467c0,0,3.642-5.976,11.257-1.824c0,0-3.509,5.3-11.038,3.165L13.503,105.467z"/>
		<path id="Path_539" class="st14" d="M11.539,97.766c0,0,3.662-6.218,10.975-2.079c0,0-4.347,5.671-10.767,3.364L11.539,97.766z"/>
		<path id="Path_540" class="st14" d="M10.821,90.76c0,0,3.642-7.83,10.475-4.033c0,0-4.148,6.9-10.263,5.373L10.821,90.76z"/>
		<path id="Path_541" class="st14" d="M10.612,82.477c0,0,3.94-7.82,10.7-3.41c0,0-5.022,7.039-10.488,4.691L10.612,82.477z"/>
		<path id="Path_542" class="st14" d="M11.129,74.958c0,0,4.94-7.548,10.614-5.777c0,0-5.128,8-10.594,7.568L11.129,74.958z"/>
		<path id="Path_543" class="st14" d="M12.115,67.754c0,0,5.628-9.174,10.091-7.141c0,0-4.1,7.065-10.346,8.737L12.115,67.754z"/>
		<path id="Path_544" class="st14" d="M13.856,59.292c0,0,5-7.558,9.694-6.645c0,0-4.082,7.664-10.177,8.833L13.856,59.292z"/>
		<path id="Path_545" class="st14" d="M15.386,51.399c0,0,5.685-7.386,8.78-6.751c0,0-3.7,7.78-8.843,8.2L15.386,51.399z"/>
		<path id="Path_546" class="st14" d="M16.952,44.082c0,0,4.552-8.459,7.8-8.386c0,0-2.41,7.284-7.674,9.144L16.952,44.082z"/>
		<path id="Path_547" class="st14" d="M18.359,34.336c0,0,4.165-6.6,6.926-7.029c0,0-2.781,8.353-6.83,8.939L18.359,34.336z"/>
		<path id="Path_548" class="st14" d="M19.081,27.877l2.98-12.809c0,0,2.01,10.816-3.245,15.14L19.081,27.877z"/>
		<path id="Path_549" class="st14" d="M18.932,14.305c0,0-0.808-10.161-1.467-10.892c0,0,4.877,7.767,2.152,15.329L18.932,14.305z"
			/>
		<path id="Path_550" class="st14" d="M19.054,121.365c0,0-5.624-2.345-7.67,5.955c0,0,5.036,2.281,8.608-4.069L19.054,121.365z"/>
		<path id="Path_551" class="st14" d="M15.411,113.085c0,0-6.731-1.841-8.459,6.741c0,0,5.38,2.539,9.363-4.787L15.411,113.085z"/>
		<path id="Path_552" class="st14" d="M13.291,105.996c0,0-5.34-4.522-11.257,1.824c0,0,5,3.917,11.472-0.483L13.291,105.996z"/>
		<path id="Path_553" class="st14" d="M11.384,97.793c0,0-5.436-4.744-11.068,1.5c0,0,5.916,4.006,11.276-0.215L11.384,97.793z"/>
		<path id="Path_554" class="st14" d="M10.851,90.962c0,0-4.473-7.386-10.853-2.864c0,0,4.877,6.4,10.783,4.218L10.851,90.962z"/>
		<path id="Path_555" class="st14" d="M11.009,82.372c0,0-4.476-7.525-10.925-2.649c0,0,5.5,6.671,10.793,3.95L11.009,82.372z"/>
		<path id="Path_556" class="st14" d="M11.811,74.889c0,0-2.685-8.608-8.628-8.459c0,0,2.745,9.1,8.111,10.174L11.811,74.889z"/>
		<path id="Path_557" class="st14" d="M12.265,67.737c0,0-2.208-10.535-7.092-10.128c0,0,1.47,8.035,6.794,11.717L12.265,67.737z"/>
		<path id="Path_558" class="st14" d="M14.299,58.905c0,0-2.87-8.608-7.645-8.939c0,0,1.96,8.462,7.542,11.167L14.299,58.905z"/>
		<path id="Path_559" class="st14" d="M15.943,51.373c0,0-1.539-9.191-4.572-10.088c0,0-0.391,8.608,3.95,11.4L15.943,51.373z"/>
		<path id="Path_560" class="st14" d="M17.168,43.943c0,0-1.93-9.409-5.059-10.263c0,0,0.219,7.658,4.724,10.962L17.168,43.943z"/>
		<path id="Path_561" class="st14" d="M18.889,35.024c0,0-1.268-7.7-3.642-9.174c0,0-0.7,8.777,2.8,10.9L18.889,35.024z"/>
		<path id="Path_562" class="st14" d="M18.776,27.539l-4.1-12.5c0,0-1.043,10.955,4.572,14.8L18.776,27.539z"/>
		<path id="Path_563" class="st14" d="M17.104,14.729c0,0-6.592-7.78-6.621-8.76c0,0,2.016,8.939,9.27,12.389L17.104,14.729z"/>
		<path id="Path_564" class="st14" d="M17.297,12.084c0,0-6.883-11.452-9.27-12.084c4.984,1.992,8.605,6.393,9.6,11.667
			L17.297,12.084z"/>
		<path id="Path_565" class="st15" d="M18.439,36.325l-0.351-0.05c1.947-14.147,1.583-22.92-1.026-24.7l0.2-0.291
			C20.028,13.17,20.436,21.824,18.439,36.325z"/>
		<path id="Path_566" class="st15" d="M12.175,69.724l-0.523-0.1c0.238-1.308,0.507-2.649,0.8-3.953
			c2.569-11.452,4.635-22.053,5.731-30.128l0.394-0.285c-1.112,8.075-3.033,19.05-5.608,30.515
			C12.682,67.102,12.412,68.423,12.175,69.724z"/>
		<path id="Path_567" class="st15" d="M34.642,142.232c-5.963-5.313-10.959-11.621-14.763-18.643
			c-3.966-7.095-6.781-14.774-8.34-22.751c-1.947-9.972-1.655-21.52,0.295-32.253l0.467,0.394
			c-4.387,24.129,1.986,43.159,8.168,54.237c3.761,6.953,8.701,13.201,14.6,18.464L34.642,142.232z"/>
	</g>
	
		<linearGradient id="Path_568_1_" gradientUnits="userSpaceOnUse" x1="-304.1492" y1="621.8284" x2="-304.1492" y2="622.8284" gradientTransform="matrix(83.5803 0 0 -130.3892 25483.7773 81288.8516)">
		<stop  offset="0" style="stop-color:#808080;stop-opacity:0.251"/>
		<stop  offset="0.54" style="stop-color:#808080;stop-opacity:0.122"/>
		<stop  offset="1" style="stop-color:#808080;stop-opacity:0.102"/>
	</linearGradient>
	<path id="Path_568" class="st17" d="M101.724,144.8c-0.778,0.321-1.587,0.563-2.414,0.722c-1.444,0.27-2.91,0.409-4.38,0.414
		c0.043,0.387,0.076,0.748,0.109,1.076c0.079,0.9,0.126,1.52,0.126,1.52l-1.553-0.106l-12.805-0.875l-7.49-1.105
		c0.361,0.485,0.754,0.947,1.175,1.381c0.437,0.462,0.943,0.854,1.5,1.162c0,0,6.757,5.473,7.926,5.522
		c0.166,0,0.219,0.166,0.192,0.427c2.844,0,11.687,0.414,9.234,5.337c-0.406,0.878-1.122,1.575-2.01,1.957
		c-2.837,1.2-7.118-0.96-9.323-2.288c-0.215,0.42-0.42,0.811-0.6,1.146c-0.374,0.705-0.636,1.172-0.636,1.172l-0.222-0.159
		l-11.362-8.091l-2.49-2.112c-0.731-0.033-1.455-0.159-2.155-0.374l0,0l-0.331-0.106c-0.014,0.029-0.026,0.058-0.036,0.089
		c-0.09,0.259-0.157,0.525-0.2,0.795v0.119c-0.047,0.308-0.078,0.619-0.093,0.93c0,0.212-0.017,0.437-0.017,0.662
		c-0.02,4.509,1.788,11.756,1.788,11.756s4.685,11.948,3.023,14.706l0,0c-0.086,0.14-0.198,0.262-0.331,0.358
		c-0.617,0.53-1.016,1.269-1.119,2.076c-0.619,2.927,0.467,7.393,0.467,7.393s-0.1,0.166-0.268,0.424
		c-0.365,0.584-0.777,1.137-1.232,1.655c-0.07,0.079-0.142,0.162-0.219,0.238c-0.205,0.217-0.426,0.417-0.662,0.6
		c0.043,0.129,0.089,0.262,0.136,0.4s0.106,0.364,0.152,0.563c0.369,1.627,0.224,3.328-0.414,4.87
		c-0.434,1.124-0.714,2.301-0.834,3.5l0,0c-0.215,2.195-0.158,4.407,0.169,6.588c-0.05-0.026-0.093-0.053-0.142-0.076
		c-3.662-1.913-7.272-3.913-10.829-6c-1.043-0.6-2.079-1.218-3.109-1.837c-1.267-0.764-2.528-1.537-3.784-2.318
		c-1.655-1.033-3.311-2.091-4.966-3.175l-0.775-0.516l-0.3-0.2c-0.42-0.281-0.834-0.563-1.251-0.848
		c-1.712-2.212-3.275-4.535-4.681-6.953c-0.235-0.42-0.447-0.821-0.622-1.189v-0.02l-0.113-0.242l-0.467-0.166l0,0
		c-0.877-0.308-1.434-0.523-1.434-0.523l0,0c0.405-1.477,0.599-3.004,0.576-4.536c0.057-3.823-1.483-7.496-4.248-10.137
		c-5.019-4.744-5.711-9.429-5.784-11.227v-0.333c-0.002-0.152,0.005-0.303,0.02-0.454L23,158.025
		c-0.973-0.2-1.887-0.285-1.887-0.285s3.331-12.051,8.939-16.074c2.781-1.986,5.1-5.3,6.731-8.138
		c2.983-5.135,6.334-10.048,10.025-14.7l1.01-1.275l0.295-0.374l0.063-0.076l0.079-0.106c-0.137-0.207-0.276-0.413-0.417-0.616
		l-0.093-0.136c-0.487-0.598-0.755-1.345-0.758-2.116v-0.183c0.014-0.132,0.038-0.263,0.073-0.391
		c0.011,0.021,0.025,0.041,0.04,0.06c0.473-1.377,2.3-1.986,3.642-2.748c3.168-1.781,4.519-5.678,5.2-9.3
		c0.526-2.821,0.963-5.983,3.149-7.793c1.41-1.165,3.311-1.549,4.738-2.7c0.826-0.73,1.508-1.607,2.013-2.586
		c0.331-0.563,0.616-1.146,0.924-1.708c1.329-2.598,3.297-4.816,5.718-6.446c2.437-1.615,5.481-2.018,8.254-1.093
		c1.036,0.394,1.986,0.993,2.98,1.434c0.613,0.25,1.247,0.447,1.894,0.589c2.023,0.473,4.152,0.6,6.052,1.44
		c3.089,1.371,5.1,4.4,6.933,7.284c1.284,1.842,2.386,3.805,3.291,5.86V95.62c0.409,0.965,0.633,1.998,0.662,3.046
		c0.017,0.446-0.031,0.892-0.142,1.324c-0.314,1.047-1.065,1.907-2.059,2.361l-0.156,0.076c-0.209,0.107-0.423,0.203-0.642,0.288
		c-0.033,0.182-0.07,0.367-0.109,0.546c-0.017,0.076-0.036,0.156-0.056,0.232c-0.043,0.185-0.093,0.367-0.146,0.55
		c-0.708,2.366-2.088,4.476-3.973,6.072c-1.311,1.115-2.826,1.965-4.46,2.505c-0.116,0.04-0.238,0.07-0.354,0.106
		c-0.098,0.277-0.239,0.537-0.417,0.771c-0.129,0.165-0.28,0.311-0.45,0.434c-0.106,0.072-0.216,0.136-0.331,0.192
		c-0.028,0.018-0.058,0.032-0.089,0.043c-1.356,0.439-2.842,0.183-3.973-0.685c-0.06-0.04-0.116-0.086-0.172-0.129
		c-0.005,0.199-0.027,0.397-0.063,0.593c-0.033,0.205-0.056,0.331-0.093,0.5s-0.05,0.255-0.073,0.377s-0.04,0.205-0.06,0.3
		l-0.04,0.169c-0.656,3.195-1.907,6.239-3.688,8.972c-0.258,0.391-0.538,0.768-0.838,1.129l-0.821,1.251v0.169
		c0.073,2.777-0.667,5.514-2.129,7.876c-0.448,0.766-0.94,1.506-1.473,2.215l0.185,0.109c1.854,1.056,5.509,2.933,7.82,2.774
		c0,0,8.74,1.129,9.753,0.563c0.139-0.079,0.275,0.03,0.4,0.265c1.414-0.861,4.665-2.685,7.231-2.927
		c1.794-0.172,3.254,0.427,3.526,2.649S103.597,143.996,101.724,144.8z"/>
	<path id="Path_569" class="st18" d="M53.88,190.325c1.134,1.935,1.31,4.285,0.477,6.367c-0.694,2.049-0.97,4.216-0.811,6.373
		c-1.043-0.6-2.079-1.218-3.109-1.837c-1.267-0.764-2.528-1.537-3.784-2.318c-1.655-1.033-3.311-2.091-4.966-3.175l-0.775-0.516
		l-0.3-0.2c-0.027-0.048-0.061-0.093-0.1-0.132c-1.682-2.222-3.208-4.558-4.566-6.992c-0.278-0.516-0.52-0.993-0.712-1.43v-0.023
		c-0.286-0.48-0.42-1.035-0.387-1.592c0.243-0.853,0.823-1.57,1.606-1.986c1.907-0.993,4.966-0.076,7.992,1.384
		c2.603,1.316,5.099,2.836,7.462,4.546l0.268,0.2l0.026,0.02c0.993,0.705,1.569,1.172,1.569,1.172
		C53.809,190.23,53.846,190.277,53.88,190.325z"/>
	<path id="Path_570" class="st19" d="M53.376,189.885c1.136,1.936,1.312,4.289,0.477,6.373c-0.694,2.05-0.97,4.219-0.811,6.377
		c-1.042-0.607-2.078-1.22-3.109-1.841c-1.267-0.764-2.528-1.537-3.784-2.318c-1.655-1.036-3.311-2.1-4.95-3.178l-0.775-0.516
		l-0.3-0.2c-0.028-0.048-0.062-0.092-0.1-0.132c-1.684-2.221-3.21-4.557-4.566-6.992c-0.278-0.516-0.52-0.993-0.712-1.43v-0.02
		c-0.286-0.482-0.421-1.04-0.387-1.6c0.244-0.852,0.824-1.569,1.606-1.986c1.907-0.993,4.966-0.076,7.992,1.384
		c2.603,1.316,5.099,2.836,7.462,4.546l0.268,0.2l0.026,0.02c0.993,0.705,1.569,1.172,1.569,1.172S53.317,189.789,53.376,189.885z"
		/>
	<path id="Path_571" class="st18" d="M65.567,197.914c-0.096,0.567-0.253,1.122-0.467,1.655c-0.367,0.96-0.619,1.961-0.752,2.98l0,0
		c-0.261,2.163-0.252,4.351,0.026,6.512c-3.662-1.913-7.272-3.913-10.829-6c-1.043-0.6-2.079-1.218-3.109-1.837
		c-0.062-1.281-0.38-2.536-0.937-3.691c-1.851-2.437-3.531-5-5.026-7.671c-0.225-0.4-0.42-0.781-0.6-1.146v-0.017
		c-0.07-0.146-0.136-0.285-0.2-0.424c-0.384-0.621-0.581-1.339-0.566-2.069c0.232-0.785,0.71-1.474,1.364-1.967
		c2.937-2.145,9.042,0.758,13.73,3.642l0.116,0.07c0.887,0.553,1.728,1.1,2.483,1.609l0.44,0.3c1.94,1.324,3.228,2.354,3.228,2.354
		c0.32,0.494,0.577,1.025,0.765,1.583c0.111,0.314,0.202,0.635,0.275,0.96C65.737,195.795,65.757,196.868,65.567,197.914z"/>
	<path id="Path_572" class="st3" d="M35.969,187.896c2.407,0.841,5.959,1.957,7.893,1.986c0.2,0.006,0.401-0.004,0.6-0.03l0,0
		c3.142-0.06,6.285,0.093,9.406,0.46c1.543,0.136,3.029,0.278,4.258,0.4l3.086,0.331v-1.192c-0.857-0.589-1.854-1.245-2.92-1.907
		c-4.7-2.907-10.886-5.877-13.846-3.715c-4.168-2.013-8.4-2.98-9.6,0.6C34.7,185.296,35.211,186.486,35.969,187.896z"/>
	<path id="Path_573" class="st20" d="M24.405,160.145c0.066,1.784,0.735,6.416,5.526,11.094c6.112,5.959,3.506,14.527,3.506,14.527
		s7.284,2.861,10.426,2.937c0.2,0.006,0.401-0.004,0.6-0.03c1.884-0.262,9.373,0.43,13.677,0.864l3.086,0.331v-25.333l-33.75-8.2
		l-3.056,3.046c-0.021,0.253-0.025,0.507-0.013,0.761L24.405,160.145z"/>
	<path id="Path_574" class="st21" d="M36.389,184.972"/>
	<g id="Group_2330" transform="translate(24.4 156.354)" class="st11">
		<path id="Path_575" d="M36.27,33.2l0.553,0.056v0.271l-3.086-0.331c-3.089-0.311-7.81-0.755-10.925-0.884
			C24.967,32.121,32.102,32.78,36.27,33.2z"/>
		<path id="Path_576" d="M0.018,3.046L3.074,0l2.039,0.493L2.567,3.046c-0.016,0.253-0.016,0.508,0,0.761
			c0.066,1.784,0.735,6.413,5.526,11.094c6.112,5.959,3.506,14.524,3.506,14.524c3.072,1.222,6.243,2.177,9.479,2.854
			c-0.332-0.002-0.663,0.017-0.993,0.056c-0.199,0.026-0.4,0.036-0.6,0.03c-3.142-0.079-10.426-2.94-10.426-2.94
			s2.606-8.565-3.506-14.524C0.739,10.22,0.07,5.591,0.004,3.817C-0.008,3.56-0.003,3.302,0.018,3.046z"/>
	</g>
	<path id="Path_577" class="st18" d="M91.858,142.253c0,0,10.207-7.078,10.952-0.708s-10.952,5.476-10.952,5.476V142.253z"/>
	<path id="Path_578" class="st22" d="M74.262,137.559c0,0,5.519,3.642,8.575,3.427c0,0,8.343,1.119,9.313,0.56
		s1.566,8.085,1.566,8.085l-13.71-0.97l-8.793-1.341c0,0-4.4-2.682-4.4-4.993S74.262,137.559,74.262,137.559z"/>
	<path id="Path_579" class="st23" d="M74.262,137.559c0,0,5.519,3.642,8.575,3.427c0,0,8.343,1.119,9.313,0.56
		s1.566,8.085,1.566,8.085l-13.71-0.97l-8.793-1.341c0,0-4.4-2.682-4.4-4.993S74.262,137.559,74.262,137.559z"/>
	<path id="Path_580" class="st18" d="M82.35,155.98c0,0,12.412-0.513,9.631,5.267s-12.184-1.238-12.184-1.238L82.35,155.98z"/>
	<path id="Path_581" class="st23" d="M69.868,143.667c0,0,10.058-7.525,8.644-16.689s-8.644,7.006-8.644,7.006V143.667z"/>
	<path id="Path_582" class="st18" d="M72.655,102.121c0.005,5.179,3.147,9.838,7.946,11.783c0.531,0.222,1.077,0.403,1.635,0.543
		c0.591,0.153,1.193,0.263,1.8,0.331c0.437,0.043,0.877,0.066,1.324,0.066c1.423-0.003,2.835-0.248,4.175-0.725
		c6.632-2.304,10.141-9.549,7.837-16.181s-9.549-10.141-16.181-7.837c-5.116,1.777-8.545,6.602-8.541,12.018L72.655,102.121z"/>
	<path id="Path_583" class="st3" d="M24.405,160.145c1.139,0.209,2.546,0.593,2.546,1.182c0,0.993,15.892,6.36,15.892,6.36
		s-0.6,1.387,0.993,3.774s14.511,16.094,14.511,16.094l-0.043,0.4l-0.166,1.579l-0.788,7.552c0,0,4.966-1.788,6.555-1.589
		c0.61-0.013,1.186-0.282,1.586-0.742c-0.188-0.901-0.538-1.761-1.033-2.537c0,0-1.288-1.013-3.231-2.354v-25.329l-33.75-8.2
		l-3.056,3.046c-0.021,0.253-0.025,0.507-0.013,0.761L24.405,160.145z"/>
	<path id="Path_584" class="st23" d="M22.974,158.745c0,0,3.973,0.394,3.973,1.391s15.892,6.36,15.892,6.36s-0.6,1.387,0.993,3.774
		s14.511,16.093,14.511,16.093l-0.993,9.535c0,0,4.966-1.788,6.555-1.589c0.712,0.089,1.5-0.569,2.145-1.324
		c0.538-0.637,1.018-1.32,1.434-2.043c0,0-1.791-7.555,0.6-9.343s-2.582-14.9-2.582-14.9s-2.248-9.323-1.586-13.322
		c0.042-0.267,0.106-0.529,0.192-0.785c0.004-0.031,0.014-0.062,0.03-0.089c1.417-3.821,16.66-35.872,16.66-35.872
		c-0.01-0.909-0.074-1.817-0.192-2.718c-0.03-0.252-0.07-0.513-0.119-0.775c-0.077-0.477-0.18-0.949-0.308-1.414
		c-0.086-0.3-0.179-0.6-0.288-0.874c-0.47-1.212-1.192-2.142-2.271-2.165c-1.099-0.987-2.499-1.577-3.973-1.675
		c-2.053-0.268-4.966,0-8.939,1.675c-9.336,3.973-11.521,4.172-11.521,4.172l-4.695,6.148l-0.967,1.265
		c-3.533,4.609-6.732,9.465-9.571,14.531c-1.563,2.808-3.774,6.082-6.426,8.048C26.156,146.826,22.974,158.745,22.974,158.745z"/>
	<path id="Path_585" class="st3" d="M57.796,135.771c0,0-13.263,3.278-18.4,11.548L57.796,135.771z"/>
	<path id="Path_586" class="st3" d="M53.698,150.299c0,0-2.506,16.838-1.811,18.106S53.698,150.299,53.698,150.299z"/>
	<path id="Path_587" class="st3" d="M54.596,158.944c0.967,1.265,4.883,11.028,4.883,11.028l-1.132,16.391l-0.993,9.535
		c0,0,4.966-1.788,6.559-1.589c0.709,0.089,1.5-0.566,2.145-1.324c-1.033-5.585-3.238-17.269-3.642-17.494
		c-0.526-0.3-3.208-9.687-3.35-12.3s-3.877-8.489-3.877-8.489S53.626,157.679,54.596,158.944z"/>
	<path id="Path_588" class="st3" d="M58.347,142.853c0.242,0.745,0.626,5.065,0.626,5.065c0.145,2.759,2.209,5.037,4.94,5.453
		c0.042-0.267,0.106-0.529,0.192-0.785c1.192-3.374,16.689-35.961,16.689-35.961c-0.016-1.654-0.224-3.3-0.619-4.906
		c-3.374-0.993-8.717,0.536-8.717,0.536c-1.543-0.2-6.578,9.813-6.578,9.813s-3.357,7.671-3.725,8.714s0,2.761-0.149,3.357
		s-1.718,1.112-1.94,1.937s-0.076,2.453-0.225,2.751C58.449,140.131,58.282,141.493,58.347,142.853z"/>
	<path id="Path_589" class="st23" d="M59.538,142.25c0.245,0.745,0.626,5.065,0.626,5.065c0.087,2.395,1.681,4.473,3.973,5.175
		c0.767,0.274,1.57,0.435,2.384,0.477l2.4,2.079l11.061,8.164c0,0,4.125-7.615,3.006-7.664s-7.572-5.463-7.572-5.463
		c-1.986-1.053-3.953-4.575-4.87-6.383c0.054-0.218,0.094-0.439,0.119-0.662c0.4-3.374,8.744-16.289,8.744-16.289
		c2.351-3.194,3.89-6.912,4.483-10.833c0.036-0.159,0.06-0.331,0.089-0.493c0.036-0.219,0.058-0.44,0.066-0.662
		c0.149-2.7-1.818-3.688-4.155-3.923l0,0c-1.215-0.094-2.436-0.056-3.642,0.113c-1.207,0.15-2.402,0.384-3.576,0.7
		c-0.993-0.129-3.463,4.026-5.079,6.969l0,0c-0.871,1.6-1.5,2.844-1.5,2.844s-3.374,7.674-3.751,8.717s0,2.758-0.149,3.357
		s-1.718,1.112-1.937,1.937s-0.079,2.453-0.228,2.751C59.642,139.53,59.476,140.89,59.538,142.25z"/>
	<path id="Path_590" class="st3" d="M46.702,125.077c2.1,2.159,5.522,2.165,8.257,1.069s5.055-3.1,7.595-4.635
		c1.655-0.993,3.39-1.831,5.012-2.867l0,0c0.238-0.156,0.47-0.311,0.7-0.47c1.874-1.324,3.493-3.023,5.43-4.238
		c1.298-0.86,2.808-1.344,4.364-1.4c0.717-0.007,1.428,0.142,2.082,0.437c0.114,0.05,0.225,0.107,0.331,0.172
		c0.637,0.368,1.226,0.813,1.755,1.324c0.546,0.493,1.073,1.02,1.655,1.477c0.036-0.159,0.06-0.331,0.089-0.493
		c0.036-0.219,0.058-0.44,0.066-0.662c0.437,0.043,0.877,0.066,1.324,0.066c1.426-0.008,2.84-0.259,4.181-0.742
		c0.005-0.055,0.015-0.109,0.03-0.162c0.477-2.5,1.324-5.155,3.35-6.562c1.169-0.818,3.036-1.149,4.652-1.771
		c1.937-6.749-1.964-13.79-8.712-15.727s-13.79,1.964-15.727,8.712c-0.795,2.771-0.625,5.73,0.482,8.391
		c-2.053-0.268-4.966,0-8.939,1.675c-9.336,3.973-11.521,4.172-11.521,4.172l-4.668,6.158c0.582,0.703,0.972,1.544,1.132,2.443
		C49.725,123.124,48.109,124.279,46.702,125.077z"/>
	<path id="Path_591" class="st24" d="M92.937,106.205c-2.016,1.41-2.874,4.059-3.35,6.559c-0.081,0.791-0.344,1.552-0.768,2.225
		c-1.069,1.387-3.221,0.993-4.618,0s-2.5-2.5-4.056-3.208c-2.073-0.934-4.506-0.252-6.443,0.963s-3.559,2.913-5.433,4.234
		c-1.811,1.278-3.831,2.188-5.718,3.337c-2.536,1.546-4.854,3.543-7.592,4.635s-6.158,1.093-8.254-1.066
		c1.407-0.781,3.023-1.937,2.913-3.609s-2.059-2.927-1.927-4.635s2.149-2.39,3.6-3.231c3.029-1.761,4.3-5.628,4.966-9.2
		c0.5-2.791,0.917-5.913,3.006-7.7c1.344-1.155,3.168-1.533,4.522-2.675c1.188-1.231,2.139-2.67,2.808-4.244
		c1.252-2.553,3.128-4.747,5.456-6.38c2.307-1.594,5.236-1.993,7.886-1.076c0.993,0.387,1.88,0.993,2.854,1.414
		c2.417,1.046,5.188,0.907,7.585,2.006c2.95,1.357,4.867,4.357,6.621,7.2c1.5,2.433,4.433,6.741,3.612,9.886
		C99.767,104.846,95.126,104.673,92.937,106.205z"/>
	<g id="Group_2331" transform="translate(46.694 97.301)" class="st11">
		<path id="Path_592" d="M0.998,18.133c0.011-0.131,0.034-0.261,0.07-0.387c0.635,0.764,1.069,1.674,1.261,2.649
			c0.015,0.228-0.004,0.457-0.056,0.679C1.68,20.12,0.91,19.229,0.998,18.133z"/>
		<path id="Path_593" d="M7.669,25.066c2.738-1.1,5.056-3.1,7.592-4.635c1.887-1.149,3.907-2.059,5.718-3.337
			c1.874-1.324,3.5-3.023,5.433-4.234s4.37-1.9,6.443-0.963c1.559,0.705,2.649,2.2,4.056,3.208s3.549,1.4,4.618,0.017
			c0.426-0.671,0.689-1.432,0.768-2.222c0.477-2.5,1.324-5.152,3.35-6.562c2.192-1.53,6.83-1.357,7.671-4.585
			c0.14-0.573,0.177-1.165,0.109-1.751c0.576,1.297,0.747,2.739,0.49,4.135c-0.844,3.228-5.483,3.056-7.674,4.585
			c-2.013,1.41-2.874,4.059-3.35,6.562c-0.079,0.79-0.341,1.551-0.765,2.222c-1.073,1.387-3.225,0.993-4.635-0.017
			s-2.5-2.5-4.056-3.208c-2.073-0.934-4.506-0.248-6.443,0.963s-3.559,2.913-5.433,4.234c-1.811,1.281-3.831,2.188-5.718,3.337
			c-2.536,1.549-4.854,3.542-7.592,4.635s-6.158,1.089-8.254-1.069c0.541-0.293,1.056-0.635,1.536-1.02
			C3.548,26,5.725,25.896,7.669,25.066z"/>
	</g>
	<path id="Path_594" class="st25" d="M269.976,89.865l-13.577-13.651c-2.783-2.846-7.346-2.897-10.192-0.115
		c-0.015,0.015-0.03,0.03-0.045,0.045l-85.238,84.517l-36.041-36.322c-2.787-2.826-7.337-2.859-10.164-0.073l-13.72,13.575
		c-2.822,2.818-2.853,7.381-0.07,10.237l54.733,55.164c2.817,2.822,7.38,2.855,10.237,0.073l104-103.216
		c2.847-2.782,2.899-7.345,0.117-10.192c-0.014-0.014-0.027-0.028-0.041-0.041L269.976,89.865z"/>
	<g id="Group_2332" transform="translate(240.488 199.308)" class="st26">
		<path id="Path_595" class="st14" d="M9.034,0.013c0,0-10.124-0.609-8.939,6.486c-0.125,0.738,0.238,1.472,0.9,1.821
			c0,0,0-0.526,1.036-0.348c0.363,0.062,0.733,0.08,1.1,0.053C3.628,7.992,4.1,7.798,4.475,7.472l0,0c0,0,2.844-1.175,3.953-5.83
			c0,0,0.818-1.013,0.785-1.275L7.505,1.099c0.329,0.708,0.374,1.515,0.126,2.255c0,0-0.056-2.212-0.384-2.159
			c-0.066,0-0.887,0.427-0.887,0.427S7.353,3.767,6.605,5.33c0,0,0.288-2.649-0.56-3.552l-1.2,0.7c0,0,1.172,2.218,0.377,4.026
			c0,0,0.205-2.774-0.632-3.854L3.501,3.498c0,0,1.1,2.185,0.43,3.688c0,0-0.086-3.231-0.662-3.476
			c-0.414,0.35-0.783,0.749-1.1,1.189c0,0,0.755,1.586,0.288,2.423c0,0-0.288-2.155-0.523-2.162c-0.495,0.728-0.85,1.542-1.049,2.4
			c0.046-0.903,0.328-1.779,0.818-2.539C1.156,5.126,0.651,5.388,0.25,5.776c0,0,0.146-0.993,1.688-1.1
			c0.286-0.419,0.62-0.803,0.993-1.146C2.099,3.459,1.262,3.556,0.468,3.815c0.752-0.657,1.801-0.856,2.741-0.52l1.076-0.877
			C3.332,2.27,2.361,2.279,1.411,2.444c0,0,0.993-0.841,3.165-0.228l1.172-0.7C4.846,1.318,3.923,1.238,3,1.278
			c1-0.375,2.105-0.357,3.092,0.05L6.93,0.951c0,0-1.261-0.248-1.632-0.285S4.911,0.524,4.911,0.524
			c0.798-0.132,1.618-0.04,2.367,0.265C7.886,0.583,8.473,0.324,9.034,0.013z"/>
	</g>
	<g id="Group_2333" transform="translate(229.509 149.763)" class="st26">
		<path id="Path_596" class="st14" d="M1.847,0.01c0,0-5.142,8.744,1.725,10.9c0.601,0.446,1.421,0.457,2.033,0.026
			c0,0-0.46-0.255,0.159-1.083c0.22-0.296,0.405-0.618,0.55-0.957c0.193-0.458,0.234-0.967,0.116-1.45l0,0
			c0,0,0.242-3.069-3.4-6.168c0,0-0.533-1.192-0.778-1.281L2.126,1.851c0.78,0.03,1.519,0.357,2.066,0.914
			c0,0-1.986-0.953-2.1-0.639c-0.02,0.066-0.023,0.993-0.023,0.993s2.37,0.079,3.417,1.463c0,0-2.225-1.457-3.42-1.112l0.079,1.391
			c0,0,2.51-0.04,3.761,1.49c0,0-2.38-1.443-3.721-1.189l0.262,1.357c0,0,2.45,0,3.48,1.288c0,0-2.917-1.387-3.4-0.993
			c0.131,0.525,0.317,1.035,0.556,1.52c0,0,1.758,0.046,2.291,0.844c0,0-2.049-0.722-2.165-0.516
			c0.425,0.77,0.986,1.456,1.655,2.026c-0.784-0.452-1.435-1.102-1.89-1.884c-0.164,0.54-0.164,1.115,0,1.655
			c0,0-0.831-0.589-0.209-1.986C2.521,8.028,2.328,7.555,2.192,7.066C1.753,7.774,1.46,8.562,1.328,9.384
			C1.085,8.415,1.384,7.389,2.109,6.702L1.818,5.345C1.255,6.129,0.823,6.999,0.537,7.921c0,0-0.3-1.261,1.235-2.923L1.679,3.637
			C1.093,4.349,0.604,5.135,0.222,5.974c0.118-1.06,0.633-2.036,1.443-2.731l0.046-0.917c0,0-0.795,1.013-0.993,1.324
			s-0.3,0.281-0.3,0.281C0.662,3.16,1.114,2.473,1.726,1.945C1.823,1.305,1.864,0.657,1.847,0.01z"/>
	</g>
	<g id="Group_2334" transform="translate(197.353 80.005)" class="st26">
		<path id="Path_597" class="st14" d="M1.845,0.007c0,0-5.138,8.747,1.725,10.9c0.6,0.449,1.421,0.459,2.033,0.026
			c0,0-0.46-0.255,0.162-1.083c0.219-0.297,0.402-0.618,0.546-0.957c0.195-0.458,0.235-0.967,0.116-1.45l0,0
			c0,0,0.245-3.069-3.4-6.168c0,0-0.533-1.189-0.778-1.278L2.123,1.848c0.78,0.03,1.519,0.357,2.066,0.914
			c0,0-1.986-0.953-2.1-0.639C2.066,2.189,2.066,3.116,2.066,3.116s2.367,0.079,3.413,1.463c0,0-2.225-1.457-3.42-1.112l0.083,1.391
			c0,0,2.506-0.04,3.758,1.49c0,0-2.38-1.44-3.721-1.189L2.44,6.516c0,0,2.45,0,3.483,1.291c0,0-2.92-1.391-3.4-0.993
			c0.131,0.524,0.319,1.033,0.56,1.516c0,0,1.755,0.046,2.288,0.844c0,0-2.049-0.722-2.162-0.516
			c0.423,0.771,0.984,1.458,1.655,2.026C4.08,10.233,3.427,9.585,2.97,8.804c-0.158,0.534-0.158,1.102,0,1.635
			c0,0-0.831-0.589-0.209-2C2.517,7.993,2.324,7.521,2.188,7.032C1.749,7.74,1.456,8.528,1.324,9.35
			C1.082,8.38,1.382,7.354,2.109,6.668L1.814,5.311C1.251,6.094,0.82,6.964,0.536,7.887c0,0-0.3-1.261,1.232-2.923L1.675,3.603
			C1.09,4.315,0.6,5.1,0.218,5.94c0.117-1.06,0.633-2.035,1.443-2.728l0.046-0.92c0,0-0.795,1.013-0.993,1.324s-0.3,0.281-0.3,0.281
			c0.249-0.772,0.707-1.459,1.324-1.986C1.831,1.281,1.867,0.643,1.845,0.007z"/>
	</g>
	<g id="Group_2335" transform="translate(77.7 13.767)" class="st26">
		<path id="Path_598" class="st14" d="M10.8,0c0,0-19.134,13.91-6.469,24.92c0.868,1.517,2.613,2.304,4.324,1.95
			c0,0-0.748-0.973,1.354-2.165c0.745-0.428,1.436-0.944,2.059-1.536c0.843-0.793,1.404-1.839,1.6-2.98l0,0
			c0,0,3.384-6.337-1.52-16.355c0,0-0.03-3.043-0.477-3.463L9.685,4.218c0,0,2.877,1.354,3.569,3.88c0,0-3.38-3.9-3.893-3.311
			c-0.1,0.116-0.967,2.086-0.967,2.086s5,2.377,5.943,6.31c0,0-3.4-5.191-6.29-5.569l-1.122,3.049c0,0,5.4,2.255,6.651,6.691
			c0,0-3.748-5.3-6.853-6.009l-0.7,3.149c0,0,5.224,2.3,6.241,6c0,0-4.966-5.688-6.353-5.267c-0.226,1.241-0.301,2.505-0.222,3.764
			c0,0,3.715,1.738,4.112,3.94c0,0-3.711-3.45-4.148-3.119c0,0,0.4,3.973,1.675,5.883c-1.256-1.696-2.047-3.691-2.294-5.787
			c-0.83,1.001-1.351,2.221-1.5,3.513c0,0-1.232-2.036,1.414-4.479c0,0-0.189-3.112,0.093-3.542c0,0-2.953,2.043-4.016,4.162
			c0,0,0.063-2.927,4.172-5l0.636-3.175c0,0-4.042,2.493-5.132,4.3c0,0,0.526-2.98,5.357-5.105l1.073-3
			c-1.916,0.981-3.697,2.205-5.3,3.642c0,0,1.083-2.649,5.628-4.493l0.95-1.92c0,0-2.649,1.424-3.36,1.9s-0.91,0.331-0.91,0.331
			c1.24-1.424,2.852-2.475,4.655-3.036C8.794,4.006,11.022,0.156,10.8,0z"/>
	</g>
	<g id="Group_2336" transform="translate(41.325 56.772)" class="st26">
		<path id="Path_599" class="st14" d="M28.585,2.879c0,0-24.754-10.409-28,8.36c-0.964,1.736-0.696,3.896,0.662,5.344
			c0,0,0.507-1.3,2.9,0.043c0.853,0.472,1.76,0.842,2.7,1.1c1.271,0.351,2.621,0.279,3.847-0.205l0,0c0,0,8.138-0.44,14.988-11.091
			c0,0,2.933-1.814,3.082-2.5l-4.91,0.331c0,0,0.377,3.592-1.655,5.747c0,0,1.8-5.575,0.937-5.731
			c-0.175-0.033-2.592,0.285-2.592,0.285s0.626,6.247-2.649,9.479c0,0,3.039-6.353,1.715-9.366l-3.619,0.7
			c0,0,0.993,6.572-2.589,10.392c0,0,2.943-6.754,1.808-10.184l-3.47,1.165c0,0,0.838,6.426-2.159,9.6c0,0,2.615-8.148,1.384-9.27
			c-1.336,0.51-2.607,1.177-3.787,1.986c0,0,0.5,4.635-1.41,6.307c0,0,1.172-5.628,0.593-5.86c0,0-3.625,2.728-4.731,5.082
			c0.911-2.216,2.384-4.156,4.274-5.628c-1.462-0.221-2.956-0.01-4.3,0.606c0,0,1.255-2.387,5.181-1.255c0,0,2.91-2.016,3.493-1.986
			c0,0-3.715-1.655-6.4-1.45c0,0,2.877-1.655,7.307,1.109l3.45-1.25c0,0-4.8-2.46-7.2-2.45c0,0,3.2-1.238,8.1,2.2l3.542-0.732
			c-2.078-1.286-4.315-2.294-6.655-3c0,0,3.215-0.51,7.674,2.831l2.423-0.2c0,0-2.933-1.728-3.821-2.149S17.85,0.547,17.85,0.547
			c2.112,0.367,4.08,1.314,5.685,2.735C23.535,3.282,28.562,3.187,28.585,2.879z"/>
	</g>
	<g id="Group_2337" transform="translate(31.048 19.947)" class="st26">
		<path id="Path_600" class="st14" d="M24.04,13.423c0,0-8.777-20.285-21.394-10.982c-1.558,0.48-2.629,1.911-2.649,3.542
			c0,0,1.04-0.483,1.7,1.679c0.244,0.766,0.578,1.5,0.993,2.188c0.554,0.932,1.396,1.659,2.4,2.069l0,0c0,0,5.085,4.377,15.229,1.95
			c0,0,2.778,0.593,3.254,0.275l-3.1-2.606c0,0-1.821,2.351-4.264,2.463c0,0,4.248-2.284,3.821-2.87c-0.086-0.119-1.7-1.3-1.7-1.3
			s-3.188,4.066-6.953,4.128c0,0,5.426-2.046,6.353-4.585l-2.549-1.655c0,0-3.2,4.479-7.5,4.714c0,0,5.6-2.334,6.876-5.022
			l-2.725-1.268c0,0-3.165,4.3-6.744,4.466c0,0,6.194-3.35,6.1-4.718c-1.085-0.46-2.223-0.785-3.387-0.967
			c0,0-2.341,3.029-4.43,2.943c0,0,3.9-2.678,3.688-3.145c0,0-3.708-0.444-5.7,0.331c1.803-0.798,3.783-1.111,5.744-0.907
			c-0.741-0.965-1.75-1.69-2.9-2.086c0,0,2.109-0.705,3.794,2.2c1.098,0.145,2.175,0.416,3.211,0.808
			c-0.68-1.688-1.694-3.222-2.98-4.509c0,0,2.649,0.662,3.711,4.824l2.764,1.228c0,0-1.447-4.2-2.884-5.559
			c0,0,2.606,1.086,3.559,5.926l2.513,1.586c-0.503-1.947-1.256-3.82-2.241-5.572c0,0,2.2,1.53,2.947,6.055l1.556,1.258
			c0,0-0.761-2.695-1.049-3.45s-0.106-0.894-0.106-0.894c1.044,1.42,1.674,3.103,1.818,4.86
			C20.816,10.821,23.855,13.599,24.04,13.423z"/>
	</g>
	<g id="Group_2338" transform="translate(216.019 36.438)" class="st26">
		<path id="Path_601" class="st14" d="M10.129,7.486c0,0-2.069-9.932-8.608-6.916C0.775,0.641,0.16,1.185-0.002,1.917
			c0,0,0.513-0.122,0.609,0.91c0.036,0.367,0.115,0.728,0.235,1.076c0.166,0.47,0.478,0.874,0.891,1.152l0,0
			c0,0,1.88,2.437,6.658,2.284c0,0,1.2,0.523,1.44,0.424L8.676,6.306C8.079,6.808,7.313,7.063,6.534,7.018
			c0,0,2.119-0.632,1.986-0.937C8.49,6.018,7.874,5.336,7.874,5.336S6.066,6.869,4.361,6.548c0,0,2.625-0.417,3.281-1.473
			L6.649,4.098c0,0-1.834,1.715-3.787,1.42c0,0,2.731-0.53,3.556-1.619L5.312,3.071c0,0-1.821,1.635-3.446,1.381
			c0,0,3.1-0.934,3.178-1.556C4.599,2.589,4.117,2.337,3.61,2.148c0,0-1.324,1.146-2.261,0.914c0,0,1.986-0.841,1.95-1.073
			c-0.836-0.287-1.717-0.416-2.6-0.381c0.884-0.192,1.802-0.15,2.665,0.122C3.121,1.228,2.735,0.809,2.255,0.525
			c0,0,1.013-0.122,1.5,1.324c0.48,0.166,0.939,0.389,1.367,0.662c-0.151-0.826-0.464-1.613-0.92-2.318
			C5.033,0.748,5.5,1.709,5.424,2.706l1.129,0.808C6.445,2.555,6.181,1.62,5.772,0.746c0,0,1.069,0.732,1.049,2.98l0.993,0.947
			c-0.045-0.921-0.21-1.833-0.49-2.712c0.621,0.861,0.893,1.926,0.761,2.98l0.583,0.712c0,0-0.089-1.281-0.149-1.655
			s0.033-0.414,0.033-0.414C8.89,4.32,9.018,5.136,8.919,5.941C9.276,6.491,9.681,7.008,10.129,7.486z"/>
	</g>
	<g id="Group_2339" transform="translate(180.385 220.555)" class="st26">
		<path id="Path_602" class="st14" d="M10.132,7.486c0,0-2.066-9.932-8.608-6.916C0.777,0.641,0.161,1.185-0.002,1.917
			c0,0,0.513-0.122,0.609,0.911c0.036,0.367,0.116,0.728,0.238,1.076C1.01,4.373,1.321,4.777,1.732,5.056l0,0
			c0,0,1.88,2.437,6.661,2.284c0,0,1.2,0.523,1.437,0.424L8.678,6.307C8.08,6.809,7.313,7.064,6.533,7.019
			c0,0,2.119-0.632,1.986-0.937C8.493,6.019,7.873,5.337,7.873,5.337S6.065,6.87,4.36,6.549c0,0,2.629-0.417,3.281-1.473
			L6.648,4.083c0,0-1.814,1.722-3.774,1.417c0,0,2.731-0.53,3.556-1.619L5.324,3.053c0,0-1.818,1.635-3.443,1.381
			c0,0,3.1-0.93,3.178-1.556C4.613,2.571,4.132,2.32,3.625,2.13c0,0-1.324,1.146-2.265,0.914c0,0,1.986-0.841,1.95-1.073
			C2.475,1.684,1.593,1.555,0.71,1.59c0.885-0.192,1.804-0.15,2.668,0.122c-0.245-0.501-0.63-0.92-1.109-1.205
			c0,0,1.01-0.122,1.5,1.324C4.251,1.997,4.711,2.219,5.14,2.493C4.989,1.667,4.677,0.879,4.22,0.175
			c0.83,0.556,1.296,1.517,1.218,2.513L6.57,3.496C6.46,2.537,6.195,1.602,5.785,0.728c0,0,1.073,0.732,1.053,2.98l0.993,0.947
			c-0.045-0.922-0.21-1.833-0.493-2.712c0.624,0.86,0.897,1.926,0.765,2.98l0.583,0.712c0,0-0.093-1.281-0.152-1.655
			s0.033-0.411,0.033-0.411c0.338,0.735,0.466,1.55,0.367,2.354C9.292,6.475,9.692,6.997,10.132,7.486z"/>
	</g>
</g>
</svg>
