<svg xmlns="http://www.w3.org/2000/svg" width="20.5" height="20.5" viewBox="0 0 20.5 20.5"><defs><style>.a{fill:#64a15e;stroke:#64a15e;stroke-width:0.5px;}</style></defs><g transform="translate(0.25 0.25)"><g transform="translate(4.749 2.513)"><path class="a" d="M136.247,64.549a.754.754,0,0,0-1.066,0l-9.043,9.019-3.263-3.543a.754.754,0,0,0-1.109,1.021l3.794,4.12a.753.753,0,0,0,.538.243h.016a.755.755,0,0,0,.532-.22l9.6-9.573A.754.754,0,0,0,136.247,64.549Z" transform="translate(-121.568 -64.327)"/></g><path class="a" d="M19.246,9.246a.754.754,0,0,0-.754.754A8.492,8.492,0,1,1,10,1.508.754.754,0,1,0,10,0,10,10,0,1,0,20,10,.754.754,0,0,0,19.246,9.246Z"/></g></svg>