<svg xmlns="http://www.w3.org/2000/svg" width="46" height="38" viewBox="0 0 46 38"><defs><style>.a{fill:#64a15e;}</style></defs><g transform="translate(0 -46)"><path class="a" d="M246.88,386a.88.88,0,1,0,.88.88A.88.88,0,0,0,246.88,386Z" transform="translate(-223.88 -309.039)"/><path class="a" d="M42.145,47.391A22.184,22.184,0,0,0,34.051,46a22.184,22.184,0,0,0-8.094,1.391A7.969,7.969,0,0,0,23,49.295a7.969,7.969,0,0,0-2.957-1.9A22.182,22.182,0,0,0,11.949,46a22.184,22.184,0,0,0-8.094,1.391C1.369,48.4,0,49.833,0,51.429V73.143c0,1.6,1.369,3.03,3.855,4.038a21.716,21.716,0,0,0,7.465,1.383v.008C11.32,81.666,16.342,84,23,84s11.68-2.334,11.68-5.429v-.008a21.716,21.716,0,0,0,7.465-1.383C44.631,76.172,46,74.738,46,73.143V51.429C46,49.833,44.631,48.4,42.145,47.391ZM44.2,67.714c0,.772-1.046,1.676-2.73,2.359a20.184,20.184,0,0,1-6.794,1.251v-3.61s0-.005,0-.008a21.714,21.714,0,0,0,7.465-1.383A9.762,9.762,0,0,0,44.2,65.216v2.5ZM22.1,56.857c0,.772-1.046,1.676-2.73,2.359a20.673,20.673,0,0,1-7.422,1.26,20.673,20.673,0,0,1-7.422-1.26C2.843,58.534,1.8,57.63,1.8,56.857v-2.5a9.761,9.761,0,0,0,2.059,1.108,22.184,22.184,0,0,0,8.094,1.391,22.184,22.184,0,0,0,8.094-1.391A9.761,9.761,0,0,0,22.1,54.359ZM3.855,60.9a22.184,22.184,0,0,0,8.094,1.391A22.184,22.184,0,0,0,20.043,60.9,9.761,9.761,0,0,0,22.1,59.787V62.3a21.71,21.71,0,0,0-6.356,1.1,7.728,7.728,0,0,0-3.817,2.5,20.66,20.66,0,0,1-7.4-1.259c-1.684-.683-2.73-1.587-2.73-2.359v-2.5A9.761,9.761,0,0,0,3.855,60.9ZM1.8,65.216a9.761,9.761,0,0,0,2.059,1.108,21.718,21.718,0,0,0,7.465,1.383s0,.005,0,.008v3.61a20.184,20.184,0,0,1-6.794-1.251c-1.684-.683-2.73-1.587-2.73-2.359ZM13.212,67.27C13.878,65.709,17.721,64.1,23,64.1s9.122,1.614,9.787,3.173a1.126,1.126,0,0,1,.1.446c0,.8-.974,1.679-2.605,2.363A19.432,19.432,0,0,1,23,71.333a19.432,19.432,0,0,1-7.278-1.256c-1.631-.684-2.605-1.568-2.605-2.363A1.124,1.124,0,0,1,13.212,67.27ZM44.2,62.286c0,.772-1.046,1.676-2.73,2.359a20.658,20.658,0,0,1-7.4,1.259,7.728,7.728,0,0,0-3.817-2.5A21.707,21.707,0,0,0,23.9,62.3V59.787A9.76,9.76,0,0,0,25.957,60.9a22.184,22.184,0,0,0,8.094,1.391A22.184,22.184,0,0,0,42.145,60.9,9.76,9.76,0,0,0,44.2,59.787Zm0-5.429c0,.772-1.046,1.676-2.73,2.359a20.673,20.673,0,0,1-7.422,1.26,20.673,20.673,0,0,1-7.422-1.26c-1.684-.683-2.73-1.587-2.73-2.359v-2.5a9.761,9.761,0,0,0,2.059,1.108,22.184,22.184,0,0,0,8.094,1.391,22.184,22.184,0,0,0,8.094-1.391A9.761,9.761,0,0,0,44.2,54.359ZM26.628,49.069a20.673,20.673,0,0,1,7.422-1.26,20.673,20.673,0,0,1,7.422,1.26c1.684.683,2.73,1.587,2.73,2.359s-1.046,1.676-2.73,2.359a20.673,20.673,0,0,1-7.422,1.26,20.673,20.673,0,0,1-7.422-1.26c-1.684-.683-2.73-1.587-2.73-2.359S24.944,49.752,26.628,49.069Zm-22.1,0a20.673,20.673,0,0,1,7.422-1.26,20.673,20.673,0,0,1,7.422,1.26c1.684.683,2.73,1.587,2.73,2.359s-1.046,1.676-2.73,2.359a20.673,20.673,0,0,1-7.422,1.26,20.673,20.673,0,0,1-7.422-1.26C2.843,53.105,1.8,52.2,1.8,51.429S2.843,49.752,4.527,49.069Zm0,26.433c-1.684-.683-2.73-1.587-2.73-2.359v-2.5a9.761,9.761,0,0,0,2.059,1.108,21.717,21.717,0,0,0,7.465,1.383v3.618A20.184,20.184,0,0,1,4.527,75.5Zm25.751,5.433A19.432,19.432,0,0,1,23,82.19a19.432,19.432,0,0,1-7.278-1.256c-1.631-.684-2.605-1.568-2.605-2.364V76.126a7.9,7.9,0,0,0,.678.441,15.657,15.657,0,0,0,5.49,1.739.9.9,0,0,0,.261-1.79c-4.175-.617-6.429-2.2-6.429-3.373V70.689c2.034,1.5,5.623,2.454,9.883,2.454s7.849-.955,9.883-2.454v2.454c0,1.174-2.253,2.755-6.429,3.373a.9.9,0,1,0,.261,1.79,15.656,15.656,0,0,0,5.49-1.739,7.919,7.919,0,0,0,.678-.441v2.446C32.883,79.367,31.909,80.25,30.278,80.935Zm11.2-5.433a20.185,20.185,0,0,1-6.794,1.251V73.135a21.716,21.716,0,0,0,7.465-1.383A9.76,9.76,0,0,0,44.2,70.644v2.5C44.2,73.915,43.157,74.819,41.473,75.5Z"/></g></svg>