<svg xmlns="http://www.w3.org/2000/svg" width="46" height="39" viewBox="0 0 46 39"><defs><style>.a{fill:#64a15e;}</style></defs><g transform="translate(0 -40)"><path class="a" d="M38.987,44.013A31.392,31.392,0,0,0,23,40,31.391,31.391,0,0,0,7.013,44.013C2.491,46.74,0,50.445,0,54.444V64.556c0,4,2.491,7.7,7.013,10.431A31.391,31.391,0,0,0,23,79a31.392,31.392,0,0,0,15.987-4.013C43.509,72.26,46,68.555,46,64.556V54.444C46,50.445,43.509,46.74,38.987,44.013ZM8.493,46.491A28.509,28.509,0,0,1,23,42.889a28.509,28.509,0,0,1,14.507,3.6c3.623,2.184,5.618,5.009,5.618,7.954s-1.995,5.77-5.618,7.954A28.509,28.509,0,0,1,23,66,28.51,28.51,0,0,1,8.493,62.4c-3.623-2.184-5.618-5.009-5.618-7.954S4.87,48.675,8.493,46.491ZM34.5,66.984v7.022a27.857,27.857,0,0,1-5.75,1.62V68.441A31.788,31.788,0,0,0,34.5,66.984ZM17.25,68.441v7.185a27.859,27.859,0,0,1-5.75-1.62V66.984A31.773,31.773,0,0,0,17.25,68.441ZM2.875,64.556V61.507a17.67,17.67,0,0,0,4.138,3.368q.776.468,1.612.884v6.827l-.132-.078C4.87,70.325,2.875,67.5,2.875,64.556Zm17.25,11.436V68.779q1.42.109,2.875.11t2.875-.11v7.213q-1.416.118-2.875.119T20.125,75.992Zm23-11.436c0,2.945-1.995,5.77-5.618,7.954l-.132.078V65.76q.834-.417,1.612-.884a17.674,17.674,0,0,0,4.138-3.368v3.048Z"/></g></svg>