<svg id="Layer_1" data-name="Layer 1" xmlns="http://www.w3.org/2000/svg" viewBox="0 0 203.459 203.459"><defs><style>.cls-1{fill:#ffd522;}.cls-2{fill:#f68f03;}.cls-3{fill:#ffa70b;}.cls-4{fill:#f67603;}.cls-5{fill:#ffd62c;}</style></defs><path class="cls-1" d="M201.322,80.911a100.36,100.36,0,0,0-7.566-22.6,102.294,102.294,0,0,0-37.639-42.575c-1.48-.937-2.992-1.833-4.523-2.7a100.862,100.862,0,0,0-22.738-9.379c-2.69-.746-5.431-1.381-8.2-1.894-2.781-.534-5.612-.947-8.473-1.229A99.332,99.332,0,0,0,101.3,0,102.588,102.588,0,0,0,89.958.677q-4.2.483-8.3,1.309a101.812,101.812,0,0,0-79.67,79.67q-.831,4.1-1.3,8.292A99.679,99.679,0,0,0,0,102.158c.02,3.385.192,6.73.534,10.034q.438,4.293,1.229,8.463t1.905,8.191v.01a100.53,100.53,0,0,0,9.379,22.728q1.3,2.3,2.7,4.524a102.285,102.285,0,0,0,42.575,37.638,100.136,100.136,0,0,0,22.588,7.577,102.547,102.547,0,0,0,33.739,1.319,99.921,99.921,0,0,0,15.334-3.163,101.947,101.947,0,0,0,69.5-69.495,100.549,100.549,0,0,0,3.163-15.333,102.522,102.522,0,0,0-1.32-33.74Z"/><path class="cls-2" d="M177.534,101.734a75.791,75.791,0,0,1-70.723,75.623c-1.675.11-3.382.172-5.088.172a75.8,75.8,0,0,1,0-151.607c1.706,0,3.413.063,5.088.173A75.8,75.8,0,0,1,177.534,101.734Z"/><path class="cls-3" d="M173.157,101.735c0,1.272-.029,2.543-.109,3.805a71.4,71.4,0,0,1-66.535,67.449l-.973.059c-1.262.07-2.534.11-3.815.11a71.333,71.333,0,0,1-71.155-65.3q-.269-3.026-.268-6.12c0-1.9.07-3.765.219-5.623a70.3,70.3,0,0,1,1.818-11.386A71.539,71.539,0,0,1,84.726,32.339a70.309,70.309,0,0,1,11.385-1.818c1.848-.149,3.726-.219,5.614-.219,1.609,0,3.219.06,4.788.159.447.03.894.06,1.342.109a70.854,70.854,0,0,1,29.536,9.26,71.289,71.289,0,0,1,35.766,61.905Z"/><path class="cls-4" d="M78.23,56.191h30.436v67.456h25.227V147.64H78.23Z"/><path class="cls-5" d="M75.23,53.191h30.436v67.456h25.227V144.64H75.23Z"/></svg>