<svg xmlns="http://www.w3.org/2000/svg" width="46" height="30" viewBox="0 0 46 30"><defs><style>.a{fill:#64a15e;}</style></defs><g transform="translate(0 -67.28)"><g transform="translate(0 67.28)"><path class="a" d="M33.653,67.28c-5.985,0-12.347,1.956-12.347,5.652v.743a21.606,21.606,0,0,0-8.958-1.721C6.363,71.954,0,73.91,0,77.606V91.628c0,3.667,6.363,5.652,12.347,5.652,4.513,0,8.541-1.046,10.653-2.718,2.276,1.78,6.576,2.718,10.653,2.718C39.637,97.28,46,95.324,46,91.628v-18.7C46.029,69.265,39.666,67.28,33.653,67.28ZM12.347,73.91c3.661,0,7.108.772,9.026,1.956v3.481c-1.937,1.213-5.365,1.956-9.026,1.956-6.45,0-10.411-2.151-10.411-3.7S5.869,73.91,12.347,73.91ZM1.937,80.755c2.3,1.633,6.421,2.5,10.411,2.5a21.606,21.606,0,0,0,9.026-1.721v2.445c-1.937,1.213-5.365,1.956-9.026,1.956-6.45,0-10.411-2.151-10.411-3.7Zm0,4.674c2.344,1.653,6.45,2.523,10.411,2.523a21.607,21.607,0,0,0,8.987-1.76v2.445c-1.937,1.213-5.365,1.956-9.026,1.956C5.859,90.592,1.9,88.44,1.9,86.9Zm10.411,9.9c-6.45,0-10.411-2.151-10.411-3.7V90.1c2.344,1.653,6.45,2.523,10.411,2.523A21.606,21.606,0,0,0,21.373,90.9v.743a3.1,3.1,0,0,0,.378,1.457C20.162,94.239,16.831,95.324,12.347,95.324ZM33.653,69.236c6.421,0,10.41,2.151,10.41,3.7s-3.932,3.7-10.41,3.7c-6.45,0-10.411-2.151-10.411-3.7S27.232,69.236,33.653,69.236ZM44.131,91.628c0,1.545-3.961,3.7-10.411,3.7s-10.411-2.151-10.411-3.7V90.1c2.334,1.653,6.45,2.523,10.411,2.523s8.067-.87,10.411-2.523Zm0-4.674c0,1.545-3.961,3.7-10.411,3.7S23.31,88.5,23.31,86.954V85.409c2.334,1.653,6.45,2.523,10.411,2.523s8.067-.87,10.411-2.523ZM33.72,85.976c-6.45,0-10.449-2.151-10.449-3.7V80.735c2.344,1.653,6.459,2.523,10.381,2.523s8.067-.87,10.41-2.523l.068,1.545C44.131,83.825,40.17,85.976,33.72,85.976ZM33.653,81.3c-6.479,0-10.411-2.151-10.411-3.7V76.061c2.334,1.653,6.45,2.523,10.411,2.523s8.067-.87,10.41-2.523l.068,1.545C44.092,79.151,40.131,81.3,33.653,81.3Z" transform="translate(0 -67.28)"/></g></g></svg>