<?xml version="1.0" encoding="utf-8"?>
<!-- Generator: Adobe Illustrator 24.0.0, SVG Export Plug-In . SVG Version: 6.00 Build 0)  -->
<svg version="1.1" id="Layer_1" xmlns="http://www.w3.org/2000/svg" xmlns:xlink="http://www.w3.org/1999/xlink" x="0px" y="0px"
	 viewBox="0 0 250.999 127.386" style="enable-background:new 0 0 250.999 127.386;" xml:space="preserve">
<style type="text/css">
	.st0{fill:#3F3D56;}
	.st1{fill:#497345;}
	.st2{fill:#DCF2DA;}
	.st3{fill:#FFFFFF;}
	.st4{fill:#414141;}
	.st5{fill:#EF8940;}
	.st6{fill:#64A15E;}
	.st7{fill:#ED8C47;}
	.st8{fill:#E6E6E6;}
	.st9{fill:#F2F2F2;}
</style>
<g id="Group_417" transform="translate(0)">
	<path id="Path_107" class="st0" d="M22.535,121.81l-0.338-0.127c-0.074-0.028-7.466-2.86-10.928-9.281s-1.767-14.153-1.75-14.23
		l0.08-0.352l0.338,0.127c0.074,0.028,7.466,2.86,10.928,9.281s1.767,14.153,1.75,14.23L22.535,121.81z M11.823,112.103
		c2.927,5.429,8.768,8.212,10.248,8.848c0.281-1.586,1.164-8-1.761-13.424s-8.768-8.211-10.248-8.848
		C9.781,100.266,8.898,106.68,11.823,112.103L11.823,112.103z"/>
	<path id="Path_108" class="st1" d="M13.915,110.15c6.223,3.744,8.619,11.18,8.619,11.18s-7.692,1.366-13.915-2.377
		S0,107.773,0,107.773S7.692,106.406,13.915,110.15z"/>
	<path id="Path_109" class="st0" d="M212.98,1.582h-69.389V0h-31.464v1.582H42.452c-2.727,0.144-4.825,2.465-4.694,5.193v105.119
		c-0.131,2.728,1.967,5.049,4.694,5.193H212.98c2.727-0.144,4.825-2.465,4.694-5.193V6.775
		C217.805,4.047,215.707,1.726,212.98,1.582z"/>
	<rect id="Rectangle_181" x="44.089" y="9.725" class="st2" width="167.329" height="105.645"/>
	<circle id="Ellipse_37" class="st3" cx="127.612" cy="5.434" r="1.716"/>
	<path id="Path_111" class="st0" d="M222.374,113.654H206.05v-1.177c0-0.129-0.104-0.233-0.233-0.233h-5.6
		c-0.129,0-0.233,0.104-0.233,0.233v1.177h-3.5v-1.177c0-0.129-0.104-0.233-0.233-0.233h-5.6c-0.129,0-0.233,0.104-0.233,0.233
		v1.177h-3.5v-1.177c0-0.129-0.104-0.233-0.233-0.233h-5.6c-0.129,0-0.233,0.104-0.233,0.233v1.177h-3.5v-1.177
		c0-0.129-0.104-0.233-0.233-0.233h-5.6c-0.129,0-0.233,0.104-0.233,0.233v1.177h-3.5v-1.177c0-0.129-0.104-0.233-0.233-0.233h-5.6
		c-0.129,0-0.233,0.104-0.233,0.233v1.177h-3.5v-1.177c0-0.129-0.104-0.233-0.233-0.233h-5.6c-0.129,0-0.233,0.104-0.233,0.233
		v1.177h-3.5v-1.177c0-0.129-0.104-0.233-0.233-0.233H104.61c-0.129,0-0.233,0.104-0.233,0.233v1.177h-3.5v-1.177
		c0-0.129-0.104-0.233-0.233-0.233h-5.6c-0.129,0-0.233,0.104-0.233,0.233v1.177h-3.5v-1.177c0-0.129-0.104-0.233-0.233-0.233h-5.6
		c-0.129,0-0.233,0.104-0.233,0.233v1.177h-3.5v-1.177c0-0.129-0.104-0.233-0.233-0.233h-5.6c-0.129,0-0.233,0.104-0.233,0.233
		v1.177h-3.5v-1.177c0-0.129-0.104-0.233-0.233-0.233h-5.6c-0.129,0-0.233,0.104-0.233,0.233v1.177h-3.5v-1.177
		c0-0.129-0.104-0.233-0.233-0.233h-5.6c-0.129,0-0.233,0.104-0.233,0.233v1.177h-3.5v-1.177c0-0.129-0.104-0.233-0.233-0.233h-5.6
		c-0.129,0-0.233,0.104-0.233,0.233v1.177H36.283c-3.093,0-5.6,2.507-5.6,5.6v2.532c0,3.093,2.507,5.6,5.6,5.6h186.091
		c3.093,0,5.6-2.507,5.6-5.6v-2.532C227.974,116.161,225.467,113.654,222.374,113.654z"/>
	<rect id="Rectangle_182" x="7.657" y="121.64" class="st0" width="243.342" height="0.743"/>
	<path id="Path_112" class="st0" d="M201.057,66.49h-53.874V35.819h53.875L201.057,66.49z M147.713,65.958h52.808v-29.6h-52.808
		V65.958z"/>
	<path id="Path_113" class="st0" d="M102.414,73.49H54.407V43.619h48.007L102.414,73.49z M54.937,72.958h46.94v-28.8h-46.94V72.958z
		"/>
	<path id="Path_114" class="st0" d="M76.832,62.118l-0.046-0.6c-0.099-1.463,0.416-2.901,1.422-3.968
		c1.032-1.216,1.606-2.11,1.606-3.142c0-1.17-0.734-1.95-2.179-1.972c-0.827-0.003-1.635,0.245-2.317,0.711l-0.55-1.445
		c0.982-0.616,2.121-0.935,3.28-0.918c2.638,0,3.83,1.629,3.83,3.372c0,1.56-0.872,2.684-1.973,3.991
		c-0.885,0.894-1.358,2.115-1.307,3.372l0.023,0.6L76.832,62.118z M76.332,65.329c-0.049-0.747,0.517-1.393,1.264-1.442
		c0.037-0.002,0.075-0.003,0.112-0.003c0.739-0.011,1.346,0.58,1.357,1.319c0.001,0.042-0.001,0.084-0.004,0.126
		c0.035,0.754-0.547,1.393-1.301,1.428c-0.754,0.035-1.393-0.547-1.428-1.301C76.33,65.414,76.33,65.372,76.332,65.329z"/>
	<path id="Path_115" class="st4" d="M172.548,54.701l-0.046-0.6c-0.099-1.463,0.416-2.901,1.422-3.968
		c1.032-1.216,1.606-2.11,1.606-3.142c0-1.17-0.734-1.95-2.179-1.972c-0.827-0.003-1.635,0.244-2.317,0.711l-0.55-1.445
		c0.982-0.616,2.121-0.935,3.28-0.918c2.638,0,3.83,1.629,3.83,3.372c0,1.56-0.872,2.684-1.973,3.991
		c-0.885,0.894-1.358,2.115-1.307,3.372l0.023,0.6L172.548,54.701z M172.048,57.912c-0.049-0.747,0.517-1.393,1.264-1.442
		c0.037-0.002,0.075-0.003,0.112-0.003c0.739-0.011,1.346,0.58,1.357,1.319c0.001,0.042-0.001,0.084-0.004,0.126
		c0.035,0.754-0.547,1.393-1.301,1.428c-0.754,0.035-1.393-0.547-1.428-1.301C172.046,57.997,172.046,57.955,172.048,57.912z"/>
	<circle id="Ellipse_38" class="st5" cx="128.697" cy="77.045" r="23.015"/>
	<path id="Path_116" class="st5" d="M119.812,112.345l-6.88-1.246l2.232-14.366l6.88,1.246L119.812,112.345z"/>
	
		<rect id="Rectangle_183" x="124.981" y="102.51" transform="matrix(0.1781 -0.984 0.984 0.1781 3.5548 216.2682)" class="st5" width="12.527" height="6.992"/>
	
		<ellipse id="Ellipse_39" transform="matrix(0.198 -0.9802 0.9802 0.198 -3.864 219.9001)" class="st5" cx="132.454" cy="112.311" rx="2.185" ry="5.826"/>
	
		<ellipse id="Ellipse_40" transform="matrix(0.1313 -0.9913 0.9913 0.1313 -8.7935 214.6191)" class="st5" cx="118.065" cy="112.327" rx="2.185" ry="5.827"/>
	<circle id="Ellipse_41" class="st3" cx="130.308" cy="70.227" r="7.866"/>
	<circle id="Ellipse_42" class="st0" cx="133.54" cy="67.059" r="2.622"/>
	<path id="Path_117" class="st3" d="M110.542,48.065c-0.346-8.52,7-15.737,16.4-16.119s17.314,6.219,17.657,14.735
		s-6.191,10.456-15.6,10.838S110.888,56.585,110.542,48.065z"/>
	
		<ellipse id="Ellipse_43" transform="matrix(0.9748 -0.223 0.223 0.9748 -12.2348 35.2384)" class="st5" cx="149.941" cy="71.803" rx="11.509" ry="3.614"/>
	
		<ellipse id="Ellipse_44" transform="matrix(0.9748 -0.223 0.223 0.9748 -15.2279 25.3788)" class="st5" cx="104.78" cy="80.129" rx="11.509" ry="3.614"/>
	<path id="Path_118" class="st3" d="M122.377,86.608c-0.537,2.846,1.334,5.589,4.18,6.126c2.846,0.537,5.589-1.334,6.126-4.18
		c0.005-0.026,0.01-0.052,0.014-0.078c0.516-2.85-1.687-3.858-4.537-4.374S122.893,83.758,122.377,86.608z"/>
	<rect id="Rectangle_184" x="41.2" y="3.5" class="st1" width="37.842" height="35.997"/>
	<rect id="Rectangle_185" x="45.5" y="7.8" class="st3" width="29.242" height="22.361"/>
	<circle id="Ellipse_45" class="st6" cx="50.704" cy="18.987" r="3.349"/>
	<circle id="Ellipse_46" class="st7" cx="60.119" cy="18.987" r="3.349"/>
	<circle id="Ellipse_47" class="st8" cx="69.533" cy="18.987" r="3.349"/>
	<rect id="Rectangle_188" x="59.193" y="84.454" class="st1" width="37.842" height="35.997"/>
	<rect id="Rectangle_189" x="63.492" y="88.755" class="st3" width="29.242" height="22.361"/>
	<rect id="Rectangle_190" x="69.927" y="89.804" class="st5" width="10.251" height="10.251"/>
	<path id="Path_119" class="st0" d="M73.85,92.828v12.448h12.448V92.828H73.85z M85.758,104.736H74.39v-11.37h11.368L85.758,104.736
		z"/>
	<rect id="Rectangle_191" x="63.465" y="113.335" class="st9" width="15.906" height="0.837"/>
	<circle id="Ellipse_49" class="st0" cx="78.111" cy="82.639" r="1.674"/>
	<rect id="Rectangle_192" x="157.682" y="71.191" class="st2" width="37.842" height="35.997"/>
	<rect id="Rectangle_193" x="161.983" y="74.732" class="st3" width="29.242" height="22.361"/>
	<rect id="Rectangle_194" x="173.46" y="92.525" class="st5" width="6.291" height="1.864"/>
	<rect id="Rectangle_195" x="165.854" y="76.518" class="st5" width="21.501" height="0.799"/>
	<rect id="Rectangle_196" x="165.854" y="79.295" class="st5" width="21.501" height="0.799"/>
	<rect id="Rectangle_197" x="165.854" y="82.072" class="st5" width="21.501" height="0.799"/>
	<rect id="Rectangle_198" x="165.854" y="84.849" class="st5" width="21.501" height="0.799"/>
	<rect id="Rectangle_199" x="165.854" y="87.626" class="st5" width="21.501" height="0.799"/>
	<rect id="Rectangle_200" x="161.957" y="100.217" class="st0" width="15.906" height="0.837"/>
	<rect id="Rectangle_201" x="161.956" y="104.652" class="st0" width="22.184" height="0.837"/>
	<circle id="Ellipse_50" class="st0" cx="176.605" cy="70.787" r="1.674"/>
</g>
</svg>
