<svg id="Layer_1" data-name="Layer 1" xmlns="http://www.w3.org/2000/svg" viewBox="0 0 550.076 362.441"><defs><style>.cls-1,.cls-2{fill:#fff;}.cls-1{opacity:0.278;}.cls-1,.cls-9{isolation:isolate;}.cls-3{fill:#64a15e;}.cls-4{fill:#ff9f5b;}.cls-5{fill:#ef8940;}.cls-6{fill:#2f2e41;}.cls-7{fill:#cb8e63;}.cls-8{fill:#ffdbdb;}.cls-9{opacity:0.1;}.cls-10{fill:#4f3595;}.cls-11{fill:#532207;}</style></defs><title>xac-nhan-link-ref</title><path id="Path_4846" data-name="Path 4846" class="cls-1" d="M525.108,345.205c-7.36,15.043-393.734,13.78-393.148,0C139.32,330.162,525.694,331.425,525.108,345.205Z"/><rect id="Rectangle_960" data-name="Rectangle 960" class="cls-2" x="366.247" y="22.136" width="64.856" height="61.622"/><rect id="Rectangle_961" data-name="Rectangle 961" class="cls-3" x="146.608" y="39.486" width="185.849" height="169.31"/><rect id="Rectangle_962" data-name="Rectangle 962" class="cls-2" x="202.472" y="67.604" width="74.121" height="10.171"/><rect id="Rectangle_963" data-name="Rectangle 963" class="cls-2" x="171.951" y="91.535" width="51.504" height="5.983"/><rect id="Rectangle_964" data-name="Rectangle 964" class="cls-2" x="213.372" y="131.021" width="51.504" height="5.983"/><rect id="Rectangle_965" data-name="Rectangle 965" class="cls-4" x="254.793" y="91.535" width="51.504" height="5.983"/><rect id="Rectangle_966" data-name="Rectangle 966" class="cls-5" x="374.968" y="56.836" width="46.871" height="2.77"/><rect id="Rectangle_967" data-name="Rectangle 967" class="cls-5" x="374.423" y="62.929" width="46.871" height="2.77"/><rect id="Rectangle_968" data-name="Rectangle 968" class="cls-5" x="374.968" y="69.023" width="46.871" height="2.77"/><rect id="Rectangle_969" data-name="Rectangle 969" class="cls-5" x="374.968" y="36.494" width="46.871" height="2.77"/><rect id="Rectangle_970" data-name="Rectangle 970" class="cls-5" x="374.423" y="42.588" width="46.871" height="2.77"/><rect id="Rectangle_971" data-name="Rectangle 971" class="cls-5" x="374.968" y="48.681" width="46.871" height="2.77"/><rect id="Rectangle_972" data-name="Rectangle 972" class="cls-3" x="384.778" y="42.477" width="64.856" height="61.622"/><rect id="Rectangle_973" data-name="Rectangle 973" class="cls-2" x="393.498" y="77.177" width="46.871" height="2.77"/><rect id="Rectangle_974" data-name="Rectangle 974" class="cls-2" x="392.953" y="83.27" width="46.871" height="2.77"/><rect id="Rectangle_975" data-name="Rectangle 975" class="cls-2" x="393.498" y="89.364" width="46.871" height="2.77"/><rect id="Rectangle_976" data-name="Rectangle 976" class="cls-2" x="393.498" y="56.836" width="46.871" height="2.77"/><rect id="Rectangle_977" data-name="Rectangle 977" class="cls-2" x="392.953" y="62.929" width="46.871" height="2.77"/><rect id="Rectangle_978" data-name="Rectangle 978" class="cls-2" x="393.498" y="69.023" width="46.871" height="2.77"/><rect id="Rectangle_979" data-name="Rectangle 979" class="cls-2" y="66.408" width="64.856" height="61.622"/><rect id="Rectangle_980" data-name="Rectangle 980" class="cls-5" x="8.72" y="101.107" width="46.871" height="2.77"/><rect id="Rectangle_981" data-name="Rectangle 981" class="cls-5" x="8.175" y="107.201" width="46.871" height="2.77"/><rect id="Rectangle_982" data-name="Rectangle 982" class="cls-5" x="8.72" y="113.294" width="46.871" height="2.77"/><rect id="Rectangle_983" data-name="Rectangle 983" class="cls-5" x="8.72" y="80.766" width="46.871" height="2.77"/><rect id="Rectangle_984" data-name="Rectangle 984" class="cls-5" x="8.175" y="86.86" width="46.871" height="2.77"/><rect id="Rectangle_985" data-name="Rectangle 985" class="cls-5" x="8.72" y="92.953" width="46.871" height="2.77"/><rect id="Rectangle_986" data-name="Rectangle 986" class="cls-2" x="171.951" y="111.278" width="135.163" height="5.983"/><rect id="Rectangle_987" data-name="Rectangle 987" class="cls-4" x="171.951" y="131.021" width="30.248" height="5.983"/><rect id="Rectangle_988" data-name="Rectangle 988" class="cls-2" x="171.951" y="170.507" width="30.248" height="5.983"/><rect id="Rectangle_989" data-name="Rectangle 989" class="cls-2" x="276.048" y="131.021" width="30.248" height="5.983"/><rect id="Rectangle_990" data-name="Rectangle 990" class="cls-2" x="171.951" y="150.764" width="135.163" height="5.983"/><rect id="Rectangle_991" data-name="Rectangle 991" class="cls-2" x="227.815" y="170.507" width="79.299" height="5.983"/><path id="Path_4847" data-name="Path 4847" class="cls-6" d="M294.193,94.89l-.865-.727L352.352,9.572h58.586v1.2H352.891Z"/><path id="Path_4848" data-name="Path 4848" class="cls-6" d="M175.14,134.466,88.64,53.245H30.521v-1.2H89.039l86.81,81.508Z"/><ellipse id="Ellipse_141" data-name="Ellipse 141" class="cls-5" cx="410.938" cy="9.572" rx="8.72" ry="9.572"/><ellipse id="Ellipse_142" data-name="Ellipse 142" class="cls-5" cx="30.52" cy="52.647" rx="8.72" ry="9.572"/><path id="Path_4849" data-name="Path 4849" class="cls-7" d="M487.132,335.082s12.716-46.966-35.642-73.7Z"/><path id="Path_4850" data-name="Path 4850" class="cls-7" d="M488.716,335.333s5.04-46.353,61.36-49.258Z"/><path id="Path_4851" data-name="Path 4851" class="cls-8" d="M272.652,327.915l-13.148-.958,4.381,21.643,14.9-6.733Z"/><path id="Path_4852" data-name="Path 4852" class="cls-6" d="M393.143,287.509l-30.67-32.7-17.526,14.91-34.614,45.69,3.943,6.733,42.062-31.262,28.479,40.882,27.165-14.91Z"/><path id="Path_4853" data-name="Path 4853" class="cls-9" d="M393.143,287.509l-30.67-32.7-17.526,14.91-34.614,45.69,3.943,6.733,42.062-31.262,28.479,40.882,27.165-14.91Z"/><path id="Path_4854" data-name="Path 4854" class="cls-8" d="M395.771,309.156l-3.943,3.367L359.843,300.5l-7.448-3.367L337.5,300.5s0-13.467,14.021-12.986l14.459,3.848,17.086,1.443Z"/><path id="Path_4855" data-name="Path 4855" class="cls-6" d="M424.25,344.747l-9.639,6.733H403.219L350.2,329.837l-77.552,15.391-2.191-18.276L341.44,292.8l62.217,22.6Z"/><path id="Path_4856" data-name="Path 4856" class="cls-8" d="M362.034,259.137l-6.572,1.442-1.432-1.834a10.481,10.481,0,0,1-1.2-10.671h0l18.4-26.453s5.258-12.986,13.583-7.7-7.01,13.948-7.01,13.948l-9.2,15.872.876,8.176Z"/><ellipse id="Ellipse_143" data-name="Ellipse 143" class="cls-8" cx="403.658" cy="209.117" rx="17.088" ry="18.757"/><path id="Path_4857" data-name="Path 4857" class="cls-8" d="M395.991,222.825l7.887,20.681,18.84-8.657s-6.134-16.353-6.134-16.834S395.991,222.825,395.991,222.825Z"/><path id="Path_4858" data-name="Path 4858" class="cls-10" d="M447.871,284.008a117.435,117.435,0,0,1-4.815,33.333l-1.28,4.321-6.134,30.781-6.572,1.924-4.819-6.733-9.639-7.7-7.01-12.5-6.011-11-1.877-3.434-6.572-36.072-24.974-15.391-8.324-1.444,1.753-5.291,7.449-11.062,7.448-.962,2.191-1.924,1.753.962,7.01-4.329,2.191.962,12.811,1.308,7.781-1.789,11.19-6.594L426,232.2l15.773,14.429A117.107,117.107,0,0,1,447.871,284.008Z"/><path id="Path_4859" data-name="Path 4859" class="cls-6" d="M263.543,335.361s3.924-7.3,2.267-8.153-8.7-4.25-8.7-4.25L246.787,319.2s-14.9-24.3-15.223-3.168,10.846,26.213,10.846,26.213,9.965,23.541,15.609,19.787,11.293-16.5,11.293-16.5S259.136,339.53,263.543,335.361Z"/><path id="Path_4860" data-name="Path 4860" class="cls-9" d="M443.091,279.823l-16.648,12.019-24.852,24.6-1.875-3.434-5.258-28.858h1.314l13.583-27.414Z"/><path id="Path_4861" data-name="Path 4861" class="cls-10" d="M409.353,253.847,395.77,281.261h-4.819l-3.067,9.62-7.01,1.924,18.84,22.6,26.727-26.453,16.649-12.024Z"/><path id="Path_4862" data-name="Path 4862" class="cls-11" d="M390.368,195.169l-1.851.782a2.869,2.869,0,0,1-1.094-1.842,3.061,3.061,0,0,1,.433-2.146l-3.421-.176a25.342,25.342,0,0,1,18.584-11.24A24.518,24.518,0,0,1,423,188.375c.156-.589,1.854.557,2.547,1.719.233-.958,1.825,3.674,2.388,6.949.261-1.09,1.263.67.385,2.359.556-.089.808,1.473.377,2.344.609-.314.506,1.552-.154,2.8.869-.085-6.851,13.066-9.976,20.752-.908-4.577-1.928-9.4-4.854-12.807-.5-.58-1.042-1.107-1.586-1.634l-2.941-2.85c-3.42-3.314-6.531-7.4-11.088-8.643-3.131-.851-5.111-1.043-3.4-4.916-1.542.706-2.981,1.756-4.537,2.412C390.18,196.317,390.4,195.712,390.368,195.169Z"/><ellipse id="Ellipse_144" data-name="Ellipse 144" class="cls-8" cx="412.202" cy="211.282" rx="3.067" ry="3.367"/></svg>