<svg id="Layer_1" data-name="Layer 1" xmlns="http://www.w3.org/2000/svg" xmlns:xlink="http://www.w3.org/1999/xlink" viewBox="0 0 597.421 319.608"><defs><style>.cls-1,.cls-12,.cls-13,.cls-14,.cls-34,.cls-35,.cls-36,.cls-37,.cls-40,.cls-42,.cls-54,.cls-6{fill:none;}.cls-2{opacity:0.4;}.cls-3{fill:#cfedfc;}.cls-4{fill:#b5e3f5;}.cls-5{opacity:0.25;}.cls-12,.cls-13,.cls-40,.cls-42,.cls-6{stroke:#fff;}.cls-12,.cls-13,.cls-6{stroke-linecap:round;stroke-linejoin:round;}.cls-6{stroke-width:0.835px;}.cls-7{fill:#74c163;}.cls-8{fill:#5275a0;opacity:0.35;}.cls-23,.cls-24,.cls-25,.cls-27,.cls-28,.cls-38,.cls-43,.cls-8{isolation:isolate;}.cls-9{fill:#64a15d;}.cls-10{fill:#fff;}.cls-11{fill:#daf1fa;}.cls-12{stroke-width:1.214px;}.cls-13{stroke-width:1.009px;}.cls-14{stroke:#497345;stroke-width:1.62px;}.cls-14,.cls-34,.cls-35,.cls-36,.cls-37,.cls-40,.cls-54{stroke-miterlimit:10;}.cls-15{fill:#ee8840;}.cls-16{fill:#da7a32;}.cls-17{clip-path:url(#clip-path);}.cls-18{fill:#ef466d;}.cls-19{fill:#3863af;}.cls-20{fill:#e62f28;}.cls-21{fill:#426bb3;}.cls-22,.cls-24,.cls-25{fill:#497345;}.cls-24{font-size:5px;}.cls-24,.cls-25{font-family:OpenSans, Open Sans;}.cls-25{font-size:3.747px;}.cls-26{clip-path:url(#clip-path-2);}.cls-27{fill:#7a5321;}.cls-27,.cls-38{opacity:0.3;}.cls-28{fill:#9ac3e8;opacity:0.32;}.cls-29{fill:#771b18;}.cls-30{fill:#fedbc5;}.cls-31{fill:#f9a166;}.cls-32{fill:#ffe1bd;}.cls-33{fill:#4b2423;}.cls-34{stroke:#000;stroke-width:0.473px;}.cls-35,.cls-36{stroke:#64a15d;}.cls-36{stroke-width:0.96px;}.cls-37{stroke:#282227;stroke-width:3px;}.cls-39{fill:#40653b;}.cls-40{stroke-width:0.743px;}.cls-41{fill:#d8d8d8;}.cls-42{stroke-miterlimit:10;stroke-width:1.487px;}.cls-43{opacity:0.5;}.cls-44{fill:#f9ae85;}.cls-45{fill:#312a17;}.cls-46{fill:#6c2423;}.cls-47{fill:#523c2c;}.cls-48{fill:#fdb849;}.cls-49{fill:#91c9ee;}.cls-50{fill:#b4d9f3;}.cls-51{fill:#f29d77;}.cls-52{fill:#282227;}.cls-53{fill:#9fdcf4;}.cls-54{stroke:#9fdcf4;}</style><clipPath id="clip-path" transform="translate(91.231)"><rect class="cls-1" x="94.733" y="133.593" width="170.272" height="127.622"/></clipPath><clipPath id="clip-path-2" transform="translate(91.231)"><rect class="cls-1" x="94.375" y="123.48" width="183.763" height="137.733"/></clipPath></defs><title>contact</title><g id="Group_3100" data-name="Group 3100"><g id="Group_3018" data-name="Group 3018" class="cls-2"><path id="Path_4907" data-name="Path 4907" class="cls-3" d="M180.894,61.24V4.967L153.577,46.68v69.361h-17.6v-99.4H131.5L118.754,0,105.941,16.637h-4.4V150.785H36.777v73.064H223.57V61.24Zm-49.4,35.667H106.015V93.27H131.5Zm0-7.257H106.015V86.013H131.5Zm0-7.258H106.015V78.764H131.5Zm0-7.257H106.015V71.507H131.5Zm0-7.251H106.015V64.249H131.5Zm0-7.257H106.015V56.991H131.5Zm0-7.257H106.015V49.742H131.5Zm0-7.257H106.015V42.484H131.5Zm0-7.257H106.015V35.227H131.5Zm0-7.251H106.015V27.969H131.5Zm0-7.257H106.015V20.719H131.5Zm45.93,176.762h-2.645V22.527l2.645-4.05Z" transform="translate(91.231)"/><path id="Path_4908" data-name="Path 4908" class="cls-3" d="M373.81,61.24V4.967L346.49,46.68v69.361h-17.6v-99.4h-4.476L311.67,0,298.857,16.637h-4.4V150.785H229.7v73.064H416.484V61.24Zm-49.4,35.667H298.931V93.27h25.483Zm0-7.257H298.931V86.013h25.483Zm0-7.258H298.931V78.764h25.483Zm0-7.257H298.931V71.507h25.483Zm0-7.251H298.931V64.249h25.483Zm0-7.257H298.931V56.991h25.483Zm0-7.257H298.931V49.742h25.483Zm0-7.257H298.931V42.484h25.483Zm0-7.257H298.931V35.227h25.483Zm0-7.251H298.931V27.969h25.483Zm0-7.257H298.931V20.719h25.483ZM370.34,201.11H367.7V22.527l2.645-4.05Z" transform="translate(91.231)"/><path id="Path_4909" data-name="Path 4909" class="cls-3" d="M304.09,155.771V28.587h-4.1V15.719H268.254V28.587h-4.079V188.478H234.393v-72.41h-43.37v95.017H170.069V40.885h-42.72V171.648h-5.014V93.807h-7.73l-21.544-15.9v15.9H88.349v96.134H77.89V59.755H67.312V14.083H65.864V59.755H55.285V224.133H330.819V155.771ZM75.341,143.407H57.887v-2.829H75.341Zm0-6.547H57.887v-2.829H75.341Zm0-6.556H57.887v-2.827H75.341Zm0-6.547H57.887v-2.829H75.341Zm0-6.547H57.887v-2.829H75.341Zm0-6.556H57.887v-2.827H75.341Zm0-6.547H57.887v-2.829H75.341Zm0-6.548H57.887V94.73H75.341Zm0-6.555H57.887v-2.83H75.341Zm0-6.548H57.887V81.627H75.341Zm0-6.547H57.887V75.08H75.341Zm0-6.556H57.887V68.524H75.341Zm0-6.547H57.887V61.977H75.341Zm61.209,38.988h-5.2V96.547h5.2Zm0-12.1h-5.2V84.433h5.2Zm0-12.1h-5.2V72.342h5.2Zm0-12.1h-5.2V60.232h5.2Zm0-12.1h-5.2V48.133h5.2Zm9.871,48.4H141.23V96.547h5.191Zm0-12.1H141.23V84.433h5.191Zm0-12.1H141.23V72.342h5.191Zm0-12.1H141.23V60.232h5.191Zm0-12.1H141.23V48.133h5.191Zm9.877,48.4h-5.2V96.547h5.2Zm0-12.1h-5.2V84.433h5.2Zm0-12.1h-5.2V72.342h5.2Zm0-12.1h-5.2V60.232h5.2Zm0-12.1h-5.2V48.133h5.2Zm9.871,48.4h-5.191V96.547h5.191Zm0-12.1h-5.191V84.433h5.191Zm0-12.1h-5.191V72.342h5.191Zm0-12.1h-5.191V60.232h5.191ZM308.181,215.626h-5.4v-7.545h5.4Zm0-15.108h-5.4v-7.545h5.4Zm0-15.108h-5.4v-7.545h5.4Zm0-15.109h-5.4v-7.544h5.4Zm10.024,45.325h-5.4v-7.545h5.4Zm0-15.108h-5.4v-7.545h5.4Zm0-15.108h-5.4v-7.545h5.4Zm0-15.109h-5.4v-7.544h5.4Zm10.022,45.325H322.82v-7.545h5.407Zm0-15.108H322.82v-7.545h5.407Zm0-15.108H322.82v-7.545h5.407Zm0-15.109H322.82v-7.544h5.407Z" transform="translate(91.231)"/><path id="Path_4910" data-name="Path 4910" class="cls-3" d="M430.821,142.258V28.587h-4.1V15.719H394.984V28.587h-4.078V188.478H361.123v-72.41H317.754v95.017H296.8V40.885H254.079V171.648h-5.014V93.807h-7.727L219.8,77.907v15.9h-4.713v96.134h-10.46V59.755h-10.58V14.083h-1.449V59.755H182.015V224.133H457.55V142.258Zm-228.75,1.149H184.617v-2.829h17.454Zm0-6.547H184.617v-2.829h17.454Zm0-6.556H184.617v-2.827h17.454Zm0-6.547H184.617v-2.829h17.454Zm0-6.547H184.617v-2.829h17.454Zm0-6.556H184.617v-2.827h17.454Zm0-6.547H184.617v-2.829h17.454Zm0-6.548H184.617V94.73h17.454Zm0-6.555H184.617v-2.83h17.454Zm0-6.548H184.617V81.627h17.454Zm0-6.547H184.617V75.08h17.454Zm0-6.556H184.617V68.524h17.454Zm0-6.547H184.617V61.977h17.454Zm61.21,38.988h-5.2V96.547h5.2Zm0-12.1h-5.2V84.433h5.2Zm0-12.1h-5.2V72.342h5.2Zm0-12.1h-5.2V60.232h5.2Zm0-12.1h-5.2V48.133h5.2Zm9.87,48.4H267.96V96.547h5.191Zm0-12.1H267.96V84.433h5.191Zm0-12.1H267.96V72.342h5.191Zm0-12.1H267.96V60.232h5.191Zm0-12.1H267.96V48.133h5.191Zm9.878,48.4h-5.2V96.547h5.2Zm0-12.1h-5.2V84.433h5.2Zm0-12.1h-5.2V72.342h5.2Zm0-12.1h-5.2V60.232h5.2Zm0-12.1h-5.2V48.133h5.2Zm9.87,48.4h-5.19V96.547H292.9Zm0-12.1h-5.19V84.433H292.9Zm0-12.1h-5.19V72.342H292.9Zm0-12.1h-5.19V60.232H292.9Zm144.75,128.1h-4.662V189.08h4.662Zm0-13.043h-4.662v-6.515h4.662Zm0-13.044h-4.662v-6.514h4.662Zm0-13.043h-4.662V149.95h4.662Zm8.652,39.13h-4.662V189.08H446.3Zm0-13.043h-4.662v-6.515H446.3Zm0-13.044h-4.662v-6.514H446.3Zm0-13.043h-4.662V149.95H446.3Zm8.652,39.13h-4.668V189.08h4.668Zm0-13.043h-4.668v-6.515h4.668Zm0-13.044h-4.668v-6.514h4.668Zm0-13.043h-4.668V149.95h4.668Z" transform="translate(91.231)"/><rect id="Rectangle_1000" data-name="Rectangle 1000" class="cls-3" x="548.781" y="166.529" width="18.504" height="87.504"/></g><g id="Group_3020" data-name="Group 3020"><path id="Path_4911" data-name="Path 4911" class="cls-4" d="M65.146,227.911c-2.458-1.991-5-4.091-6.292-6.98-1.2-2.676-2.7-5.568-3.228-8.451a23.738,23.738,0,0,0-3.227-8.124c-4.829-7.825-8.066-5.654-9.136-4.558-1.052,1.077-1.17,2.676-.456,4.938.573,1.82,4.788,9.8,1.607,9.516-3.68-.325-6.673-9.151-8.2-11.9-2.291-4.117-5.735-8.163-10.16-10.023-2.181-.917-5-1.159-6.654.531a5.47,5.47,0,0,0-1.317,3.924c.047,4.265,2.764,7.756,5.508,10.764,1.147,1.257,8.644,6.3,4.213,7.117-1.058.2-11.734-3.4-10.152,3.677.557,2.492,4.1,4,9.424,5.566,3.327.978,14.9,2.511,15.341,5.329s-6.487.517-4.1,5.211c1.336,2.63,5.659,3.336,8.484,3.508,1.344.082,2.7-.1,4.035.065,1.584.2,3.809,1.256,3.347,3.215-.2.855-.946,1.51-1.12,2.371a2.5,2.5,0,0,0,1,2.342,5.79,5.79,0,0,0,2.454,1.009c5.594,1.195,11.517-.385,16.436-3.3s8.968-7.092,12.718-11.413" transform="translate(91.231)"/><g id="Group_3019" data-name="Group 3019" class="cls-5"><path id="Path_4912" data-name="Path 4912" class="cls-6" d="M23.633,196.535s15.75,26.845,39.588,38.624" transform="translate(91.231)"/><path id="Path_4913" data-name="Path 4913" class="cls-6" d="M22.375,218.349s12.462,4.168,20.884,2.423" transform="translate(91.231)"/><path id="Path_4914" data-name="Path 4914" class="cls-6" d="M46.011,202.868c2.113,4.349,6.988,16.852,4.858,24.469" transform="translate(91.231)"/><path id="Path_4915" data-name="Path 4915" class="cls-6" d="M42.245,234.116s5.01,1.959,17.355-.894" transform="translate(91.231)"/><path id="Path_4916" data-name="Path 4916" class="cls-6" d="M55.666,243.576a19.938,19.938,0,0,0,10.827-6.222" transform="translate(91.231)"/></g></g><g id="Group_3022" data-name="Group 3022"><path id="Path_4917" data-name="Path 4917" class="cls-7" d="M86.3,151.877h0A17.826,17.826,0,0,1,104.12,169.7h0v28.552A6.12,6.12,0,0,1,98,204.374H26.346v-52.5Z" transform="translate(91.231)"/><path id="Path_4918" data-name="Path 4918" class="cls-8" d="M26.347,201.36v3.017H98a6.121,6.121,0,0,0,6.119-6.119v-3.017A6.121,6.121,0,0,1,98,201.36Z" transform="translate(91.231)"/><path id="Path_4919" data-name="Path 4919" class="cls-9" d="M13.22,204.377H38.85a5.321,5.321,0,0,0,5.321-5.321h0V169.7a17.826,17.826,0,0,0-17.824-17.826h0A17.826,17.826,0,0,0,8.52,169.7v29.974a4.7,4.7,0,0,0,4.7,4.7Z" transform="translate(91.231)"/><rect id="Rectangle_1003" data-name="Rectangle 1003" class="cls-7" x="108.332" y="166.864" width="18.49" height="3.326"/><path id="Path_4920" data-name="Path 4920" class="cls-9" d="M57.882,171.388v-26.8h4.676a1.125,1.125,0,0,0,1.123-1.123v-2.284a1.125,1.125,0,0,0-1.123-1.123h-6a1.208,1.208,0,0,0-1.208,1.208v30.119Z" transform="translate(91.231)"/><path id="Path_4921" data-name="Path 4921" class="cls-9" d="M52.463,170.81a4.3,4.3,0,1,0,4.3-4.3h0A4.3,4.3,0,0,0,52.463,170.81Z" transform="translate(91.231)"/><path id="Path_4922" data-name="Path 4922" class="cls-10" d="M54.591,170.81a2.173,2.173,0,1,0,2.174-2.172h0A2.175,2.175,0,0,0,54.591,170.81Z" transform="translate(91.231)"/></g><g id="Group_3024" data-name="Group 3024"><path id="Path_4923" data-name="Path 4923" class="cls-4" d="M96.288,209.24c.626-3.1,1.31-6.329,3.271-8.81,1.818-2.3,3.684-4.97,5.994-6.775a23.719,23.719,0,0,0,5.706-6.624c4.7-7.9,1.274-9.767-.193-10.208-1.442-.433-2.913.2-4.587,1.884-1.347,1.351-6.465,8.781-7.689,5.833-1.416-3.413,5.019-10.153,6.749-12.785,2.588-3.936,4.578-8.864,4.177-13.647-.2-2.358-1.288-4.966-3.553-5.651a5.477,5.477,0,0,0-4.087.65c-3.758,2.018-5.593,6.043-6.989,9.868-.584,1.6-1.577,10.578-4.356,7.03-.664-.847-2.423-11.974-7.962-7.294-1.95,1.647-1.646,5.482-.567,10.93.674,3.4,4.677,14.368,2.383,16.065s-3.462-5.51-6.519-1.223c-1.713,2.4-.335,6.561.821,9.144.55,1.229,1.343,2.344,1.812,3.606.556,1.5.651,3.958-1.3,4.455-.852.217-1.777-.14-2.621.106a2.5,2.5,0,0,0-1.614,1.967,5.8,5.8,0,0,0,.243,2.641c1.532,5.512,5.675,10.029,10.542,13.036s10.439,4.662,16.006,5.984" transform="translate(91.231)"/><g id="Group_3023" data-name="Group 3023" class="cls-5"><path id="Path_4924" data-name="Path 4924" class="cls-6" d="M104.868,157.916s-16.5,26.393-15.892,52.975" transform="translate(91.231)"/><path id="Path_4925" data-name="Path 4925" class="cls-6" d="M84.952,166.905s2.08,12.976,7.526,19.631" transform="translate(91.231)"/><path id="Path_4926" data-name="Path 4926" class="cls-6" d="M109.622,180.681c-2.876,3.888-11.7,14-19.436,15.641" transform="translate(91.231)"/><path id="Path_4927" data-name="Path 4927" class="cls-6" d="M80.183,191.819s.584,5.348,8.831,14.967" transform="translate(91.231)"/><path id="Path_4928" data-name="Path 4928" class="cls-6" d="M78.016,208.1a19.946,19.946,0,0,0,10.525,6.714" transform="translate(91.231)"/></g></g><path id="Path_4929" data-name="Path 4929" class="cls-11" d="M90.064,213.5c-1.022-5.791-17.191-41.885-35.906-32.219-11.117,5.742-9.118,26.883,8.246,42.856-3.408-3.3-7.343-7.034-11.994-7.958a9.272,9.272,0,0,0-7.47,2.4c-1.674,1.546-2.167,3.988-2.244,6.266a24.665,24.665,0,0,0,10.986,21.1c-3.84-2.146-7.168-4.833-11.552-5.21-1.424-.122-3.838.693-4.5,1.962-.717,1.381-.668,6.556,7.787,10.42-34.462-6.536-36.472,8.154-24.084,8.154h101.6" transform="translate(91.231)"/><path id="Path_4930" data-name="Path 4930" class="cls-4" d="M101.375,233.186c-.6-3.4-6.854-24.744-17.831-19.074-6.519,3.367-5.347,15.766,4.837,25.134-2-1.933-4.308-4.125-7.035-4.667a5.436,5.436,0,0,0-4.38,1.4,5.138,5.138,0,0,0-1.316,3.675,14.463,14.463,0,0,0,6.443,12.373c-2.252-1.258-4.2-2.834-6.775-3.055a3.152,3.152,0,0,0-2.638,1.15c-.421.81-.392,3.846,4.567,6.111-20.212-3.833-21.391,4.783-14.126,4.783h48.014" transform="translate(91.231)"/><g id="Group_3026" data-name="Group 3026"><path id="Path_4931" data-name="Path 4931" class="cls-4" d="M425.142,225.164c3.769-2.634,7.673-5.417,9.842-9.471,2.01-3.756,4.486-7.793,5.551-11.918a34.49,34.49,0,0,1,5.516-11.447c7.807-10.847,12.277-7.366,13.716-5.667,1.414,1.67,1.419,4,.152,7.207-1.02,2.578-7.951,13.711-3.312,13.631,5.37-.093,10.618-12.58,13.121-16.412,3.745-5.733,9.156-11.244,15.763-13.486,3.256-1.1,7.365-1.165,9.592,1.456a7.955,7.955,0,0,1,1.5,5.824c-.508,6.179-4.807,10.96-9.094,15.039-1.792,1.706-13.182,8.241-6.841,9.885,1.514.393,17.362-3.718,14.341,6.378-1.064,3.555-6.351,5.375-14.236,7.1-4.924,1.076-21.862,2.106-22.791,6.147s9.352,1.417,5.412,7.978c-2.208,3.675-8.549,4.254-12.662,4.212-1.957-.02-3.9-.429-5.857-.322-2.317.128-5.651,1.429-5.183,4.315.2,1.261,1.217,2.287,1.379,3.553a3.634,3.634,0,0,1-1.685,3.292,8.421,8.421,0,0,1-3.66,1.21c-8.235,1.156-16.659-1.744-23.49-6.484s-12.272-11.207-17.262-17.857" transform="translate(91.231)"/><g id="Group_3025" data-name="Group 3025" class="cls-5"><path id="Path_4932" data-name="Path 4932" class="cls-12" d="M488.561,183.951s-25.6,37.3-61.373,51.918" transform="translate(91.231)"/><path id="Path_4933" data-name="Path 4933" class="cls-12" d="M488.138,215.708s-18.5,4.758-30.527,1.362" transform="translate(91.231)"/><path id="Path_4934" data-name="Path 4934" class="cls-12" d="M455.465,190.827c-3.513,6.088-11.867,23.713-9.565,34.976" transform="translate(91.231)"/><path id="Path_4935" data-name="Path 4935" class="cls-12" d="M457.705,236.52s-7.465,2.325-25.07-3.084" transform="translate(91.231)"/><path id="Path_4936" data-name="Path 4936" class="cls-12" d="M437.273,248.852s-9.325-2.25-15.056-10.137" transform="translate(91.231)"/></g></g><g id="Group_3028" data-name="Group 3028"><path id="Path_4937" data-name="Path 4937" class="cls-4" d="M374.15,167.082c1.123-3.651,2.259-7.47,1.608-11.234-.6-3.488-1.043-7.4-2.454-10.644a28.657,28.657,0,0,1-2.236-10.318c-.428-11.1,4.279-11.1,6.09-10.721,1.779.371,2.974,1.9,3.781,4.644.65,2.21,1.8,13.046,4.8,10.622,3.471-2.8.527-13.667.21-17.457-.476-5.669.253-12.045,3.435-16.889,1.569-2.387,4.23-4.526,7.028-3.947a6.611,6.611,0,0,1,3.962,3.046c2.824,4.309,2.45,9.638,1.727,14.5-.3,2.033-4.426,12.135.569,9.972,1.192-.517,9.474-11.308,12.653-3.15,1.12,2.873-1.414,6.767-5.7,11.925-2.677,3.221-13.247,12.55-11.791,15.672s6.851-3.85,7.623,2.462c.432,3.536-3.428,7.155-6.143,9.229-1.292.987-2.776,1.714-4,2.782-1.453,1.268-2.972,3.824-1.191,5.476.778.722,1.965.877,2.72,1.623a3.025,3.025,0,0,1,.578,3.019,7,7,0,0,1-1.78,2.662c-4.8,4.965-11.805,7.369-18.7,7.755s-13.765-1.072-20.434-2.879" transform="translate(91.231)"/><g id="Group_3027" data-name="Group 3027" class="cls-5"><path id="Path_4938" data-name="Path 4938" class="cls-13" d="M394.639,107.676s2.288,37.516-13.679,65.375" transform="translate(91.231)"/><path id="Path_4939" data-name="Path 4939" class="cls-13" d="M410.589,128.7s-9.687,12.569-19.3,16.491" transform="translate(91.231)"/><path id="Path_4940" data-name="Path 4940" class="cls-13" d="M376.47,129.092c.809,5.783,4.342,21.6,11.606,27.8" transform="translate(91.231)"/><path id="Path_4941" data-name="Path 4941" class="cls-13" d="M401.285,157.883s-3.7,5.338-18,10.79" transform="translate(91.231)"/><path id="Path_4942" data-name="Path 4942" class="cls-13" d="M394.2,176.4a24.092,24.092,0,0,1-15.044,1.053" transform="translate(91.231)"/></g></g><path id="Path_4943" data-name="Path 4943" class="cls-11" d="M367.449,205.878c1.517-7.078,27.284-54.977,55.058-43.162,16.5,7.017,13.531,32.859-12.238,52.382,5.057-4.029,10.9-8.6,17.8-9.726a15.744,15.744,0,0,1,11.084,2.927c2.485,1.89,3.216,4.874,3.33,7.659.418,10.125-5.992,20.263-16.3,25.786,5.7-2.623,10.638-5.907,17.143-6.367,2.114-.149,5.7.848,6.675,2.4,1.064,1.687.99,8.013-11.557,12.737,51.144-7.99,54.127,9.966,35.743,9.966h-121.5" transform="translate(91.231)"/><line id="Line_314" data-name="Line 314" class="cls-14" x1="91.231" y1="260.722" x2="597.421" y2="260.722"/><g id="Group_3031" data-name="Group 3031"><g id="Group_3029" data-name="Group 3029"><path id="Path_4944" data-name="Path 4944" class="cls-15" d="M83.769,77.848l-1.333.283-.031.007a.519.519,0,0,1-.219-1.014l1.4-.306a.523.523,0,0,1,.224,1.022h0Z" transform="translate(91.231)"/><path id="Path_4945" data-name="Path 4945" class="cls-15" d="M80.474,78.7c-.863.288-1.714.621-2.548.989a.5.5,0,0,1-.409-.918q1.29-.579,2.63-1.041a.512.512,0,0,1,.331.969Z" transform="translate(91.231)"/><path id="Path_4946" data-name="Path 4946" class="cls-15" d="M76.075,80.579q-1.215.633-2.375,1.364a.486.486,0,1,1-.521-.821q1.186-.759,2.436-1.421a.5.5,0,0,1,.58.814.48.48,0,0,1-.116.062Z" transform="translate(91.231)"/><path id="Path_4947" data-name="Path 4947" class="cls-15" d="M72,83.093c-.74.536-1.458,1.1-2.147,1.7a.47.47,0,0,1-.619-.707q1.06-.933,2.2-1.767a.479.479,0,1,1,.567.773h0Z" transform="translate(91.231)"/><path id="Path_4948" data-name="Path 4948" class="cls-15" d="M68.347,86.193a24.187,24.187,0,0,0-1.814,2.039.454.454,0,1,1-.714-.561h0a25.162,25.162,0,0,1,1.868-2.128.463.463,0,1,1,.679.63l-.018.018Z" transform="translate(91.231)"/><path id="Path_4949" data-name="Path 4949" class="cls-15" d="M65.35,89.891a16.99,16.99,0,0,0-1.278,2.387.437.437,0,0,1-.8-.344A17.723,17.723,0,0,1,64.6,89.413a.446.446,0,1,1,.755.476Z" transform="translate(91.231)"/><path id="Path_4950" data-name="Path 4950" class="cls-15" d="M63.4,94.186a11.923,11.923,0,0,0-.411,2.648.421.421,0,1,1-.842-.03h0a12.855,12.855,0,0,1,.421-2.839.431.431,0,0,1,.833.218Z" transform="translate(91.231)"/><path id="Path_4951" data-name="Path 4951" class="cls-15" d="M63.1,98.838a11.482,11.482,0,0,0,.693,2.588.4.4,0,1,1-.752.3h0a12.249,12.249,0,0,1-.76-2.769.414.414,0,1,1,.813-.159l.005.036Z" transform="translate(91.231)"/><path id="Path_4952" data-name="Path 4952" class="cls-15" d="M64.678,103.242a16.143,16.143,0,0,0,1.572,2.209.388.388,0,0,1-.593.5,16.9,16.9,0,0,1-1.665-2.306.4.4,0,0,1,.684-.408Z" transform="translate(91.231)"/><path id="Path_4953" data-name="Path 4953" class="cls-15" d="M67.648,106.941a18.752,18.752,0,0,0,2.1,1.736.371.371,0,1,1-.429.606,19.661,19.661,0,0,1-2.2-1.789.381.381,0,0,1,.513-.563l.009.008Z" transform="translate(91.231)"/><path id="Path_4954" data-name="Path 4954" class="cls-15" d="M71.477,109.77a18.753,18.753,0,0,0,2.472,1.153.354.354,0,0,1-.249.662,19.481,19.481,0,0,1-2.575-1.178.364.364,0,0,1,.35-.637Z" transform="translate(91.231)"/><path id="Path_4955" data-name="Path 4955" class="cls-15" d="M75.9,111.541a18.107,18.107,0,0,0,2.685.478.336.336,0,1,1-.066.669h0a18.7,18.7,0,0,1-2.79-.476.346.346,0,1,1,.168-.672Z" transform="translate(91.231)"/><path id="Path_4956" data-name="Path 4956" class="cls-15" d="M80.629,112.107a15.362,15.362,0,0,0,2.706-.271.319.319,0,1,1,.125.626h0a15.992,15.992,0,0,1-2.82.3.329.329,0,0,1-.014-.657Z" transform="translate(91.231)"/><path id="Path_4957" data-name="Path 4957" class="cls-15" d="M85.28,111.274a7.168,7.168,0,0,0,2.257-1.393.3.3,0,1,1,.415.44h0a7.752,7.752,0,0,1-2.437,1.529.312.312,0,1,1-.236-.578Z" transform="translate(91.231)"/><path id="Path_4958" data-name="Path 4958" class="cls-15" d="M88.714,108.3a6.6,6.6,0,0,0,.642-2.566.286.286,0,0,1,.572.03h0a7.168,7.168,0,0,1-.683,2.8.3.3,0,0,1-.532-.259Z" transform="translate(91.231)"/><path id="Path_4959" data-name="Path 4959" class="cls-15" d="M89.205,103.748a5.318,5.318,0,0,0-1.238-2.308.27.27,0,0,1,.4-.363h0a5.87,5.87,0,0,1,1.381,2.535.279.279,0,0,1-.541.139h0Z" transform="translate(91.231)"/><path id="Path_4960" data-name="Path 4960" class="cls-15" d="M86.414,100.179a10.171,10.171,0,0,0-2.491-1.052.253.253,0,0,1,.136-.487,10.621,10.621,0,0,1,2.625,1.089.262.262,0,1,1-.268.451h0Z" transform="translate(91.231)"/><path id="Path_4961" data-name="Path 4961" class="cls-15" d="M81.916,98.724a17.641,17.641,0,0,0-2.738-.127.236.236,0,0,1-.015-.472h0a18.124,18.124,0,0,1,2.814.111.246.246,0,0,1-.059.488Z" transform="translate(91.231)"/><path id="Path_4962" data-name="Path 4962" class="cls-15" d="M77.123,98.763a21.943,21.943,0,0,0-2.7.53.219.219,0,0,1-.112-.424,22.386,22.386,0,0,1,2.751-.56.229.229,0,0,1,.087.45l-.024,0Z" transform="translate(91.231)"/><path id="Path_4963" data-name="Path 4963" class="cls-15" d="M72.451,99.908A22.589,22.589,0,0,0,69.923,101a.2.2,0,0,1-.184-.36,23.153,23.153,0,0,1,2.566-1.131.213.213,0,0,1,.147.4Z" transform="translate(91.231)"/><path id="Path_4964" data-name="Path 4964" class="cls-15" d="M68.125,102.021a21.049,21.049,0,0,0-2.226,1.621.186.186,0,0,1-.239-.284,21.486,21.486,0,0,1,2.256-1.667.2.2,0,0,1,.283.283.211.211,0,0,1-.072.046Z" transform="translate(91.231)"/><path id="Path_4965" data-name="Path 4965" class="cls-15" d="M64.383,105.046a19.454,19.454,0,0,0-1.777,2.1.17.17,0,0,1-.274-.2,19.764,19.764,0,0,1,1.794-2.155.179.179,0,1,1,.265.241l-.007.007Z" transform="translate(91.231)"/><path id="Path_4966" data-name="Path 4966" class="cls-15" d="M61.481,108.884a19.543,19.543,0,0,0-1.2,2.481.152.152,0,1,1-.283-.112h0a19.566,19.566,0,0,1,1.2-2.53.162.162,0,0,1,.291.142l-.01.018Z" transform="translate(91.231)"/><path id="Path_4967" data-name="Path 4967" class="cls-15" d="M59.611,113.323a21.646,21.646,0,0,0-.587,2.7.135.135,0,0,1-.268-.04,21.994,21.994,0,0,1,.575-2.737.145.145,0,1,1,.28.078Z" transform="translate(91.231)"/><path id="Path_4968" data-name="Path 4968" class="cls-15" d="M58.8,118.084a19.89,19.89,0,0,0,0,2.762.119.119,0,0,1-.107.129.122.122,0,0,1-.13-.109,20.283,20.283,0,0,1-.016-2.8.128.128,0,0,1,.256.009h0Z" transform="translate(91.231)"/><path id="Path_4969" data-name="Path 4969" class="cls-15" d="M59.111,122.891A13.414,13.414,0,0,0,60,125.5a.1.1,0,0,1-.049.133h0a.1.1,0,0,1-.133-.049h0a13.654,13.654,0,0,1-.919-2.643.111.111,0,0,1,.215-.056v0Z" transform="translate(91.231)"/><path id="Path_4970" data-name="Path 4970" class="cls-15" d="M61,127.311a15.493,15.493,0,0,0,1.715,2.165.082.082,0,0,1,0,.117.082.082,0,0,1-.117,0,15.733,15.733,0,0,1-1.751-2.177.092.092,0,0,1,.024-.128h0A.094.094,0,0,1,61,127.311Z" transform="translate(91.231)"/><path id="Path_4971" data-name="Path 4971" class="cls-15" d="M64.223,130.894a21.856,21.856,0,0,0,2.231,1.643.066.066,0,0,1,.019.091.065.065,0,0,1-.09.019h0a21.941,21.941,0,0,1-2.257-1.637.077.077,0,0,1,.1-.116Z" transform="translate(91.231)"/><path id="Path_4972" data-name="Path 4972" class="cls-15" d="M68.245,133.6c.814.44,1.65.841,2.5,1.208a.049.049,0,0,1,.025.063.048.048,0,0,1-.062.025q-1.282-.543-2.517-1.194a.058.058,0,0,1,.053-.1Z" transform="translate(91.231)"/><path id="Path_4973" data-name="Path 4973" class="cls-15" d="M72.68,135.58q1.3.478,2.638.871a.029.029,0,0,1,.02.036h0a.03.03,0,0,1-.037.021h0q-1.338-.385-2.649-.853a.041.041,0,0,1-.024-.052.04.04,0,0,1,.051-.024Z" transform="translate(91.231)"/><path id="Path_4974" data-name="Path 4974" class="cls-15" d="M77.331,137l2.716.594a.012.012,0,0,1,.01.014h0a.013.013,0,0,1-.015.01l-2.722-.575a.022.022,0,0,1-.018-.025v0a.023.023,0,0,1,.027-.017Z" transform="translate(91.231)"/><path id="Path_4975" data-name="Path 4975" class="cls-15" d="M82.111,137.937l1.384.171-1.386-.161v-.006h.006Z" transform="translate(91.231)"/></g><g id="Group_3030" data-name="Group 3030"><path id="Path_4976" data-name="Path 4976" class="cls-16" d="M96.189,62.594c.108-.116-8.677,1.735-8.677,1.735L85.005,77.092l6.79-7.769,9.911,1.584,17.707-7.648Z" transform="translate(91.231)"/><path id="Path_4977" data-name="Path 4977" class="cls-16" d="M119.413,63.26,85,77.093,91.8,69.324Z" transform="translate(91.231)"/><path id="Path_4978" data-name="Path 4978" class="cls-15" d="M119.414,63.26,82.368,58.124l5.144,6.206,31.9-1.07L91.794,69.324l8.631,10.88Z" transform="translate(91.231)"/></g></g><g id="Group_3063" data-name="Group 3063"><g id="Group_3047" data-name="Group 3047"><rect id="Rectangle_1004" data-name="Rectangle 1004" class="cls-10" x="185.965" y="133.595" width="170.266" height="127.618"/><g id="Group_3046" data-name="Group 3046"><g class="cls-17"><g id="Group_3045" data-name="Group 3045"><g id="Group_3044" data-name="Group 3044"><g id="Group_3037" data-name="Group 3037"><g id="Group_3032" data-name="Group 3032"><rect id="Rectangle_1005" data-name="Rectangle 1005" class="cls-18" x="160.924" y="213.553" width="283.82" height="10.188" transform="translate(23.682 266.932) rotate(-43.257)"/></g><g id="Group_3033" data-name="Group 3033"><line id="Line_315" data-name="Line 315" class="cls-1" x1="226.885" y1="315.893" x2="433.702" y2="121.358"/><rect id="Rectangle_1006" data-name="Rectangle 1006" class="cls-19" x="97.097" y="213.553" width="283.82" height="10.188" transform="translate(6.339 223.194) rotate(-43.257)"/></g><g id="Group_3034" data-name="Group 3034"><line id="Line_316" data-name="Line 316" class="cls-1" x1="163.057" y1="315.893" x2="369.874" y2="121.358"/><rect id="Rectangle_1007" data-name="Rectangle 1007" class="cls-20" x="33.269" y="213.553" width="283.82" height="10.188" transform="translate(-11.003 179.454) rotate(-43.257)"/></g><g id="Group_3035" data-name="Group 3035"><line id="Line_317" data-name="Line 317" class="cls-1" x1="99.23" y1="315.893" x2="306.047" y2="121.358"/><rect id="Rectangle_1008" data-name="Rectangle 1008" class="cls-19" x="-30.559" y="213.529" width="283.932" height="10.192" transform="translate(-28.304 135.715) rotate(-43.249)"/></g><g id="Group_3036" data-name="Group 3036"><line id="Line_318" data-name="Line 318" class="cls-1" x1="35.403" y1="315.893" x2="242.22" y2="121.358"/><rect id="Rectangle_1009" data-name="Rectangle 1009" class="cls-19" x="-94.386" y="213.529" width="283.932" height="10.192" transform="translate(-45.641 91.983) rotate(-43.249)"/></g></g><g id="Group_3043" data-name="Group 3043"><g id="Group_3038" data-name="Group 3038"><rect id="Rectangle_1010" data-name="Rectangle 1010" class="cls-21" x="129.01" y="213.529" width="283.932" height="10.192" transform="translate(15.037 245.047) rotate(-43.249)"/></g><g id="Group_3039" data-name="Group 3039"><rect id="Rectangle_1011" data-name="Rectangle 1011" class="cls-21" x="65.183" y="213.529" width="283.932" height="10.192" transform="translate(-2.299 201.315) rotate(-43.249)"/></g><g id="Group_3040" data-name="Group 3040"><rect id="Rectangle_1012" data-name="Rectangle 1012" class="cls-20" x="1.355" y="213.529" width="283.932" height="10.192" transform="translate(-19.636 157.582) rotate(-43.249)"/></g><g id="Group_3041" data-name="Group 3041"><rect id="Rectangle_1013" data-name="Rectangle 1013" class="cls-20" x="-62.471" y="213.552" width="283.82" height="10.188" transform="translate(-37.016 113.846) rotate(-43.257)"/></g><g id="Group_3042" data-name="Group 3042"><rect id="Rectangle_1014" data-name="Rectangle 1014" class="cls-20" x="-126.299" y="213.553" width="283.82" height="10.188" transform="translate(-54.36 70.107) rotate(-43.257)"/></g></g></g></g></g></g><path id="Path_5094" data-name="Path 5094" class="cls-10" d="M99.586,138.445H260.151V256.36H99.586Z" transform="translate(91.231)"/></g><g id="Group_3062" data-name="Group 3062"><g id="Group_3055" data-name="Group 3055"><g id="Group_3054" data-name="Group 3054"><g id="Group_3049" data-name="Group 3049"><g id="Group_3048" data-name="Group 3048"><rect id="Rectangle_1017" data-name="Rectangle 1017" class="cls-22" x="294.613" y="224.302" width="46.09" height="0.486"/></g></g><g id="Group_3051" data-name="Group 3051"><g id="Group_3050" data-name="Group 3050"><rect id="Rectangle_1018" data-name="Rectangle 1018" class="cls-22" x="294.613" y="233.82" width="46.09" height="0.486"/></g></g><g id="Group_3053" data-name="Group 3053"><g id="Group_3052" data-name="Group 3052"><rect id="Rectangle_1019" data-name="Rectangle 1019" class="cls-22" x="294.613" y="243.338" width="46.09" height="0.486"/></g></g></g></g><g id="To:" class="cls-23"><text class="cls-24" transform="translate(294.615 218.65)">To:</text></g><g id="Group_3061" data-name="Group 3061"><g id="Group_3060" data-name="Group 3060"><g id="Group_3057" data-name="Group 3057"><g id="Group_3056" data-name="Group 3056"><rect id="Rectangle_1020" data-name="Rectangle 1020" class="cls-22" x="201.497" y="160.975" width="70.666" height="0.485"/></g></g><g id="Group_3059" data-name="Group 3059"><g id="Group_3058" data-name="Group 3058"><rect id="Rectangle_1021" data-name="Rectangle 1021" class="cls-22" x="201.497" y="170.494" width="70.666" height="0.485"/></g></g></g></g><g id="From:" class="cls-23"><text class="cls-24" transform="translate(201.498 155.325)">From:</text></g><g id="Lorem_ipsum_dolor_sit_amet_consectes_adipiscing_elit_sed_do_eiusmod_tempor_incididunt_ut_labore_et_dolore_mansi." data-name="Lorem ipsum dolor sit amet consectes adipiscing elit sed do eiusmod tempor incididunt ut labore et dolore mansi." class="cls-23"><text class="cls-25" transform="translate(201.497 235.773)">Lorem ipsum dolor sit amet, consectes</text><text class="cls-25" transform="translate(201.497 240.269)">adipiscing elit, sed do eiusmod tempor </text><text class="cls-25" transform="translate(201.497 244.765)">incididunt ut labore et dolore mansi.</text></g></g></g><g id="Group_3067" data-name="Group 3067"><g class="cls-26"><g id="Group_3066" data-name="Group 3066"><g id="Group_3065" data-name="Group 3065"><path id="Path_4979" data-name="Path 4979" class="cls-4" d="M93.3,209.815c.626-3.1,4.3-6.9,6.265-9.384,1.818-2.3,3.684-4.97,5.994-6.775a23.719,23.719,0,0,0,5.706-6.624c4.7-7.9,1.274-9.767-.193-10.208-1.442-.433-2.913.2-4.587,1.884-1.347,1.351-6.465,8.781-7.689,5.833-1.416-3.413,5.019-10.153,6.749-12.785,2.588-3.936,4.578-8.864,4.177-13.647-.2-2.358-1.288-4.966-3.553-5.651a5.477,5.477,0,0,0-4.087.65c-3.758,2.018-5.593,6.043-6.989,9.868-.584,1.6-1.577,10.578-4.356,7.03-.664-.847-2.423-11.974-7.962-7.294-1.95,1.647-1.646,5.482-.567,10.93.674,3.4,4.677,14.368,2.383,16.065s-3.462-5.51-6.519-1.223c-1.713,2.4-.335,6.561.821,9.144.55,1.229,1.343,2.344,1.812,3.606.556,1.5.651,3.958-1.3,4.455-.852.217-1.777-.14-2.621.106a2.5,2.5,0,0,0-1.614,1.967,5.8,5.8,0,0,0,.243,2.641c1.532,5.512,5.675,10.029,10.542,13.036s2.063,3.764,7.63,5.086" transform="translate(91.231)"/><g id="Group_3064" data-name="Group 3064" class="cls-5"><path id="Path_4980" data-name="Path 4980" class="cls-6" d="M104.868,157.916s-16.5,26.393-15.892,52.975" transform="translate(91.231)"/><path id="Path_4981" data-name="Path 4981" class="cls-6" d="M84.952,166.905s2.08,12.976,7.526,19.631" transform="translate(91.231)"/><path id="Path_4982" data-name="Path 4982" class="cls-6" d="M109.622,180.681c-2.876,3.888-11.7,14-19.436,15.641" transform="translate(91.231)"/><path id="Path_4983" data-name="Path 4983" class="cls-6" d="M80.183,191.819s.584,5.348,8.831,14.967" transform="translate(91.231)"/><path id="Path_4984" data-name="Path 4984" class="cls-6" d="M78.016,208.1a19.946,19.946,0,0,0,10.525,6.714" transform="translate(91.231)"/></g></g></g></g></g><g id="Group_3071" data-name="Group 3071"><path id="Path_4985" data-name="Path 4985" class="cls-27" d="M175.43,261.288H97.278a5.932,5.932,0,0,1,5.622-7.163,71.515,71.515,0,0,1,11.654.623v-.164c-3.245-2.606-6.442-5.851-6.589-8.573a31.113,31.113,0,0,1,.557-6.474c.835-5.065,2.311-10.326,2.425-10.72a5.36,5.36,0,0,1-.606-.409s4.327-21.243,20.948-21.194c0,0,.049.1.115.246,1.245-.786,1.557-2.852,1.623-3.835a6.6,6.6,0,0,1-2.475-2.672,3.119,3.119,0,0,1-2.606-1.1s-2.689-.033-3.016-2.23a4.167,4.167,0,0,1,.836-3.409,3.3,3.3,0,0,1-2.476-2.279,2.676,2.676,0,0,1,1.262-3.1,2.843,2.843,0,0,1-.2-4.014,2.669,2.669,0,0,1,.2-.2c1.262-1.41,3.115-.262,3.115-.262a2.665,2.665,0,0,1,2.007-3.19,2.62,2.62,0,0,1,.353-.056c3.114-.459,3.327,2.18,3.327,2.18a3.057,3.057,0,0,1,4.032-3.016,2.992,2.992,0,0,1,2.731,3.232,3.035,3.035,0,0,1-.059.39c.2-.475,1.344-2.786,4.131-1.294a3.03,3.03,0,0,1,1.344,4.048A2.735,2.735,0,0,1,148.4,189c.738,3.721-1.458,4.475-1.458,4.475a2.925,2.925,0,0,1,1.442,2.9,3.569,3.569,0,0,1-2.7,3,4.023,4.023,0,0,1-3.622,1.688,6.264,6.264,0,0,1-2.9,2.737c0,.164.016.328.032.509a4.453,4.453,0,0,0,.9,2.459,2.272,2.272,0,0,0,.852.589c.017-.049.033-.1.05-.163,16.308-.18,21.308,21.373,21.308,21.373a3.789,3.789,0,0,1-.394.181s1.541,5.474,2.426,10.719a.1.1,0,0,0,.017.066v.05a31.759,31.759,0,0,1,.557,6.425c0,.033-.017.066-.017.1a5.594,5.594,0,0,1-.163.852c-.033.1-.066.213-.115.328a7.47,7.47,0,0,1-.3.7c-.049.1-.1.2-.147.312-.18.312-.377.639-.606.967-.05.082-.1.147-.148.23-.2.262-.409.541-.639.8-.082.115-.18.23-.279.344q-.32.369-.688.738a3.509,3.509,0,0,1-.246.279c-.312.328-.64.639-.983.967q-.173.147-.344.295c-.246.23-.492.443-.738.656l-.426.376c-.246.2-.492.394-.738.607-.131.1-.246.2-.377.295a72.241,72.241,0,0,1,11.851-.606,5.924,5.924,0,0,1,5.724,6.118,5.851,5.851,0,0,1-.1.914Z" transform="translate(91.231)"/><g id="Group_3070" data-name="Group 3070"><path id="Path_4986" data-name="Path 4986" class="cls-28" d="M185.04,271.1c0,1.822-20.455,3.3-45.688,3.3s-45.688-1.478-45.688-3.3,20.454-3.3,45.688-3.3S185.04,269.275,185.04,271.1Z" transform="translate(91.231)"/><path id="Path_4987" data-name="Path 4987" class="cls-29" d="M136.193,200.359s-2.277.24-3.09-1.056c0,0-2.622-.042-2.939-2.174a4.03,4.03,0,0,1,.813-3.3,3.191,3.191,0,0,1-2.4-2.215,2.6,2.6,0,0,1,1.22-3.01,2.76,2.76,0,0,1,0-4.1c1.232-1.366,3.03-.251,3.03-.251a2.6,2.6,0,0,1,2.285-3.163c3.038-.445,3.23,2.119,3.23,2.119a2.972,2.972,0,0,1,3.926-2.927,2.9,2.9,0,0,1,2.572,3.6,2.632,2.632,0,0,1,4.037-1.338,2.945,2.945,0,0,1,1.314,3.93,2.654,2.654,0,0,1,2.778,2.273c.717,3.616-1.415,4.347-1.415,4.347a2.842,2.842,0,0,1,1.4,2.822,3.469,3.469,0,0,1-2.626,2.927,3.818,3.818,0,0,1-3.771,1.609" transform="translate(91.231)"/><path id="Path_4988" data-name="Path 4988" class="cls-30" d="M146.556,206.623s-.275,4.937-4.762,4.8a6.062,6.062,0,0,1-2.488-.6,7.119,7.119,0,0,1-3.377-3.893c2.14-.549,2.14-4.489,2.14-4.489l5.9.174a8.749,8.749,0,0,0,.061,1.023,4.32,4.32,0,0,0,.869,2.381C145.867,207.011,146.556,206.623,146.556,206.623Z" transform="translate(91.231)"/><path id="Path_4989" data-name="Path 4989" class="cls-31" d="M139.493,204.169s-1.7,2.288-1.258,3.652,1.518,2.636,2.576,2.776l-1.506.227a7.119,7.119,0,0,1-3.377-3.893c2.14-.549,2.14-4.489,2.14-4.489l5.9.174a8.749,8.749,0,0,0,.061,1.023A5.7,5.7,0,0,1,139.493,204.169Z" transform="translate(91.231)"/><path id="Path_4990" data-name="Path 4990" d="M136.352,206.448s1.676,4.135,4.89,4.183c3.348.051,4.1-2.132,4.533-4.193,15.854-.174,20.716,20.772,20.716,20.772a28.9,28.9,0,0,1-3.415,1.312,14.146,14.146,0,0,0-3.113,1.357l-2.152,29.075H124.162l-.573-29.092s-2.211-.53-4-1.116a11.487,11.487,0,0,1-3.6-1.7S120.2,206.407,136.352,206.448Z" transform="translate(91.231)"/><path id="Path_4991" data-name="Path 4991" class="cls-32" d="M116.589,227.383s-3.209,11.35-2.913,16.771,13.112,13.013,13.112,13.013l1.676-5.717s-5.323-2.268-6.112-6.408,2.5-14.894,2.5-14.894-.791-.211-3.489-.95A28.008,28.008,0,0,1,116.589,227.383Z" transform="translate(91.231)"/><path id="Path_4992" data-name="Path 4992" class="cls-31" d="M128.463,251.45l-1.1,3.772-.575,1.947s-12.816-7.592-13.109-13.016,2.916-16.769,2.916-16.769.743.381,1.886.836a25.458,25.458,0,0,0,2.883.977c2.7.742,3.484.95,3.484.95s-3.284,10.755-2.5,14.9S128.463,251.45,128.463,251.45Z" transform="translate(91.231)"/><path id="Path_4993" data-name="Path 4993" class="cls-30" d="M128.463,251.45l-1.1,3.772c-3.525-2.308-11.116-7.746-11.344-11.906-.227-4.14,1.592-11.738,2.461-15.1a25.458,25.458,0,0,0,2.883.977c2.7.742,3.484.95,3.484.95s-3.284,10.755-2.495,14.9S128.463,251.45,128.463,251.45Z" transform="translate(91.231)"/><path id="Path_4994" data-name="Path 4994" class="cls-32" d="M166.1,227.383s3.209,11.35,2.913,16.771S155.9,257.167,155.9,257.167l-1.676-5.717s5.323-2.268,6.112-6.408-2.863-14.94-2.863-14.94l3.856-1.055A38.292,38.292,0,0,0,166.1,227.383Z" transform="translate(91.231)"/><path id="Path_4995" data-name="Path 4995" class="cls-31" d="M169.011,244.153c-.215,3.979-7.164,9.116-10.856,11.578-1.337.9-2.254,1.438-2.254,1.438l-1.672-5.719a14.166,14.166,0,0,0,2.288-1.311l.12-.08c0-.007,0-.007.007-.007a8.5,8.5,0,0,0,3.692-5.01c.789-4.14-2.863-14.943-2.863-14.943s.763-.207,2.495-.682c.4-.107.856-.227,1.364-.368a39.021,39.021,0,0,0,4.769-1.666S169.311,238.735,169.011,244.153Z" transform="translate(91.231)"/><path id="Path_4996" data-name="Path 4996" class="cls-30" d="M169.015,244.153c-.215,3.979-7.164,9.116-10.856,11.578l-1.644-5.592-.007-.027.127-.053c0-.007,0-.007.007-.007.823-.381,5.258-2.6,5.973-6.348.675-3.525-1.88-11.886-2.649-14.287.4-.107.856-.227,1.364-.368a39.021,39.021,0,0,0,4.769-1.666S169.315,238.735,169.015,244.153Z" transform="translate(91.231)"/><path id="Path_4997" data-name="Path 4997" class="cls-9" d="M161.915,259.426H120.338l-.943-26.05a1.193,1.193,0,0,1,1.149-1.235h41.122a1.193,1.193,0,0,1,1.193,1.193v.043Z" transform="translate(91.231)"/><g id="Group_3068" data-name="Group 3068"><path id="Path_4998" data-name="Path 4998" class="cls-33" d="M161.426,266.463a3.3,3.3,0,0,1,2.4-.9c1.087-.029,4.166.666,5.634.642s3-.347,3.839.907c1.43,2.127.812,4.045-1.6,4.333-1.31.157-2.392-.708-4.472-.5-2.017.2-5.161-.474-6.076-1.914" transform="translate(91.231)"/><path id="Path_4999" data-name="Path 4999" class="cls-31" d="M158.582,265.471a15.686,15.686,0,0,0,2.7.522c1.078.058,3.5-.211,4.587.477,1.183.743.745,2.76,0,3.236-1.21.769-2.189.371-4.4-.327a13.833,13.833,0,0,0-4.814-.432" transform="translate(91.231)"/><path id="Path_5000" data-name="Path 5000" class="cls-21" d="M108.765,252.042a5.737,5.737,0,0,0-5.438,7.128c.014.053.029.106.044.159,1.508,5.341,8.517,8.058,16.733,9.14s39.043,1.638,39.043,1.638,1.342-1.649.8-5.578a119.176,119.176,0,0,1-16.9-5.413C131.1,254.351,120.746,251.67,108.765,252.042Z" transform="translate(91.231)"/><path id="Path_5001" data-name="Path 5001" class="cls-33" d="M166.568,266.728s-.817-.456-1.089.035a7.183,7.183,0,0,0-.279,2.892c.255.576,1.452.369,1.452.369l.978-2.635Z" transform="translate(91.231)"/></g><g id="Group_3069" data-name="Group 3069"><path id="Path_5002" data-name="Path 5002" class="cls-33" d="M121.032,266.557a3.381,3.381,0,0,0-2.453-.928c-1.114-.034-4.27.667-5.775.637s-2.984-.357-3.944.653c-1.808,1.9-.125,4.294,2.341,4.6,1.341.166,1.738-.608,3.869-.389,2.065.212,5.289-.466,6.233-1.938" transform="translate(91.231)"/><path id="Path_5003" data-name="Path 5003" class="cls-31" d="M123.951,265.552a15.988,15.988,0,0,1-2.769.525c-1.1.056-3.581-.228-4.7.471-1.215.758-.774,2.826-.008,3.317,1.238.792,2.242.388,4.514-.319a14.2,14.2,0,0,1,4.933-.424" transform="translate(91.231)"/><path id="Path_5004" data-name="Path 5004" class="cls-21" d="M173.773,252.17a5.738,5.738,0,0,1,5.412,7.15c-.014.052-.029.105-.044.158-1.528,5.335-8.547,8.026-16.766,9.079s-39.049,1.5-39.049,1.5-1.336-1.654-.782-5.58a119.231,119.231,0,0,0,16.921-5.352C151.431,254.4,161.794,251.747,173.773,252.17Z" transform="translate(91.231)"/><path id="Path_5005" data-name="Path 5005" class="cls-34" d="M122.544,264.471a119.231,119.231,0,0,0,16.921-5.352q.9-.356,1.784-.693" transform="translate(91.231)"/><path id="Path_5006" data-name="Path 5006" class="cls-33" d="M115.764,266.809s.84-.463,1.116.04a7.356,7.356,0,0,1,.274,2.964c-.264.589-1.49.374-1.49.374l-.991-2.7Z" transform="translate(91.231)"/></g><path id="Path_5007" data-name="Path 5007" class="cls-31" d="M142.293,203.62h-.063a7.425,7.425,0,0,1-1.52,0s-7.537.96-6.64-13.946h14.293S149.9,202.775,142.293,203.62Z" transform="translate(91.231)"/><path id="Path_5008" data-name="Path 5008" class="cls-30" d="M142.293,203.62h-.063c-.749.052-7.421.126-6.576-13.946h12.71S149.9,202.775,142.293,203.62Z" transform="translate(91.231)"/><path id="Path_5009" data-name="Path 5009" class="cls-29" d="M133.264,194.329a1.767,1.767,0,0,0,2.007-1.213s2.425-.251,2.508-2.341c0,0,2.132.752,3.177-.753a2.176,2.176,0,0,0,1.816,1.465,1.745,1.745,0,0,0,1.735-.836,2.481,2.481,0,0,0,2.048,2.257c1.917.3,2.426-1.8,2.426-1.8l-.5-3.051-5.525-.711-7.859.794-2.885.376Z" transform="translate(91.231)"/><path id="Path_5010" data-name="Path 5010" class="cls-10" d="M143.506,244.951a2.676,2.676,0,1,1-2.676-2.676h0A2.676,2.676,0,0,1,143.506,244.951Z" transform="translate(91.231)"/></g></g><g id="Group_3072" data-name="Group 3072"><line id="Line_319" data-name="Line 319" class="cls-35" x1="503.203" y1="131.118" x2="515.069" y2="117.596"/><path id="Path_5011" data-name="Path 5011" class="cls-35" d="M412.636,119.108l.9-2.708,1.278-3.836" transform="translate(91.231)"/><line id="Line_320" data-name="Line 320" class="cls-35" x1="500.359" y1="129.632" x2="502.74" y2="122.488"/><path id="Path_5012" data-name="Path 5012" class="cls-36" d="M425.521,130.728l1-.474,4.767-2.266" transform="translate(91.231)"/><line id="Line_321" data-name="Line 321" class="cls-36" x1="506.92" y1="135.402" x2="513.138" y2="132.446"/><line id="Line_322" data-name="Line 322" class="cls-35" x1="508.755" y1="139.491" x2="526.743" y2="139.801"/></g><path id="Path_5013" data-name="Path 5013" class="cls-37" d="M370.191,221.2c-1.2,4.155.9,8.72,4.166,11.551s7.51,4.243,11.691,5.345c3.093.815,6.345,1.5,9.467.806s6.073-3.132,6.371-6.317c.474-5.066-6.122-8.411-10.924-6.733s-7.829,6.352-10.191,10.86c-2.278,4.347-4.313,8.927-4.869,13.8s.544,10.132,3.878,13.733c3.115,3.364,7.777,4.9,12.34,5.347a32.843,32.843,0,0,0,14.989-2.057c4.866-1.886,9.237-4.918,14.157-6.659s10.9-1.944,14.872,1.443" transform="translate(91.231)"/><g id="Group_3086" data-name="Group 3086"><path id="Path_5014" data-name="Path 5014" class="cls-38" d="M246.653,133.6V261.212H212.947a16.56,16.56,0,0,1-.109-5.322l15.316-109.2a33.764,33.764,0,0,1,4.732-13.085Z" transform="translate(91.231)"/><path id="Path_5015" data-name="Path 5015" class="cls-22" d="M383.735,275.651c-4.576,6.847-13.76,6.847-17.765,6.847l-130.981-7.51c-4.006,0-12.433,2.106-14.7-1.192-2.561-3.722-2.7-12.245-1.906-17.908L233.7,146.673a33.84,33.84,0,0,1,9.588-19.239l13.491-12.661,16.329,12.936,65.431-4.964,6.969-7.254,12.443,9.054a33.249,33.249,0,0,1,13.334,20.771q.122.677.219,1.36l15.32,109.215C388.389,262.916,386.913,270.894,383.735,275.651Z" transform="translate(91.231)"/><path id="Path_5016" data-name="Path 5016" class="cls-9" d="M376.579,278.461a16.046,16.046,0,0,1-10.61,4.037H234.517a16.044,16.044,0,0,1-10.61-4.037,17.03,17.03,0,0,1-5.535-15.064l14.892-109.214a34.225,34.225,0,0,1,9.32-19.239l11.857-12.2h17.442l.233-9.4,52.389.724,4.1,8.674h17.442l11.606,10.425a17.114,17.114,0,0,1,1.352,1.328c4.651,5.192,7.27,12.715,8.218,19.683l14.893,109.215A17.035,17.035,0,0,1,376.579,278.461Z" transform="translate(91.231)"/><path id="Path_5017" data-name="Path 5017" class="cls-39" d="M376.578,278.457a16.023,16.023,0,0,1-10.61,4.042H234.52a16,16,0,0,1-10.61-4.042,17.032,17.032,0,0,1-5.541-15.064l.286-2.1a16.766,16.766,0,0,0,5.254,8.875,16.037,16.037,0,0,0,10.61,4.033H365.968a16.059,16.059,0,0,0,10.61-4.033,16.76,16.76,0,0,0,5.254-8.875l.286,2.1A17.034,17.034,0,0,1,376.578,278.457Z" transform="translate(91.231)"/><path id="Path_5018" data-name="Path 5018" class="cls-39" d="M255.485,122.745l1.17-15.343a3.9,3.9,0,0,1,3.889-3.6h6.635a3.9,3.9,0,0,1,3.892,3.635l1.045,15.312Z" transform="translate(91.231)"/><path id="Path_5019" data-name="Path 5019" class="cls-39" d="M329.37,122.745l1.17-15.343a3.9,3.9,0,0,1,3.889-3.6h6.635a3.9,3.9,0,0,1,3.892,3.635L346,122.749Z" transform="translate(91.231)"/><path id="Path_5020" data-name="Path 5020" class="cls-22" d="M330.114,122.744h-58.6l-.04-9.4,58.608.058Z" transform="translate(91.231)"/><circle id="Ellipse_145" data-name="Ellipse 145" class="cls-10" cx="393.833" cy="196.398" r="17.054"/><circle id="Ellipse_146" data-name="Ellipse 146" class="cls-40" cx="393.832" cy="196.398" r="19.001"/><g id="Group_3085" data-name="Group 3085"><g id="Group_3083" data-name="Group 3083"><g id="Group_3073" data-name="Group 3073"><circle id="Ellipse_147" data-name="Ellipse 147" class="cls-10" cx="384.828" cy="170.19" r="3.696"/><path id="Path_5021" data-name="Path 5021" class="cls-9" d="M294.02,169.075a1.193,1.193,0,1,1-1.539.691h0A1.194,1.194,0,0,1,294.02,169.075Z" transform="translate(91.231)"/><path id="Path_5022" data-name="Path 5022" class="cls-41" d="M296.918,168.577a3.691,3.691,0,1,1-6.651,3.2c-.036-.074-.069-.149-.1-.226a3.693,3.693,0,0,0,6.751-2.976Z" transform="translate(91.231)"/></g><g id="Group_3074" data-name="Group 3074"><path id="Path_5023" data-name="Path 5023" class="cls-10" d="M281.372,174.484a3.7,3.7,0,1,1-3.059,4.245v-.007A3.7,3.7,0,0,1,281.372,174.484Z" transform="translate(91.231)"/><path id="Path_5024" data-name="Path 5024" class="cls-9" d="M281.776,176.952a1.193,1.193,0,1,1-.988,1.368h0a1.192,1.192,0,0,1,.987-1.367Z" transform="translate(91.231)"/><path id="Path_5025" data-name="Path 5025" class="cls-41" d="M284.034,175.075a3.692,3.692,0,1,1-4.112,6.133c-.084-.056-.166-.117-.246-.18a3.693,3.693,0,0,0,4.358-5.953Z" transform="translate(91.231)"/></g><g id="Group_3075" data-name="Group 3075"><path id="Path_5026" data-name="Path 5026" class="cls-10" d="M276.217,187.147a3.7,3.7,0,1,1-4.032,3.336v-.007A3.7,3.7,0,0,1,276.217,187.147Z" transform="translate(91.231)"/><path id="Path_5027" data-name="Path 5027" class="cls-9" d="M275.977,189.639a1.193,1.193,0,1,1-1.3,1.075h0A1.194,1.194,0,0,1,275.977,189.639Z" transform="translate(91.231)"/><path id="Path_5028" data-name="Path 5028" class="cls-41" d="M278.637,188.39a3.691,3.691,0,1,1-5.55,4.867c-.059-.067-.115-.136-.169-.207a3.693,3.693,0,0,0,5.719-4.66Z" transform="translate(91.231)"/></g><g id="Group_3076" data-name="Group 3076"><path id="Path_5029" data-name="Path 5029" class="cls-10" d="M277.118,201.179a3.7,3.7,0,1,1-3.878,3.513v-.008A3.7,3.7,0,0,1,277.118,201.179Z" transform="translate(91.231)"/><path id="Path_5030" data-name="Path 5030" class="cls-9" d="M276.986,203.68a1.193,1.193,0,1,1-1.251,1.132h0A1.192,1.192,0,0,1,276.986,203.68Z" transform="translate(91.231)"/><path id="Path_5031" data-name="Path 5031" class="cls-41" d="M279.588,202.313a3.692,3.692,0,1,1-5.307,5.134c-.069-.072-.136-.146-.2-.223a3.693,3.693,0,0,0,5.506-4.911Z" transform="translate(91.231)"/></g><g id="Group_3077" data-name="Group 3077"><path id="Path_5032" data-name="Path 5032" class="cls-10" d="M284.658,212.812a3.7,3.7,0,1,1-3.48,3.908v-.008A3.7,3.7,0,0,1,284.658,212.812Z" transform="translate(91.231)"/><path id="Path_5033" data-name="Path 5033" class="cls-9" d="M284.8,215.312a1.193,1.193,0,1,1-1.123,1.259h0A1.193,1.193,0,0,1,284.8,215.312Z" transform="translate(91.231)"/><path id="Path_5034" data-name="Path 5034" class="cls-41" d="M287.241,213.673a3.691,3.691,0,1,1-4.754,5.647c-.066-.056-.131-.114-.193-.174a3.693,3.693,0,0,0,4.947-5.473Z" transform="translate(91.231)"/></g><g id="Group_3078" data-name="Group 3078"><circle id="Ellipse_148" data-name="Ellipse 148" class="cls-10" cx="388.793" cy="222.605" r="3.696"/><path id="Path_5035" data-name="Path 5035" class="cls-9" d="M297.377,221.427a1.193,1.193,0,1,1-.989,1.367,1.193,1.193,0,0,1,.989-1.367Z" transform="translate(91.231)"/><path id="Path_5036" data-name="Path 5036" class="cls-41" d="M299.634,219.55a3.692,3.692,0,0,1-4.121,6.127c-.084-.056-.165-.116-.244-.179a3.693,3.693,0,0,0,4.365-5.948Z" transform="translate(91.231)"/></g><g id="Group_3079" data-name="Group 3079"><path id="Path_5037" data-name="Path 5037" class="cls-10" d="M309.985,218.221a3.7,3.7,0,1,1-1.7,4.95l0-.006A3.7,3.7,0,0,1,309.985,218.221Z" transform="translate(91.231)"/><path id="Path_5038" data-name="Path 5038" class="cls-9" d="M311.083,220.47a1.193,1.193,0,1,1-.549,1.6,1.192,1.192,0,0,1,.549-1.6Z" transform="translate(91.231)"/><path id="Path_5039" data-name="Path 5039" class="cls-41" d="M312.7,218.016a3.691,3.691,0,1,1-2.188,7.05c-.087-.027-.172-.057-.257-.09a3.693,3.693,0,0,0,2.445-6.96Z" transform="translate(91.231)"/></g><g id="Group_3080" data-name="Group 3080"><path id="Path_5040" data-name="Path 5040" class="cls-10" d="M323.355,209.906a3.7,3.7,0,1,1-3.811,3.585v-.008A3.7,3.7,0,0,1,323.355,209.906Z" transform="translate(91.231)"/><circle id="Ellipse_149" data-name="Ellipse 149" class="cls-9" cx="414.469" cy="213.6" r="1.193"/><path id="Path_5041" data-name="Path 5041" class="cls-41" d="M325.852,210.993a3.691,3.691,0,1,1-5.242,5.2c-.059-.059-.116-.121-.171-.184a3.693,3.693,0,0,0,5.413-5.013Z" transform="translate(91.231)"/></g><g id="Group_3081" data-name="Group 3081"><path id="Path_5042" data-name="Path 5042" class="cls-10" d="M329.493,197.213a3.7,3.7,0,1,1-3.846,3.548v-.006A3.7,3.7,0,0,1,329.493,197.213Z" transform="translate(91.231)"/><path id="Path_5043" data-name="Path 5043" class="cls-9" d="M329.39,199.714a1.193,1.193,0,1,1-1.241,1.143A1.193,1.193,0,0,1,329.39,199.714Z" transform="translate(91.231)"/><path id="Path_5044" data-name="Path 5044" class="cls-41" d="M331.979,198.324a3.692,3.692,0,0,1-5.258,5.185c-.07-.072-.138-.146-.2-.223a3.693,3.693,0,0,0,5.46-4.962Z" transform="translate(91.231)"/></g><g id="Group_3082" data-name="Group 3082"><path id="Path_5045" data-name="Path 5045" class="cls-10" d="M327.705,183.211a3.7,3.7,0,1,1-3.078,4.232v-.008A3.7,3.7,0,0,1,327.705,183.211Z" transform="translate(91.231)"/><path id="Path_5046" data-name="Path 5046" class="cls-9" d="M328.093,185.683a1.193,1.193,0,1,1-.994,1.363h0A1.193,1.193,0,0,1,328.093,185.683Z" transform="translate(91.231)"/><path id="Path_5047" data-name="Path 5047" class="cls-41" d="M330.36,183.814a3.692,3.692,0,0,1-4.138,6.116c-.085-.058-.167-.119-.247-.183a3.693,3.693,0,0,0,4.385-5.933Z" transform="translate(91.231)"/></g></g><circle id="Ellipse_150" data-name="Ellipse 150" class="cls-42" cx="393.832" cy="196.398" r="34.476"/><g id="Group_3084" data-name="Group 3084"><path id="Path_5048" data-name="Path 5048" class="cls-10" d="M341.857,180.381c0-.855.424-1.408,1.279-1.408a1.231,1.231,0,0,1,1.288,1.408v2.89c0,.855-.424,1.415-1.288,1.415s-1.279-.56-1.279-1.415Zm.616,2.928c0,.5.216.808.664.808s.664-.3.664-.808v-2.96c0-.512-.208-.816-.664-.816s-.664.3-.664.816Z" transform="translate(91.231)"/><path id="Path_5049" data-name="Path 5049" class="cls-10" d="M287.4,154.045a1.679,1.679,0,0,1-.776.239v-.512a.957.957,0,0,0,.96-.743h.432v5.6H287.4Z" transform="translate(91.231)"/><path id="Path_5050" data-name="Path 5050" class="cls-10" d="M272.167,165.617c0,1.687-1.9,2.3-1.9,3.584v.088h1.839v.568h-2.455v-.48c0-1.808,1.9-2.16,1.9-3.735,0-.576-.192-.88-.656-.88s-.655.328-.655.824v.5h-.584v-.456c0-.856.392-1.424,1.255-1.424S272.167,164.762,272.167,165.617Z" transform="translate(91.231)"/><path id="Path_5051" data-name="Path 5051" class="cls-10" d="M260.811,187.258v.144a1.322,1.322,0,0,0,0,2.311v.432c0,.855-.4,1.415-1.264,1.415s-1.255-.56-1.255-1.415v-.384h.584v.424c0,.5.208.807.656.807s.656-.3.656-.864V189.7c0-.552-.232-.816-.7-.832h-.336v-.559h.368a.673.673,0,0,0,.679-.667.7.7,0,0,0-.007-.1v-.256c0-.577-.2-.872-.656-.872s-.656.312-.656.816v.288H258.3v-.256c0-.855.4-1.408,1.255-1.408S260.811,186.4,260.811,187.258Z" transform="translate(91.231)"/><path id="Path_5052" data-name="Path 5052" class="cls-10" d="M262.234,211.875V213h-.607v-1.128h-1.808v-.568l1.735-3.9h.679v3.9h.449v.568Zm-1.839-.568h1.232v-2.735Z" transform="translate(91.231)"/><path id="Path_5053" data-name="Path 5053" class="cls-10" d="M275.028,228.58a.9.9,0,0,1,.832-.464c.72,0,1.04.529,1.04,1.329v1.1c0,.855-.408,1.415-1.264,1.415s-1.255-.56-1.255-1.415v-.376h.583v.416c0,.5.208.807.656.807s.656-.3.656-.807v-1.094c0-.5-.208-.807-.656-.807a.6.6,0,0,0-.631.567c0,.011,0,.022,0,.033v.129H274.4l.152-3.112h2.207v.56h-1.647Z" transform="translate(91.231)"/><path id="Path_5054" data-name="Path 5054" class="cls-10" d="M296.931,237.245v.1h-.581V237.2c0-.5-.209-.8-.664-.8-.472,0-.68.3-.68.9v1.255a.9.9,0,0,1,.9-.6c.72,0,1.04.52,1.04,1.327v.848c0,.855-.424,1.415-1.28,1.415s-1.287-.56-1.287-1.415v-2.855c0-.887.4-1.44,1.287-1.44C296.531,235.846,296.931,236.39,296.931,237.245Zm-1.927,2.1v.84c0,.5.208.808.664.808s.664-.3.664-.808v-.84c0-.5-.216-.807-.664-.807s-.664.3-.664.8Z" transform="translate(91.231)"/><path id="Path_5055" data-name="Path 5055" class="cls-10" d="M318.9,234.1h-1.9v-.56h2.535v.543l-1.435,5.055h-.624Z" transform="translate(91.231)"/><path id="Path_5056" data-name="Path 5056" class="cls-10" d="M338.4,220.428v.176a1.1,1.1,0,0,1-.64,1.152,1.136,1.136,0,0,1,.64,1.184v.416a1.322,1.322,0,1,1-2.639.162,1.459,1.459,0,0,1,0-.162v-.416a1.13,1.13,0,0,1,.648-1.184,1.093,1.093,0,0,1-.648-1.152v-.176a1.321,1.321,0,0,1,2.639-.126Q338.4,220.365,338.4,220.428Zm-2.023.016v.272c0,.544.264.784.7.784s.7-.24.7-.784v-.272c0-.576-.264-.839-.7-.839S336.374,219.869,336.374,220.444Zm0,2.424v.472c0,.575.256.848.7.848s.7-.273.7-.848v-.472c0-.545-.24-.808-.7-.808s-.7.264-.7.809Z" transform="translate(91.231)"/><path id="Path_5057" data-name="Path 5057" class="cls-10" d="M346.992,200.993v2.855c0,.887-.4,1.448-1.3,1.448-.855,0-1.264-.552-1.264-1.409v-.1h.584v.144c0,.5.216.8.664.8.48,0,.688-.3.688-.9v-1.255a.9.9,0,0,1-.9.592c-.72,0-1.04-.512-1.04-1.319v-.856c0-.855.416-1.408,1.28-1.408S346.992,200.137,346.992,200.993Zm-1.952-.031v.84c0,.5.216.807.664.807s.664-.3.664-.807v-.84c0-.512-.208-.808-.664-.808s-.663.3-.663.808Z" transform="translate(91.231)"/></g></g></g><g id="Group_3097" data-name="Group 3097"><g id="Group_3096" data-name="Group 3096"><path id="Path_5058" data-name="Path 5058" class="cls-43" d="M278.022,112.517l1.2,6.815s7.263,2.671,8.91,2.693,9.043,1.057,9.043,1.057-1.023,5.292-.353,8.536,6.161,27.929,6.161,27.929l1.179.748v2.532a4.442,4.442,0,0,0-1.179,1.532,14.393,14.393,0,0,0-.312,3.482s1.52.226,3.575.509c.549.076,1.155-1.107,1.762-1.027,4.15.546,9.2,2.387,9.2,1.952a4.584,4.584,0,0,0-1.013-1.952l-6.016-1.032-1.414-43.211s5.91.481,6.147,1.357-.2,5.541-.18,7.655c.021,1.874,2.476,25.2,2.476,25.2a5.338,5.338,0,0,1,.947.314c-.055.226.432.786.188,1.676-.334,1.218-1.389,2.873-1.135,3.462.44,1.02,2.916,1.134,2.916,1.134l1.739-8.307.72-17.793.992-11.2-1.895-9.1-14.115-3.2-28.773-1.914" transform="translate(91.231)"/><g id="Group_3090" data-name="Group 3090"><g id="Group_3087" data-name="Group 3087"><path id="Path_5059" data-name="Path 5059" class="cls-44" d="M323.589,156.7a29.872,29.872,0,0,1-.031,3.749c-.158.988-3.33.79-3.654.243s-.117-5.126-.117-5.126" transform="translate(91.231)"/><path id="Path_5060" data-name="Path 5060" class="cls-45" d="M319.025,161.672c-.047,1.038.031,2.994.031,2.994l3.269.66.392-.566a5.668,5.668,0,0,0,1.943.966,12.7,12.7,0,0,0,3.066.181c2.669-.279,4.484-1.182,4.561-1.577.323-1.65-7.492-2.881-7.938-3.927-.323-.76-.156-.941-.594-.822a1.078,1.078,0,0,0-.672.512,1.93,1.93,0,0,1-2.017.949,2.306,2.306,0,0,1-1.25-.654A1.337,1.337,0,0,0,319.025,161.672Z" transform="translate(91.231)"/></g><g id="Group_3088" data-name="Group 3088"><path id="Path_5061" data-name="Path 5061" class="cls-46" d="M295.557,119.426c4.87-.085,17.758,1.919,22.672,2.353-.254,2.034-1.352,4.807-1.4,7.6A200.532,200.532,0,0,0,319,157.649s1.948,2.037,4.774-.065c2.2-12.566,5.338-37.748,4.171-42.814-1.485-6.45-21.162-11.546-33.339-10.6" transform="translate(91.231)"/></g><path id="Path_5062" data-name="Path 5062" class="cls-8" d="M294.614,104.177c8.6-.669,20.938,1.679,27.969,5.387a17.56,17.56,0,0,0-4.182,2.6,6.618,6.618,0,0,0-2.384,4.89,16.49,16.49,0,0,0,.577,4.556c-5.692-.635-16.631-2.262-21.034-2.185Z" transform="translate(91.231)"/><g id="Group_3089" data-name="Group 3089"><path id="Path_5063" data-name="Path 5063" class="cls-44" d="M311.514,160.556a30.03,30.03,0,0,1-.171,3.745c-.2.981-3.357.665-3.661.106s.075-5.127.075-5.127" transform="translate(91.231)"/><path id="Path_5064" data-name="Path 5064" class="cls-45" d="M306.768,165.35c-.087,1.037-.081,2.994-.081,2.994l3.242.781.413-.552a5.675,5.675,0,0,0,1.9,1.038,12.72,12.72,0,0,0,3.057.3c2.678-.179,4.526-1.015,4.618-1.406.384-1.637-7.38-3.158-7.785-4.22-.3-.771-.121-.946-.563-.843a1.074,1.074,0,0,0-.69.486,1.932,1.932,0,0,1-2.052.873,2.308,2.308,0,0,1-1.223-.7A1.335,1.335,0,0,0,306.768,165.35Z" transform="translate(91.231)"/></g><path id="Path_5065" data-name="Path 5065" class="cls-46" d="M276.49,104.823c-1.274,2.965-2.111,8.324-.833,10.619,1.122,2.012,1.652,3.257,3.565,3.891,8.167,2.707,15.261,2.179,24.482,1.617-3.806,10.285,2.123,31.1,2.982,40.436,3.456,1.533,5.41-.1,5.41-.1-.392-19.01,3.845-45.563,1.28-50.106-1.559-2.762-20.165-6.407-20.535-6.358" transform="translate(91.231)"/></g><g id="Group_3095" data-name="Group 3095"><path id="Path_5066" data-name="Path 5066" class="cls-44" d="M342.111,79.181l2.236-.13a2.5,2.5,0,0,1,1.065.21,12.394,12.394,0,0,0,1.885.644,9.264,9.264,0,0,0,4.22-.3c1.046-.179.177-1.151-1.369-1.243s-.709.218-1.456-.243.7-1.142,1.863-1.569a18.946,18.946,0,0,0,2.147-.989c1.136-.53,2.129-.872,2.79-1.246.459-.261.856-.713.32-.842-.554-.134-3.68.706-4.378.75s-1.084-.988-2.945-1-3.715,1.97-4.575,2.45-4.184.219-4.184.219" transform="translate(91.231)"/><path id="Path_5067" data-name="Path 5067" class="cls-47" d="M297.589,60.789s4.423,0,7.162,1.921c1.544,1.082,14.91,9.822,16.571,10.715s22.19,2.079,22.19,2.079a3.671,3.671,0,0,1,1.068,2.374,9.173,9.173,0,0,1-.452,2.729s-20.295,1.885-24.565,1-21.38-8.186-21.38-8.186" transform="translate(91.231)"/><path id="Path_5068" data-name="Path 5068" class="cls-48" d="M276.394,104.966c2.2,5.356,13.978,3.419,20.25,3.648,5.615.2,7.006-1.727,7.006-1.727-.212-8.021-1.527-13.973-.268-19.819,2.143-9.94,3.368-22.112,1.37-24.359-3.918-3-14.339-5.184-22.513-2.641-6.141,1.906-8.082,3.706-7.71,8.322C274.652,69.925,278.785,98.392,276.394,104.966Z" transform="translate(91.231)"/><g id="Group_3091" data-name="Group 3091"><path id="Path_5069" data-name="Path 5069" class="cls-49" d="M285.222,106.319l29.688-2.326-17.227,7.829Z" transform="translate(91.231)"/><path id="Path_5070" data-name="Path 5070" class="cls-50" d="M297.8,112.515l-12.4-5.156-.169-1.042,12.618,5.171Z" transform="translate(91.231)"/></g><path id="Path_5071" data-name="Path 5071" class="cls-44" d="M299.366,101.853l2.508,1.16a4.175,4.175,0,0,1,4.762-.187c2.492,1.627-.011,6.889-1.8,6.5s-7.175-3.822-7.175-3.822Z" transform="translate(91.231)"/><path id="Path_5072" data-name="Path 5072" class="cls-47" d="M298.938,106.888s1.355-.424,1.842-2.624a7.533,7.533,0,0,0-.2-2.494s-7-4.164-11.957-7.941a36.991,36.991,0,0,0-7.285-4.474l1.248-12.78c.221-2.263.788-5.2.48-7.457-.414-3.029-1.564-7.91-5.237-7.3-6.559,1.09-5.006,14.943-4.773,20,.159,3.446-.144,9.331,2,12.261C278.282,98.5,298.938,106.888,298.938,106.888Z" transform="translate(91.231)"/><g id="Group_3092" data-name="Group 3092"><path id="Path_5073" data-name="Path 5073" class="cls-50" d="M297.8,112.518l27.272-4.423a1.949,1.949,0,0,0,1.634-1.838l.837-19.268a1.634,1.634,0,0,0-1.562-1.7,1.679,1.679,0,0,0-.332.02L300.1,89.448a1.635,1.635,0,0,0-1.371,1.543Z" transform="translate(91.231)"/></g><g id="Group_3094" data-name="Group 3094"><g id="Group_3093" data-name="Group 3093"><path id="Path_5074" data-name="Path 5074" class="cls-44" d="M298.5,52.086c-.659.244.338,4.469-1.138,4.865a14,14,0,0,1-3.868.285c0,.107.323,2.379.323,2.379l-.336,1.421h-2.6l-3.568-.971s-.116-4.571-.264-5.109a20.814,20.814,0,0,1-2.449-3.9,10.828,10.828,0,0,1-1.019-3.565c0-2.433.087-4.973,1.682-6.226s11.707-5.746,11.984,1.683c0,0,1.261,5.156,1.758,6.468.166.436.85,1.833.71,2.267C299.593,52.086,298.822,51.97,298.5,52.086Z" transform="translate(91.231)"/><path id="Path_5075" data-name="Path 5075" class="cls-51" d="M293.618,58.182a8.341,8.341,0,0,0,.43,1.567l-.563,1.15-2.6.139-3.568-.971s-.116-4.571-.264-5.109a20.814,20.814,0,0,1-2.449-3.9l.131-1.435s3.132-.759,3.247-.747.144,6.177.242,7.9c1.277,1.017,2.77,2.177,3.335,2.181A3.41,3.41,0,0,0,293.618,58.182Z" transform="translate(91.231)"/><path id="Path_5076" data-name="Path 5076" d="M287.986,48.88s2.449,3.145,2.369-1.874a.36.36,0,0,1,.344-.317c.662-.082,2.192-.6,2.1-3.63a.454.454,0,0,1,.455-.453h.027a30.2,30.2,0,0,1,3.251.221,4.146,4.146,0,0,1,.6.16,10.079,10.079,0,0,1,.453,1.5c.064.206.291,1.511.291,1.511s.844-.259.848-.8a14.374,14.374,0,0,1-.117-2c.111-.269.936-.462,1.072-1.086.307-1.41.91-6.911-3.893-4.311a12.113,12.113,0,0,1-4.378.284c-1.918-.2-10.451.355-9.429,8.353.607,4.747,1.37,6.314,2.633,7.247.214.158,1.261,1.173,1.443,1.271a1.47,1.47,0,0,0,1.035.155,3.59,3.59,0,0,0,.282-1.3C287.412,52.208,287.293,49.44,287.986,48.88Z" transform="translate(91.231)"/></g><path id="Path_5077" data-name="Path 5077" class="cls-44" d="M288.177,48.708s-.157-1.635-1.491-1.408c-1.792.306-1.786,4.7,1.964,4.768A13.724,13.724,0,0,0,288.177,48.708Z" transform="translate(91.231)"/></g><path id="Path_5078" data-name="Path 5078" class="cls-10" d="M286.845,57.1a13.38,13.38,0,0,0-1.622,2.254,6.928,6.928,0,0,0,1.788,1.387c.953.494,5.367,2.906,5.367,2.906l1.107-2.744S288.973,58.36,286.845,57.1Z" transform="translate(91.231)"/><path id="Path_5079" data-name="Path 5079" class="cls-10" d="M293.485,60.9a6.236,6.236,0,0,1,2.075,2.216,10.465,10.465,0,0,0-.184-4.181,7.8,7.8,0,0,0-1.881-1.612A12.427,12.427,0,0,1,293.485,60.9Z" transform="translate(91.231)"/></g></g></g><g id="Group_3098" data-name="Group 3098"><path id="Path_5080" data-name="Path 5080" class="cls-39" d="M449.969,271.473c-8.819,4.506-21.542,1.372-27.3-10.135h0c-19.3-35.344-50.97-99.771-50.97-99.771-5.711-13.344-.97-23.587,7.786-28.06h0l3.536-1.806h0l10.067-4.821c.695,8.343,2.1,9.437,4.314,13.76l8.126,2.975c2.209,4.323,8.35,11.327,4.027,13.536l-7.709,3.937a3.4,3.4,0,0,0-1.479,4.568l35.789,70.056a3.4,3.4,0,0,0,4.568,1.479l6.788-3.355c4.323-2.208,7.853,7.828,10.061,12.151l10.491,6.371c-2.866,3.468.306,9.554-4.018,11.762l-10.536,5.546h0l-3.536,1.806Z" transform="translate(91.231)"/><path id="Path_5081" data-name="Path 5081" class="cls-9" d="M465.855,254.033l-7.8-15.274a8.793,8.793,0,0,0-11.83-3.835l-7.7,3.94a3.394,3.394,0,0,1-4.568-1.475l0-.005-35.792-70.053a3.4,3.4,0,0,1,1.48-4.571l.886-.45a3.34,3.34,0,0,0-.151,3.339l35.791,70.063a3.389,3.389,0,0,0,4.56,1.479h0l6.289-3.1c4.32-2.215,4.375,2.185,6.58,6.5l8.276,5.334" transform="translate(91.231)"/><ellipse id="Ellipse_151" data-name="Ellipse 151" class="cls-9" cx="455.435" cy="249.161" rx="11.867" ry="17.263" transform="translate(27.552 253.924) rotate(-29.208)"/><path id="Path_5082" data-name="Path 5082" class="cls-52" d="M463.858,264.233c-.1.05-.194.109-.3.152,5.507-3.318,6.282-12.513,1.7-20.714-4.581-8.185-12.774-12.336-18.491-9.432.076-.051.16-.1.236-.142,5.717-3.2,14.129.952,18.786,9.278S469.578,261.033,463.858,264.233Z" transform="translate(91.231)"/><ellipse id="Ellipse_152" data-name="Ellipse 152" class="cls-9" cx="400.85" cy="142.271" rx="10.976" ry="17.263" transform="translate(72.772 213.697) rotate(-29.208)"/><path id="Path_5083" data-name="Path 5083" class="cls-22" d="M409.271,157.343a2.148,2.148,0,0,1-.261.135c5.178-3.03,5.642-12.091,1.036-20.343-4.6-8.218-12.5-12.555-17.792-9.826.051-.034.109-.067.168-.1,5.3-2.964,13.355,1.389,18.011,9.709S414.568,154.38,409.271,157.343Z" transform="translate(91.231)"/></g><g id="Group_3099" data-name="Group 3099"><path id="Path_5084" data-name="Path 5084" class="cls-53" d="M209.841,29.344h-1.509V27.835a.441.441,0,0,0-.882-.005v1.514h-1.508a.441.441,0,0,0,0,.882h1.508v1.508a.441.441,0,0,0,.882,0V30.226h1.509a.441.441,0,1,0,0-.882Z" transform="translate(91.231)"/><path id="Path_5086" data-name="Path 5086" class="cls-53" d="M452.435,96.451h-1.508V94.942a.441.441,0,1,0-.882,0v1.509h-1.508a.441.441,0,0,0,0,.882h1.508v1.509a.441.441,0,1,0,.882,0V97.333h1.508a.441.441,0,1,0,0-.882Z" transform="translate(91.231)"/><path id="Path_5087" data-name="Path 5087" class="cls-53" d="M58.244,48.112H56.736V46.6a.441.441,0,1,0-.882,0h0v1.509H54.345a.441.441,0,1,0,0,.882h1.509V50.5a.441.441,0,1,0,.882,0V48.989h1.508a.441.441,0,0,0,0-.882Z" transform="translate(91.231)"/><path id="Path_5088" data-name="Path 5088" class="cls-53" d="M378.419,76.695h-1.508V75.186a.442.442,0,0,0-.883,0v1.509H374.52a.441.441,0,1,0,0,.882h1.508v1.508a.442.442,0,1,0,.883,0V77.577h1.508a.441.441,0,1,0,0-.882Z" transform="translate(91.231)"/><path id="Path_5089" data-name="Path 5089" class="cls-54" d="M267.617,61.949a1.56,1.56,0,1,1-1.56-1.56h0A1.562,1.562,0,0,1,267.617,61.949Z" transform="translate(91.231)"/><path id="Path_5090" data-name="Path 5090" class="cls-54" d="M404.549,23.819a1.56,1.56,0,1,1-1.56-1.56h0A1.559,1.559,0,0,1,404.549,23.819Z" transform="translate(91.231)"/><path id="Path_5091" data-name="Path 5091" class="cls-54" d="M470.348,158.537a1.56,1.56,0,1,1-1.56-1.56h0A1.562,1.562,0,0,1,470.348,158.537Z" transform="translate(91.231)"/><path id="Path_5092" data-name="Path 5092" class="cls-54" d="M150.052,81.814a1.56,1.56,0,1,1-1.56-1.56h0A1.559,1.559,0,0,1,150.052,81.814Z" transform="translate(91.231)"/><path id="Path_5093" data-name="Path 5093" class="cls-54" d="M23.935,117.108a1.56,1.56,0,1,1-1.56-1.561A1.559,1.559,0,0,1,23.935,117.108Z" transform="translate(91.231)"/></g></g></svg>