<svg xmlns="http://www.w3.org/2000/svg" width="33" height="22" viewBox="0 0 33 22"><defs><style>.a{fill:#64a15e;}</style></defs><g transform="translate(0 -51.198)"><g transform="translate(0 51.198)"><path class="a" d="M32.655,58.491l-8.25-7a1.332,1.332,0,0,0-1.667,0,.93.93,0,0,0-.345.707v3h-8.25a1.014,1.014,0,1,0,0,2h9.429a1.1,1.1,0,0,0,1.179-1V54.612L30.155,59.2,24.75,63.784V62.2a1.1,1.1,0,0,0-1.179-1H10.607v-3a1.1,1.1,0,0,0-1.179-1,1.293,1.293,0,0,0-.833.293l-8.25,7a.9.9,0,0,0,0,1.414l8.25,7a1.293,1.293,0,0,0,.833.293,1.347,1.347,0,0,0,.451-.076,1.013,1.013,0,0,0,.727-.924v-3h8.25a1.014,1.014,0,1,0,0-2H9.428a1.1,1.1,0,0,0-1.179,1v1.586L2.845,65.2,8.25,60.612V62.2a1.1,1.1,0,0,0,1.179,1H22.393v3a1.1,1.1,0,0,0,1.179,1,1.293,1.293,0,0,0,.833-.293l8.25-7A.9.9,0,0,0,32.655,58.491Z" transform="translate(0 -51.198)"/></g></g></svg>