<svg id="Layer_1" data-name="Layer 1" xmlns="http://www.w3.org/2000/svg" viewBox="0 0 362.981 217.801"><defs><style>.cls-1{fill:#ebf7fd;}.cls-2{opacity:0.3;}.cls-12,.cls-14,.cls-16,.cls-17,.cls-18,.cls-19,.cls-20,.cls-3,.cls-4,.cls-5,.cls-6,.cls-7,.cls-8{fill:none;}.cls-3,.cls-4,.cls-5,.cls-6,.cls-7{stroke:#a3dcf2;}.cls-12,.cls-16,.cls-18,.cls-19,.cls-20,.cls-3,.cls-4,.cls-5,.cls-6,.cls-7,.cls-8{stroke-miterlimit:10;}.cls-19,.cls-3{stroke-width:1.1px;}.cls-18,.cls-4{stroke-width:2.2px;}.cls-5{stroke-width:2.86px;}.cls-14,.cls-6{stroke-width:3.3px;}.cls-20,.cls-7{stroke-width:1.65px;}.cls-8{stroke:#222221;stroke-width:2px;}.cls-9{fill:#b3b4b4;}.cls-10{fill:#3e3e3d;}.cls-11{fill:#6f6f70;}.cls-12{stroke:#fff;stroke-width:0.704px;}.cls-13{fill:#fff;}.cls-14,.cls-17{stroke:#425973;stroke-linecap:round;stroke-linejoin:round;}.cls-15{fill:#dd9ab2;}.cls-16{stroke:#d6819f;stroke-width:3.86px;}.cls-17{stroke-width:2.75px;}.cls-18{stroke:#e9c1cf;}.cls-19,.cls-20{stroke:#da9027;}</style></defs><title>error-link-ref</title><g id="Group_3017" data-name="Group 3017"><g id="Group_2992" data-name="Group 2992"><path id="Path_4863" data-name="Path 4863" class="cls-1" d="M200.631,25.948c-39.138,12.5-163.11-49.122-153.408,35.044,1.517,12.515,9.577,30.192,2.77,41.876-4.933,8.75-13.975,13.877-22.708,17.279C4.471,129.422-4.024,146.829,1.754,171.673c15.454,66.945,99.581,51.069,143.745,31.219,31.408-14.772,68.45-17.309,100.972-4.813,25.48,10.175,41.363,31.52,71.267,25.267,26.52-5.322,30.522-30.36,22.778-53.668-4.4-14.42-7.558-20.513,1.168-34.432,7.354-13.824,20.3-24.3,21.293-40.494.218-17.541-7.843-35.217-23.441-41.861-12.763-5.435-24.331-3.241-36.956-6.583C274.5,38.416,256.45-5.217,221.612,9.789c-8.687,4.1-13.574,13.549-23.039,16.3" transform="translate(0 -6.672)"/><g id="Group_2991" data-name="Group 2991" class="cls-2"><path id="Path_4864" data-name="Path 4864" class="cls-3" d="M186.44,17.187" transform="translate(0 -6.672)"/><path id="Path_4865" data-name="Path 4865" class="cls-4" d="M23.5,99" transform="translate(0 -6.672)"/><path id="Path_4866" data-name="Path 4866" class="cls-4" d="M354.19,142.862" transform="translate(0 -6.672)"/><path id="Path_4867" data-name="Path 4867" class="cls-4" d="M167.878,11.687" transform="translate(0 -6.672)"/><path id="Path_4868" data-name="Path 4868" class="cls-5" d="M365.19,123.75" transform="translate(0 -6.672)"/><path id="Path_4869" data-name="Path 4869" class="cls-5" d="M4.941,115.5" transform="translate(0 -6.672)"/><path id="Path_4870" data-name="Path 4870" class="cls-5" d="M310.19,29.562" transform="translate(0 -6.672)"/><path id="Path_4871" data-name="Path 4871" class="cls-6" d="M183.69,0" transform="translate(0 -6.672)"/><path id="Path_4872" data-name="Path 4872" class="cls-7" d="M371.1,139.7" transform="translate(0 -6.672)"/><path id="Path_4873" data-name="Path 4873" class="cls-7" d="M3.015,95.562" transform="translate(0 -6.672)"/><path id="Path_4874" data-name="Path 4874" class="cls-7" d="M327.378,40.562" transform="translate(0 -6.672)"/><path id="Path_4875" data-name="Path 4875" class="cls-3" d="M326,26.812" transform="translate(0 -6.672)"/><path id="Path_4876" data-name="Path 4876" class="cls-4" d="M47.428,14.574" transform="translate(0 -6.672)"/><path id="Path_4877" data-name="Path 4877" class="cls-4" d="M360.378,204.193" transform="translate(0 -6.672)"/><path id="Path_4878" data-name="Path 4878" class="cls-4" d="M2.878,209" transform="translate(0 -6.672)"/><path id="Path_4879" data-name="Path 4879" class="cls-3" d="M63.928,9.074" transform="translate(0 -6.672)"/><path id="Path_4880" data-name="Path 4880" class="cls-3" d="M361.06,184.938" transform="translate(0 -6.672)"/><path id="Path_4881" data-name="Path 4881" class="cls-3" d="M19.378,218.625" transform="translate(0 -6.672)"/></g></g><g id="Group_3016" data-name="Group 3016"><g id="Group_3014" data-name="Group 3014"><g id="Group_2997" data-name="Group 2997"><g id="Group_2994" data-name="Group 2994"><path id="Path_4882" data-name="Path 4882" class="cls-8" d="M98.44,130.761c-11.549,4.493-9.35-5.5-15.4-12.649-5.5-6.6-7.151-3.3-14.3-3.3-22-1.65-12.1-12.1-18.151-24.2" transform="translate(0 -6.672)"/><g id="Group_2993" data-name="Group 2993"><path id="Path_4883" data-name="Path 4883" class="cls-8" d="M55.724,84.837a12.239,12.239,0,0,1-5.134,4.125" transform="translate(0 -6.672)"/><path id="Path_4884" data-name="Path 4884" class="cls-8" d="M50.041,79.612c-.026,2.384.549,7.15.549,10.45" transform="translate(0 -6.672)"/><path id="Path_4885" data-name="Path 4885" class="cls-8" d="M43.991,81.812c2.2,2.75,4.4,5.5,7.149,7.15" transform="translate(0 -6.672)"/><path id="Path_4886" data-name="Path 4886" class="cls-8" d="M41.241,86.761a8.659,8.659,0,0,0,9.349,2.2" transform="translate(0 -6.672)"/></g></g><g id="Group_2996" data-name="Group 2996"><path id="Path_4887" data-name="Path 4887" class="cls-8" d="M264.541,139.011c0-9.9,4.95-9.349,12.649-9.9,10.45-.55,7.7-.55,11-9.351,5.5-13.75,24.75-2.2,25.3-19.8" transform="translate(0 -6.672)"/><g id="Group_2995" data-name="Group 2995"><path id="Path_4888" data-name="Path 4888" class="cls-8" d="M307.44,94.462a10.9,10.9,0,0,0,6.051,6.049" transform="translate(0 -6.672)"/><path id="Path_4889" data-name="Path 4889" class="cls-8" d="M312.39,90.612v8.25" transform="translate(0 -6.672)"/><path id="Path_4890" data-name="Path 4890" class="cls-8" d="M317.89,91.712a15.429,15.429,0,0,1-5.5,7.7" transform="translate(0 -6.672)"/><path id="Path_4891" data-name="Path 4891" class="cls-8" d="M321.741,95.562a14.085,14.085,0,0,1-7.151,5.5" transform="translate(0 -6.672)"/></g></g></g><g id="Group_3013" data-name="Group 3013"><g id="Group_3003" data-name="Group 3003"><g id="Group_3001" data-name="Group 3001"><path id="Path_4892" data-name="Path 4892" class="cls-9" d="M286.268,198.778c0,2.885-21.6,3.723-23.939,3.723H100.652c-2.332,0-23.94-.838-23.94-3.723l19.715-29.552c0-2.886,1.893-5.225,4.225-5.225H262.329c2.335,0,4.225,2.339,4.225,5.225Z" transform="translate(0 -6.672)"/><g id="Group_3000" data-name="Group 3000"><g id="Group_2998" data-name="Group 2998"><path id="Path_4893" data-name="Path 4893" class="cls-10" d="M148.242,192.193H106.69l7.27-17.6h37.582Z" transform="translate(0 -6.672)"/><path id="Path_4894" data-name="Path 4894" class="cls-10" d="M214.739,192.193h41.552l-7.272-17.6h-37.58Z" transform="translate(0 -6.672)"/><path id="Path_4895" data-name="Path 4895" class="cls-10" d="M260.909,192.193h14.632l-11.973-17.6H252.53Z" transform="translate(0 -6.672)"/><path id="Path_4896" data-name="Path 4896" class="cls-10" d="M102.074,192.193H87.441l11.974-17.6h11.036Z" transform="translate(0 -6.672)"/><path id="Path_4897" data-name="Path 4897" class="cls-10" d="M211.084,192.193H151.9l3.3-17.6h52.588Z" transform="translate(0 -6.672)"/></g><g id="Group_2999" data-name="Group 2999"><rect id="Rectangle_996" data-name="Rectangle 996" class="cls-9" x="91.052" y="171.135" width="180.878" height="2.694"/><rect id="Rectangle_997" data-name="Rectangle 997" class="cls-9" x="89.091" y="177.735" width="184.8" height="2.694"/></g></g></g><g id="Group_3002" data-name="Group 3002"><path id="Path_4898" data-name="Path 4898" class="cls-10" d="M287.375,205.622c0,2.333-.484,4.224-2.815,4.224H78.421c-2.334,0-2.815-1.891-2.815-4.224V202c0-2.333.481-4.223,2.815-4.223H284.56c2.331,0,2.815,1.89,2.815,4.223Z" transform="translate(0 -6.672)"/><path id="Path_4899" data-name="Path 4899" class="cls-11" d="M220.128,203.912a2.2,2.2,0,0,1-2.2,2.2H145.053a2.2,2.2,0,0,1-2.2-2.2h0a2.2,2.2,0,0,1,2.2-2.2h72.875a2.2,2.2,0,0,1,2.2,2.2Z" transform="translate(0 -6.672)"/></g></g><g id="Group_3012" data-name="Group 3012"><rect id="Rectangle_998" data-name="Rectangle 998" class="cls-10" x="94.315" y="46.106" width="174.351" height="116.684" rx="4.226"/><path id="Path_4900" data-name="Path 4900" class="cls-12" d="M181.491,56.893" transform="translate(0 -6.672)"/><g id="Group_3011" data-name="Group 3011"><path id="Rectangle_999" data-name="Rectangle 999" class="cls-13" d="M110.152,61.722H252.828a3.634,3.634,0,0,1,3.634,3.634h0v93.076a3.635,3.635,0,0,1-3.635,3.635H110.15a3.632,3.632,0,0,1-3.632-3.632h0V65.356A3.634,3.634,0,0,1,110.152,61.722Z" transform="translate(0 -6.672)"/><g id="Group_3010" data-name="Group 3010"><g id="Group_3006" data-name="Group 3006"><g id="Group_3004" data-name="Group 3004"><line id="Line_309" data-name="Line 309" class="cls-14" x1="159.663" y1="92.777" x2="147.217" y2="105.221"/><line id="Line_310" data-name="Line 310" class="cls-14" x1="159.663" y1="105.223" x2="147.218" y2="92.778"/></g><g id="Group_3005" data-name="Group 3005"><line id="Line_311" data-name="Line 311" class="cls-14" x1="215.763" y1="92.777" x2="203.317" y2="105.221"/><line id="Line_312" data-name="Line 312" class="cls-14" x1="215.763" y1="105.223" x2="203.319" y2="92.778"/></g></g><g id="Group_3008" data-name="Group 3008"><g id="Group_3007" data-name="Group 3007"><path id="Path_4901" data-name="Path 4901" class="cls-15" d="M210.177,126.912v12.281a4.4,4.4,0,0,1-4.4,4.4H203.4a4.4,4.4,0,0,1-4.4-4.4V126.912" transform="translate(0 -6.672)"/><path id="Path_4902" data-name="Path 4902" class="cls-16" d="M204.59,127.553v14.3" transform="translate(0 -6.672)"/></g><line id="Line_313" data-name="Line 313" class="cls-17" x1="144.197" y1="120.226" x2="218.784" y2="120.226"/></g><g id="Group_3009" data-name="Group 3009"><path id="Path_4903" data-name="Path 4903" class="cls-18" d="M131.991,119.579" transform="translate(0 -6.672)"/><path id="Path_4904" data-name="Path 4904" class="cls-18" d="M230.991,119.579" transform="translate(0 -6.672)"/></g></g></g></g></g></g><g id="Group_3015" data-name="Group 3015"><path id="Path_4905" data-name="Path 4905" class="cls-19" d="M243.09,38.362v36.3" transform="translate(0 -6.672)"/><path id="Path_4906" data-name="Path 4906" class="cls-20" d="M243.09,84.562" transform="translate(0 -6.672)"/></g></g></g></svg>