<svg xmlns="http://www.w3.org/2000/svg" width="20" height="20" viewBox="0 0 20 20"><defs><style>.a{fill:#64a15e;}</style></defs><path class="a" d="M186.857,186.239a1.8,1.8,0,0,0-2.667-2.4l-.6.6a.566.566,0,0,1-.8-.8l1.016-1.016a.615.615,0,0,0-.87-.87l-.28.28-.268-.268a.615.615,0,0,0-.87.87l.275.275a1.8,1.8,0,0,0,2.667,2.4l.6-.6a.566.566,0,0,1,.8.8l-1.178,1.178a.615.615,0,1,0,.87.87l.443-.443.268.268a.615.615,0,0,0,.87-.87Zm0,0" transform="translate(-174.326 -174.658)"/><path class="a" d="M338.228,81.9a1.845,1.845,0,1,0,2.61,0A1.833,1.833,0,0,0,338.228,81.9Zm1.74,1.74a.615.615,0,1,1,0-.87A.616.616,0,0,1,339.968,83.641Zm0,0" transform="translate(-324.509 -78.223)"/><path class="a" d="M19.758.806A.583.583,0,0,0,19.19.243L11.2,0a.589.589,0,0,0-.434.172L.905,10.04a3.106,3.106,0,0,0,0,4.385L5.568,19.09a3.111,3.111,0,0,0,4.4,0L19.83,9.224A.576.576,0,0,0,20,8.8ZM9.135,18.274a1.931,1.931,0,0,1-2.734,0L1.738,13.609a1.949,1.949,0,0,1,0-2.752L11.42,1.17l7.183.217.217,7.2Zm0,0" transform="translate(0.001 -0.002)"/></svg>