<svg xmlns="http://www.w3.org/2000/svg" width="46" height="46" viewBox="0 0 46 46"><defs><style>.a{fill:#64a15e;}</style></defs><g transform="translate(0.001 -0.002)"><path class="a" d="M193.455,191.813a3.942,3.942,0,0,0-5.855-5.264l-1.318,1.318a1.242,1.242,0,0,1-1.756-1.756l2.229-2.229a1.35,1.35,0,1,0-1.91-1.91l-.616.616-.588-.588a1.351,1.351,0,0,0-1.91,1.91l.6.6a3.943,3.943,0,0,0,5.855,5.264l1.318-1.318a1.242,1.242,0,0,1,1.756,1.756L188.68,192.8a1.35,1.35,0,1,0,1.91,1.91l.972-.972.588.587a1.35,1.35,0,0,0,1.91-1.91Zm0,0" transform="translate(-164.899 -165.339)"/><path class="a" d="M338.874,82.546a4.051,4.051,0,1,0,5.729,0A4.024,4.024,0,0,0,338.874,82.546Zm3.819,3.819a1.351,1.351,0,1,1,0-1.91A1.352,1.352,0,0,1,342.694,86.365Zm0,0" transform="translate(-307.064 -74.068)"/><path class="a" d="M45.444,1.851A1.341,1.341,0,0,0,44.139.556L25.763,0a1.355,1.355,0,0,0-1,.395L2.084,23.089a7.143,7.143,0,0,0,0,10.086l10.725,10.73a7.156,7.156,0,0,0,10.12,0L45.609,21.214A1.326,1.326,0,0,0,46,20.235ZM21.013,42.028a4.442,4.442,0,0,1-6.289,0L4,31.3a4.483,4.483,0,0,1,0-6.33L26.268,2.688l16.52.5.5,16.556Zm0,0" transform="translate(0 0)"/></g></svg>