<svg xmlns="http://www.w3.org/2000/svg" width="15" height="18.002" viewBox="0 0 15 18.002"><defs><style>.a{fill:#141414;}</style></defs><g transform="translate(-48.637 0)"><path class="a" d="M63.095,14.824l-1.305,0a4.693,4.693,0,0,0,1.848-3.715,4.826,4.826,0,0,0-5.061-4.743V5.8l1.077,0a.526.526,0,0,0,.369-.913L54.784.141a.554.554,0,0,0-.74,0L48.81,4.886a.526.526,0,0,0,.37.913h1.078v10.59a.535.535,0,0,0,.543.527h3.036c.029.421-.085.694.159.931a.543.543,0,0,0,.384.154L63.1,17.99a.535.535,0,0,0,.542-.527V15.351a.535.535,0,0,0-.542-.527Zm-.543-3.714a3.8,3.8,0,0,1-7.6,0,3.8,3.8,0,0,1,7.6,0ZM51.344,15.862V5.272a.535.535,0,0,0-.543-.527h-.244l3.857-3.5,3.863,3.5h-.244a.535.535,0,0,0-.541.527v1.25a4.7,4.7,0,0,0-1.761,8.308l-1.35,0a.535.535,0,0,0-.542.527v.5H51.344Zm11.209,1.074-7.63.01V15.889l7.63-.01Z" transform="translate(0 0)"/><path class="a" d="M282.044,272.7a.527.527,0,0,0,.746,0l2.238-2.238a.527.527,0,0,0-.746-.746l-2.238,2.238A.527.527,0,0,0,282.044,272.7Z" transform="translate(-224.747 -260.084)"/><circle class="a" cx="0.526" cy="0.526" r="0.526" transform="translate(57.067 9.451)"/><path class="a" d="M345.061,332.662a.526.526,0,1,0,.743,0A.526.526,0,0,0,345.061,332.662Z" transform="translate(-285.531 -320.817)"/></g></svg>