<svg id="Layer_1" data-name="Layer 1" xmlns="http://www.w3.org/2000/svg" viewBox="0 0 22 18.001"><defs><style>.cls-1{fill:#414141;}</style></defs><title>ic-dashboard-active</title><path id="Path_25" data-name="Path 25" class="cls-1" d="M0,16.294V1.708a.338.338,0,0,0,.02-.056A2.014,2.014,0,0,1,2.052,0H19.938A1.992,1.992,0,0,1,22,1.917V16.076a1.74,1.74,0,0,1-.019.26A2.009,2.009,0,0,1,19.94,18H2.063A2.041,2.041,0,0,1,.129,16.745C.073,16.6.042,16.445,0,16.294ZM1.374,5.149V16.021a.676.676,0,0,0,.648.7.591.591,0,0,0,.094,0H19.879a.676.676,0,0,0,.74-.607.723.723,0,0,0,0-.093V5.148ZM20.625,3.855V1.961a.673.673,0,0,0-.67-.677.487.487,0,0,0-.054,0H2.1a.673.673,0,0,0-.718.625.487.487,0,0,0,0,.054V3.852Z" transform="translate(0 0)"/><path id="Path_26" data-name="Path 26" class="cls-1" d="M8.008,12.5a2.7,2.7,0,0,1,1.317-2.364A19.922,19.922,0,0,1,11.508,8.98c1.052-.485,2.112-.952,3.172-1.422a.67.67,0,0,1,.9.865c-.536,1.205-1.067,2.413-1.631,3.605-.292.619-.63,1.219-.978,1.809a2.555,2.555,0,0,1-1.856,1.245,2.684,2.684,0,0,1-3.029-2.061C8.045,12.828,8.029,12.63,8.008,12.5ZM14.358,8.7c-.049.019-1.572.742-2.492,1.149a21.167,21.167,0,0,0-2.218,1.2,1.651,1.651,0,0,0-.63,1.45,1.772,1.772,0,0,0,1.9,1.628c.581,0,1.19-.807,1.369-1.1a22.4,22.4,0,0,0,1.055-2.136c.216-.459.8-1.71,1.018-2.191Z" transform="translate(0 0)"/><path id="Path_27" data-name="Path 27" class="cls-1" d="M5.177,13.2h.68a.554.554,0,1,1,0,1.09H4.5a.555.555,0,1,1-.21-1.09.57.57,0,0,1,.21,0Z" transform="translate(0 0)"/><path id="Path_28" data-name="Path 28" class="cls-1" d="M6.054,9.443l.577.361a.554.554,0,1,1-.58.923L4.9,10.006a.6.6,0,0,1-.277-.8l.007-.014a.607.607,0,0,1,.849-.107Z" transform="translate(0 0)"/><path id="Path_29" data-name="Path 29" class="cls-1" d="M9.791,7.488l.3.611a.607.607,0,0,1-.2.829.606.606,0,0,1-.778-.353l-.6-1.223A.6.6,0,0,1,8.7,6.525l.013-.008a.607.607,0,0,1,.776.359Z" transform="translate(0 0)"/><path id="Path_30" data-name="Path 30" class="cls-1" d="M16.967,13.2h.68a.554.554,0,1,1,0,1.09h-1.36a.555.555,0,1,1-.21-1.09.57.57,0,0,1,.21,0Z" transform="translate(0 0)"/></svg>