<svg id="Layer_1" data-name="Layer 1" xmlns="http://www.w3.org/2000/svg" viewBox="0 0 22 22"><defs><style>.cls-1{fill:#dcf2da;}</style></defs><title>ic-hdsd</title><g id="Group_2444" data-name="Group 2444"><g id="Group_2443" data-name="Group 2443"><circle id="Ellipse_88" data-name="Ellipse 88" class="cls-1" cx="11" cy="16.263" r="1.077"/><path id="Path_4509" data-name="Path 4509" class="cls-1" d="M11,0a10.994,10.994,0,1,0,.012,0Zm0,20.281a9.276,9.276,0,1,1,.01,0Z"/><path id="Path_4510" data-name="Path 4510" class="cls-1" d="M11,5.512A3.45,3.45,0,0,0,7.554,8.958a.862.862,0,0,0,1.723,0A1.723,1.723,0,1,1,11,10.681a.861.861,0,0,0-.861.861V13.7a.862.862,0,1,0,1.723,0V12.3A3.446,3.446,0,0,0,11,5.514Z"/></g></g></svg>