<svg id="Layer_1" data-name="Layer 1" xmlns="http://www.w3.org/2000/svg" viewBox="0 0 19.905 19"><defs><style>.cls-1{fill:#dcf2da;}</style></defs><title>ic-logout</title><path id="Path_61" data-name="Path 61" class="cls-1" d="M19.222,10.157H6.512A.658.658,0,1,1,6.46,8.842a.451.451,0,0,1,.052,0h12.71a.658.658,0,1,1,.051,1.315Z"/><path id="Path_62" data-name="Path 62" class="cls-1" d="M10.114,13.664a.652.652,0,0,1-.465-.193L6.142,9.964a.657.657,0,0,1,0-.93L9.649,5.527a.658.658,0,0,1,.93.93L7.537,9.5l3.042,3.042a.658.658,0,0,1-.466,1.122Z"/><path id="Path_63" data-name="Path 63" class="cls-1" d="M9.442,19a9.5,9.5,0,1,1,8.9-12.975.648.648,0,0,1-.366.839h0a.654.654,0,0,1-.846-.366,8.2,8.2,0,1,0,0,6,.654.654,0,0,1,.846-.366.647.647,0,0,1,.369.837v0A9.51,9.51,0,0,1,9.442,19Z"/></svg>