<svg id="Layer_1" data-name="Layer 1" xmlns="http://www.w3.org/2000/svg" viewBox="0 0 22.085 20.051"><defs><style>.cls-1{fill:#dcf2da;}</style></defs><title>ic-mua-share</title><path id="buy" class="cls-1" d="M21.185,3.645H3.98L3.724.82A.9.9,0,0,0,2.824,0H.985A.9.9,0,1,0,.815,1.8a.965.965,0,0,0,.17,0H2L3.037,13.279a3.435,3.435,0,0,0,1.3,2.336,2.727,2.727,0,1,0,4.733.747h4.945a2.742,2.742,0,1,0,2.577-1.8H6.5a1.676,1.676,0,0,1-1.543-1L19.4,12.724a.9.9,0,0,0,.824-.677l1.836-7.283a.9.9,0,0,0-.873-1.119ZM6.5,18.212a.925.925,0,1,1,.932-.925A.925.925,0,0,1,6.5,18.212Zm10.1,0a.925.925,0,1,1,.932-.925.925.925,0,0,1-.932.925h0Zm2.034-7.246-13.914.811L4.142,5.435H20.024Z"/></svg>