<svg id="Layer_1" data-name="Layer 1" xmlns="http://www.w3.org/2000/svg" viewBox="0 0 21.957 22.003"><defs><style>.cls-1{fill:#dcf2da;}</style></defs><title>ic-network</title><path id="network" class="cls-1" d="M19.551,0a2.4,2.4,0,0,0-2.11,3.544L13.51,7.476a3.18,3.18,0,0,0-3.918,0L6.524,4.408A1.567,1.567,0,0,0,6.751,3.6a1.6,1.6,0,1,0-1.6,1.6,1.577,1.577,0,0,0,.808-.227L9.026,8.041a3.18,3.18,0,0,0,0,3.918L3.961,17.025a2.376,2.376,0,1,0,.5.631l5.132-5.132a3.192,3.192,0,0,0,1.559.648v4.064a2.4,2.4,0,1,0,.8,0V13.172a3.184,3.184,0,0,0,1.559-.648l3.068,3.068a1.595,1.595,0,1,0,1.373-.792h0a1.577,1.577,0,0,0-.808.227l-3.068-3.068a3.177,3.177,0,0,0,0-3.918l3.866-3.866A2.4,2.4,0,1,0,19.551,0ZM4.351,3.6a.8.8,0,1,1,.8.8.8.8,0,0,1-.8-.8Zm-2,16.8a1.6,1.6,0,1,1,1.6-1.6,1.6,1.6,0,0,1-1.6,1.6Zm10.8-.8a1.6,1.6,0,1,1-1.6-1.6A1.6,1.6,0,0,1,13.151,19.6Zm-1.6-7.2a2.4,2.4,0,1,1,2.4-2.4A2.4,2.4,0,0,1,11.551,12.4Zm7.2,4a.8.8,0,1,1-.8-.8h0A.8.8,0,0,1,18.751,16.4Zm.8-12.4a1.6,1.6,0,1,1,1.6-1.6,1.6,1.6,0,0,1-1.6,1.6Z" transform="translate(0)"/></svg>