<svg id="Layer_1" data-name="Layer 1" xmlns="http://www.w3.org/2000/svg" viewBox="0 0 21.995 22.005"><defs><style>.cls-1{fill:#dcf2da;}</style></defs><title>ic-partner</title><g id="Group_2424" data-name="Group 2424"><g id="Group_2423" data-name="Group 2423"><path id="Path_4499" data-name="Path 4499" class="cls-1" d="M13,4.162a2.565,2.565,0,1,0-4.014,0A4.408,4.408,0,0,0,6.6,8.065v1.1a.367.367,0,0,0,.366.366h8.06a.367.367,0,0,0,.366-.366v-1.1A4.409,4.409,0,0,0,13,4.162ZM11,.738a1.827,1.827,0,0,1,1.082,3.3c-.043.032-.088.062-.133.089s-.09.051-.137.074a1.731,1.731,0,0,1-.182.08c-.027.01-.056.017-.084.026a1.871,1.871,0,0,1-1.094,0c-.028-.009-.056-.016-.084-.026a1.731,1.731,0,0,1-.182-.08c-.047-.023-.092-.047-.137-.074s-.09-.057-.133-.089A1.827,1.827,0,0,1,11,.738ZM14.667,8.8H7.339V8.065A3.674,3.674,0,0,1,9.572,4.7a2.473,2.473,0,0,0,.329.185h0a2.534,2.534,0,0,0,2.2,0h0A2.473,2.473,0,0,0,12.43,4.7a3.677,3.677,0,0,1,2.233,3.369Z"/></g></g><g id="Group_2426" data-name="Group 2426"><g id="Group_2425" data-name="Group 2425"><path id="Path_4500" data-name="Path 4500" class="cls-1" d="M6.4,16.636a2.565,2.565,0,1,0-4.014,0A4.408,4.408,0,0,0,0,20.539v1.1a.367.367,0,0,0,.366.366h8.06a.367.367,0,0,0,.366-.366v-1.1A4.409,4.409,0,0,0,6.4,16.636Zm-2-3.424a1.827,1.827,0,0,1,1.082,3.3c-.043.032-.088.062-.133.089s-.09.051-.137.074a1.731,1.731,0,0,1-.182.08c-.027.01-.056.017-.084.026a1.871,1.871,0,0,1-1.094,0c-.028-.009-.056-.016-.084-.026a1.731,1.731,0,0,1-.182-.08c-.047-.023-.092-.047-.137-.074s-.09-.057-.133-.089a1.827,1.827,0,0,1,1.082-3.3Zm3.664,8.06H.733v-.733a3.675,3.675,0,0,1,2.233-3.368,2.473,2.473,0,0,0,.329.185h0a2.534,2.534,0,0,0,2.2,0h0a2.473,2.473,0,0,0,.329-.185A3.675,3.675,0,0,1,8.06,20.539Z"/></g></g><g id="Group_2428" data-name="Group 2428"><g id="Group_2427" data-name="Group 2427"><path id="Path_4501" data-name="Path 4501" class="cls-1" d="M19.607,16.636a2.565,2.565,0,1,0-4.014,0,4.408,4.408,0,0,0-2.39,3.9v1.1a.367.367,0,0,0,.366.366h8.06A.367.367,0,0,0,22,21.636v-1.1A4.409,4.409,0,0,0,19.607,16.636ZM17.6,13.212a1.827,1.827,0,0,1,1.082,3.3c-.043.032-.088.062-.133.089s-.09.051-.137.074a1.731,1.731,0,0,1-.182.08c-.027.01-.056.017-.084.026a1.871,1.871,0,0,1-1.094,0c-.028-.009-.056-.016-.084-.026a1.731,1.731,0,0,1-.182-.08c-.047-.023-.092-.047-.137-.074s-.09-.057-.133-.089a1.827,1.827,0,0,1,1.082-3.3Zm3.664,8.06H13.936v-.733a3.675,3.675,0,0,1,2.233-3.368,2.473,2.473,0,0,0,.329.185h0a2.534,2.534,0,0,0,2.2,0h0a2.473,2.473,0,0,0,.329-.185A3.674,3.674,0,0,1,21.26,20.54Z"/></g></g><g id="Group_2430" data-name="Group 2430"><g id="Group_2429" data-name="Group 2429"><path id="Path_4502" data-name="Path 4502" class="cls-1" d="M11.729,13.6V11.273h-.842V13.6L8.939,15.155l.526.658,1.842-1.474,1.842,1.474.526-.658Z"/></g></g><g id="Group_2432" data-name="Group 2432"><g id="Group_2431" data-name="Group 2431"><rect id="Rectangle_915" data-name="Rectangle 915" class="cls-1" x="10.991" y="5.993" height="1"/></g></g><g id="Group_2434" data-name="Group 2434"><g id="Group_2433" data-name="Group 2433"><rect id="Rectangle_916" data-name="Rectangle 916" class="cls-1" x="10.991" y="6.994" height="1"/></g></g><g id="Group_2436" data-name="Group 2436"><g id="Group_2435" data-name="Group 2435"><rect id="Rectangle_917" data-name="Rectangle 917" class="cls-1" x="16.997" y="18.005" width="1" height="1"/></g></g><g id="Group_2438" data-name="Group 2438"><g id="Group_2437" data-name="Group 2437"><polygon id="Rectangle_918" data-name="Rectangle 918" class="cls-1" points="16.997 20.005 17.997 20.005 17.997 20.005 16.997 20.005"/></g></g><g id="Group_2440" data-name="Group 2440"><g id="Group_2439" data-name="Group 2439"><rect id="Rectangle_919" data-name="Rectangle 919" class="cls-1" x="3.986" y="18.005" width="1" height="1"/></g></g><g id="Group_2442" data-name="Group 2442"><g id="Group_2441" data-name="Group 2441"><polygon id="Rectangle_920" data-name="Rectangle 920" class="cls-1" points="3.986 20.005 4.986 20.005 4.986 20.005 3.986 20.005"/></g></g></svg>