<svg id="Layer_1" data-name="Layer 1" xmlns="http://www.w3.org/2000/svg" viewBox="0 0 550.349 551.708"><defs><style>.cls-1{fill:#fff;}</style></defs><title>icon-defi-white</title><path class="cls-1" d="M150.174,313.012a97,97,0,0,0,154.5,78.121v18.879h55V211.23l41.5,41.5V203.2l-41.5-41.5V132.717L465.12,237.525l.054-.054.413-77.028L359.659,55.22l-.012-.012-.471-.473L305.137.466l-.463-.454V234.891a97,97,0,0,0-154.5,78.121Zm139,0a42,42,0,1,1-42-42h0A42,42,0,0,1,289.174,313.012Z"/><path class="cls-1" d="M536.3,242.536l-46.122-46.124v39.6L516.5,262.335a20.051,20.051,0,0,1,0,28.354L289.351,517.835a20.051,20.051,0,0,1-28.354,0L33.851,290.689a20.049,20.049,0,0,1,0-28.353h0L219.718,76.468a40,40,0,1,0-19.875-19.723L14.052,242.536a48.1,48.1,0,0,0,0,67.952L241.2,537.634a48.049,48.049,0,0,0,67.952,0h0L536.3,310.488A48.1,48.1,0,0,0,536.3,242.536ZM236.174,21.123a18.889,18.889,0,1,1-18.889,18.889,18.889,18.889,0,0,1,18.889-18.889Z"/></svg>