<?xml version="1.0" encoding="utf-8"?>
<!-- Generator: Adobe Illustrator 24.0.0, SVG Export Plug-In . SVG Version: 6.00 Build 0)  -->
<svg version="1.1" id="Layer_1" xmlns="http://www.w3.org/2000/svg" xmlns:xlink="http://www.w3.org/1999/xlink" x="0px" y="0px"
	 viewBox="0 0 318.439 217.596" style="enable-background:new 0 0 318.439 217.596;" xml:space="preserve">
<style type="text/css">
	.st0{fill:#F2F2F2;}
	.st1{fill:#3F3D56;}
	.st2{opacity:0.1;enable-background:new    ;}
	.st3{fill:#E33C3C;}
	.st4{fill:#EF8940;}
	.st5{fill:#9140EF;}
	.st6{fill:#19204A;}
	.st7{fill:#64A15E;}
	.st8{fill:#FFD0D0;}
	.st9{fill:#FFB8B8;}
	.st10{fill:#16125C;}
	.st11{fill:#2F2E41;}
	.st12{fill:#E63A83;}
	.st13{fill:#7E5328;}
	.st14{fill:#5162A7;}
	.st15{fill:#FFB9B9;}
	.st16{fill:#41352E;}
	.st17{fill:none;stroke:#3F3D56;stroke-miterlimit:10;}
	.st18{fill:#9F5433;}
</style>
<g id="Group_2314" transform="translate(2292.788 -14777.422)">
	<g id="Group_2312" transform="translate(-385.602 -55.019)">
		<path id="Path_387" class="st0" d="M-1588.747,14936.66c0,27.719-16.478,37.4-36.8,37.4c-20.322,0-36.8-9.678-36.8-37.4
			c0-27.722,36.795-62.978,36.795-62.978S-1588.747,14908.942-1588.747,14936.66z"/>
		<path id="Path_388" class="st1" d="M-1626.893,14969.816l0.377-23.2l15.687-28.699l-15.628,25.064l0.169-10.431l10.811-20.763
			l-10.766,18l0,0l0.3-18.761l11.577-16.529l-11.524,13.584l0.191-34.4l-1.2,45.538l0.1-1.879l-11.77-18.018l11.582,21.623
			l-1.1,20.951l-0.033-0.556l-13.565-18.96l13.528,20.924l-0.137,2.62l-0.025,0.039l0.011,0.215l-2.783,53.155h3.722l0.446-27.456
			l13.5-20.873L-1626.893,14969.816z"/>
		<path id="Path_389" class="st1" d="M-1590.825,14995.951c0,11.379-73.818,54.086-160.112,54.086
			c-86.294,0-156.249-22.1-156.249-33.482c0-11.382,68.238,2.146,154.532,2.146
			C-1666.36,15018.701-1590.825,14984.574-1590.825,14995.951z"/>
		<path id="Path_390" class="st2" d="M-1590.825,14995.951c0,11.379-73.818,54.086-160.112,54.086
			c-86.294,0-156.249-22.1-156.249-33.482c0-11.382,68.238,2.146,154.532,2.146
			C-1666.36,15018.701-1590.825,14984.574-1590.825,14995.951z"/>
		<path id="Path_391" class="st1" d="M-1590.825,14995.953c0,11.379-73.818,41.208-160.112,41.208
			c-86.294,0-156.249-9.225-156.249-20.6s68.238-10.731,154.532-10.731C-1666.36,15005.83-1590.825,14984.574-1590.825,14995.953z"
			/>
		<ellipse id="Ellipse_84" class="st2" cx="-1753.19" cy="15023.719" rx="66.351" ry="5.132"/>
		<g id="Group_2313" transform="translate(-1783.751 14958.208)">
			<path id="Path_405" class="st3" d="M67.531,2.556l-1.337-1.337c-1.624-1.624-4.257-1.624-5.882,0c0,0,0,0,0,0L34.375,27.156
				L8.438,1.219c-1.624-1.624-4.257-1.624-5.882,0c0,0,0,0,0,0L1.219,2.556c-1.624,1.624-1.624,4.257,0,5.882c0,0,0,0,0,0
				l25.94,25.937L1.219,60.312c-1.624,1.624-1.624,4.257,0,5.882c0,0,0,0,0,0l1.337,1.337c1.624,1.624,4.257,1.624,5.882,0
				c0,0,0,0,0,0l25.937-25.937l25.937,25.937c1.624,1.624,4.257,1.624,5.882,0c0,0,0,0,0,0l1.337-1.337
				c1.624-1.624,1.624-4.257,0-5.882c0,0,0,0,0,0L41.594,34.375L67.531,8.438C69.155,6.814,69.155,4.181,67.531,2.556
				C67.531,2.556,67.531,2.556,67.531,2.556z"/>
			<path id="Path_407" class="st2" d="M0.86,3.399c1.624-1.624,4.257-1.624,5.882,0c0,0,0,0,0,0l25.937,25.937L58.616,3.399
				c1.624-1.624,4.257-1.624,5.882,0c0,0,0,0,0,0l1.337,1.337c1.173,1.173,1.537,2.93,0.926,4.472l0.77-0.77
				c1.624-1.624,1.624-4.257,0-5.882c0,0,0,0,0,0l-1.337-1.337c-1.624-1.624-4.257-1.624-5.882,0c0,0,0,0,0,0L34.375,27.156
				L8.438,1.219c-1.624-1.624-4.257-1.624-5.882,0c0,0,0,0,0,0L1.219,2.556c-0.402,0.402-0.717,0.881-0.926,1.41L0.86,3.399z"/>
			<path id="Path_408" class="st2" d="M41.836,34.616l-1.938,1.938l25.937,25.937c1.173,1.173,1.537,2.93,0.926,4.472l0.77-0.77
				c1.624-1.624,1.624-4.257,0-5.882c0,0,0,0,0,0L41.836,34.616z"/>
		</g>
	</g>
	<g id="Group_2311" transform="translate(-2254 14777.422)">
		<path id="Path_338" class="st1" d="M111.036,38.782h-59.4c-0.608,0-1.1-0.492-1.1-1.1v0V22.948c0-0.608,0.492-1.1,1.1-1.1l0,0
			h59.4c0.608,0,1.1,0.492,1.1,1.1v0v14.734C112.136,38.29,111.643,38.782,111.036,38.782L111.036,38.782z M51.636,22.288
			c-0.364,0.001-0.659,0.296-0.66,0.66v14.734c0.001,0.364,0.296,0.659,0.66,0.66h59.4c0.364-0.001,0.659-0.296,0.66-0.66V22.948
			c-0.001-0.364-0.296-0.659-0.66-0.66H51.636z"/>
		<circle id="Ellipse_76" class="st4" cx="60.868" cy="29.75" r="4.481"/>
		<path id="Path_339" class="st1" d="M71.212,26.762c-0.413,0-0.747,0.334-0.747,0.747c0,0.413,0.334,0.747,0.747,0.747l0,0h35.2
			c0.413,0,0.747-0.334,0.747-0.747c0-0.413-0.334-0.747-0.747-0.747H71.212z"/>
		<path id="Path_340" class="st1" d="M71.212,31.243c-0.413,0-0.747,0.334-0.747,0.747c0,0.413,0.334,0.747,0.747,0.747l0,0h15.149
			c0.413,0,0.747-0.334,0.747-0.747c0-0.413-0.334-0.747-0.747-0.747H71.212z"/>
		<path id="Path_341" class="st1" d="M85.249,91.302h-26.4c-0.608,0-1.1-0.492-1.1-1.1l0,0V62.708c0-0.608,0.492-1.1,1.1-1.1l0,0
			h26.4c0.608,0,1.1,0.492,1.1,1.1l0,0v27.493C86.349,90.809,85.857,91.301,85.249,91.302C85.25,91.302,85.249,91.302,85.249,91.302
			z M58.849,62.049c-0.364,0.001-0.659,0.296-0.66,0.66v27.493c0.001,0.364,0.296,0.659,0.66,0.66h26.4
			c0.364-0.001,0.659-0.296,0.66-0.66V62.708c-0.001-0.364-0.296-0.659-0.66-0.66L58.849,62.049z"/>
		<path id="Path_342" class="st1" d="M64.475,67.278c-0.413,0.002-0.746,0.337-0.744,0.75c0.002,0.41,0.334,0.742,0.744,0.744
			h15.149c0.413-0.002,0.746-0.337,0.744-0.75c-0.002-0.41-0.334-0.742-0.744-0.744H64.475z"/>
		<path id="Path_343" class="st1" d="M64.475,71.678c-0.413,0.002-0.746,0.337-0.744,0.75c0.002,0.41,0.334,0.742,0.744,0.744
			h15.149c0.413-0.002,0.746-0.337,0.744-0.75c-0.002-0.41-0.334-0.742-0.744-0.744H64.475z"/>
		<path id="Path_344" class="st4" d="M72.049,85.632c-2.596,0-4.7-2.104-4.7-4.7s2.104-4.7,4.7-4.7s4.7,2.104,4.7,4.7
			S74.645,85.632,72.049,85.632L72.049,85.632z"/>
		<path id="Path_345" class="st1" d="M128.494,0h26.4c0.607,0,1.1,0.492,1.1,1.1v27.493c0,0.608-0.492,1.1-1.1,1.1h-26.4
			c-0.607,0-1.1-0.492-1.1-1.1V1.1C127.394,0.492,127.886,0,128.494,0z M154.894,29.253c0.364-0.001,0.659-0.296,0.66-0.66V1.1
			c-0.001-0.364-0.296-0.659-0.66-0.66h-26.4c-0.364,0.001-0.659,0.296-0.66,0.66v27.493c0.001,0.364,0.296,0.659,0.66,0.66H154.894
			z"/>
		<path id="Path_346" class="st1" d="M149.269,24.023c0.413,0,0.747-0.334,0.747-0.747c0-0.413-0.334-0.747-0.747-0.747H134.12
			c-0.413,0-0.747,0.334-0.747,0.747c0,0.413,0.334,0.747,0.747,0.747H149.269z"/>
		<path id="Path_347" class="st1" d="M149.269,19.624c0.413,0,0.747-0.334,0.747-0.747c0-0.413-0.334-0.747-0.747-0.747H134.12
			c-0.413,0-0.747,0.334-0.747,0.747c0,0.413,0.334,0.747,0.747,0.747H149.269z"/>
		<path id="Path_348" class="st5" d="M141.69,5.669c2.596,0,4.7,2.104,4.7,4.7c0,2.596-2.104,4.7-4.7,4.7
			c-2.596,0-4.7-2.104-4.7-4.7C136.99,7.773,139.094,5.669,141.69,5.669L141.69,5.669z"/>
		<path id="Path_349" class="st1" d="M50.878,56.88c4.672-3.617,10.129-6.084,15.931-7.2c5.848-1.116,11.879-0.807,17.583,0.9
			c2.865,0.854,5.618,2.047,8.2,3.555c2.601,1.576,5.045,3.398,7.3,5.439c2.318,2.032,4.56,4.154,6.981,6.067
			c6.91,5.523,15.487,8.541,24.333,8.56c0.733,0,1.464-0.02,2.191-0.06c0.4-0.022,0.4-0.64,0-0.618
			c-9.016,0.497-17.92-2.194-25.153-7.6c-2.508-1.876-4.8-4.02-7.137-6.1c-2.231-2.059-4.628-3.93-7.166-5.594
			c-12.861-8.103-29.322-7.728-41.8,0.953c-0.58,0.4-1.147,0.825-1.705,1.259C50.127,56.687,50.567,57.121,50.878,56.88z"/>
		<circle id="Ellipse_77" class="st6" cx="50.549" cy="56.654" r="3.212"/>
		<circle id="Ellipse_78" class="st6" cx="170.058" cy="99.306" r="3.212"/>
		<path id="Path_350" class="st1" d="M186.887,81.007h-52.416c-0.607,0-1.1-0.492-1.1-1.1V52.634c0-0.608,0.492-1.1,1.1-1.1h52.417
			c0.607,0,1.1,0.492,1.1,1.1v27.273C187.988,80.515,187.495,81.007,186.887,81.007C186.888,81.007,186.887,81.007,186.887,81.007z
			 M134.471,51.974c-0.364,0.001-0.659,0.296-0.66,0.66v27.273c0.001,0.364,0.296,0.659,0.66,0.66h52.417
			c0.364-0.001,0.659-0.296,0.66-0.66V52.634c-0.001-0.364-0.296-0.659-0.66-0.66H134.471z"/>
		<circle id="Ellipse_79" class="st5" cx="143.26" cy="61.196" r="4.481"/>
		<path id="Path_351" class="st1" d="M153.61,58.209c-0.413,0.002-0.746,0.337-0.744,0.75c0.002,0.41,0.334,0.742,0.744,0.744
			h28.224c0.413,0.002,0.748-0.331,0.75-0.744c0.002-0.413-0.331-0.748-0.744-0.75c-0.002,0-0.004,0-0.006,0H153.61z"/>
		<path id="Path_352" class="st1" d="M153.61,62.689c-0.413,0.002-0.746,0.337-0.744,0.75c0.002,0.41,0.334,0.742,0.744,0.744
			h15.149c0.413-0.002,0.746-0.337,0.744-0.75c-0.002-0.41-0.334-0.742-0.744-0.744H153.61z"/>
		<path id="Path_353" class="st1" d="M139.822,69.852c-0.568,0-1.03,0.335-1.03,0.747s0.462,0.747,1.03,0.747h41.591
			c0.568,0,1.03-0.335,1.03-0.747s-0.462-0.747-1.03-0.747H139.822z"/>
		<path id="Path_354" class="st1" d="M139.822,74.333c-0.568,0-1.03,0.335-1.03,0.747s0.462,0.747,1.03,0.747h41.591
			c0.568,0,1.03-0.335,1.03-0.747s-0.462-0.747-1.03-0.747H139.822z"/>
		<path id="Path_355" class="st1" d="M130.257,102.297c2.957-1.283,6.259-0.164,9.046,1.018c1.436,0.609,2.856,1.259,4.341,1.74
			c1.25,0.403,2.53,0.707,3.828,0.907c2.605,0.399,5.254,0.415,7.863,0.048c2.622-0.366,5.178-1.109,7.588-2.206
			c2.396-1.086,4.611-2.534,6.567-4.294c0.249-0.225,0.493-0.455,0.732-0.69c0.285-0.279-0.153-0.716-0.437-0.437
			c-1.883,1.836-4.045,3.362-6.406,4.522c-2.351,1.156-4.859,1.962-7.443,2.391c-2.593,0.437-5.237,0.483-7.843,0.135
			c-1.3-0.176-2.584-0.455-3.84-0.835c-1.443-0.469-2.858-1.019-4.239-1.646c-2.813-1.208-5.939-2.391-9.03-1.558
			c-0.354,0.098-0.701,0.222-1.037,0.37C129.581,101.918,129.895,102.454,130.257,102.297z"/>
		<path id="Path_356" class="st7" d="M129.115,109.879H104.35l5.828-10.094c0.329-0.569,1.057-0.764,1.626-0.435
			c0.181,0.104,0.331,0.255,0.435,0.435l2.49,4.312l4.233-7.332c0.411-0.713,1.323-0.957,2.035-0.546
			c0.227,0.131,0.415,0.319,0.546,0.546L129.115,109.879z"/>
		<path id="Path_357" class="st1" d="M129.137,109.876h-26.4c-0.607,0-1.1-0.492-1.1-1.1V94.042c0-0.608,0.492-1.1,1.1-1.1h26.4
			c0.607,0,1.1,0.492,1.1,1.1v14.734C130.237,109.384,129.744,109.876,129.137,109.876z M102.737,93.382
			c-0.364,0.001-0.659,0.296-0.66,0.66v14.734c0,0.365,0.295,0.66,0.66,0.66h26.4c0.365,0,0.66-0.296,0.66-0.66V94.042
			c-0.001-0.364-0.296-0.659-0.66-0.66L102.737,93.382z"/>
		<path id="Path_358" class="st8" d="M180.916,96.909l-4.706,2.389c-1.679,0.853-3.3,0.707-3.921-1.071l0,0
			c-0.566-1.623,0.291-3.397,1.913-3.963c0.148-0.052,0.3-0.092,0.454-0.121l4.472-0.835l19.154-6.355l11.6-8.227l4.253,6.776
			l-13.404,7.239L180.916,96.909z"/>
		<path id="Path_359" class="st9" d="M202.881,176.222l-3.6-0.6l0.4-6.8h3.8L202.881,176.222z"/>
		<path id="Path_360" class="st9" d="M237.823,169.58l-3.484,1.087l-2.707-6.251l3.392-1.713L237.823,169.58z"/>
		<path id="Path_361" class="st10" d="M235.882,163.621l-4.4,1.8l-21-27.6l-6.6,32.4l-4.4-0.8c-2.823-27.934-5.124-56.427-2.3-69.9
			l16.3-0.7l7.4,23.6l3.6,16L235.882,163.621z"/>
		<path id="Path_362" class="st11" d="M202.683,181.721L202.683,181.721c-0.658,0.141-1.344,0.068-1.958-0.208l-2.139-0.962
			c-1.793-0.092-3.014,0.265-4.013-1.038c-0.574-0.759-0.69-1.769-0.305-2.638l0,0c0.382-0.872,1.204-1.471,2.152-1.566l2.938-1.851
			l0.154,1.388c1.343,0.761,2.936,0.432,4.625-0.308l0.922,3.227c0.479,1.677-0.492,3.426-2.169,3.905
			C202.821,181.69,202.752,181.707,202.683,181.721L202.683,181.721z"/>
		<path id="Path_363" class="st11" d="M239.248,175.102L239.248,175.102c-0.577,0.347-1.25,0.501-1.92,0.439l-2.335-0.216
			c-1.726,0.5-2.765,1.23-4.132,0.321c-0.79-0.532-1.229-1.451-1.146-2.4l0,0c0.078-0.949,0.662-1.782,1.527-2.179l2.177-2.7
			l0.6,1.262c1.517,0.283,2.918-0.545,4.275-1.794l1.92,2.753c0.998,1.431,0.647,3.4-0.784,4.398
			c-0.058,0.041-0.118,0.079-0.178,0.116L239.248,175.102z"/>
		<circle id="Ellipse_80" class="st8" cx="207.481" cy="63.216" r="7.2"/>
		<path id="Path_364" class="st8" d="M216.281,78.417l-9.4-2l-1.2-7.8l6.6-1.4L216.281,78.417z"/>
		<path id="Path_365" class="st12" d="M213.681,99.818h-16.8l3.787-9.508c-0.275-3.271,1.111-5.678,3.1-7.773l2.517-6.321
			c4.068-2.677,7.135-2.477,10.4,1C220.554,82.7,217.873,90.941,213.681,99.818z"/>
		<path id="Path_366" class="st8" d="M206.08,120.019l-0.478,5.256c-0.171,1.876-1.156,3.171-2.992,2.752l0,0
			c-1.675-0.384-2.722-2.053-2.339-3.728c0.035-0.153,0.081-0.302,0.139-0.448l1.67-4.232l4.8-19.6l-0.8-14.2h8l-1,15.2
			L206.08,120.019z"/>
		<path id="Path_367" class="st12" d="M214.681,86.218h-9.2l0.645-6c0.087-2.152,1.801-3.882,3.952-3.989l0,0
			c2.297-0.114,4.252,1.655,4.366,3.952c0.001,0.016,0.002,0.032,0.002,0.048L214.681,86.218z"/>
		<circle id="Ellipse_81" class="st13" cx="216.392" cy="53.106" r="2.706"/>
		<path id="Path_368" class="st11" d="M213.604,52.444c0.09-1.426,1.276-2.535,2.705-2.53c-0.056-0.007-0.111-0.016-0.168-0.019
			c-1.489-0.123-2.796,0.986-2.919,2.475c-0.123,1.489,0.986,2.796,2.475,2.919c0.032,0.003,0.065,0.005,0.097,0.006
			c0.057,0,0.113,0,0.169,0C214.547,55.118,213.513,53.868,213.604,52.444z"/>
		<path id="Path_369" class="st13" d="M213.588,53.6c-2.414-2-9.337,0.543-9.783,1.889c-3.264,0.445-5.735,2.349-5.735,5.735l0,0
			c2.113,0.748,4.42,0.748,6.533,0c3.8,3.1,4.064,7,1.751,11.47l2.845,0.057l3.527-5.155l0.169,5.229l6.522-0.131v-7.493
			c0.021-2.491-0.553-4.952-1.673-7.177C216.728,56.049,215.151,54.896,213.588,53.6z"/>
		<ellipse id="Ellipse_82" class="st8" cx="207.515" cy="65.027" rx="1.294" ry="1.812"/>
		<path id="Path_370" class="st8" d="M44.673,67.327c0,0,0.779-13.485,4.823-10.421S47.73,68.577,47.73,68.577L44.673,67.327z"/>
		<path id="Path_371" class="st8" d="M29.626,107.325c0,0,8.984,10.086,3.958,10.779s-7-9.5-7-9.5L29.626,107.325z"/>
		<path id="Path_372" class="st14" d="M17.903,59.582L17.903,59.582c2.306,0.607,4.022,2.539,4.353,4.9l2.858,20.341l4.006,16.225
			c0,0,2,1.8,1.2,2.8s1,5.208,1,5.208l-5.008,1.6c0,0-0.6-4.207-1.6-4.407c-0.88-0.176-10.733-26.5-13.108-32.874
			c-0.327-0.879-0.513-1.379-0.513-1.379S11.493,58.581,17.903,59.582z"/>
		<path id="Path_373" class="st15" d="M18.817,165.657l3.076,5.451c2.382,5.086,0.265,6.009-5.575,3.489l-1.331-6.436
			L18.817,165.657z"/>
		<path id="Path_374" class="st11" d="M20.368,172.901c0,0,1.46-2.377,1.988-1.979s2.706,2.122,2.706,2.122l2.837,2.718
			c0,0,9.586,1.013,3.495,4.372s-9.458,0.574-9.458,0.574s-8.532,0.444-8.394-1.937s2.889-6.146,2.889-6.146
			S19.901,174.952,20.368,172.901z"/>
		<path id="Path_375" class="st16" d="M5.168,104.042l2.885,34.892c0,0,0.1,20.859,3.172,24.9s3.172,6.056,3.172,6.056l6.344-3.268
			c0,0-3.268-5.446-2.6-6.279c0.415-0.529,0.71-1.141,0.865-1.795l-1.73-21.531l3.268-37.488L5.168,104.042z"/>
		<path id="Path_376" class="st17" d="M9.589,169.886"/>
		<path id="Path_377" class="st15" d="M13.049,165.657l-2.691,7.113l-6.1-2.552l3.22-5.33L13.049,165.657z"/>
		<path id="Path_378" class="st11" d="M8.56,170.374c0,0,2.289-1.431,2.575-0.858s1.431,3,1.431,3l1.288,3.577
			c0,0,7.869,5.008,1.145,5.294s-8.442-3.577-8.442-3.577s-7.583-3.291-6.439-5.294s5.151-4.081,5.151-4.081
			S7.272,171.948,8.56,170.374z"/>
		<path id="Path_379" class="st16" d="M29.583,104.138l1.538,32.105c0,0-14.034,29.029-15.572,29.8
			c-0.926,0.478-1.619,1.31-1.922,2.307l-8.459-2.115l3.845-6.152l8.459-20.57c0.939-0.514,1.58-1.44,1.73-2.5
			c0.385-1.922,1.153-1.922-0.769-2.307c-1.104-0.22-1.905-1.181-1.922-2.307l-6.344-29.221L29.583,104.138z"/>
		<circle id="Ellipse_83" class="st8" cx="22.661" cy="46.079" r="7.69"/>
		<path id="Path_380" class="st8" d="M15.837,46.561c0,0-0.577,9.8-1.346,10.766s8.074,0.769,8.074,0.769s-0.577-8.267,0-9.036
			S15.837,46.561,15.837,46.561z"/>
		<path id="Path_381" class="st14" d="M30.158,106.253c0,0-21.724-1.922-25.76,0c0,0,1.486-5.512,1.1-6.088
			c-0.279-0.421,0.491-16.122,0.249-25.179c-0.137-5.111-1.316-10.1,2.112-13.9c1.043-1.247,2.357-2.239,3.842-2.9
			c0,0-0.384-3.652,1.538-3.844c0,0,7.307-0.77,10,1.538c0.86,0.733,1.4,2.967,1.458,4.891c-1.331,6.547-0.86,13.811,0.361,21.347
			c0.075,0.479,0.157,0.96,0.239,1.441C26.593,91.038,28.553,98.744,30.158,106.253z"/>
		<path id="Path_382" class="st18" d="M18.645,48.342c0.651,0.027,1.297,0.117,1.931,0.267c2.402,0.242,4.622-1.306,5.224-3.644
			c0.041-0.303,0.131-0.597,0.267-0.871c0.443-0.536,1.165-0.754,1.83-0.552c0.648,0.208,1.309,0.369,1.98,0.482
			c1.074,0.005,2.071-0.559,2.62-1.482c0.529-0.918,0.753-1.98,0.642-3.034l-0.5,0.528c-0.204-0.433-0.283-0.914-0.228-1.389
			c-0.542-0.144-1.121,0.004-1.527,0.391c-0.444,0.047-0.109-0.823-0.438-1.124c-0.161-0.098-0.352-0.134-0.537-0.1
			c-0.938-0.147-1.801-0.602-2.452-1.294c-1.289-1.005-2.796-1.692-4.4-2.007c-1.064-0.252-2.177-0.198-3.211,0.156
			c-0.816,0.366-1.553,0.889-2.168,1.538c-1.645,1.468-2.898,3.325-3.643,5.4c-0.535,1.716-0.551,3.552-0.044,5.276
			c0.265,0.9,1.065,3.962,2.236,4.034C17.697,51.008,16.814,48.455,18.645,48.342z"/>
		<path id="Path_383" class="st14" d="M21.828,60.527l2.755,0.3c0,0,2.7,5.247,2.508,6.341s-0.624,0.43,0.593,2.181
			s4.671,6.277,5.1,6.941s12.088-8.232,11.363-10.9c0,0,3.683,2.642,5.26,2.994c0,0-12.017,15.76-13.692,17.777
			s-3.022,1.6-5.324,0.407S16.447,73.446,16.447,73.446L21.828,60.527z"/>
		<path id="Path_384" class="st2" d="M25.298,83.565l-9.576-9.576l2.423-0.79l6.913,8.925
			C25.133,82.602,25.215,83.088,25.298,83.565z"/>
	</g>
</g>
</svg>
