<svg id="Layer_1" data-name="Layer 1" xmlns="http://www.w3.org/2000/svg" viewBox="0 0 1251.007 551.708"><defs><style>.cls-1{fill:#fff;}</style></defs><title>logo-defi-white</title><path class="cls-1" d="M150.173,313a97,97,0,0,0,154.5,78.121V410h55V211.218l41.5,41.5V203.191l-41.5-41.5V132.705L465.119,237.513l.054-.054.413-77.028L359.658,55.208l-.012-.012-.471-.473L305.136.454,304.673,0V234.879A97,97,0,0,0,150.173,313Zm139,0a42,42,0,1,1-42-42h0A42,42,0,0,1,289.173,313Z" transform="translate(0.001 0.012)"/><path class="cls-1" d="M536.295,242.524,490.173,196.4V236L516.5,262.323a20.051,20.051,0,0,1,0,28.354L289.35,517.823a20.051,20.051,0,0,1-28.354,0L33.85,290.677a20.049,20.049,0,0,1,0-28.354h0L219.717,76.456a40,40,0,1,0-19.875-19.723L14.051,242.524a48.1,48.1,0,0,0,0,67.952L241.2,537.622a48.049,48.049,0,0,0,67.952,0h0L536.295,310.476A48.1,48.1,0,0,0,536.295,242.524ZM236.173,21.111A18.889,18.889,0,1,1,217.284,40a18.889,18.889,0,0,1,18.889-18.889Z" transform="translate(0.001 0.012)"/><path class="cls-1" d="M839.481,269.223A120.869,120.869,0,0,1,822.733,331a126.286,126.286,0,0,1-19.141,24.78,121.629,121.629,0,0,1-86.645,35.974H643.119V146.689h73.828a121.641,121.641,0,0,1,86.645,35.974,126.36,126.36,0,0,1,19.141,24.781A120.866,120.866,0,0,1,839.481,269.223Zm-49.048,0a71.572,71.572,0,0,0-5.725-28.54,73.9,73.9,0,0,0-15.723-23.327,74.819,74.819,0,0,0-23.412-15.808,71.263,71.263,0,0,0-28.626-5.811H692.508V342.709h24.439a72.152,72.152,0,0,0,28.626-5.724,73.137,73.137,0,0,0,39.135-39.136,72.171,72.171,0,0,0,5.725-28.626Z" transform="translate(0.001 0.012)"/><path class="cls-1" d="M939.8,346.982a26.5,26.5,0,0,0,5.469,1.111q2.733.257,5.469.256a45.9,45.9,0,0,0,13.159-1.88,47.542,47.542,0,0,0,11.878-5.383,44.239,44.239,0,0,0,9.912-8.545,44.947,44.947,0,0,0,7.092-11.194l34.18,34.35A92.1,92.1,0,0,1,1012,372.275a94.365,94.365,0,0,1-18.288,12.475,91.415,91.415,0,0,1-20.677,7.777,93.86,93.86,0,0,1-22.3,2.648A92.4,92.4,0,0,1,884.683,368a93.8,93.8,0,0,1-20.08-30.5,100.348,100.348,0,0,1-7.348-38.88,103.67,103.67,0,0,1,7.348-39.648,89.6,89.6,0,0,1,49.817-50.244,94.386,94.386,0,0,1,36.316-7.007,92.067,92.067,0,0,1,22.388,2.735,94.281,94.281,0,0,1,54.174,37.085Zm23.926-96.216a27.058,27.058,0,0,0-6.408-1.538,61.543,61.543,0,0,0-6.58-.342,46.674,46.674,0,0,0-18.029,3.5,42.919,42.919,0,0,0-14.7,10,47.128,47.128,0,0,0-9.827,15.638,56,56,0,0,0-3.589,20.592q0,2.563.256,5.811t.856,6.58q.6,3.333,1.452,6.408a23.635,23.635,0,0,0,2.222,5.469Z" transform="translate(0.001 0.012)"/><path class="cls-1" d="M1110.013,391.757h-46.655V255.21h-22.729V208.725h22.729v-8.716a79.462,79.462,0,0,1,6.408-31.787,80.866,80.866,0,0,1,17.6-25.891,84.317,84.317,0,0,1,26.061-17.431,79.439,79.439,0,0,1,31.787-6.409h35.035v46.484h-35.035a36.124,36.124,0,0,0-13.928,2.649,33.8,33.8,0,0,0-11.108,7.349,35.039,35.039,0,0,0-10.169,25.036v8.716h57.251V255.21h-57.251Z" transform="translate(0.001 0.012)"/><path class="cls-1" d="M1251.005,158.994a29.861,29.861,0,0,1-2.479,12.134,31.182,31.182,0,0,1-6.75,9.826,32.656,32.656,0,0,1-10,6.665,31.342,31.342,0,0,1-41.016-16.491,30.746,30.746,0,0,1,0-24.182,31.282,31.282,0,0,1,41.016-16.578,32.764,32.764,0,0,1,10,6.665,30.947,30.947,0,0,1,6.75,9.913A30.057,30.057,0,0,1,1251.005,158.994Zm-8.033,232.763h-47V208.725h47Z" transform="translate(0.001 0.012)"/></svg>