<svg xmlns="http://www.w3.org/2000/svg" width="45.999" height="45" viewBox="0 0 45.999 45"><defs><style>.a{fill:#64a15e;}</style></defs><g transform="translate(0 14.921)"><path class="a" d="M39.084,160.017H.659a.658.658,0,0,0-.659.657v18.445a.658.658,0,0,0,.657.659h26.13a.659.659,0,1,0,0-1.317H1.317V161.334H38.424v1.647a.658.658,0,0,0,.657.659h0a.658.658,0,0,0,.659-.657v-2.307A.658.658,0,0,0,39.084,160.017Z" transform="translate(0 -160.017)"/></g><g transform="translate(1.536 4.614)"><g transform="translate(0 0)"><path class="a" d="M49.075,62.951,18.336,56.035a.659.659,0,0,0-.788.5l-1.537,6.916a.659.659,0,1,0,1.286.286l1.393-6.272,30.1,6.771a.621.621,0,0,0,.145.016.659.659,0,0,0,.144-1.3Z" transform="translate(-15.995 -56.019)"/></g></g><g transform="translate(9.978)"><g transform="translate(0 0)"><path class="a" d="M124.78,15.718,106.337,8.033a.661.661,0,0,0-.845.314l-1.537,3.074a.661.661,0,1,0,1.163.629c.007-.013.013-.025.019-.039v0L106.4,9.489l17.874,7.447a.66.66,0,1,0,.509-1.219Z" transform="translate(-103.875 -7.982)"/></g></g><g transform="translate(24.591 17.897)"><path class="a" d="M262.758,192.017h-6.1a.659.659,0,1,0,0,1.317h6.1a.659.659,0,1,0,0-1.317Z" transform="translate(-256 -192.017)"/></g><g transform="translate(12.339 18.028)"><path class="a" d="M135.219,192.473a6.763,6.763,0,1,0,6.763,6.763A6.763,6.763,0,0,0,135.219,192.473Zm0,12.3a5.533,5.533,0,1,1,5.533-5.533A5.533,5.533,0,0,1,135.219,204.769Z" transform="translate(-128.456 -192.473)"/></g><g transform="translate(29.092 20.409)"><path class="a" d="M311.309,214.873c-4.073,0-8.453.962-8.453,3.074V236.39c0,2.112,4.38,3.074,8.453,3.074s8.453-.962,8.453-3.074V217.947C319.763,215.835,315.382,214.873,311.309,214.873Zm6.916,21.506c-.116.426-2.421,1.548-6.916,1.548s-6.8-1.122-6.916-1.537v-1.208a20.4,20.4,0,0,0,13.833,0Zm0-3.074c-.116.427-2.421,1.548-6.916,1.548s-6.8-1.122-6.916-1.537v-1.208a20.4,20.4,0,0,0,13.833,0Zm0-3.074c-.116.426-2.421,1.548-6.916,1.548s-6.8-1.122-6.916-1.537v-1.208a20.4,20.4,0,0,0,13.833,0Zm0-3.074c-.116.427-2.421,1.548-6.916,1.548s-6.8-1.122-6.916-1.537v-1.208a20.4,20.4,0,0,0,13.833,0Zm0-3.074c-.116.426-2.421,1.548-6.916,1.548s-6.8-1.122-6.916-1.537v-1.208a20.4,20.4,0,0,0,13.833,0Zm0-3.074c-.116.426-2.421,1.548-6.916,1.548s-6.8-1.122-6.916-1.537v-1.208a20.4,20.4,0,0,0,13.833,0Zm-6.916-1.525c-4.489,0-6.793-1.119-6.916-1.523v0c.124-.428,2.428-1.546,6.916-1.546,4.457,0,6.763,1.1,6.916,1.537C318.072,218.382,315.766,219.484,311.309,219.484Z" transform="translate(-302.856 -214.873)"/></g><g transform="translate(3.073 17.985)"><path class="a" d="M41.873,204.312H36.064L33.31,201.3v-5l3.042-2.97h5.522a.659.659,0,0,0,0-1.317H36.084a.659.659,0,0,0-.461.187l-3.433,3.348a.826.826,0,0,0-.2.538v5.465a.659.659,0,0,0,.172.444l3.122,3.415a.658.658,0,0,0,.486.214h6.1a.659.659,0,1,0,0-1.317Z" transform="translate(-31.992 -192.017)"/></g></svg>