<svg xmlns="http://www.w3.org/2000/svg" width="46" height="35" viewBox="0 0 46 35"><defs><style>.a{fill:#64a15e;}</style></defs><g transform="translate(0 14.41)"><path class="a" d="M38.483,160.017H.648a.649.649,0,0,0-.648.649v18.216a.649.649,0,0,0,.647.65H26.375a.65.65,0,0,0,0-1.3H1.3V161.318H37.833v1.626a.649.649,0,0,0,.647.65h0a.649.649,0,0,0,.648-.649v-2.278A.649.649,0,0,0,38.483,160.017Z" transform="translate(0 -160.017)"/></g><g transform="translate(1.517 4.557)"><g transform="translate(0 0)"><path class="a" d="M48.548,62.865,18.3,56.035a.648.648,0,0,0-.775.493l-1.512,6.83a.649.649,0,1,0,1.266.282l1.371-6.194,29.616,6.687a.609.609,0,0,0,.143.016.651.651,0,0,0,.141-1.285Z" transform="translate(-15.995 -56.019)"/></g></g><g transform="translate(9.791 0)"><path class="a" d="M124.52,15.622,106.306,8.032a.653.653,0,0,0-.835.31l-1.518,3.036A.653.653,0,1,0,105.1,12c.007-.012.013-.025.019-.038v0l1.245-2.492,17.652,7.355a.652.652,0,1,0,.5-1.2Z" transform="translate(-103.875 -7.982)"/></g><g transform="translate(24.197 17.501)"><path class="a" d="M262.674,192.017H256.65a.65.65,0,1,0,0,1.3h6.024a.65.65,0,1,0,0-1.3Z" transform="translate(-256 -192.017)"/></g><g transform="translate(12.131 17.479)"><path class="a" d="M135.135,192.473a6.679,6.679,0,1,0,6.679,6.679A6.679,6.679,0,0,0,135.135,192.473Zm0,12.143a5.464,5.464,0,1,1,5.464-5.464A5.464,5.464,0,0,1,135.135,204.616Z" transform="translate(-128.456 -192.473)"/></g><g transform="translate(3.035 17.436)"><path class="a" d="M41.75,204.159H36.014l-2.72-2.975v-4.933l3-2.933H41.75a.65.65,0,0,0,0-1.3H36.033a.651.651,0,0,0-.455.184l-3.39,3.307a.815.815,0,0,0-.2.531v5.4a.651.651,0,0,0,.17.439l3.084,3.373a.65.65,0,0,0,.48.212H41.75a.65.65,0,1,0,0-1.3Z" transform="translate(-31.992 -192.017)"/></g><g transform="translate(29.593 12.626)"><g transform="translate(0 0)"><path class="a" d="M84.561,14.109l-2.127-2.071a.372.372,0,0,0-.521,0l-3.579,3.509V.373A.373.373,0,0,0,77.961,0H74.978a.373.373,0,0,0-.373.373V15.548l-3.579-3.509a.373.373,0,0,0-.521,0l-2.127,2.071a.372.372,0,0,0,0,.534l7.831,7.625a.372.372,0,0,0,.52,0l7.831-7.625a.373.373,0,0,0,0-.534Z" transform="translate(-68.266)"/></g></g></svg>