<svg xmlns="http://www.w3.org/2000/svg" width="46" height="32" viewBox="0 0 46 32"><defs><style>.a{fill:#64a15e;}</style></defs><g transform="translate(0 -75.6)"><g transform="translate(0 75.6)"><g transform="translate(0 0)"><path class="a" d="M45.872,93.021C45.634,91.9,44.416,91,42.209,90.333a25.925,25.925,0,0,0-6.739-.938l-.247-10.369c-.339-1.021-1.557-1.85-3.617-2.469a27.316,27.316,0,0,0-7.572-.957,26.583,26.583,0,0,0-7.5.957c-1.657.51-3.644,1.458-3.644,3.089a1.67,1.67,0,0,0,.027.3l.1,4.155a11.111,11.111,0,0,0-2.06-.191,10.907,10.907,0,1,0,6.9,19.371,27.468,27.468,0,0,0,5.887.638c.467,2.524,5.97,3.681,11.1,3.681a26.72,26.72,0,0,0,7.508-.966c1.676-.51,3.644-1.467,3.644-3.1ZM17.049,78.306a24.914,24.914,0,0,1,6.968-.884,25.776,25.776,0,0,1,7.05.884c2,.6,2.426,1.221,2.426,1.349s-.43.747-2.426,1.349a26.014,26.014,0,0,1-7.041.884,25.255,25.255,0,0,1-6.748-.82c-1.969-.565-2.527-1.194-2.573-1.394,0-.009-.009-.018-.018-.027C14.686,79.454,15.3,78.844,17.049,78.306Zm16.591,3.6v2.278a.92.92,0,0,0-.146.51c0,.118-.43.747-2.417,1.349a25.658,25.658,0,0,1-7.041.884,26.318,26.318,0,0,1-6.235-.683c-.027-.009-.055-.009-.073-.018a10.527,10.527,0,0,0-2.857-1.613l-.064-2.569a10.174,10.174,0,0,0,1.978.756,27.186,27.186,0,0,0,7.261.884,27.2,27.2,0,0,0,7.563-.957A9.046,9.046,0,0,0,33.639,81.905ZM17.094,101.532a9.154,9.154,0,0,1-12.892-.6,9.055,9.055,0,0,1,.6-12.829,9.169,9.169,0,0,1,6.144-2.369,9.368,9.368,0,0,1,2.7.4,8.926,8.926,0,0,1,3.241,1.8,9.061,9.061,0,0,1,3,5.057,9.484,9.484,0,0,1,.183,1.831A8.994,8.994,0,0,1,17.094,101.532Zm2.326.2a10.99,10.99,0,0,0,1.758-3c.787.064,1.611.109,2.463.118a.932.932,0,0,0,0,.319l.037,2.934A27.991,27.991,0,0,1,19.42,101.732Zm2.445-8c.54.036,1.1.055,1.676.064a1.45,1.45,0,0,0,.046.191l.037,3.034c-.659-.009-1.309-.036-1.923-.082a11.148,11.148,0,0,0,.211-2.132C21.91,94.452,21.892,94.1,21.865,93.732ZM24.1,91.983h-.073c-.888,0-1.73-.036-2.518-.1a10.951,10.951,0,0,0-1.63-3.39,33.245,33.245,0,0,0,4.148.264,27.2,27.2,0,0,0,7.563-.957,9.718,9.718,0,0,0,2.042-.838v2.433a26.056,26.056,0,0,0-6.153.838A7.148,7.148,0,0,0,24.1,91.983Zm1.264,1.358c.156-.282.842-.838,2.628-1.33a25.477,25.477,0,0,1,6.583-.774h.073a25.661,25.661,0,0,1,7.041.866c1.923.583,2.39,1.166,2.417,1.321v.009c-.009.137-.458.765-2.49,1.367a25.621,25.621,0,0,1-6.968.856,26.285,26.285,0,0,1-6.556-.756,5.113,5.113,0,0,1-2.683-1.312A.778.778,0,0,0,25.362,93.34Zm18.807,10.187c0,.128-.4.756-2.353,1.358a24.717,24.717,0,0,1-6.977.893,25.077,25.077,0,0,1-6.949-.866c-1.749-.538-2.335-1.139-2.335-1.339v-.018L25.545,103l-.027-2.059a11.348,11.348,0,0,0,2.28.82,28.154,28.154,0,0,0,6.849.774,27,27,0,0,0,7.535-.957,8.217,8.217,0,0,0,1.987-.829v2.779Zm-.119-5.048c0,.128-.421.747-2.39,1.349a25.4,25.4,0,0,1-7.023.875c-4.981,0-8.369-1.1-9.156-1.977l-.037-2.879c2.161,1.121,5.8,1.631,9.2,1.631a27.462,27.462,0,0,0,7.471-.929,10.041,10.041,0,0,0,2.06-.829V98h0C44.169,98.133,44.05,98.3,44.05,98.479Z" transform="translate(0 -75.6)"/></g></g><g transform="translate(4.927 88.738)"><path class="a" d="M59.755,220.4a6.055,6.055,0,1,0,6.055,6.055A6.056,6.056,0,0,0,59.755,220.4Zm0,10.285a4.22,4.22,0,1,1,4.22-4.22A4.221,4.221,0,0,1,59.755,230.685Z" transform="translate(-53.7 -220.4)"/></g></g></svg>