<svg id="Layer_1" data-name="Layer 1" xmlns="http://www.w3.org/2000/svg" xmlns:xlink="http://www.w3.org/1999/xlink" viewBox="0 0 601.736 462.371"><defs><style>.cls-1{opacity:0.113;}.cls-1,.cls-10,.cls-11,.cls-24,.cls-25,.cls-3,.cls-8,.cls-9{isolation:isolate;}.cls-2{fill:#dbdbdb;}.cls-18,.cls-3,.cls-8{opacity:0.1;}.cls-4{fill:#bababa;}.cls-5{fill:#3f3d56;}.cls-6{fill:#64a15e;}.cls-7{fill:gray;}.cls-8{fill:#444053;}.cls-9{fill:#fa5959;}.cls-10,.cls-11,.cls-9{opacity:0.8;}.cls-10{fill:#fed253;}.cls-11{fill:#8ccf4d;}.cls-12{fill:url(#linear-gradient);}.cls-13{fill:#4e76c1;}.cls-14{fill:#ffdbdb;}.cls-15{fill:#644827;}.cls-16{fill:#5685de;}.cls-17{fill:#803e14;}.cls-19{fill:#514f7c;}.cls-20{fill:#7064fc;}.cls-21{fill:#fafafa;stroke:#497345;stroke-width:2px;}.cls-22{fill:#263238;}.cls-23,.cls-25{fill:#f04444;}.cls-25{font-size:14px;font-family:Gilroy-ExtraBold, Gilroy;font-weight:800;}.cls-26{letter-spacing:-0.04em;}.cls-27{letter-spacing:-0.04em;}.cls-28{letter-spacing:0em;}.cls-29,.cls-39{fill:#ef8940;}.cls-30{fill:#fff;}.cls-31{opacity:0.4;}.cls-32{opacity:0.3;}.cls-33{fill:#455a64;}.cls-34{fill:#e0e0e0;}.cls-35{opacity:0.455;}.cls-36{fill:#ffe2ce;}.cls-37{opacity:0.634;}.cls-38{fill:#f0b68c;}.cls-39{fill-rule:evenodd;}</style><linearGradient id="linear-gradient" x1="-197.123" y1="730.098" x2="-197.123" y2="731.103" gradientTransform="matrix(120.187, 0, 0, -231.322, 24083.141, 169349.817)" gradientUnits="userSpaceOnUse"><stop offset="0" stop-color="gray" stop-opacity="0.251"/><stop offset="0.54" stop-color="gray" stop-opacity="0.122"/><stop offset="1" stop-color="gray" stop-opacity="0.102"/></linearGradient></defs><title>not-login</title><g id="Group_2977" data-name="Group 2977"><g id="Group_2453" data-name="Group 2453"><ellipse id="Ellipse_89" data-name="Ellipse 89" class="cls-1" cx="300.868" cy="388.63" rx="300.868" ry="23.362"/><path id="Path_4583" data-name="Path 4583" class="cls-2" d="M362.328,389.338l-126.15-1.621.375-3.235,6.1-53.371H353.428l8.152,53.37.623,4.049Z"/><path id="Path_4584" data-name="Path 4584" class="cls-3" d="M362.2,388.531H299.254l-63.076-.814.375-3.235H361.58Z"/><rect id="Rectangle_925" data-name="Rectangle 925" class="cls-4" x="215.153" y="385.296" width="167.389" height="4.042"/><path id="Path_4585" data-name="Path 4585" class="cls-5" d="M542.243,10.562A10.528,10.528,0,0,0,531.766,0H64.311A10.527,10.527,0,0,0,53.834,10.576V293.924H542.243Z"/><path id="Path_4586" data-name="Path 4586" class="cls-2" d="M53.831,291.092V324.28a10.477,10.477,0,0,0,10.477,10.477H531.766a10.477,10.477,0,0,0,10.477-10.477V291.092Z"/><path id="Path_4845" data-name="Path 4845" class="cls-6" d="M74.049,17.769h450.4V272.488H74.049Z"/><path id="Path_4587" data-name="Path 4587" class="cls-7" d="M300.465,322.163a10.9,10.9,0,0,0,8.587-4.17h0a11.218,11.218,0,0,0,.85-1.246l-6-1.012,6.478.043a10.918,10.918,0,0,0,.2-8.644l-8.686,4.5,8.014-5.89a10.916,10.916,0,1,0-18.031,12.219h0A10.9,10.9,0,0,0,300.465,322.163Z"/><path id="Path_4588" data-name="Path 4588" class="cls-3" d="M311.381,334.75,361.707,385.3l-7.724-50.546Z"/><rect id="Rectangle_927" data-name="Rectangle 927" class="cls-8" x="73.695" y="17.797" width="450.892" height="14.881"/><circle id="Ellipse_107" data-name="Ellipse 107" class="cls-9" cx="81.801" cy="25.238" r="2.726"/><circle id="Ellipse_108" data-name="Ellipse 108" class="cls-10" cx="89.298" cy="25.238" r="2.726"/><circle id="Ellipse_109" data-name="Ellipse 109" class="cls-11" cx="96.802" cy="25.238" r="2.726"/><path id="Path_4592" data-name="Path 4592" class="cls-12" d="M451.21,448.336a6.772,6.772,0,0,0-1.536-1.706c-3.094-2.924-4.531-7.214-5.3-11.419s-.984-8.5-2.209-12.608a41.549,41.549,0,0,0-2.492-6.138c-.708-1.515-1.6-4.481-2.9-5.543a1.91,1.91,0,0,0-.892-.432,10.5,10.5,0,0,0-2.563-3.412c-2.025-1.834-4.5-3.292-5.847-5.663a12.789,12.789,0,0,0-1.366-2.329c-.913-1-2.357-1.416-3.2-2.478-1.1-1.373-.85-3.341-.708-5.09s0-3.844-1.515-4.764c-.906-.559-2.074-.5-3.016-1-1.416-.708-1.975-2.492-1.947-4.085s.524-3.143.651-4.736c.4-5.069-2.945-10.109-1.657-15.022a30.528,30.528,0,0,1,2.435-5.21,10.871,10.871,0,0,0,.708-1.8,25.311,25.311,0,0,0,6.9,1.664c-3.9-8.75-2.91-18.916-4.729-28.317l.234-.318a14.757,14.757,0,0,0,2.987-8.4c0-3.5-1.635-6.768-2.371-10.194-.63-2.91-.6-5.954-1.416-8.814a26.7,26.7,0,0,0-2.237-5.111q-1.325-2.457-2.782-4.835-1.359-4.5-2.725-9c-1.274-4.212-2.584-8.5-5.062-12.134-.906-1.331-1.182-4.035-2.577-4.842a6.232,6.232,0,0,0-3.681-.644c-1.968-1.1-3.7-2.7-3.943-4.878a4.755,4.755,0,0,1,.142-1.416h.241c3.115-.283,4.693-3.03,6.315-5.437,2.619-3.894,1.621-9.161,0-13.592a9.2,9.2,0,0,0-2.122-3.743c-2.272-2.124-5.869-1.657-8.8-2.683-.984-.34-1.9-.857-2.91-1.1a8.706,8.706,0,0,0-5.77,1.083,57.245,57.245,0,0,1-5.316,2.768c-1.869.708-4.177,1.267-4.637,3.186a3.539,3.539,0,0,0,.156,1.933,7.2,7.2,0,0,0,2.188,3.157,12.606,12.606,0,0,0,7.7,17.571q.807,1.3,1.5,2.641a8.707,8.707,0,0,1,1.232,5.154,15.913,15.913,0,0,0-1.416,1.734,33.365,33.365,0,0,0-4.248,9.465,100.216,100.216,0,0,0-3.419,12.934c-1.727,3.674-3.837,7.185-5.09,11.044a24.912,24.912,0,0,1-6.64-.892l-5.975-1.352c-2.081-.474-4.248-.984-5.876-2.357-.864-.708-1.536-1.649-2.414-2.35s-2.641-1.522-3.6-.942a2.865,2.865,0,0,0-.488.375c-.878-1.777-1.713-3.54-2.733-5.26-1.465-2.407-3.646-4.609-6.407-5.069a6.519,6.519,0,0,0-4.807,1.118c-1.614,1.147-2.626,3.54-1.416,5.154a9.53,9.53,0,0,0,.984,1,20.666,20.666,0,0,1,2.188,3.037,15.508,15.508,0,0,0,9.55,6.2l-.248.708c-.5,1.473-1.572,3.25-1.3,4.778l26.575,9.1a16.358,16.358,0,0,0,5.352,1.182,8.65,8.65,0,0,0,2.124-.283v1.416c.071,9.338-1.416,18.611-1.692,27.942-.049,1.706,0,3.54,1.076,4.871,1.2,1.458,3.341,1.748,5.2,1.416a12.12,12.12,0,0,0,1.317-.3,49.034,49.034,0,0,1,1.359,7.157l1.756,12.643a19.229,19.229,0,0,1,.276,3.922c-.2,2.966-1.77,5.621-2.9,8.361s-1.805,6.017-.319,8.58c.467.793,1.111,1.466,1.529,2.287a9.3,9.3,0,0,1,.708,4.021q.163,5.719.312,11.454a1.3,1.3,0,0,0-.892.177c-1.472,1.147-1.31,6.605-1.416,8.3-.113,2.832,0,5.72-.156,8.58a51.109,51.109,0,0,1-1.848,11.391,7.286,7.286,0,0,1-1.621,3.263,6.9,6.9,0,0,1-2.881,1.494,32.914,32.914,0,0,1-10.909,1.487,10.731,10.731,0,0,0-4.439.375c-1.387.566-2.506,2.124-2,3.539.432,1.189,1.741,1.756,2.924,2.2a46.363,46.363,0,0,1,7.787,3.582,21.092,21.092,0,0,0,3.009,1.706,15.524,15.524,0,0,0,3.1.765l12.551,2.166c2.57.439,5.664.708,7.3-1.416a6.439,6.439,0,0,0,.97-4.163c-.071-2.832-.637-5.713-.269-8.545a26.346,26.346,0,0,1,1.317-4.906q1.876-5.573,3.766-11.136a58.573,58.573,0,0,0,3.023-11.391c.177-1.416.163-3.03-.92-3.915a2.51,2.51,0,0,0-.935-.481c-.042-3.412-.488-6.832-.3-10.244.05-.85.135-1.7.205-2.556a12.471,12.471,0,0,1,1.749,2.067c1.211,1.9,1.657,4.4,3.5,5.663,1.572,1.076,3.9,1.019,5,2.577a7.25,7.25,0,0,1,.793,1.918,13.684,13.684,0,0,0,2.832,4.5,22.719,22.719,0,0,0,1.748,4.488q1.564,3.306,3.115,6.591a76.821,76.821,0,0,0,3.54,6.916,19.53,19.53,0,0,1,2.371,4.573c1,3.5-.63,7.334-3.207,9.911s-5.975,4.056-9.323,5.437a2.623,2.623,0,0,0-.949.566,1.835,1.835,0,0,0-.432,1.232,4,4,0,0,0,2.888,3.54,10.79,10.79,0,0,0,4.835.177c9.047-1.1,18.066-3.306,26.066-7.7a9.2,9.2,0,0,0,3.108-2.4,3.633,3.633,0,0,0,.517-3.688Z"/><path id="Path_4593" data-name="Path 4593" class="cls-13" d="M412.975,289.584q2.265,3.476,4.248,7.122a26.162,26.162,0,0,1,2.244,5.076c.821,2.832.8,5.855,1.416,8.743.708,3.4,2.365,6.64,2.365,10.123a14.555,14.555,0,0,1-2.987,8.325,39.523,39.523,0,0,1-6.244,6.442,132.823,132.823,0,0,1-8.835-43.332,15.2,15.2,0,0,1,.665-6.088c.46-1.2,2.669-4.5,4.092-3.207.517.474.651,2.612.97,3.327A25.552,25.552,0,0,0,412.975,289.584Z"/><path id="Path_4600" data-name="Path 4600" class="cls-14" d="M336.98,297.328c-2.768-.453-5.84-.234-7.992,1.565a6.579,6.579,0,0,0-2.294,4.361c-.184,1.961.956,4.29,2.924,4.439a9.313,9.313,0,0,0,1.416-.092,21.163,21.163,0,0,1,3.71.311,15.142,15.142,0,0,0,12.9-5.21c1.692-2.124-.538-3.044-2.534-3.469C342.382,298.652,339.713,297.767,336.98,297.328Z"/><path id="Path_4601" data-name="Path 4601" class="cls-5" d="M384.326,361.261l1.756,12.474a19.011,19.011,0,0,1,.269,3.9c-.2,2.938-1.77,5.571-2.9,8.29s-1.812,5.975-.318,8.5c.46.786,1.1,1.458,1.522,2.272a9.138,9.138,0,0,1,.708,3.986l.482,17.7a111.383,111.383,0,0,0,16.41-.092.916.916,0,0,0,.6-.184.962.962,0,0,0,.2-.644c.241-4.141-.481-8.29-.248-12.431.085-1.515.3-3.023.326-4.545.085-6.166-2.959-12.2-2.039-18.3a40.25,40.25,0,0,1,1.133-4.552c2.909-10.619,2.293-21.776,1.649-32.742a.774.774,0,0,0-.141-.5.753.753,0,0,0-.382-.2,20.141,20.141,0,0,0-18.25,3.469c-.772.623-2.718,1.225-3.228,1.968-.708,1.034.219,2.067.63,3.164a40.313,40.313,0,0,1,1.819,8.474Z"/><path id="Path_4602" data-name="Path 4602" class="cls-3" d="M384.326,361.261l1.756,12.474a19.011,19.011,0,0,1,.269,3.9c-.2,2.938-1.77,5.571-2.9,8.29s-1.812,5.975-.318,8.5c.46.786,1.1,1.458,1.522,2.272a9.138,9.138,0,0,1,.708,3.986l.482,17.7a111.383,111.383,0,0,0,16.41-.092.916.916,0,0,0,.6-.184.962.962,0,0,0,.2-.644c.241-4.141-.481-8.29-.248-12.431.085-1.515.3-3.023.326-4.545.085-6.166-2.959-12.2-2.039-18.3a40.25,40.25,0,0,1,1.133-4.552c2.909-10.619,2.293-21.776,1.649-32.742a.774.774,0,0,0-.141-.5.753.753,0,0,0-.382-.2,20.141,20.141,0,0,0-18.25,3.469c-.772.623-2.718,1.225-3.228,1.968-.708,1.034.219,2.067.63,3.164a40.313,40.313,0,0,1,1.819,8.474Z"/><path id="Path_4603" data-name="Path 4603" class="cls-5" d="M417.152,357.5a30.7,30.7,0,0,0-2.435,5.168c-1.288,4.878,2.046,9.911,1.65,14.909-.127,1.579-.616,3.115-.651,4.693a4.379,4.379,0,0,0,1.947,4.064c.942.481,2.124.432,3.009.984,1.494.913,1.664,2.987,1.515,4.729s-.4,3.688.708,5.048c.842,1.055,2.287,1.465,3.193,2.464a12.193,12.193,0,0,1,1.366,2.308c1.352,2.365,3.823,3.809,5.847,5.663s3.738,4.573,2.832,7.143c-.665,1.883-2.534,3.044-4.332,3.929a45.936,45.936,0,0,1-10.315,3.646,2.491,2.491,0,0,1-1.182.064,2.523,2.523,0,0,1-1.034-.708c-2.089-2.046-4.248-4.191-5.21-6.945a7.135,7.135,0,0,0-.793-1.9c-1.1-1.55-3.433-1.494-5-2.563-1.841-1.253-2.286-3.738-3.49-5.614s-2.966-2.994-4.248-4.644c-2.166-2.747-2.7-6.414-4.248-9.55-.658-1.331-1.5-2.577-2.025-3.964a21.656,21.656,0,0,1-.97-5.125c-1-8.269-3.54-16.594-1.94-24.777.354-1.8.9-3.54,1.126-5.394.389-3.207-.227-6.492.248-9.691a2.67,2.67,0,0,1,1.069-2.06,2.84,2.84,0,0,1,1.218-.248,83.047,83.047,0,0,1,12.587.283c2.124.205,4.5.637,5.777,2.372,1.083,1.487,1.026,3.476,1.373,5.281.432,2.223,1.557,3.433,2.74,5.175S418.023,355.7,417.152,357.5Z"/><path id="Path_4604" data-name="Path 4604" class="cls-15" d="M400.82,415.029c1.119,0,2.357-.071,3.221.637,1.076.885,1.09,2.506.92,3.886a58.314,58.314,0,0,1-3.03,11.327l-3.766,11.051a25.977,25.977,0,0,0-1.317,4.871c-.368,2.832.2,5.663.269,8.5a6.656,6.656,0,0,1-.977,4.127c-1.6,2.06-4.722,1.819-7.292,1.416l-12.537-2.124a14.963,14.963,0,0,1-3.1-.757,21.673,21.673,0,0,1-3.009-1.692,46.283,46.283,0,0,0-7.787-3.54c-1.175-.439-2.492-1-2.917-2.18-.5-1.416.616-2.973,2-3.54a10.852,10.852,0,0,1,4.439-.382,33.281,33.281,0,0,0,10.9-1.472,6.9,6.9,0,0,0,2.874-1.487,7.077,7.077,0,0,0,1.657-3.334,49.669,49.669,0,0,0,1.9-11.327c.149-2.832.049-5.663.163-8.5.071-1.678-.092-7.079,1.38-8.233,1.126-.864,5.755,1.522,7.278,1.869A35.366,35.366,0,0,0,400.82,415.029Z"/><path id="Path_4605" data-name="Path 4605" class="cls-15" d="M442.117,422.9c1.225,4.056,1.416,8.346,2.209,12.516s2.195,8.424,5.288,11.327a6.989,6.989,0,0,1,1.536,1.7,3.582,3.582,0,0,1-.531,3.7,9.3,9.3,0,0,1-3.108,2.386c-7.992,4.361-16.99,6.562-26.059,7.653a10.978,10.978,0,0,1-4.828-.177,3.983,3.983,0,0,1-2.881-3.54,1.8,1.8,0,0,1,.425-1.225,2.643,2.643,0,0,1,.956-.559c3.341-1.373,6.732-2.867,9.316-5.4s4.2-6.371,3.207-9.812a19.442,19.442,0,0,0-2.386-4.538,76.754,76.754,0,0,1-3.54-6.86l-3.115-6.534a17.128,17.128,0,0,1-1.989-5.989,28.736,28.736,0,0,0,11.482-1.841,18.044,18.044,0,0,0,4.722-2.832c1.2-1,2.3-2.881,3.922-1.572,1.3,1.048,2.124,4,2.888,5.494A40.311,40.311,0,0,1,442.117,422.9Z"/><path id="Path_4606" data-name="Path 4606" class="cls-14" d="M396.474,260.651c.312,2.718,2.945,4.509,5.458,5.585l-15.907,5.076c1.026-1.968.2-4.375-.821-6.371a35.97,35.97,0,0,0-2.832-4.538c-.156-.219-.333-.5-.22-.75a.792.792,0,0,1,.446-.347,40.021,40.021,0,0,1,10.215-3.5c1.034-.149,2.987-.559,3.759.488S396.325,259.4,396.474,260.651Z"/><path id="Path_4607" data-name="Path 4607" class="cls-3" d="M396.474,260.651c.312,2.718,2.945,4.509,5.458,5.585l-15.907,5.076c1.026-1.968.2-4.375-.821-6.371a35.97,35.97,0,0,0-2.832-4.538c-.156-.219-.333-.5-.22-.75a.792.792,0,0,1,.446-.347,40.021,40.021,0,0,1,10.215-3.5c1.034-.149,2.987-.559,3.759.488S396.325,259.4,396.474,260.651Z"/><circle id="Ellipse_110" data-name="Ellipse 110" class="cls-14" cx="387.229" cy="250.379" r="12.474"/><path id="Path_4608" data-name="Path 4608" class="cls-16" d="M376.418,353.029c1.211,1.451,3.341,1.734,5.2,1.416,4.354-.708,7.915-3.915,12.176-5.069,5.225-1.416,10.753.4,15.688,2.633s9.84,4.955,15.235,5.338c-4.878-10.874-2.088-23.956-6.754-34.922-1.14-2.683-2.733-5.267-2.988-8.17-.318-3.6,1.48-7.079,1.756-10.661.255-3.193-.708-6.371-1.628-9.415l-3.412-11.214c-1.274-4.184-2.584-8.438-5.055-12.035-.913-1.324-1.189-4.007-2.577-4.807-3.03-1.749-7.624.453-10.909.573s-6.279,2.456-8.2,5.1a32.78,32.78,0,0,0-4.247,9.394,89.284,89.284,0,0,0-3.773,15.029c-.106.765-.2,1.529-.269,2.3-.708,7.271.326,14.583.382,21.889v.049c.071,9.267-1.416,18.477-1.692,27.737C375.328,349.881,375.371,351.733,376.418,353.029Z"/><path id="Path_4609" data-name="Path 4609" class="cls-3" d="M377.069,320.414a15.976,15.976,0,0,0,6.548-3.922,27.387,27.387,0,0,0,4.347-4.955,35.317,35.317,0,0,0,3.745-7.837,91.572,91.572,0,0,0,4.955-22.845c.184-2.124.241-4.4-1.026-6.088a5.126,5.126,0,0,0-6.194-1.5c-1.671.814-2.754,2.464-3.759,4.042a52.21,52.21,0,0,0-5.277,9.783c-.566,1.543-.984,3.129-1.536,4.679a43.207,43.207,0,0,1-1.94,4.481c-.106.764-.2,1.529-.269,2.3C376.008,305.824,377.008,313.108,377.069,320.414Z"/><path id="Path_4610" data-name="Path 4610" class="cls-16" d="M395.6,273.4c1.267,1.685,1.211,3.986,1.034,6.081a91.473,91.473,0,0,1-4.955,22.845,34.954,34.954,0,0,1-3.745,7.9,27.644,27.644,0,0,1-4.347,4.955c-2.407,2.195-5.338,4.156-8.6,4.184a16.377,16.377,0,0,1-5.352-1.168l-26.583-9.047c-.269-1.515.8-3.285,1.3-4.743l1.416-4.2a5.341,5.341,0,0,1,1.926-3.044c1.055-.63,2.725.234,3.6.934s1.543,1.621,2.407,2.336a13.592,13.592,0,0,0,5.876,2.336l5.968,1.338a24.9,24.9,0,0,0,6.64.885c1.664-5.083,4.828-9.557,6.619-14.6.552-1.543.97-3.136,1.543-4.679a52.032,52.032,0,0,1,5.274-9.784c1-1.572,2.081-3.221,3.759-4.042A5.118,5.118,0,0,1,395.6,273.4Z"/><path id="Path_4611" data-name="Path 4611" class="cls-17" d="M391.206,253.2a6.287,6.287,0,0,0-.75-2.336,1.96,1.96,0,0,0-2.124-.934c-1.246.389-1.663,2.315-2.966,2.379-.878.042-1.508-.85-1.784-1.685a5.139,5.139,0,0,0-1.083-2.379,4.029,4.029,0,0,0-1.543-.708c-3.023-.956-6.145-2.719-7.15-5.727a3.426,3.426,0,0,1-.163-1.919c.46-1.9,2.832-2.478,4.637-3.164s3.54-1.862,5.309-2.754a8.721,8.721,0,0,1,5.77-1.069,30.16,30.16,0,0,1,2.91,1.083c2.931,1.019,6.52.545,8.792,2.662a9.087,9.087,0,0,1,2.124,3.71c1.586,4.4,2.591,9.628-.035,13.493-1.621,2.386-3.193,5.111-6.308,5.4C393.217,259.554,391.78,256.273,391.206,253.2Z"/><g id="Group_2452" data-name="Group 2452" class="cls-18"><path id="Path_4612" data-name="Path 4612" d="M385.671,249.119a5.207,5.207,0,0,0-1.076-2.379,4.029,4.029,0,0,0-1.543-.708c-3.03-.956-6.145-2.718-7.157-5.727a3.485,3.485,0,0,1-.156-1.918,2.4,2.4,0,0,1,.375-.842,3.705,3.705,0,0,0-2.442,2.343,3.426,3.426,0,0,0,.163,1.919c1,3.009,4.127,4.771,7.15,5.727a4.029,4.029,0,0,1,1.543.708,5.163,5.163,0,0,1,1.083,2.379c.283.842.906,1.727,1.784,1.685s1.3-.842,1.862-1.515A2.253,2.253,0,0,1,385.671,249.119Z"/><path id="Path_4613" data-name="Path 4613" d="M398.924,257.724c-3.639.333-5.076-2.98-5.663-6.032a6.174,6.174,0,0,0-.708-2.336,1.967,1.967,0,0,0-2.124-.934,3.768,3.768,0,0,0-1.565,1.416,2.124,2.124,0,0,1,1.6.991,6.287,6.287,0,0,1,.75,2.336c.573,3.051,2.01,6.371,5.663,6.031a5.838,5.838,0,0,0,3.738-1.94A5.3,5.3,0,0,1,398.924,257.724Z"/></g><ellipse id="Ellipse_111" data-name="Ellipse 111" class="cls-19" cx="544.735" cy="385.019" rx="22.859" ry="4.396"/><ellipse id="Ellipse_112" data-name="Ellipse 112" class="cls-5" cx="544.352" cy="383.151" rx="2.662" ry="3.483"/><ellipse id="Ellipse_113" data-name="Ellipse 113" class="cls-5" cx="544.352" cy="378.889" rx="2.662" ry="3.483"/><ellipse id="Ellipse_114" data-name="Ellipse 114" class="cls-5" cx="544.352" cy="374.634" rx="2.662" ry="3.483"/><ellipse id="Ellipse_115" data-name="Ellipse 115" class="cls-5" cx="544.352" cy="370.373" rx="2.662" ry="3.483"/><ellipse id="Ellipse_116" data-name="Ellipse 116" class="cls-5" cx="544.352" cy="366.111" rx="2.662" ry="3.483"/><ellipse id="Ellipse_117" data-name="Ellipse 117" class="cls-5" cx="544.352" cy="361.856" rx="2.662" ry="3.483"/><ellipse id="Ellipse_118" data-name="Ellipse 118" class="cls-5" cx="544.352" cy="357.594" rx="2.662" ry="3.483"/><path id="Path_4614" data-name="Path 4614" class="cls-20" d="M554.311,328.482a12.984,12.984,0,0,0,.991-1.458l-6.991-1.152,7.568.05a12.82,12.82,0,0,0,.241-10.1l-10.154,5.26,9.359-6.881a12.743,12.743,0,1,0-21.04,14.272,12.74,12.74,0,0,0-1.458,2.322l9.083,4.722-9.684-3.249a12.744,12.744,0,0,0,2.06,11.95,12.743,12.743,0,1,0,20.041,0,12.744,12.744,0,0,0,0-15.766Z"/><path id="Path_4615" data-name="Path 4615" class="cls-3" d="M531.539,336.336a12.68,12.68,0,0,0,2.747,7.886,12.743,12.743,0,1,0,20.041,0C556.019,342.048,531.539,334.906,531.539,336.336Z"/></g><g id="Group_2976" data-name="Group 2976"><g id="Speech_Bubble" data-name="Speech Bubble"><g id="Group_2546" data-name="Group 2546"><g id="Group_2542" data-name="Group 2542"><g id="Group_2539" data-name="Group 2539"><path id="Path_4645" data-name="Path 4645" class="cls-21" d="M300.678,67.347V83.8c-5.239,3.662-24.148,17.26-24.148,17.26h24.145V114c0,4.58,5.178,8.305,11.6,8.348l133.857.9c6.512.044,11.824-3.707,11.824-8.349V67.347c0-4.611-5.244-8.349-11.714-8.349H312.391C305.922,59,300.678,62.741,300.678,67.347Z"/></g><g id="Group_2541" data-name="Group 2541"><g id="Group_2540" data-name="Group 2540"><path id="Path_4646" data-name="Path 4646" class="cls-22" d="M300.826,67.385a9.082,9.082,0,0,1,.05-.933,6.654,6.654,0,0,1,1.026-2.633A8.445,8.445,0,0,1,303.4,62.1a12.144,12.144,0,0,1,2.512-1.658,14.71,14.71,0,0,1,3.634-1.177,22.484,22.484,0,0,1,4.525-.29l54.294-.06,37.493-.023,20.887-.009h19.311c.476.014.961.023,1.438.057.474.062.961.08,1.424.182,3.77.618,7.091,2.665,8.426,5.337a6.833,6.833,0,0,1,.682,2.063,19.785,19.785,0,0,1,.062,2.109V72.85q0,8.484.007,17.309t0,17.933v4.57l-.006,2.3a6.6,6.6,0,0,1-.488,2.323,8.782,8.782,0,0,1-3.517,3.944,12.222,12.222,0,0,1-2.765,1.316,14.989,14.989,0,0,1-3.177.723,23.132,23.132,0,0,1-3.158.12l-3.113-.021-6.2-.041-12.276-.083-24.027-.165-45.544-.317-41.424-.3a14.4,14.4,0,0,1-8.673-2.777,7.347,7.347,0,0,1-3.107-6.165q.009-6.491.015-12.476l.193.138-24.1-.02h-.4l.283-.2,24.146-17.206-.032.055c.023-5.33.04-9.433.052-12.212.013-1.381.022-2.431.028-3.144s.029-1.066.029-1.066.019.36.028,1.066.015,1.764.028,3.144c.011,2.779.029,6.882.052,12.212v.032l-.033.024L276.84,101.125l-.118-.2,24.1-.019h.194v.138q.007,5.978.015,12.476a7.1,7.1,0,0,0,3.017,5.956,13.887,13.887,0,0,0,8.36,2.667l41.424.263,45.544.3,24.027.159,12.276.082,6.2.041,3.113.021a22.252,22.252,0,0,0,3.065-.115c4.243-.483,7.876-2.815,9.041-5.718a6.3,6.3,0,0,0,.468-2.221q0-1.149.006-2.3v-22.5q0-8.826.006-17.309V68.629a19.644,19.644,0,0,0-.058-2.073,6.512,6.512,0,0,0-.652-1.977c-1.275-2.562-4.46-4.528-8.073-5.122a33.162,33.162,0,0,0-5.564-.232h-16.5l-20.887-.009-37.493-.023-54.294-.06a22.24,22.24,0,0,0-4.479.268,14.62,14.62,0,0,0-3.592,1.145,12.146,12.146,0,0,0-2.5,1.625,8.539,8.539,0,0,0-1.5,1.692A6.69,6.69,0,0,0,300.826,67.385Z"/></g></g></g><g id="Group_2545" data-name="Group 2545"><path id="Path_4655" data-name="Path 4655" class="cls-23" d="M354.859,76.609a6.182,6.182,0,1,1,6.52,5.824c-.116.007-.232.01-.348.01a5.837,5.837,0,0,1-6.162-5.494C354.862,76.836,354.859,76.722,354.859,76.609Zm9.7,0a3.53,3.53,0,1,0-3.53,3.61,3.442,3.442,0,0,0,3.535-3.347c0-.087,0-.175,0-.263Z"/><path id="Path_4656" data-name="Path 4656" class="cls-23" d="M368.345,77.915a4.772,4.772,0,1,1,5.07,4.454c-.1.007-.2.01-.3.01a4.462,4.462,0,0,1-4.759-4.145C368.348,78.128,368.345,78.021,368.345,77.915Zm6.978,0a2.223,2.223,0,1,0-2.208,2.4,2.189,2.189,0,0,0,2.208-2.4Z"/><path id="Path_4657" data-name="Path 4657" class="cls-23" d="M388.987,77.915a4.211,4.211,0,0,1-3.949,4.458c-.123.007-.247.009-.37.006a3.362,3.362,0,0,1-2.61-1.048v4.045h-2.515v-11.8h2.4v1a3.372,3.372,0,0,1,2.724-1.128,4.21,4.21,0,0,1,4.326,4.092Q389,77.728,388.987,77.915Zm-2.546,0a2.216,2.216,0,1,0-2.208,2.4,2.189,2.189,0,0,0,2.208-2.4Z"/><path id="Path_4658" data-name="Path 4658" class="cls-23" d="M389.82,81.445l.838-1.8a5.936,5.936,0,0,0,3.014.838c1.161,0,1.6-.306,1.6-.79,0-1.418-5.237.032-5.237-3.433,0-1.644,1.483-2.8,4.013-2.8a7.135,7.135,0,0,1,3.336.757L396.546,76a4.974,4.974,0,0,0-2.5-.645c-1.128,0-1.612.355-1.612.806,0,1.482,5.238.048,5.238,3.465,0,1.612-1.5,2.756-4.094,2.756A7.448,7.448,0,0,1,389.82,81.445Z"/><path id="Path_4659" data-name="Path 4659" class="cls-23" d="M398.846,80.913a1.549,1.549,0,1,1,1.468,1.468A1.551,1.551,0,0,1,398.846,80.913Zm.049-9.944h3l-.5,7.365h-2Z"/></g><g id="Not_Login" data-name="Not Login" class="cls-24"><text class="cls-25" transform="translate(339.35 109.102)">N<tspan class="cls-26" x="9.38" y="0">O</tspan><tspan x="19.852" y="0">T </tspan><tspan class="cls-27" x="30.912" y="0">L</tspan><tspan class="cls-28" x="37.072" y="0">OGIN</tspan></text></g></g></g><g id="Robot"><g id="Group_2589" data-name="Group 2589"><g id="Group_2547" data-name="Group 2547"><path id="Rectangle_930" data-name="Rectangle 930" class="cls-22" d="M247.571,63.364h0a6.5,6.5,0,0,1,9.192.033l.339.341a6.5,6.5,0,0,1-.02,9.193l-.006.006h0l-9.505-9.573Z"/><path id="Path_4660" data-name="Path 4660" class="cls-22" d="M257.076,72.952l-.008-.007-9.512-9.58.008-.008.4-.4a5.914,5.914,0,0,1,4.194-1.728h.021a5.913,5.913,0,0,1,4.2,1.758l1.133,1.14a5.952,5.952,0,0,1-.03,8.417Zm-9.488-9.587,9.49,9.557.392-.389a5.932,5.932,0,0,0,.028-8.388l-1.133-1.14a5.891,5.891,0,0,0-4.188-1.752h-.021a5.892,5.892,0,0,0-4.179,1.722Z"/></g><g id="Group_2548" data-name="Group 2548"><path id="Rectangle_931" data-name="Rectangle 931" class="cls-22" d="M228.381,101.073h0a6.5,6.5,0,0,1-9.185-.368l-.326-.354a6.5,6.5,0,0,1,.355-9.185l.007-.006h0l9.149,9.913Z"/><path id="Path_4661" data-name="Path 4661" class="cls-22" d="M223.943,103.041c-.081,0-.163,0-.244,0a5.913,5.913,0,0,1-4.136-1.91l-1.09-1.181a5.953,5.953,0,0,1,.337-8.411l.422-.389.007.008,9.156,9.921-.008.007-.414.382A5.917,5.917,0,0,1,223.943,103.041ZM218.825,91.55a5.93,5.93,0,0,0-.337,8.38h0l1.089,1.181a5.894,5.894,0,0,0,4.121,1.9h.243a5.888,5.888,0,0,0,4.016-1.572l.406-.375-9.134-9.9Z"/></g><g id="Group_2549" data-name="Group 2549"><rect id="Rectangle_932" data-name="Rectangle 932" class="cls-22" x="216.172" y="78.032" width="1.066" height="8.81" transform="translate(16.445 199.283) rotate(-51.09)"/></g><g id="Group_2550" data-name="Group 2550"><path id="Path_4662" data-name="Path 4662" class="cls-22" d="M214.057,77.509a2.172,2.172,0,1,1-3.054.327h0A2.172,2.172,0,0,1,214.057,77.509Z"/></g><g id="Group_2551" data-name="Group 2551"><path id="Rectangle_933" data-name="Rectangle 933" class="cls-29" d="M226.353,78.383l7.362-7.309a15.944,15.944,0,0,1,22.55.08h0a15.946,15.946,0,0,1-.079,22.551l-7.362,7.309a15.944,15.944,0,0,1-22.55-.08h0A15.946,15.946,0,0,1,226.353,78.383Z"/></g><g id="Group_2552" data-name="Group 2552"><path id="Path_4663" data-name="Path 4663" class="cls-22" d="M240.583,64.254l-.94-3.593-2.449.406-.707-2.594.8-.184.562,1.889,2.441-.332,1.024,3.684Z"/></g><g id="Group_2553" data-name="Group 2553"><path id="Rectangle_934" data-name="Rectangle 934" class="cls-22" d="M225.139,86.3l16.5-16.381a6.515,6.515,0,0,1,9.213.033h0a6.515,6.515,0,0,1-.033,9.213l-16.5,16.38a6.514,6.514,0,0,1-9.213-.032h0A6.515,6.515,0,0,1,225.139,86.3Z"/></g><g id="Group_2555" data-name="Group 2555"><g id="Group_2554" data-name="Group 2554"><path id="Path_4664" data-name="Path 4664" class="cls-22" d="M252.152,80.343s.052-.068.16-.193a6.435,6.435,0,0,0,.468-.563,7.255,7.255,0,0,0,1.249-2.5,8.092,8.092,0,0,0,.282-2,7.778,7.778,0,0,0-.382-2.369,7.367,7.367,0,0,0-1.329-2.407l-.5-.551-.546-.547a11.187,11.187,0,0,0-1.177-1.074,7.41,7.41,0,0,0-8.476-.361,9.017,9.017,0,0,0-1.538,1.286l-3,2.99-13.386,13.3a7.408,7.408,0,0,0-2.117,4.3,7.7,7.7,0,0,0,.077,2.38,7.4,7.4,0,0,0,.819,2.194,7.909,7.909,0,0,0,.645.965c.253.291.5.58.78.852a13.052,13.052,0,0,0,1.68,1.542,7.387,7.387,0,0,0,8.089.37,7.744,7.744,0,0,0,.834-.567c.254-.218.5-.434.74-.667l1.4-1.384,5.1-5.048,7.4-7.3,2.019-1.976.529-.51c.12-.114.186-.168.186-.168s-.055.065-.17.184l-.514.526-1.99,2.005L242.135,90.4l-5.083,5.066-1.394,1.389c-.236.234-.5.461-.754.683a8,8,0,0,1-.854.584,7.582,7.582,0,0,1-8.312-.366,13.233,13.233,0,0,1-1.708-1.562c-.276-.268-.538-.57-.8-.869a8.059,8.059,0,0,1-.665-.992,7.613,7.613,0,0,1-.845-2.259,7.9,7.9,0,0,1-.08-2.45,7.631,7.631,0,0,1,2.179-4.433l13.4-13.292,3.011-2.983a9.254,9.254,0,0,1,1.573-1.308,7.615,7.615,0,0,1,5.536-1.036A7.7,7.7,0,0,1,250.478,68a11.371,11.371,0,0,1,1.187,1.093l.543.55.507.563a7.47,7.47,0,0,1,1.338,2.458,7.871,7.871,0,0,1,.37,2.408,8.123,8.123,0,0,1-.3,2.026,7.148,7.148,0,0,1-1.3,2.5,5.555,5.555,0,0,1-.487.552C252.214,80.286,252.152,80.343,252.152,80.343Z"/></g></g><g id="Group_2560" data-name="Group 2560"><g id="Group_2557" data-name="Group 2557"><g id="Group_2556" data-name="Group 2556"><path id="Path_4665" data-name="Path 4665" class="cls-30" d="M230.047,93.749a33.135,33.135,0,0,1-.165-3.832,33.156,33.156,0,0,1,.057-3.835,33.135,33.135,0,0,1,.165,3.832A33.156,33.156,0,0,1,230.047,93.749Z"/></g></g><g id="Group_2559" data-name="Group 2559"><g id="Group_2558" data-name="Group 2558"><path id="Path_4666" data-name="Path 4666" class="cls-30" d="M233.757,89.613a66.341,66.341,0,0,1-7.669.346,66.341,66.341,0,0,1,7.669-.346Z"/></g></g></g><g id="Group_2565" data-name="Group 2565"><g id="Group_2562" data-name="Group 2562"><g id="Group_2561" data-name="Group 2561"><path id="Path_4667" data-name="Path 4667" class="cls-30" d="M245.226,78.278a33.131,33.131,0,0,1-.16-3.832,33.156,33.156,0,0,1,.057-3.835,33.135,33.135,0,0,1,.165,3.832A33.383,33.383,0,0,1,245.226,78.278Z"/></g></g><g id="Group_2564" data-name="Group 2564"><g id="Group_2563" data-name="Group 2563"><path id="Path_4668" data-name="Path 4668" class="cls-30" d="M248.936,74.142a66.637,66.637,0,0,1-7.668.347,66.637,66.637,0,0,1,7.668-.347Z"/></g></g></g><g id="Group_2566" data-name="Group 2566"><circle id="Ellipse_127" data-name="Ellipse 127" class="cls-22" cx="236.387" cy="56.927" r="2.172"/></g><g id="Group_2568" data-name="Group 2568"><g id="Group_2567" data-name="Group 2567"><path id="Path_4669" data-name="Path 4669" class="cls-22" d="M243.144,106.63a1.984,1.984,0,0,1-.375-.309c-.231-.21-.561-.518-.965-.9-.808-.769-1.912-1.843-3.12-3.041s-2.291-2.294-3.064-3.1a9.513,9.513,0,0,1-1.2-1.352,3.954,3.954,0,0,1,.359.326l.951.915,3.109,3.052c1.208,1.2,2.295,2.289,3.074,3.087l.915.953A2.062,2.062,0,0,1,243.144,106.63Z"/></g></g><g id="Group_2570" data-name="Group 2570"><g id="Group_2569" data-name="Group 2569"><path id="Path_4670" data-name="Path 4670" class="cls-22" d="M261.592,88.049a2.023,2.023,0,0,1-.375-.309c-.231-.209-.561-.517-.965-.9-.808-.769-1.912-1.843-3.12-3.041s-2.291-2.294-3.064-3.1a9.458,9.458,0,0,1-1.2-1.352,3.954,3.954,0,0,1,.359.326l.951.915,3.109,3.053c1.208,1.2,2.3,2.289,3.074,3.087l.915.952A2.022,2.022,0,0,1,261.592,88.049Z"/></g></g><g id="Group_2572" data-name="Group 2572"><g id="Group_2571" data-name="Group 2571"><rect id="Rectangle_935" data-name="Rectangle 935" class="cls-22" x="234.746" y="89.55" width="22.21" height="2.438" transform="translate(8.764 202.444) rotate(-45.486)"/></g></g><g id="Group_2573" data-name="Group 2573"><path id="Path_4671" data-name="Path 4671" class="cls-22" d="M235.09,100.729a.466.466,0,1,1-.447-.484h0A.466.466,0,0,1,235.09,100.729Z"/></g><g id="Group_2574" data-name="Group 2574"><path id="Path_4672" data-name="Path 4672" class="cls-22" d="M238.643,104.481A.466.466,0,1,1,238.2,104h0A.466.466,0,0,1,238.643,104.481Z"/></g><g id="Group_2575" data-name="Group 2575"><path id="Path_4673" data-name="Path 4673" class="cls-22" d="M255.969,79.469a.466.466,0,1,1-.447-.484h0a.465.465,0,0,1,.447.482Z"/></g><g id="Group_2576" data-name="Group 2576"><path id="Path_4674" data-name="Path 4674" class="cls-22" d="M259.522,83.221a.466.466,0,1,1-.447-.484h0A.466.466,0,0,1,259.522,83.221Z"/></g><g id="Group_2578" data-name="Group 2578"><g id="Group_2577" data-name="Group 2577"><path id="Path_4675" data-name="Path 4675" class="cls-30" d="M221.4,101.218a12.729,12.729,0,0,0-.984-.873c-.321-.25-.723-.526-1.137-.888a4.46,4.46,0,0,1-1.079-1.425,4.8,4.8,0,0,1-.334-3.185,3.979,3.979,0,0,1,.347-.918,1.67,1.67,0,0,1,.2-.3,9.406,9.406,0,0,0-.4,1.249,4.928,4.928,0,0,0,.381,3.054,6.791,6.791,0,0,0,2.12,2.288A3.052,3.052,0,0,1,221.4,101.218Z"/></g></g><g id="Group_2580" data-name="Group 2580"><g id="Group_2579" data-name="Group 2579"><path id="Path_4676" data-name="Path 4676" class="cls-30" d="M239.914,66.957c.043.044-4.435,4.464-10,9.87s-10.112,9.755-10.158,9.711,4.434-4.462,10-9.871S239.871,66.913,239.914,66.957Z"/></g></g><g id="Group_2582" data-name="Group 2582"><g id="Group_2581" data-name="Group 2581"><path id="Path_4677" data-name="Path 4677" class="cls-30" d="M212.229,80.731c-.006.024-.223,0-.51-.19a1.75,1.75,0,0,1-.508-2.388c.185-.29.373-.4.388-.381s-.117.172-.251.457a1.79,1.79,0,0,0,.466,2.188C212.052,80.621,212.237,80.7,212.229,80.731Z"/></g></g><g id="Group_2584" data-name="Group 2584"><g id="Group_2583" data-name="Group 2583"><path id="Path_4678" data-name="Path 4678" class="cls-30" d="M235.882,58.507c0,.024-.24,0-.544-.22a1.77,1.77,0,0,1-.416-2.468c.027-.038.055-.074.084-.109.239-.285.459-.372.47-.351s-.158.16-.344.444a1.774,1.774,0,0,0,.3,2.361C235.689,58.392,235.9,58.473,235.882,58.507Z"/></g></g><g id="Group_2586" data-name="Group 2586"><g id="Group_2585" data-name="Group 2585"><path id="Path_4679" data-name="Path 4679" class="cls-30" d="M252.006,61.923a5.846,5.846,0,0,0-3.3,1.307A3.411,3.411,0,0,1,252.006,61.923Z"/></g></g><g id="Group_2588" data-name="Group 2588"><g id="Group_2587" data-name="Group 2587"><path id="Path_4680" data-name="Path 4680" class="cls-30" d="M234.326,107.39c-.044.043-1.467-1.359-3.178-3.13s-3.063-3.242-3.019-3.285,1.467,1.359,3.179,3.131A43.876,43.876,0,0,1,234.326,107.39Z"/></g></g></g><g id="Group_2973" data-name="Group 2973"><g id="Group_2611" data-name="Group 2611"><g id="Group_2590" data-name="Group 2590"><rect id="Rectangle_936" data-name="Rectangle 936" class="cls-29" x="265.263" y="209.678" width="18.225" height="25.832"/></g><g id="Group_2591" data-name="Group 2591"><path id="Rectangle_937" data-name="Rectangle 937" class="cls-22" d="M265.631,235.065h17.487a2.658,2.658,0,0,1,2.659,2.659H262.972a2.658,2.658,0,0,1,2.659-2.659Z"/></g><g id="Group_2592" data-name="Group 2592"><rect id="Rectangle_938" data-name="Rectangle 938" class="cls-29" x="260.894" y="237.724" width="27.679" height="4.208"/></g><g id="Group_2609" data-name="Group 2609" class="cls-31"><g id="Group_2594" data-name="Group 2594"><g id="Group_2593" data-name="Group 2593"><path id="Path_4681" data-name="Path 4681" class="cls-22" d="M283.4,232.67c0,.061-4.04.111-9.023.111s-9.024-.05-9.024-.111,4.039-.111,9.024-.111S283.4,232.613,283.4,232.67Z"/></g></g><g id="Group_2596" data-name="Group 2596"><g id="Group_2595" data-name="Group 2595"><path id="Path_4682" data-name="Path 4682" class="cls-22" d="M283.4,229.6c0,.061-4.04.111-9.023.111s-9.024-.05-9.024-.111,4.039-.111,9.024-.111S283.4,229.538,283.4,229.6Z"/></g></g><g id="Group_2598" data-name="Group 2598"><g id="Group_2597" data-name="Group 2597"><path id="Path_4683" data-name="Path 4683" class="cls-22" d="M283.4,226.582c0,.061-4.04.111-9.023.111s-9.024-.049-9.024-.111,4.039-.111,9.024-.111S283.4,226.521,283.4,226.582Z"/></g></g><g id="Group_2600" data-name="Group 2600"><g id="Group_2599" data-name="Group 2599"><path id="Path_4684" data-name="Path 4684" class="cls-22" d="M283.4,223.51c0,.061-4.04.111-9.023.111s-9.024-.05-9.024-.111,4.039-.111,9.024-.111S283.4,223.448,283.4,223.51Z"/></g></g><g id="Group_2602" data-name="Group 2602"><g id="Group_2601" data-name="Group 2601"><path id="Path_4685" data-name="Path 4685" class="cls-22" d="M283.4,220.493c0,.061-4.04.111-9.023.111s-9.024-.049-9.024-.111,4.039-.111,9.024-.111S283.4,220.428,283.4,220.493Z"/></g></g><g id="Group_2604" data-name="Group 2604"><g id="Group_2603" data-name="Group 2603"><path id="Path_4686" data-name="Path 4686" class="cls-22" d="M283.4,217.421c0,.061-4.04.111-9.023.111s-9.024-.049-9.024-.111,4.039-.111,9.024-.111S283.4,217.359,283.4,217.421Z"/></g></g><g id="Group_2606" data-name="Group 2606"><g id="Group_2605" data-name="Group 2605"><path id="Path_4687" data-name="Path 4687" class="cls-22" d="M283.4,214.4c0,.061-4.04.111-9.023.111s-9.024-.049-9.024-.111,4.039-.111,9.024-.111S283.4,214.342,283.4,214.4Z"/></g></g><g id="Group_2608" data-name="Group 2608"><g id="Group_2607" data-name="Group 2607"><path id="Path_4688" data-name="Path 4688" class="cls-22" d="M283.4,211.332c0,.061-4.04.111-9.023.111s-9.024-.049-9.024-.111,4.039-.111,9.024-.111S283.4,211.275,283.4,211.332Z"/></g></g></g><g id="Group_2610" data-name="Group 2610" class="cls-32"><path id="Path_4689" data-name="Path 4689" d="M265.263,213.277l18.136-.5v-2.634H265.1Z"/></g></g><g id="Group_2633" data-name="Group 2633"><g id="Group_2612" data-name="Group 2612"><rect id="Rectangle_939" data-name="Rectangle 939" class="cls-29" x="293.808" y="209.678" width="18.225" height="25.832"/></g><g id="Group_2613" data-name="Group 2613"><path id="Rectangle_940" data-name="Rectangle 940" class="cls-22" d="M294.176,235.065h17.487a2.658,2.658,0,0,1,2.659,2.659H291.517a2.658,2.658,0,0,1,2.659-2.659Z"/></g><g id="Group_2614" data-name="Group 2614"><rect id="Rectangle_941" data-name="Rectangle 941" class="cls-29" x="289.439" y="237.724" width="27.679" height="4.208"/></g><g id="Group_2631" data-name="Group 2631" class="cls-31"><g id="Group_2616" data-name="Group 2616"><g id="Group_2615" data-name="Group 2615"><path id="Path_4690" data-name="Path 4690" class="cls-22" d="M311.944,232.67c0,.061-4.04.111-9.023.111s-9.024-.05-9.024-.111,4.039-.111,9.024-.111S311.944,232.613,311.944,232.67Z"/></g></g><g id="Group_2618" data-name="Group 2618"><g id="Group_2617" data-name="Group 2617"><path id="Path_4691" data-name="Path 4691" class="cls-22" d="M311.944,229.6c0,.061-4.04.111-9.023.111s-9.024-.05-9.024-.111,4.039-.111,9.024-.111S311.944,229.538,311.944,229.6Z"/></g></g><g id="Group_2620" data-name="Group 2620"><g id="Group_2619" data-name="Group 2619"><path id="Path_4692" data-name="Path 4692" class="cls-22" d="M311.944,226.582c0,.061-4.04.111-9.023.111s-9.024-.049-9.024-.111,4.039-.111,9.024-.111S311.944,226.521,311.944,226.582Z"/></g></g><g id="Group_2622" data-name="Group 2622"><g id="Group_2621" data-name="Group 2621"><path id="Path_4693" data-name="Path 4693" class="cls-22" d="M311.944,223.51c0,.061-4.04.111-9.023.111s-9.024-.05-9.024-.111,4.039-.111,9.024-.111S311.944,223.448,311.944,223.51Z"/></g></g><g id="Group_2624" data-name="Group 2624"><g id="Group_2623" data-name="Group 2623"><path id="Path_4694" data-name="Path 4694" class="cls-22" d="M311.944,220.493c0,.061-4.04.111-9.023.111s-9.024-.049-9.024-.111,4.039-.111,9.024-.111S311.944,220.428,311.944,220.493Z"/></g></g><g id="Group_2626" data-name="Group 2626"><g id="Group_2625" data-name="Group 2625"><path id="Path_4695" data-name="Path 4695" class="cls-22" d="M311.944,217.421c0,.061-4.04.111-9.023.111s-9.024-.049-9.024-.111,4.039-.111,9.024-.111S311.944,217.359,311.944,217.421Z"/></g></g><g id="Group_2628" data-name="Group 2628"><g id="Group_2627" data-name="Group 2627"><path id="Path_4696" data-name="Path 4696" class="cls-22" d="M311.944,214.4c0,.061-4.04.111-9.023.111s-9.024-.049-9.024-.111,4.039-.111,9.024-.111S311.944,214.342,311.944,214.4Z"/></g></g><g id="Group_2630" data-name="Group 2630"><g id="Group_2629" data-name="Group 2629"><path id="Path_4697" data-name="Path 4697" class="cls-22" d="M311.944,211.332c0,.061-4.04.111-9.023.111s-9.024-.049-9.024-.111,4.039-.111,9.024-.111S311.944,211.275,311.944,211.332Z"/></g></g></g><g id="Group_2632" data-name="Group 2632" class="cls-32"><path id="Path_4698" data-name="Path 4698" d="M293.808,213.277l18.136-.5v-2.634h-18.3Z"/></g></g><g id="Group_2676" data-name="Group 2676"><g id="Group_2651" data-name="Group 2651"><g id="Group_2638" data-name="Group 2638"><g id="Group_2634" data-name="Group 2634"><path id="Rectangle_942" data-name="Rectangle 942" class="cls-29" d="M313.149,138.295h0a1.7,1.7,0,0,1,2.065-1.232h0l6.407,1.617h0l-.832,3.3h0l-6.408-1.618a1.7,1.7,0,0,1-1.232-2.064Z"/></g><g id="Group_2635" data-name="Group 2635" class="cls-32"><path id="Rectangle_943" data-name="Rectangle 943" d="M313.149,138.295h0a1.7,1.7,0,0,1,2.065-1.232h0l6.407,1.617h0l-.832,3.3h0l-6.408-1.618a1.7,1.7,0,0,1-1.232-2.064Z"/></g><g id="Group_2636" data-name="Group 2636"><path id="Rectangle_944" data-name="Rectangle 944" class="cls-29" d="M311.639,144.276h0a2.56,2.56,0,0,1,3.108-1.855h0l5.575,1.408h0l-1.253,4.962h0l-5.575-1.408a2.559,2.559,0,0,1-1.855-3.107Z"/></g><g id="Group_2637" data-name="Group 2637"><rect id="Rectangle_945" data-name="Rectangle 945" class="cls-29" x="314.626" y="140.848" width="8.686" height="3.28" transform="translate(102.738 416.875) rotate(-75.831)"/></g></g><g id="Group_2639" data-name="Group 2639"><path id="Path_4699" data-name="Path 4699" class="cls-29" d="M323.716,172.111s13.606-.553,12.481-13.592c-.862-9.989-15.718-10.08-15.718-10.08l3.8-8.3s17.362,1.511,20.789,14.153c3.872,14.283-5.082,25.935-21.35,25.661Z"/></g><g id="Group_2640" data-name="Group 2640"><rect id="Rectangle_946" data-name="Rectangle 946" class="cls-22" x="315.631" y="141.506" width="11.791" height="5.298" transform="translate(111.38 426.995) rotate(-77.537)"/></g><g id="Group_2642" data-name="Group 2642"><g id="Group_2641" data-name="Group 2641"><path id="Path_4700" data-name="Path 4700" class="cls-33" d="M323.066,149.263a10.008,10.008,0,0,1-2.576-.42,14.821,14.821,0,0,1-2.515-.7,16.083,16.083,0,0,1,2.565.482c.7.16,1.335.314,1.791.43l.54.143A1.038,1.038,0,0,1,323.066,149.263Z"/></g></g><g id="Group_2644" data-name="Group 2644"><g id="Group_2643" data-name="Group 2643"><path id="Path_4701" data-name="Path 4701" class="cls-33" d="M323.524,147.19a10.008,10.008,0,0,1-2.576-.42,14.806,14.806,0,0,1-2.516-.7,16.083,16.083,0,0,1,2.565.482c.7.16,1.334.313,1.792.43l.54.143A1.038,1.038,0,0,1,323.524,147.19Z"/></g></g><g id="Group_2646" data-name="Group 2646"><g id="Group_2645" data-name="Group 2645"><path id="Path_4702" data-name="Path 4702" class="cls-33" d="M324.072,145.118a9.967,9.967,0,0,1-2.576-.421,14.821,14.821,0,0,1-2.515-.7,16.071,16.071,0,0,1,2.564.482c.7.16,1.335.313,1.792.43l.539.143A.983.983,0,0,1,324.072,145.118Z"/></g></g><g id="Group_2648" data-name="Group 2648"><g id="Group_2647" data-name="Group 2647"><path id="Path_4703" data-name="Path 4703" class="cls-33" d="M324.44,143.045a9.923,9.923,0,0,1-2.576-.42,14.821,14.821,0,0,1-2.515-.7,16.083,16.083,0,0,1,2.565.482c.7.16,1.335.314,1.791.43l.54.143A1.038,1.038,0,0,1,324.44,143.045Z"/></g></g><g id="Group_2650" data-name="Group 2650"><g id="Group_2649" data-name="Group 2649"><path id="Path_4704" data-name="Path 4704" class="cls-33" d="M324.973,141.1a9.965,9.965,0,0,1-2.576-.42,14.821,14.821,0,0,1-2.515-.7,16.083,16.083,0,0,1,2.565.482c.7.16,1.334.314,1.791.43l.539.143A1.048,1.048,0,0,1,324.973,141.1Z"/></g></g></g><g id="Group_2653" data-name="Group 2653"><g id="Group_2652" data-name="Group 2652"><path id="Path_4705" data-name="Path 4705" class="cls-22" d="M326.689,179.865a5.737,5.737,0,0,1-.277-1.148c-.137-.716-.3-1.711-.423-2.817s-.19-2.112-.216-2.841a5.755,5.755,0,0,1,.014-1.181,6.68,6.68,0,0,1,.143,1.171c.066.725.156,1.724.279,2.826s.26,2.1.358,2.817A6.7,6.7,0,0,1,326.689,179.865Z"/></g></g><g id="Group_2655" data-name="Group 2655"><g id="Group_2654" data-name="Group 2654"><path id="Path_4706" data-name="Path 4706" class="cls-22" d="M330.916,179.206a81.4,81.4,0,0,1-2.265-8.188A81.4,81.4,0,0,1,330.916,179.206Z"/></g></g><g id="Group_2657" data-name="Group 2657"><g id="Group_2656" data-name="Group 2656"><path id="Path_4707" data-name="Path 4707" class="cls-22" d="M336.6,177.171a8.406,8.406,0,0,1-.726-1.129l-1.659-2.775-1.667-2.771a8.5,8.5,0,0,1-.654-1.172,7.641,7.641,0,0,1,.787,1.088c.46.69,1.075,1.656,1.725,2.741s1.213,2.081,1.605,2.811A7.7,7.7,0,0,1,336.6,177.171Z"/></g></g><g id="Group_2659" data-name="Group 2659"><g id="Group_2658" data-name="Group 2658"><path id="Path_4708" data-name="Path 4708" class="cls-22" d="M341.386,173.336c-.039.047-1.732-1.293-3.782-3s-3.68-3.119-3.641-3.165,1.732,1.294,3.782,3S341.425,173.29,341.386,173.336Z"/></g></g><g id="Group_2661" data-name="Group 2661"><g id="Group_2660" data-name="Group 2660"><path id="Path_4709" data-name="Path 4709" class="cls-22" d="M344.464,168.08c-.023.057-2.026-.724-4.474-1.743s-4.412-1.892-4.389-1.948,2.026.724,4.474,1.743S344.488,168.024,344.464,168.08Z"/></g></g><g id="Group_2663" data-name="Group 2663"><g id="Group_2662" data-name="Group 2662"><path id="Path_4710" data-name="Path 4710" class="cls-22" d="M345.972,162.4a9.841,9.841,0,0,1-1.433-.134l-3.443-.426-3.444-.415a9.623,9.623,0,0,1-1.423-.215,8.76,8.76,0,0,1,1.439.059c.886.068,2.109.187,3.456.351s2.561.344,3.438.491A8.687,8.687,0,0,1,345.972,162.4Z"/></g></g><g id="Group_2665" data-name="Group 2665"><g id="Group_2664" data-name="Group 2664"><path id="Path_4711" data-name="Path 4711" class="cls-22" d="M345.269,156.515a7.381,7.381,0,0,1-1.286.437c-.8.236-1.927.526-3.18.791s-2.4.45-3.228.56a7.3,7.3,0,0,1-1.353.119,9.368,9.368,0,0,1,1.328-.274c.823-.149,1.959-.359,3.207-.622s2.371-.529,3.185-.725A9.25,9.25,0,0,1,345.269,156.515Z"/></g></g><g id="Group_2667" data-name="Group 2667"><g id="Group_2666" data-name="Group 2666"><path id="Path_4712" data-name="Path 4712" class="cls-22" d="M343.557,150.873c.028.055-1.8,1.03-4.076,2.179s-4.149,2.036-4.176,1.981,1.8-1.03,4.077-2.179S343.53,150.822,343.557,150.873Z"/></g></g><g id="Group_2669" data-name="Group 2669"><g id="Group_2668" data-name="Group 2668"><path id="Path_4713" data-name="Path 4713" class="cls-22" d="M340.051,146.292c.04.046-1.478,1.419-3.389,3.065s-3.494,2.944-3.534,2.9,1.477-1.419,3.389-3.065S340.01,146.247,340.051,146.292Z"/></g></g><g id="Group_2671" data-name="Group 2671"><g id="Group_2670" data-name="Group 2670"><path id="Path_4714" data-name="Path 4714" class="cls-22" d="M334.127,142.891a84.546,84.546,0,0,1-4.471,7.413A84.546,84.546,0,0,1,334.127,142.891Z"/></g></g><g id="Group_2673" data-name="Group 2673"><g id="Group_2672" data-name="Group 2672"><path id="Path_4715" data-name="Path 4715" class="cls-22" d="M328.826,140.763a86.814,86.814,0,0,1-2.748,8.331A86.722,86.722,0,0,1,328.826,140.763Z"/></g></g><g id="Group_2675" data-name="Group 2675" class="cls-32"><g id="Group_2674" data-name="Group 2674"><path id="Path_4716" data-name="Path 4716" d="M335.217,165.194a10.513,10.513,0,0,1-4.935,5.062,15.579,15.579,0,0,1-3.34,1.3c2.6,1.388,6,.557,8.277-1.319a10.51,10.51,0,0,0,3.556-7.811,9.27,9.27,0,0,0-.737-4.09,6.39,6.39,0,0,0-2.8-3.194,7.838,7.838,0,0,1,.792,2.236A13.043,13.043,0,0,1,335.217,165.194Z"/></g></g></g><g id="Group_2748" data-name="Group 2748"><g id="Group_2678" data-name="Group 2678"><g id="Group_2677" data-name="Group 2677"><path id="Path_4717" data-name="Path 4717" class="cls-22" d="M235.188,188.17a3.429,3.429,0,0,1,.423.47c.264.31.623.777,1.045,1.369a29.56,29.56,0,0,1,4.65,10.31c.164.709.276,1.287.334,1.689a3.493,3.493,0,0,1,.072.628,3.5,3.5,0,0,1-.158-.612c-.083-.4-.219-.967-.4-1.668a33.318,33.318,0,0,0-4.626-10.258c-.4-.6-.742-1.08-.984-1.405A3.443,3.443,0,0,1,235.188,188.17Z"/></g></g><g id="Group_2680" data-name="Group 2680"><g id="Group_2679" data-name="Group 2679"><path id="Path_4718" data-name="Path 4718" class="cls-22" d="M233.379,186.659c.041-.046.242.067.45.251s.343.371.3.417-.242-.067-.449-.251S233.339,186.705,233.379,186.659Z"/></g></g><g id="Group_2682" data-name="Group 2682"><g id="Group_2681" data-name="Group 2681"><path id="Path_4719" data-name="Path 4719" class="cls-22" d="M233.794,185.407c.053-.032.264.224.471.569s.333.653.28.684-.263-.224-.471-.57S233.742,185.439,233.794,185.407Z"/></g></g><g id="Group_2684" data-name="Group 2684"><g id="Group_2683" data-name="Group 2683"><path id="Path_4720" data-name="Path 4720" class="cls-33" d="M241.674,202.906a1.987,1.987,0,0,1,.066-.342l.228-.97c.2-.843.486-2.061.814-3.573.655-3.023,1.452-7.225,2.036-11.908a52.842,52.842,0,0,1,.971-6.6,9.989,9.989,0,0,1,1.143-2.691,7.877,7.877,0,0,1,1.7-1.9,8.067,8.067,0,0,1,3.291-1.6,7.026,7.026,0,0,1,.989-.149,2.024,2.024,0,0,1,.348-.009,2,2,0,0,1-.344.054,8.718,8.718,0,0,0-.974.188,8.23,8.23,0,0,0-3.212,1.642,7.806,7.806,0,0,0-1.641,1.877,9.891,9.891,0,0,0-1.1,2.647,55.121,55.121,0,0,0-.949,6.57c-.586,4.692-1.408,8.9-2.1,11.915-.347,1.509-.658,2.724-.882,3.56q-.169.6-.269.96A2.092,2.092,0,0,1,241.674,202.906Z"/></g></g><g id="Group_2686" data-name="Group 2686"><g id="Group_2685" data-name="Group 2685"><path id="Path_4721" data-name="Path 4721" class="cls-22" d="M242.179,169.129a6.9,6.9,0,0,0,1.086,1.584,7.19,7.19,0,0,0,4.1,1.992,15.391,15.391,0,0,0,4.648-.2l1.4-.245a2.461,2.461,0,0,1,.52-.067,2.366,2.366,0,0,1-.5.152c-.326.083-.8.2-1.392.315a14.087,14.087,0,0,1-4.708.262,7.053,7.053,0,0,1-4.18-2.1,4.624,4.624,0,0,1-.8-1.2A1.832,1.832,0,0,1,242.179,169.129Z"/></g></g><g id="Group_2688" data-name="Group 2688"><g id="Group_2687" data-name="Group 2687"><path id="Path_4722" data-name="Path 4722" class="cls-22" d="M240.562,167.783c.043-.043.247.09.454.3s.341.411.3.454-.247-.09-.454-.3S240.519,167.826,240.562,167.783Z"/></g></g><g id="Group_2690" data-name="Group 2690"><g id="Group_2689" data-name="Group 2689"><path id="Path_4723" data-name="Path 4723" class="cls-22" d="M241.046,167.043c.052-.032.244.184.43.483s.294.568.242.6-.245-.184-.43-.483S240.994,167.075,241.046,167.043Z"/></g></g><g id="Group_2692" data-name="Group 2692"><g id="Group_2691" data-name="Group 2691"><path id="Path_4724" data-name="Path 4724" class="cls-22" d="M242.379,166.946c.06.009.071.26.023.56s-.135.535-.2.525-.071-.26-.023-.56S242.318,166.936,242.379,166.946Z"/></g></g><g id="Group_2694" data-name="Group 2694"><g id="Group_2693" data-name="Group 2693"><path id="Path_4725" data-name="Path 4725" class="cls-33" d="M246.391,183.579a4.923,4.923,0,0,1-.037.758c-.037.487-.107,1.19-.21,2.057-.2,1.734-.558,4.122-1.089,6.734s-1.144,4.949-1.636,6.624c-.246.837-.456,1.512-.613,1.974a4.975,4.975,0,0,1-.262.712,4.92,4.92,0,0,1,.18-.737l.545-1.992c.453-1.683,1.037-4.02,1.57-6.626s.908-4.984,1.151-6.71c.114-.837.208-1.527.279-2.046A4.86,4.86,0,0,1,246.391,183.579Z"/></g></g><g id="Group_2696" data-name="Group 2696"><g id="Group_2695" data-name="Group 2695"><path id="Path_4726" data-name="Path 4726" class="cls-33" d="M253.94,173.717c0,.042-.611.044-1.552.293a7.69,7.69,0,0,0-5.339,4.93c-.323.918-.375,1.529-.416,1.523a1.4,1.4,0,0,1,.018-.429,6.4,6.4,0,0,1,.25-1.144,7.4,7.4,0,0,1,5.45-5.033,6.385,6.385,0,0,1,1.16-.158A1.4,1.4,0,0,1,253.94,173.717Z"/></g></g><g id="Group_2698" data-name="Group 2698"><g id="Group_2697" data-name="Group 2697"><path id="Path_4727" data-name="Path 4727" class="cls-33" d="M243.7,202.816a1.724,1.724,0,0,1,.018-.321c.02-.209.052-.518.107-.914a8.622,8.622,0,0,1,1.009-3.227c.361-.623.852-1.238,1.253-1.963a4.02,4.02,0,0,0,.443-1.185,4.968,4.968,0,0,0,.036-1.345,10.554,10.554,0,0,1-.131-2.974,3.617,3.617,0,0,1,.682-1.444c.313-.436.672-.838.957-1.287a2.716,2.716,0,0,0,.478-1.455,6.4,6.4,0,0,0-.2-1.521,8.983,8.983,0,0,1-.245-2.967,8.452,8.452,0,0,1,4.489-6.766,7.371,7.371,0,0,1,.841-.378,1.748,1.748,0,0,1,.307-.1,1.708,1.708,0,0,1-.29.137c-.19.087-.471.216-.817.412a8.708,8.708,0,0,0-2.536,2.162,8.413,8.413,0,0,0-1.79,4.545,8.881,8.881,0,0,0,.253,2.9,6.536,6.536,0,0,1,.212,1.574,2.94,2.94,0,0,1-.511,1.567c-.3.47-.66.874-.966,1.3a3.414,3.414,0,0,0-.648,1.359,10.566,10.566,0,0,0,.122,2.912,5.091,5.091,0,0,1-.049,1.4,4.19,4.19,0,0,1-.473,1.236c-.42.741-.917,1.348-1.279,1.955a8.935,8.935,0,0,0-1.059,3.16c-.061.377-.111.678-.148.906A1.767,1.767,0,0,1,243.7,202.816Z"/></g></g><g id="Group_2700" data-name="Group 2700"><g id="Group_2699" data-name="Group 2699"><path id="Path_4728" data-name="Path 4728" class="cls-34" d="M254.443,178.131a3.945,3.945,0,0,0-1.047.148,4.17,4.17,0,0,0-2.2,1.758,9.189,9.189,0,0,0-1.147,4.087,51.91,51.91,0,0,1-.78,5.248,84.628,84.628,0,0,1-2.538,9.293c-.382,1.172-.7,2.115-.931,2.766l-.267.747a.139.139,0,1,1-.043-.014l.228-.76.864-2.786c.719-2.354,1.721-5.61,2.47-9.29.374-1.84.624-3.607.794-5.227a9.186,9.186,0,0,1,1.219-4.151,4.171,4.171,0,0,1,2.309-1.754,2.829,2.829,0,0,1,.793-.1A1.28,1.28,0,0,1,254.443,178.131Z"/></g></g><g id="Group_2747" data-name="Group 2747"><g id="Group_2744" data-name="Group 2744"><g id="Group_2719" data-name="Group 2719"><g id="Group_2701" data-name="Group 2701"><path id="Path_4729" data-name="Path 4729" class="cls-29" d="M238.789,201.29h8.252s-5,39.733-32.63,39.6l.355-7.745S233.563,231.978,238.789,201.29Z"/></g><g id="Group_2718" data-name="Group 2718"><g id="Group_2706" data-name="Group 2706"><g id="Group_2702" data-name="Group 2702"><path id="Rectangle_947" data-name="Rectangle 947" class="cls-29" d="M203.362,232.466h0a1.7,1.7,0,0,1,1.729-1.67h0l6.608.117h0l-.059,3.4h0l-6.608-.116a1.7,1.7,0,0,1-1.67-1.73Z"/></g><g id="Group_2703" data-name="Group 2703" class="cls-32"><path id="Rectangle_948" data-name="Rectangle 948" d="M203.362,232.466h0a1.7,1.7,0,0,1,1.729-1.67h0l6.608.117h0l-.059,3.4h0l-6.608-.116a1.7,1.7,0,0,1-1.67-1.73Z"/></g><g id="Group_2704" data-name="Group 2704"><path id="Rectangle_949" data-name="Rectangle 949" class="cls-29" d="M203.253,238.634h0a2.558,2.558,0,0,1,2.6-2.513h0l5.749.1h0l-.09,5.117h0l-5.749-.1a2.56,2.56,0,0,1-2.514-2.6Z"/></g><g id="Group_2705" data-name="Group 2705"><rect id="Rectangle_950" data-name="Rectangle 950" class="cls-29" x="205.64" y="233.584" width="8.686" height="3.28" transform="translate(-28.894 441.04) rotate(-88.993)"/></g></g><g id="Group_2707" data-name="Group 2707"><rect id="Rectangle_951" data-name="Rectangle 951" class="cls-22" x="210.204" y="230.37" width="5.298" height="11.791" transform="translate(-2.866 2.614) rotate(-0.699)"/></g><g id="Group_2709" data-name="Group 2709"><g id="Group_2708" data-name="Group 2708"><path id="Path_4730" data-name="Path 4730" class="cls-33" d="M215.515,240.888a9.947,9.947,0,0,1-2.6.177,14.861,14.861,0,0,1-2.608-.107,16.105,16.105,0,0,1,2.607-.115c.72,0,1.371,0,1.843.011l.558.016A1.119,1.119,0,0,1,215.515,240.888Z"/></g></g><g id="Group_2711" data-name="Group 2711"><g id="Group_2710" data-name="Group 2710"><path id="Path_4731" data-name="Path 4731" class="cls-33" d="M215.489,238.766a9.991,9.991,0,0,1-2.6.177,14.857,14.857,0,0,1-2.608-.107,15.993,15.993,0,0,1,2.607-.115c.72,0,1.371,0,1.842.011l.558.016A.97.97,0,0,1,215.489,238.766Z"/></g></g><g id="Group_2713" data-name="Group 2713"><g id="Group_2712" data-name="Group 2712"><path id="Path_4732" data-name="Path 4732" class="cls-33" d="M215.552,236.624a9.991,9.991,0,0,1-2.6.177,14.761,14.761,0,0,1-2.608-.107,16.105,16.105,0,0,1,2.607-.115c.72,0,1.371,0,1.843.011l.558.016A.96.96,0,0,1,215.552,236.624Z"/></g></g><g id="Group_2715" data-name="Group 2715"><g id="Group_2714" data-name="Group 2714"><path id="Path_4733" data-name="Path 4733" class="cls-33" d="M215.437,234.522a9.991,9.991,0,0,1-2.6.177,14.86,14.86,0,0,1-2.608-.106,15.993,15.993,0,0,1,2.607-.115c.719,0,1.371,0,1.842.011l.558.016A1.043,1.043,0,0,1,215.437,234.522Z"/></g></g><g id="Group_2717" data-name="Group 2717"><g id="Group_2716" data-name="Group 2716"><path id="Path_4734" data-name="Path 4734" class="cls-33" d="M215.515,232.511a9.947,9.947,0,0,1-2.6.177,14.761,14.761,0,0,1-2.608-.107,16.105,16.105,0,0,1,2.607-.115c.719,0,1.371,0,1.842.011l.558.016A.97.97,0,0,1,215.515,232.511Z"/></g></g></g></g><g id="Group_2721" data-name="Group 2721" class="cls-31"><g id="Group_2720" data-name="Group 2720"><path id="Path_4735" data-name="Path 4735" class="cls-22" d="M218.412,240.5c.012,0,.02.069.025.213l.009.247-.075-.241a35.986,35.986,0,0,1-.811-3.9c-.184-1.145-.309-2.187-.378-2.943a6.237,6.237,0,0,1-.057-1.229,7.3,7.3,0,0,1,.213,1.21c.109.75.258,1.786.441,2.927.294,1.848.592,3.406.658,3.921l-.066,0C218.386,240.564,218.4,240.5,218.412,240.5Z"/></g></g><g id="Group_2723" data-name="Group 2723" class="cls-31"><g id="Group_2722" data-name="Group 2722"><path id="Path_4736" data-name="Path 4736" class="cls-22" d="M222.33,239.744a80.85,80.85,0,0,1-2.535-8.092,80.672,80.672,0,0,1,2.535,8.092Z"/></g></g><g id="Group_2725" data-name="Group 2725" class="cls-31"><g id="Group_2724" data-name="Group 2724"><path id="Path_4737" data-name="Path 4737" class="cls-22" d="M226.958,237.788a85.9,85.9,0,0,1-3.866-7.822,86.2,86.2,0,0,1,3.866,7.822Z"/></g></g><g id="Group_2727" data-name="Group 2727" class="cls-31"><g id="Group_2726" data-name="Group 2726"><path id="Path_4738" data-name="Path 4738" class="cls-22" d="M231.06,234.723a82.646,82.646,0,0,1-5.087-6.875,82.494,82.494,0,0,1,5.087,6.875Z"/></g></g><g id="Group_2729" data-name="Group 2729" class="cls-31"><g id="Group_2728" data-name="Group 2728"><path id="Path_4739" data-name="Path 4739" class="cls-22" d="M234.641,231.322a80.768,80.768,0,0,1-5.969-6,80.64,80.64,0,0,1,5.969,6Z"/></g></g><g id="Group_2731" data-name="Group 2731" class="cls-31"><g id="Group_2730" data-name="Group 2730"><path id="Path_4740" data-name="Path 4740" class="cls-22" d="M237.592,227.244a6.848,6.848,0,0,1-1.068-.572l-2.518-1.473-2.521-1.471a6.9,6.9,0,0,1-1.023-.649,6.282,6.282,0,0,1,1.1.512c.664.344,1.571.84,2.557,1.416s1.863,1.122,2.489,1.531A6.329,6.329,0,0,1,237.592,227.244Z"/></g></g><g id="Group_2733" data-name="Group 2733" class="cls-31"><g id="Group_2732" data-name="Group 2732"><path id="Path_4741" data-name="Path 4741" class="cls-22" d="M239.591,223.111a6.3,6.3,0,0,1-1.033-.465c-.627-.306-1.493-.728-2.459-1.175s-1.848-.833-2.488-1.112a6.343,6.343,0,0,1-1.023-.486,5.334,5.334,0,0,1,1.082.341c.656.243,1.552.608,2.523,1.056s1.828.895,2.438,1.238A5.25,5.25,0,0,1,239.591,223.111Z"/></g></g><g id="Group_2735" data-name="Group 2735" class="cls-31"><g id="Group_2734" data-name="Group 2734"><path id="Path_4742" data-name="Path 4742" class="cls-22" d="M241.977,219.115a5.845,5.845,0,0,1-1.181-.2c-.723-.155-1.715-.4-2.8-.714s-2.052-.641-2.745-.9a5.944,5.944,0,0,1-1.1-.466,6.994,6.994,0,0,1,1.154.318c.7.218,1.677.518,2.757.833s2.062.581,2.774.775A7.008,7.008,0,0,1,241.977,219.115Z"/></g></g><g id="Group_2737" data-name="Group 2737" class="cls-31"><g id="Group_2736" data-name="Group 2736"><path id="Path_4743" data-name="Path 4743" class="cls-22" d="M243.251,215.084a71.021,71.021,0,0,1-7.851-1,70.94,70.94,0,0,1,7.851,1Z"/></g></g><g id="Group_2739" data-name="Group 2739" class="cls-31"><g id="Group_2738" data-name="Group 2738"><path id="Path_4744" data-name="Path 4744" class="cls-22" d="M244.605,211.146a5.933,5.933,0,0,1-1.146-.036c-.706-.051-1.68-.136-2.755-.244s-2.047-.218-2.749-.308a5.856,5.856,0,0,1-1.13-.192,5.875,5.875,0,0,1,1.148.036c.706.051,1.679.136,2.753.244s2.044.218,2.746.308A5.964,5.964,0,0,1,244.605,211.146Z"/></g></g><g id="Group_2741" data-name="Group 2741" class="cls-31"><g id="Group_2740" data-name="Group 2740"><path id="Path_4745" data-name="Path 4745" class="cls-22" d="M245.65,207.329a76.508,76.508,0,0,1-8.219.257,76.508,76.508,0,0,1,8.219-.257Z"/></g></g><g id="Group_2743" data-name="Group 2743" class="cls-31"><g id="Group_2742" data-name="Group 2742"><path id="Path_4746" data-name="Path 4746" class="cls-22" d="M246.077,204.21a5.142,5.142,0,0,1-1.123.176c-.7.072-1.666.133-2.737.139s-2.04-.047-2.739-.112a5.135,5.135,0,0,1-1.124-.164,6.607,6.607,0,0,1,1.134.008c.7.025,1.663.052,2.728.047s2.028-.042,2.726-.074A6.62,6.62,0,0,1,246.077,204.21Z"/></g></g></g><g id="Group_2746" data-name="Group 2746"><g id="Group_2745" data-name="Group 2745"><path id="Path_4747" data-name="Path 4747" class="cls-30" d="M239.15,202.47a.384.384,0,0,1,.008.107v.315c-.007.276.007.686-.028,1.211a31.633,31.633,0,0,1-.523,4.424,33.5,33.5,0,0,1-1.852,6.342,33.035,33.035,0,0,1-9.391,13.024,33.394,33.394,0,0,1-5.433,3.761,31.7,31.7,0,0,1-4.032,1.894c-.487.2-.88.315-1.14.409l-.3.1a.388.388,0,0,1-.1.026.415.415,0,0,1,.1-.047l.292-.118c.255-.107.642-.236,1.123-.447a34.91,34.91,0,0,0,3.987-1.95,34.035,34.035,0,0,0,16.6-23.02,34.676,34.676,0,0,0,.591-4.4c.048-.523.048-.931.069-1.207.008-.127.015-.23.02-.314A.406.406,0,0,1,239.15,202.47Z"/></g></g></g></g><g id="Group_2845" data-name="Group 2845"><g id="Group_2749" data-name="Group 2749" class="cls-35"><path id="Path_4748" data-name="Path 4748" class="cls-36" d="M277.393,156.164s-4.568-6.178-15.134-5.263c0,0,10.755-8.262,4.427-16.751,0,0,13.583,4.013,13.737-12.965,0,0,2.469,15.744,15.281,11.267,0,0,.909,12.508,9.777,10.193-4.291,4.225-8.467,7.943-7.616,13.336"/></g><g id="Group_2751" data-name="Group 2751" class="cls-37"><path id="Path_4750" data-name="Path 4750" class="cls-38" d="M277.393,156.164s-.108-7.206-8.6-6.471c0,0,7.894-4.551,2.811-11.37,0,0,10.91,3.223,11.034-10.415,0,0,1.984,12.646,12.274,9.051,0,0-1.227,9.175,5.9,7.315-3.446,3.394-4.843,7.253-4.159,11.585"/></g><g id="Group_2767" data-name="Group 2767"><g id="Group_2756" data-name="Group 2756"><g id="Group_2755" data-name="Group 2755"><path id="Path_4753" data-name="Path 4753" class="cls-29" d="M260.846,105.443a10.673,10.673,0,0,0-5.563-2.985,2.865,2.865,0,0,1,.949.091,8,8,0,0,1,4.014,2.154A2.873,2.873,0,0,1,260.846,105.443Z"/></g></g><g id="Group_2760" data-name="Group 2760"><g id="Group_2759" data-name="Group 2759"><path id="Path_4755" data-name="Path 4755" class="cls-29" d="M293.4,126.159a.769.769,0,0,1-.087.194l-.288.534c-.129.23-.285.512-.45.847s-.372.707-.563,1.138c-.408.847-.84,1.881-1.265,3.049a32.959,32.959,0,0,0-1.771,7.867c-.116,1.237-.169,2.356-.164,3.3-.012.47.013.9.021,1.269s.025.7.044.958l.031.606a.76.76,0,0,1,0,.213.782.782,0,0,1-.041-.209l-.073-.6c-.032-.262-.064-.584-.081-.958s-.056-.8-.054-1.274a30.106,30.106,0,0,1,.117-3.317,30.944,30.944,0,0,1,1.783-7.917,30.387,30.387,0,0,1,1.316-3.047c.2-.428.416-.8.594-1.128s.343-.608.485-.831l.325-.514A.811.811,0,0,1,293.4,126.159Z"/></g></g><g id="Group_2764" data-name="Group 2764"><g id="Group_2763" data-name="Group 2763"><path id="Path_4757" data-name="Path 4757" class="cls-29" d="M266.2,138.675a4.963,4.963,0,0,1,1.041.65,14.733,14.733,0,0,1,3.953,4.381,4.95,4.95,0,0,1,.54,1.1,10.443,10.443,0,0,1-.673-1.02,18.6,18.6,0,0,0-3.915-4.34A10.6,10.6,0,0,1,266.2,138.675Z"/></g></g><g id="Group_2766" data-name="Group 2766"><g id="Group_2765" data-name="Group 2765"><path id="Path_4758" data-name="Path 4758" class="cls-29" d="M264.044,134.712c-.033.06-.9-.426-2.076-.724s-2.168-.3-2.168-.371a6.152,6.152,0,0,1,4.245,1.1Z"/></g></g></g><g id="Group_2770" data-name="Group 2770"><g id="Group_2769" data-name="Group 2769"><g id="Group_2768" data-name="Group 2768"><path id="Path_4759" data-name="Path 4759" class="cls-39" d="M255.283,121.379a2.855,2.855,0,0,1,.279-.7l-.385-.589.81-.836.6.365a2.834,2.834,0,0,1,.7-.3l.144-.688,1.164-.019.167.683a2.84,2.84,0,0,1,.7.279l.589-.385.836.809-.365.6a2.834,2.834,0,0,1,.3.7l.688.144.019,1.164-.683.167a2.84,2.84,0,0,1-.279.7l.385.589-.81.836-.6-.365a2.834,2.834,0,0,1-.7.3l-.144.688-1.164.019-.167-.683a2.855,2.855,0,0,1-.705-.279l-.589.385-.836-.81.365-.6a2.834,2.834,0,0,1-.3-.7l-.688-.144-.019-1.164.683-.167Zm1.534.66a1.249,1.249,0,1,0,1.229-1.269h0A1.25,1.25,0,0,0,256.817,122.039Z"/></g></g></g><g id="Group_2829" data-name="Group 2829"><g id="Group_2828" data-name="Group 2828"><path id="Path_4785" data-name="Path 4785" class="cls-29" d="M262.317,100.54s5.158,5.1,6.442,8.276c1.221,3.027,2.034,5.844,2.034,5.844s1.329-2.326,2.825,0,8.562,30.568,9.725,41.2h4.5s-2.1-17.775-3.1-19.769a8.41,8.41,0,0,0-1.828-2.658s-1.163-7.476-1.994-8.639a5.6,5.6,0,0,0-1.828-1.661s-1.5-8.141-3.655-9.8-3.821-.831-3.821-.831S270.246,103.8,262.317,100.54Z"/></g></g><g id="Group_2831" data-name="Group 2831"><g id="Group_2830" data-name="Group 2830"><path id="Path_4786" data-name="Path 4786" class="cls-33" d="M304.544,138.266a15.8,15.8,0,0,0-5.721,2.6,3.064,3.064,0,0,1,.693-.632,10.313,10.313,0,0,1,4.1-1.861A3.059,3.059,0,0,1,304.544,138.266Z"/></g></g><g id="Group_2833" data-name="Group 2833"><g id="Group_2832" data-name="Group 2832"><path id="Path_4787" data-name="Path 4787" class="cls-33" d="M304.367,137.375a18.64,18.64,0,0,0-5.727,3.173,3.378,3.378,0,0,1,.683-.694,11.739,11.739,0,0,1,4.093-2.268A3.3,3.3,0,0,1,304.367,137.375Z"/></g></g><g id="Group_2835" data-name="Group 2835"><g id="Group_2834" data-name="Group 2834"><path id="Path_4788" data-name="Path 4788" class="cls-33" d="M303.5,139.551c0,.068-.94.083-2.041.4s-1.912.79-1.947.732a5.648,5.648,0,0,1,3.988-1.132Z"/></g></g><g id="Group_2836" data-name="Group 2836"><path id="Path_4789" data-name="Path 4789" class="cls-22" d="M293.559,155.818c-.75-5.966,1.206-12.953,5.976-16.3l1.136.926s-5.927,3.526-5.493,15.424"/></g><g id="Group_2842" data-name="Group 2842"><g id="Group_2838" data-name="Group 2838"><g id="Group_2837" data-name="Group 2837"><path id="Path_4790" data-name="Path 4790" class="cls-33" d="M269.081,147.23a9.487,9.487,0,0,0-4.226,2.6A5.849,5.849,0,0,1,269.081,147.23Z"/></g></g><g id="Group_2840" data-name="Group 2840"><g id="Group_2839" data-name="Group 2839"><path id="Path_4791" data-name="Path 4791" class="cls-33" d="M268.965,146.7q-2.308.926-4.66,1.739A16.234,16.234,0,0,1,268.965,146.7Z"/></g></g><g id="Group_2841" data-name="Group 2841"><path id="Path_4792" data-name="Path 4792" class="cls-22" d="M282.087,157.29l-2.06-.537a4.7,4.7,0,0,0-.554-3.611,4.6,4.6,0,0,0-1-1.127,3.913,3.913,0,0,1-2.261,3.034,3.348,3.348,0,0,1-2.831-.176,2.962,2.962,0,0,1-1.553-2.01,3.34,3.34,0,0,1,1.651-3.417,4.216,4.216,0,0,1,1.559-.532c-.05-.042-.1-.083-.154-.123a5.7,5.7,0,0,0-6.423-.174l-1.2-1.759a7.8,7.8,0,0,1,8.916.241,6.274,6.274,0,0,1,1.852,2.223,6.732,6.732,0,0,1,4.057,7.971Zm-6.346-6.3a2.3,2.3,0,0,0-1.177.285,1.241,1.241,0,0,0-.646,1.173.881.881,0,0,0,.464.547,1.229,1.229,0,0,0,1.009.086,1.916,1.916,0,0,0,.986-1.951.483.483,0,0,0-.011-.084A3.631,3.631,0,0,0,275.741,150.99Z"/></g></g></g><g id="Group_2972" data-name="Group 2972"><g id="Group_2846" data-name="Group 2846"><path id="Rectangle_954" data-name="Rectangle 954" class="cls-22" d="M257.951,165.194h0v21.514h0a4.179,4.179,0,0,1-4.18-4.18h0V169.374A4.179,4.179,0,0,1,257.951,165.194Z"/></g><g id="Group_2847" data-name="Group 2847"><path id="Rectangle_955" data-name="Rectangle 955" class="cls-22" d="M319.536,165.194h0a4.179,4.179,0,0,1,4.18,4.18v13.154a4.179,4.179,0,0,1-4.18,4.18h0V165.194Z"/></g><g id="Group_2848" data-name="Group 2848"><rect id="Rectangle_956" data-name="Rectangle 956" class="cls-29" x="256.85" y="160.993" width="63.629" height="46.847" rx="14.119"/></g><g id="Group_2849" data-name="Group 2849"><path id="Path_4794" data-name="Path 4794" class="cls-30" d="M296.76,165.966a14.583,14.583,0,0,0-14.582,14.582h29.164a14.583,14.583,0,0,0-14.582-14.582Z"/></g><g id="Group_2868" data-name="Group 2868"><g id="Group_2851" data-name="Group 2851"><g id="Group_2850" data-name="Group 2850"><path id="Path_4795" data-name="Path 4795" class="cls-34" d="M308.506,179.842c.612-.006,1.167-.006,1.569,0a3.148,3.148,0,0,1,.65.041,3.148,3.148,0,0,1-.65.047c-.4.012-.956.018-1.569.018l-1.568-.014-.475-.013a.088.088,0,1,1,0-.034l.475-.018Z"/></g></g><g id="Group_2853" data-name="Group 2853"><g id="Group_2852" data-name="Group 2852"><path id="Path_4796" data-name="Path 4796" class="cls-34" d="M307.488,175.438a9.154,9.154,0,0,1,2.059-.833,9.245,9.245,0,0,1-1.968,1.029,15.146,15.146,0,0,1-2.058.833A15.01,15.01,0,0,1,307.488,175.438Z"/></g></g><g id="Group_2855" data-name="Group 2855"><g id="Group_2854" data-name="Group 2854"><path id="Path_4797" data-name="Path 4797" class="cls-34" d="M304.752,171.833a9.415,9.415,0,0,1,1.563-1.579,9.392,9.392,0,0,1-1.4,1.723,14.637,14.637,0,0,1-1.562,1.578A14.715,14.715,0,0,1,304.752,171.833Z"/></g></g><g id="Group_2857" data-name="Group 2857"><g id="Group_2856" data-name="Group 2856"><path id="Path_4798" data-name="Path 4798" class="cls-34" d="M300.852,169.529a9.491,9.491,0,0,1,.876-2.041,9.524,9.524,0,0,1-.673,2.117,14.454,14.454,0,0,1-.876,2.04A14.5,14.5,0,0,1,300.852,169.529Z"/></g></g><g id="Group_2859" data-name="Group 2859"><g id="Group_2858" data-name="Group 2858"><path id="Path_4799" data-name="Path 4799" class="cls-34" d="M296.379,168.771a9.588,9.588,0,0,1,.109-2.219,9.533,9.533,0,0,1,.109,2.219,14.161,14.161,0,0,1-.109,2.217A14.283,14.283,0,0,1,296.379,168.771Z"/></g></g><g id="Group_2861" data-name="Group 2861"><g id="Group_2860" data-name="Group 2860"><path id="Path_4800" data-name="Path 4800" class="cls-34" d="M291.927,169.605a9.47,9.47,0,0,1-.672-2.117,9.491,9.491,0,0,1,.876,2.041,14.373,14.373,0,0,1,.672,2.116A14.454,14.454,0,0,1,291.927,169.605Z"/></g></g><g id="Group_2863" data-name="Group 2863"><g id="Group_2862" data-name="Group 2862"><path id="Path_4801" data-name="Path 4801" class="cls-34" d="M288.067,171.978a9.392,9.392,0,0,1-1.4-1.723,9.335,9.335,0,0,1,1.563,1.578,14.551,14.551,0,0,1,1.4,1.723A14.646,14.646,0,0,1,288.067,171.978Z"/></g></g><g id="Group_2865" data-name="Group 2865"><g id="Group_2864" data-name="Group 2864"><path id="Path_4802" data-name="Path 4802" class="cls-34" d="M285.4,175.637a9.245,9.245,0,0,1-1.968-1.029,9.217,9.217,0,0,1,2.059.832,15.01,15.01,0,0,1,1.967,1.029A15.271,15.271,0,0,1,285.4,175.637Z"/></g></g><g id="Group_2867" data-name="Group 2867"><g id="Group_2866" data-name="Group 2866"><path id="Path_4803" data-name="Path 4803" class="cls-34" d="M284.474,179.95c-.613,0-1.167-.006-1.569-.018a3.138,3.138,0,0,1-.649-.047,3.144,3.144,0,0,1,.65-.041c.4-.008.956-.009,1.569,0l1.568.029.475.018a.088.088,0,1,1,0,.034l-.475.013Z"/></g></g></g><g id="Group_2869" data-name="Group 2869"><path id="Path_4804" data-name="Path 4804" class="cls-30" d="M272.446,168.525a1.935,1.935,0,1,1-1.935-1.935h0A1.937,1.937,0,0,1,272.446,168.525Z"/></g><g id="Group_2870" data-name="Group 2870"><path id="Path_4805" data-name="Path 4805" class="cls-33" d="M272.446,174.36a1.935,1.935,0,1,1-1.935-1.935h0A1.937,1.937,0,0,1,272.446,174.36Z"/></g><g id="Group_2872" data-name="Group 2872"><g id="Group_2871" data-name="Group 2871"><path id="Path_4806" data-name="Path 4806" class="cls-22" d="M309.128,203.8s-.006-.126-.009-.362-.005-.591-.009-1.045c0-.922-.012-2.267-.021-4-.011-3.461-.026-8.453-.044-14.606l.083.083-39.688.03h0l.111-.111c0,7.056,0,13.825-.006,20.01l-.1-.1,28.5.05,8.222.028,2.2.013.57.006c.129,0,.2.006.2.006s-.06,0-.185.006l-.558.006-2.176.013-8.2.029-28.57.05h-.108v-.1c0-6.184,0-12.954-.006-20.01v-.111h.114l39.684.028h.083v.083c-.019,6.175-.034,11.184-.044,14.657-.009,1.721-.016,3.06-.02,3.977q-.006.672-.009,1.03C309.134,203.685,309.128,203.8,309.128,203.8Z"/></g></g><g id="Group_2873" data-name="Group 2873"><path id="Rectangle_957" data-name="Rectangle 957" class="cls-22" d="M263.415,207.749h50.5a2.906,2.906,0,0,1-2.906,2.906H266.321a2.906,2.906,0,0,1-2.906-2.906Z"/></g><g id="Group_2885" data-name="Group 2885"><g id="Group_2875" data-name="Group 2875" class="cls-32"><g id="Group_2874" data-name="Group 2874"><path id="Path_4807" data-name="Path 4807" d="M304.883,186.6a1.2,1.2,0,0,0,.826,1.268,1.329,1.329,0,0,0,1.444-.53,1.484,1.484,0,0,0,.02-1.56,1.472,1.472,0,0,1-.333,1,1.089,1.089,0,0,1-.96.377.866.866,0,0,1-.722-.7"/></g></g><g id="Group_2884" data-name="Group 2884"><g id="Group_2879" data-name="Group 2879"><g id="Group_2876" data-name="Group 2876"><path id="Path_4808" data-name="Path 4808" class="cls-34" d="M307.16,186.124a1.177,1.177,0,1,1-1.177-1.177,1.177,1.177,0,0,1,1.177,1.177Z"/></g><g id="Group_2878" data-name="Group 2878"><g id="Group_2877" data-name="Group 2877"><path id="Path_4809" data-name="Path 4809" class="cls-22" d="M307.16,186.124c-.019,0-.024-.1-.079-.276a1.169,1.169,0,0,0-.434-.6,1.1,1.1,0,0,0-1.031-.136,1.078,1.078,0,0,0,0,2.018,1.1,1.1,0,0,0,1.031-.136,1.169,1.169,0,0,0,.434-.6c.055-.172.06-.277.079-.277s.037.106,0,.3a1.173,1.173,0,0,1-.422.7,1.249,1.249,0,0,1-1.2.2,1.273,1.273,0,0,1,0-2.4,1.249,1.249,0,0,1,1.2.2,1.167,1.167,0,0,1,.423.7A.535.535,0,0,1,307.16,186.124Z"/></g></g></g><g id="Group_2881" data-name="Group 2881"><g id="Group_2880" data-name="Group 2880"><path id="Path_4810" data-name="Path 4810" class="cls-22" d="M306.526,185.621c.022.06-.258.2-.515.476s-.4.551-.459.531,0-.374.3-.685S306.512,185.563,306.526,185.621Z"/></g></g><g id="Group_2883" data-name="Group 2883"><g id="Group_2882" data-name="Group 2882"><path id="Path_4811" data-name="Path 4811" class="cls-22" d="M306.526,186.491c-.053.035-.25-.181-.539-.373s-.559-.3-.546-.361.341-.047.671.177S306.577,186.462,306.526,186.491Z"/></g></g></g></g><g id="Group_2897" data-name="Group 2897"><g id="Group_2887" data-name="Group 2887" class="cls-32"><g id="Group_2886" data-name="Group 2886"><path id="Path_4812" data-name="Path 4812" d="M305.435,201.161a1.2,1.2,0,0,0,.826,1.268,1.328,1.328,0,0,0,1.443-.53,1.484,1.484,0,0,0,.02-1.56,1.472,1.472,0,0,1-.333,1,1.087,1.087,0,0,1-.96.377.866.866,0,0,1-.722-.7"/></g></g><g id="Group_2896" data-name="Group 2896"><g id="Group_2891" data-name="Group 2891"><g id="Group_2888" data-name="Group 2888"><circle id="Ellipse_128" data-name="Ellipse 128" class="cls-34" cx="306.535" cy="200.687" r="1.177"/></g><g id="Group_2890" data-name="Group 2890"><g id="Group_2889" data-name="Group 2889"><path id="Path_4813" data-name="Path 4813" class="cls-22" d="M307.712,200.688c-.019,0-.023-.1-.078-.277a1.179,1.179,0,0,0-.434-.6,1.1,1.1,0,0,0-1.03-.136,1.077,1.077,0,0,0,0,2.018,1.1,1.1,0,0,0,1.03-.136,1.179,1.179,0,0,0,.434-.6,1.986,1.986,0,0,1,.078-.277c.018,0,.038.106,0,.3a1.173,1.173,0,0,1-.422.7,1.249,1.249,0,0,1-1.2.2,1.273,1.273,0,0,1,0-2.4,1.249,1.249,0,0,1,1.2.2,1.173,1.173,0,0,1,.422.7C307.749,200.581,307.726,200.688,307.712,200.688Z"/></g></g></g><g id="Group_2893" data-name="Group 2893"><g id="Group_2892" data-name="Group 2892"><path id="Path_4814" data-name="Path 4814" class="cls-22" d="M307.077,200.184c.022.06-.258.2-.515.476s-.4.551-.458.531,0-.374.3-.685S307.064,200.126,307.077,200.184Z"/></g></g><g id="Group_2895" data-name="Group 2895"><g id="Group_2894" data-name="Group 2894"><path id="Path_4815" data-name="Path 4815" class="cls-22" d="M307.078,201.053c-.053.035-.249-.18-.539-.372s-.559-.3-.546-.361.341-.047.671.177S307.129,201.025,307.078,201.053Z"/></g></g></g></g><g id="Group_2909" data-name="Group 2909"><g id="Group_2899" data-name="Group 2899" class="cls-32"><g id="Group_2898" data-name="Group 2898"><path id="Path_4816" data-name="Path 4816" d="M271.2,186.58a1.2,1.2,0,0,0,.826,1.268,1.329,1.329,0,0,0,1.443-.53,1.484,1.484,0,0,0,.02-1.56,1.472,1.472,0,0,1-.333,1,1.087,1.087,0,0,1-.96.377.866.866,0,0,1-.722-.7"/></g></g><g id="Group_2908" data-name="Group 2908"><g id="Group_2903" data-name="Group 2903"><g id="Group_2900" data-name="Group 2900"><circle id="Ellipse_129" data-name="Ellipse 129" class="cls-34" cx="272.3" cy="186.106" r="1.177"/></g><g id="Group_2902" data-name="Group 2902"><g id="Group_2901" data-name="Group 2901"><path id="Path_4817" data-name="Path 4817" class="cls-22" d="M273.477,186.106c-.019,0-.024-.1-.079-.277a1.179,1.179,0,0,0-.434-.6,1.1,1.1,0,0,0-1.031-.136,1.078,1.078,0,0,0,0,2.019,1.1,1.1,0,0,0,1.031-.136,1.175,1.175,0,0,0,.434-.6c.055-.172.06-.277.079-.277s.037.106.005.3a1.171,1.171,0,0,1-.423.7,1.249,1.249,0,0,1-1.2.2,1.273,1.273,0,0,1,0-2.4,1.249,1.249,0,0,1,1.2.2,1.174,1.174,0,0,1,.423.7C273.514,186,273.488,186.107,273.477,186.106Z"/></g></g></g><g id="Group_2905" data-name="Group 2905"><g id="Group_2904" data-name="Group 2904"><path id="Path_4818" data-name="Path 4818" class="cls-22" d="M272.844,185.6c.021.061-.258.2-.515.477s-.4.551-.459.531,0-.374.3-.685S272.829,185.546,272.844,185.6Z"/></g></g><g id="Group_2907" data-name="Group 2907"><g id="Group_2906" data-name="Group 2906"><path id="Path_4819" data-name="Path 4819" class="cls-22" d="M272.843,186.473c-.053.035-.25-.18-.539-.373s-.559-.3-.547-.361.341-.047.671.177S272.894,186.445,272.843,186.473Z"/></g></g></g></g><g id="Group_2921" data-name="Group 2921"><g id="Group_2911" data-name="Group 2911" class="cls-32"><g id="Group_2910" data-name="Group 2910"><path id="Path_4820" data-name="Path 4820" d="M270.95,201.016a1.2,1.2,0,0,0,.826,1.268,1.327,1.327,0,0,0,1.443-.53,1.484,1.484,0,0,0,.02-1.56,1.472,1.472,0,0,1-.333,1,1.087,1.087,0,0,1-.96.377.866.866,0,0,1-.722-.7"/></g></g><g id="Group_2920" data-name="Group 2920"><g id="Group_2915" data-name="Group 2915"><g id="Group_2912" data-name="Group 2912"><circle id="Ellipse_130" data-name="Ellipse 130" class="cls-34" cx="272.05" cy="200.542" r="1.177"/></g><g id="Group_2914" data-name="Group 2914"><g id="Group_2913" data-name="Group 2913"><path id="Path_4821" data-name="Path 4821" class="cls-22" d="M273.227,200.542c-.019,0-.023-.1-.079-.277a1.169,1.169,0,0,0-.434-.6,1.1,1.1,0,0,0-1.03-.136,1.077,1.077,0,0,0,0,2.018,1.1,1.1,0,0,0,1.03-.136,1.169,1.169,0,0,0,.434-.6c.055-.173.06-.277.079-.277s.038.105.005.3a1.173,1.173,0,0,1-.422.7,1.249,1.249,0,0,1-1.2.2,1.273,1.273,0,0,1,0-2.4,1.249,1.249,0,0,1,1.2.2,1.174,1.174,0,0,1,.423.7C273.264,200.436,273.238,200.543,273.227,200.542Z"/></g></g></g><g id="Group_2917" data-name="Group 2917"><g id="Group_2916" data-name="Group 2916"><path id="Path_4822" data-name="Path 4822" class="cls-22" d="M272.592,200.039c.022.06-.258.205-.515.476s-.4.551-.458.531,0-.374.3-.685S272.58,199.981,272.592,200.039Z"/></g></g><g id="Group_2919" data-name="Group 2919"><g id="Group_2918" data-name="Group 2918"><path id="Path_4823" data-name="Path 4823" class="cls-22" d="M272.593,200.909c-.053.035-.25-.181-.539-.373s-.559-.3-.546-.361.341-.047.671.177S272.644,200.88,272.593,200.909Z"/></g></g></g></g><g id="Group_2923" data-name="Group 2923" class="cls-32"><g id="Group_2922" data-name="Group 2922"><path id="Path_4824" data-name="Path 4824" d="M269.44,203.907a59.663,59.663,0,0,0,14.971.8c2.394-.116,5.023-.267,6.937,1.176.42.317.911.728,1.4.545.719-.267.745-1.578,1.51-1.6.383-.013.674.353.8.715a5.581,5.581,0,0,0,.35,1.092c.2.33.661.553.966.32.486-.372-.074-1.167.109-1.751.19-.6,1.049-.653,1.637-.414a3.617,3.617,0,0,0,1.788.561,3.433,3.433,0,0,0,1.2-.62,7.5,7.5,0,0,1,3.815-.747c1.384-.024,2.812-.155,4.2-.179Z"/></g></g><g id="Group_2928" data-name="Group 2928"><path id="Path_4827" data-name="Path 4827" class="cls-29" d="M297.485,178.348c.324-.173,9.9-3.251,9.9-3.251l-9.147,5.128Z"/></g><g id="Group_2929" data-name="Group 2929"><path id="Path_4828" data-name="Path 4828" class="cls-22" d="M296.492,177.318a3.236,3.236,0,0,0-3.236,3.236h6.471A3.236,3.236,0,0,0,296.492,177.318Z"/></g><g id="Group_2931" data-name="Group 2931"><g id="Group_2930" data-name="Group 2930"><path id="Path_4829" data-name="Path 4829" class="cls-22" d="M263.947,207.749c-.061,0-.111-10.4-.111-23.231s.047-23.235.111-23.235.111,10.4.111,23.233S264.006,207.749,263.947,207.749Z"/></g></g><g id="Group_2933" data-name="Group 2933"><g id="Group_2932" data-name="Group 2932"><path id="Path_4830" data-name="Path 4830" class="cls-22" d="M314.564,207.749c-.061,0-.111-10.4-.111-23.231s.05-23.233.111-23.233.111,10.4.111,23.233S314.625,207.749,314.564,207.749Z"/></g></g><g id="Group_2934" data-name="Group 2934"><circle id="Ellipse_131" data-name="Ellipse 131" class="cls-22" cx="261.82" cy="167.087" r="0.497"/></g><g id="Group_2935" data-name="Group 2935"><circle id="Ellipse_132" data-name="Ellipse 132" class="cls-22" cx="261.82" cy="176.41" r="0.497"/></g><g id="Group_2936" data-name="Group 2936"><circle id="Ellipse_133" data-name="Ellipse 133" class="cls-22" cx="261.82" cy="185.732" r="0.497"/></g><g id="Group_2937" data-name="Group 2937"><circle id="Ellipse_134" data-name="Ellipse 134" class="cls-22" cx="261.82" cy="195.054" r="0.497"/></g><g id="Group_2938" data-name="Group 2938"><circle id="Ellipse_135" data-name="Ellipse 135" class="cls-22" cx="261.82" cy="204.376" r="0.497"/></g><g id="Group_2939" data-name="Group 2939"><circle id="Ellipse_136" data-name="Ellipse 136" class="cls-22" cx="317.167" cy="167.087" r="0.497"/></g><g id="Group_2940" data-name="Group 2940"><circle id="Ellipse_137" data-name="Ellipse 137" class="cls-22" cx="317.167" cy="176.41" r="0.497"/></g><g id="Group_2941" data-name="Group 2941"><circle id="Ellipse_138" data-name="Ellipse 138" class="cls-22" cx="317.167" cy="185.732" r="0.497"/></g><g id="Group_2942" data-name="Group 2942"><circle id="Ellipse_139" data-name="Ellipse 139" class="cls-22" cx="317.167" cy="195.054" r="0.497"/></g><g id="Group_2943" data-name="Group 2943"><circle id="Ellipse_140" data-name="Ellipse 140" class="cls-22" cx="317.167" cy="204.376" r="0.497"/></g><g id="Group_2963" data-name="Group 2963"><g id="Group_2944" data-name="Group 2944"><rect id="Rectangle_958" data-name="Rectangle 958" class="cls-33" x="276.277" y="155.863" width="21.765" height="5.13"/></g><g id="Group_2946" data-name="Group 2946"><g id="Group_2945" data-name="Group 2945"><path id="Path_4831" data-name="Path 4831" class="cls-22" d="M277.847,160.992a27.648,27.648,0,0,1,0-4.95A27.648,27.648,0,0,1,277.847,160.992Z"/></g></g><g id="Group_2948" data-name="Group 2948"><g id="Group_2947" data-name="Group 2947"><path id="Path_4832" data-name="Path 4832" class="cls-22" d="M280.082,160.992a27.648,27.648,0,0,1,0-4.95A27.648,27.648,0,0,1,280.082,160.992Z"/></g></g><g id="Group_2950" data-name="Group 2950"><g id="Group_2949" data-name="Group 2949"><path id="Path_4833" data-name="Path 4833" class="cls-22" d="M282.316,160.992a27.648,27.648,0,0,1,0-4.95A27.648,27.648,0,0,1,282.316,160.992Z"/></g></g><g id="Group_2952" data-name="Group 2952"><g id="Group_2951" data-name="Group 2951"><path id="Path_4834" data-name="Path 4834" class="cls-22" d="M284.551,160.992a27.648,27.648,0,0,1,0-4.95A27.648,27.648,0,0,1,284.551,160.992Z"/></g></g><g id="Group_2954" data-name="Group 2954"><g id="Group_2953" data-name="Group 2953"><path id="Path_4835" data-name="Path 4835" class="cls-22" d="M286.785,160.992a27.648,27.648,0,0,1,0-4.95A27.648,27.648,0,0,1,286.785,160.992Z"/></g></g><g id="Group_2956" data-name="Group 2956"><g id="Group_2955" data-name="Group 2955"><path id="Path_4836" data-name="Path 4836" class="cls-22" d="M289.02,160.992a27.648,27.648,0,0,1,0-4.95A27.648,27.648,0,0,1,289.02,160.992Z"/></g></g><g id="Group_2958" data-name="Group 2958"><g id="Group_2957" data-name="Group 2957"><path id="Path_4837" data-name="Path 4837" class="cls-22" d="M291.255,160.992a27.648,27.648,0,0,1,0-4.95A27.648,27.648,0,0,1,291.255,160.992Z"/></g></g><g id="Group_2960" data-name="Group 2960"><g id="Group_2959" data-name="Group 2959"><path id="Path_4838" data-name="Path 4838" class="cls-22" d="M293.489,160.992a27.648,27.648,0,0,1,0-4.95A27.648,27.648,0,0,1,293.489,160.992Z"/></g></g><g id="Group_2962" data-name="Group 2962"><g id="Group_2961" data-name="Group 2961"><path id="Path_4839" data-name="Path 4839" class="cls-22" d="M295.724,160.992a27.648,27.648,0,0,1,0-4.95A27.648,27.648,0,0,1,295.724,160.992Z"/></g></g></g><g id="Group_2965" data-name="Group 2965" class="cls-32"><g id="Group_2964" data-name="Group 2964"><path id="Path_4840" data-name="Path 4840" d="M323.715,172.11c.526,2.668,1.015,5.178,1.542,7.846a11.336,11.336,0,0,1-1.542,0c-.012-2.555.012-5.287,0-7.842"/></g></g><g id="Group_2967" data-name="Group 2967"><g id="Group_2966" data-name="Group 2966"><path id="Path_4841" data-name="Path 4841" class="cls-30" d="M258.322,165.992c.061,0,0,7.954-.146,17.762s-.306,17.762-.367,17.761,0-7.953.146-17.764S258.261,165.991,258.322,165.992Z"/></g></g><g id="Group_2969" data-name="Group 2969"><g id="Group_2968" data-name="Group 2968"><path id="Path_4842" data-name="Path 4842" class="cls-30" d="M267.582,202.61c-.061,0-.111-3.961-.111-8.845s.05-8.847.111-8.847.111,3.96.111,8.847S267.645,202.61,267.582,202.61Z"/></g></g><g id="Group_2971" data-name="Group 2971"><g id="Group_2970" data-name="Group 2970"><path id="Path_4843" data-name="Path 4843" class="cls-30" d="M309.411,162.427c0,.061-9.764.111-21.8.111s-21.807-.05-21.807-.111,9.762-.111,21.807-.111S309.411,162.365,309.411,162.427Z"/></g></g></g></g></g><g id="Floor"><g id="Group_2975" data-name="Group 2975"><g id="Group_2974" data-name="Group 2974"><path id="Path_4844" data-name="Path 4844" class="cls-22" d="M373.524,242.276c0,.061-40.547.111-90.554.111-50.023,0-90.562-.05-90.562-.111s40.539-.111,90.562-.111C332.974,242.168,373.524,242.215,373.524,242.276Z"/></g></g></g></g></g></svg>