<svg xmlns="http://www.w3.org/2000/svg" width="46" height="46" viewBox="0 0 46 46"><defs><style>.a{fill:#64a15e;}</style></defs><g transform="translate(0 0)"><path class="a" d="M177,134.354l6.472-19.415a1.373,1.373,0,0,0-2.6-.868l-6.472,19.415a1.373,1.373,0,1,0,2.6.868Z" transform="translate(-158.731 -103.138)"/><path class="a" d="M268.652,197.44a4.119,4.119,0,1,0-4.119-4.119A4.123,4.123,0,0,0,268.652,197.44Zm0-5.491a1.373,1.373,0,1,1-1.373,1.373A1.374,1.374,0,0,1,268.652,191.949Z" transform="translate(-240.861 -172.272)"/><path class="a" d="M98.946,189.2a4.119,4.119,0,1,0,4.119,4.119A4.123,4.123,0,0,0,98.946,189.2Zm0,5.491a1.373,1.373,0,1,1,1.373-1.373A1.374,1.374,0,0,1,98.946,194.694Z" transform="translate(-86.341 -172.272)"/><path class="a" d="M45.731,16.711l-4.7-6.266.183-1.283a1.348,1.348,0,0,0-.381-1.144L37.975,5.16,40.833,2.3A1.348,1.348,0,0,0,38.927.395L36.069,3.254,33.21.395A1.349,1.349,0,0,0,32.066.014L18.725,1.92a1.348,1.348,0,0,0-.762.381L1.445,18.818a4.947,4.947,0,0,0,0,6.988L15.422,39.783a4.929,4.929,0,0,0,.93.729v.546A4.947,4.947,0,0,0,21.293,46H41.059A4.947,4.947,0,0,0,46,41.059V17.52a1.348,1.348,0,0,0-.27-.809ZM3.351,23.9a2.249,2.249,0,0,1,0-3.177l16.2-16.2L31.78,2.777,34.163,5.16,32.257,7.066,31.3,6.113A1.348,1.348,0,0,0,29.4,8.018L33.21,11.83a1.348,1.348,0,0,0,1.906-1.906l-.953-.953,1.906-1.906,2.382,2.382L36.7,21.677l-16.2,16.2a2.246,2.246,0,0,1-3.177,0ZM43.3,41.059A2.249,2.249,0,0,1,41.059,43.3H21.293a2.249,2.249,0,0,1-2.239-2.08,4.922,4.922,0,0,0,3.356-1.442L38.927,23.265a1.348,1.348,0,0,0,.381-.762l1.184-8.285,2.813,3.75Z" transform="translate(0 0)"/></g></svg>