<svg xmlns="http://www.w3.org/2000/svg" width="32" height="20" viewBox="0 0 32 20"><defs><style>.a{fill:#64a15e;}</style></defs><g transform="translate(0 -63.14)"><g transform="translate(0 63.14)"><path class="a" d="M117.022,72.515c-.018-.019-.036-.038-.056-.055l-8.982-9.012a1.121,1.121,0,0,0-1.159-.238,1.147,1.147,0,0,0-.724.906v4.291H94.946a.912.912,0,0,0-.919.9c0,.016,0,.033,0,.049v7.629a.91.91,0,0,0,.868.952h11.2v4.291a1.147,1.147,0,0,0,.724.906h.435a1.07,1.07,0,0,0,.724-.286l8.982-9.059A.9.9,0,0,0,117.022,72.515ZM108.032,79.9V76.989c0-.525-.193-.954-.724-.954H95.96V70.314h11.348c.531,0,.724-.429.724-.954V66.452l6.664,6.723Z" transform="translate(-85.263 -63.14)"/><path class="a" d="M63.668,120.843a.974.974,0,0,0-.974.974v7.791a.974.974,0,1,0,1.948,0v-7.791A.974.974,0,0,0,63.668,120.843Z" transform="translate(-56.888 -115.679)"/><path class="a" d="M32.321,120.843a.974.974,0,0,0-.974.974v7.791a.974.974,0,1,0,1.948,0v-7.791A.974.974,0,0,0,32.321,120.843Z" transform="translate(-28.425 -115.679)"/><path class="a" d="M.974,120.843a.974.974,0,0,0-.974.974v7.791a.974.974,0,1,0,1.948,0v-7.791A.974.974,0,0,0,.974,120.843Z" transform="translate(0 -115.679)"/></g></g></svg>