<svg xmlns="http://www.w3.org/2000/svg" width="46.628" height="47.509" viewBox="0 0 46.628 47.509"><defs><style>.a{fill:#64a15e;stroke:#64a15e;stroke-width:0.5px;}</style></defs><g transform="translate(-7.547 0.26)"><g transform="translate(7.797 -0.001)"><path class="a" d="M53.284,33.639a3,3,0,0,0-4.017-.843l-.864.377a14.037,14.037,0,0,0,.854-9.116,21.934,21.934,0,0,0-5.594-10.021.7.7,0,0,0-.982-.042.684.684,0,0,0-.043.973A20.588,20.588,0,0,1,47.9,24.356,12.247,12.247,0,0,1,46.268,34.1l-8.65,3.773.007-.968a.666.666,0,0,0,0-.073,4.332,4.332,0,0,0-3.732-3.854l-.018,0L26.185,32.1c-2.956-.417-3.717-2.172-7.721-3.172a14.693,14.693,0,0,1,1.1-7.283,26.276,26.276,0,0,1,8.628-10.53c1.539,1.081,8.4,1.215,9.939-.179.787.592,1.538,1.2,2.238,1.82a.7.7,0,0,0,.981-.056.684.684,0,0,0-.057-.972c-.767-.677-1.592-1.345-2.457-1.99a2.437,2.437,0,0,0-.83-2.442C40.183,4.03,40.816,1.89,39.942.769A1.223,1.223,0,0,0,38.276.515,1.123,1.123,0,0,1,36.943.468a2.517,2.517,0,0,0-2.926,0,1.129,1.129,0,0,1-1.4,0,2.517,2.517,0,0,0-2.926,0,1.115,1.115,0,0,1-1.331.044,1.22,1.22,0,0,0-1.669.246c-.854,1.089-.283,3.162,1.746,6.32a2.265,2.265,0,0,0-.353.234A4.714,4.714,0,0,0,24.039,5.8a5.129,5.129,0,0,1-3.457-.81.7.7,0,0,0-.964.188.684.684,0,0,0,.19.955,6.517,6.517,0,0,0,4.385,1.034,3.408,3.408,0,0,1,3.1,1.345q-.013.044-.024.088a12.034,12.034,0,0,0-2.2.238,6.53,6.53,0,0,0-4.522,2.868.685.685,0,0,0,.249.942.7.7,0,0,0,.951-.247c1.267-2.145,4.36-2.408,5.589-2.424.005.015.011.03.017.045a27.246,27.246,0,0,0-9.075,11.111,16.2,16.2,0,0,0-1.24,7.516,14.594,14.594,0,0,0-2.018-.155v-.416a2.009,2.009,0,0,0-2.017-2H9.814a2.009,2.009,0,0,0-2.017,2V44.11a2.009,2.009,0,0,0,2.017,2H13a2.009,2.009,0,0,0,2.017-2v-.2l6.958,2.566a8.4,8.4,0,0,0,2.913.52H35.259a8.4,8.4,0,0,0,4.47-1.285C53.56,37.028,52.72,37.569,52.8,37.5a2.932,2.932,0,0,0,.484-3.859ZM36.828,10.124a15.2,15.2,0,0,1-7.553,0c-1.091-.273-.775-2.2.4-1.909a13.675,13.675,0,0,0,6.759,0C37.583,7.928,37.937,9.846,36.828,10.124ZM27.721,1.737l.016.008a2.485,2.485,0,0,0,2.711-.125c1.184-.768,1.312.463,2.867.463a2.429,2.429,0,0,0,1.463-.463,1.129,1.129,0,0,1,1.4,0,2.5,2.5,0,0,0,2.722.123c.143.511-.181,2.033-2.241,5.072-1.023-.017-2.508.978-6.712.052-2.056-3.078-2.374-4.615-2.23-5.13Zm24.194,34.7-12.93,8.116a7,7,0,0,1-3.726,1.071H24.891a7,7,0,0,1-2.428-.433L15.02,42.445V35.032a.695.695,0,0,0-1.39,0V44.11a.625.625,0,0,1-.627.621H9.814a.625.625,0,0,1-.627-.621V28.078a.624.624,0,0,1,.627-.621H13a.625.625,0,0,1,.627.621v3.736a.695.695,0,0,0,1.39,0V29.871c5.748.044,7.041,3.045,10.979,3.6l.018,0,7.687.877a2.953,2.953,0,0,1,2.532,2.591l-.01,1.309H29.057a.688.688,0,1,0,0,1.377h7.859a.725.725,0,0,0,.277-.057l12.642-5.514c.909-.4,1.738-.457,2.3.361A1.562,1.562,0,0,1,51.915,36.435Z" transform="translate(-7.797 0.001)"/><path class="a" d="M243.824,172.512a.7.7,0,0,0,.7-.7V170.66a4.082,4.082,0,0,0,3.346-3.378,3.574,3.574,0,0,0-2.462-4.088c-.319-.113-.613-.221-.884-.325v-4.443a2.866,2.866,0,0,1,1.355.6.7.7,0,0,0,.941-1.028,4.318,4.318,0,0,0-2.3-.974v-.991a.7.7,0,1,0-1.394,0v1.047a5.125,5.125,0,0,0-.517.126,3.369,3.369,0,0,0-2.306,2.645,2.947,2.947,0,0,0,.958,2.9,8.442,8.442,0,0,0,1.865,1.054v5.51a3.7,3.7,0,0,1-2.167-.751.7.7,0,1,0-.763,1.166,5.1,5.1,0,0,0,2.93.978v1.106A.7.7,0,0,0,243.824,172.512Zm-1.7-10.857a1.571,1.571,0,0,1-.448-1.55,1.993,1.993,0,0,1,1.338-1.568l.115-.032v3.764A5.878,5.878,0,0,1,242.122,161.655Zm2.818,2.853a2.193,2.193,0,0,1,1.552,2.543,2.714,2.714,0,0,1-1.972,2.184v-4.879Z" transform="translate(-218.388 -141.172)"/></g></g></svg>