<?xml version="1.0" encoding="utf-8"?>
<!-- Generator: Adobe Illustrator 24.0.0, SVG Export Plug-In . SVG Version: 6.00 Build 0)  -->
<svg version="1.1" id="Layer_1" xmlns="http://www.w3.org/2000/svg" xmlns:xlink="http://www.w3.org/1999/xlink" x="0px" y="0px"
	 viewBox="0 0 282 217.065" style="enable-background:new 0 0 282 217.065;" xml:space="preserve">
<style type="text/css">
	.st0{fill:#FFFFFF;}
	.st1{fill:#3F3D56;}
	.st2{fill:#FF9F5B;}
	.st3{fill:#F0F0F0;}
	.st4{fill:#818181;}
	.st5{opacity:0.1;enable-background:new    ;}
	.st6{fill:#64A15E;}
	.st7{opacity:0.299;fill:#3F3D56;enable-background:new    ;}
	.st8{opacity:0.369;fill:#3F3D56;enable-background:new    ;}
	.st9{opacity:0.305;fill:#3F3D56;enable-background:new    ;}
	.st10{fill:#2F2E41;}
	.st11{fill:#FFDACC;}
	.st12{fill:#FFE6CC;}
</style>
<g id="Group_2291" transform="translate(-0.5)">
	<path id="Path_150" class="st0" d="M65.048,150.222l21.872-34.4L37.937,84.678l-25.3,39.78l40.515,25.763L65.048,150.222z"/>
	<path id="Path_151" class="st1" d="M96.043,160.951H41.865v-10.906h54.178V160.951z M42.569,160.251H95.34v-9.5H42.565
		L42.569,160.251z"/>
	<circle id="Ellipse_57" class="st2" cx="89" cy="155.564" r="3.5"/>
	<circle id="Ellipse_58" class="st2" cx="79" cy="155.564" r="3.5"/>
	<circle id="Ellipse_59" class="st2" cx="70" cy="155.564" r="3.5"/>
	<circle id="Ellipse_60" class="st2" cx="60" cy="155.564" r="3.5"/>
	<circle id="Ellipse_61" class="st2" cx="50" cy="155.564" r="3.5"/>
	<path id="Path_152" class="st0" d="M160.423,39.754V13.017h13.369V0h-65.436v65.436h55.937v-6.4c0-5.016,4.066-9.082,9.082-9.082
		h0.417v-10.2L160.423,39.754z"/>
	<rect id="Rectangle_298" x="189.5" y="169.064" class="st2" width="43" height="9"/>
	<rect id="Rectangle_299" x="178.5" y="124.064" class="st3" width="64" height="8"/>
	<rect id="Rectangle_300" x="0.5" y="216.064" class="st4" width="273" height="1"/>
	<path id="Path_153" class="st1" d="M253.365,217.065h-79.99c-5.207-0.006-9.427-4.226-9.433-9.433V59.038
		c0.006-5.207,4.226-9.427,9.433-9.433h79.99c5.207,0.006,9.427,4.226,9.433,9.433v148.593
		C262.793,212.839,258.573,217.059,253.365,217.065z M173.374,50.305c-4.819,0.006-8.724,3.911-8.73,8.73v148.596
		c0.005,4.819,3.911,8.724,8.73,8.73h79.99c4.819-0.006,8.724-3.911,8.73-8.73V59.038c-0.005-4.819-3.911-8.724-8.73-8.73
		L173.374,50.305z"/>
	<path id="Path_154" class="st1" d="M203.872,56.641c-1.166,0-2.111-0.945-2.111-2.111s0.945-2.111,2.111-2.111
		c1.166,0,2.111,0.945,2.111,2.111S205.038,56.641,203.872,56.641L203.872,56.641z M203.872,53.123c-0.777,0-1.407,0.63-1.407,1.407
		c0,0.777,0.63,1.407,1.407,1.407c0.777,0,1.407-0.63,1.407-1.407l0,0c0.002-0.777-0.626-1.409-1.403-1.411
		c-0.001,0-0.003,0-0.004,0V53.123z"/>
	<rect id="Rectangle_301" x="209.148" y="54.178" class="st1" width="15.479" height="0.704"/>
	<path id="Path_155" class="st2" d="M256.466,59.807v28.144c-15.543-0.001-28.143-12.601-28.144-28.144H256.466z"/>
	<path id="Path_156" class="st1" d="M256.822,207.565h-86.9V59.455h86.9V207.565z M170.63,206.865h85.489V60.155h-85.497
		L170.63,206.865z"/>
	<circle id="Ellipse_62" class="st5" cx="236" cy="76.564" r="9.5"/>
	<circle id="Ellipse_63" class="st2" cx="235" cy="77.564" r="9.5"/>
	<rect id="Rectangle_302" x="173.5" y="65.064" class="st6" width="14" height="5"/>
	<rect id="Rectangle_303" x="181.5" y="112.064" class="st6" width="13" height="5"/>
	<path id="Path_157" class="st1" d="M245.912,130.52H181.18v-9.147h64.732V130.52z M181.883,129.82h63.325v-7.747H181.88
		L181.883,129.82z"/>
	<rect id="Rectangle_304" x="178.5" y="151.064" class="st3" width="64" height="8"/>
	<rect id="Rectangle_305" x="181.5" y="139.064" class="st6" width="13" height="5"/>
	<path id="Path_158" class="st1" d="M245.912,157.257H181.18v-9.147h64.732V157.257z M181.883,156.557h63.325v-7.747H181.88
		L181.883,156.557z"/>
	<path id="Path_159" class="st1" d="M235.71,175.903h-44.328v-9.851h44.328V175.903z M192.086,175.203h42.92v-8.451h-42.924
		L192.086,175.203z"/>
	<path id="Path_160" class="st2" d="M244.154,127.002c0.001,1.943-1.574,3.519-3.517,3.519c-1.05,0-2.046-0.468-2.714-1.278l0,0
		c-1.236-1.499-1.023-3.716,0.475-4.952c1.499-1.236,3.716-1.023,4.952,0.475c0.338,0.41,0.578,0.89,0.704,1.406l0,0l0,0
		C244.12,126.444,244.153,126.722,244.154,127.002z"/>
	<path id="Path_161" class="st5" d="M244.154,127.002c0.001,1.943-1.574,3.519-3.517,3.519c-1.05,0-2.046-0.468-2.714-1.278l0,0
		c-0.065-0.272-0.099-0.55-0.1-0.83c0-1.943,1.575-3.518,3.518-3.518c1.049,0,2.044,0.468,2.712,1.277l0,0l0,0
		C244.119,126.444,244.153,126.722,244.154,127.002z"/>
	<circle id="Ellipse_64" class="st2" cx="242" cy="129.564" r="3.5"/>
	<path id="Path_162" class="st2" d="M244.154,153.739c0.001,1.943-1.574,3.519-3.517,3.519c-1.05,0-2.046-0.468-2.714-1.278l0,0
		c-1.236-1.499-1.023-3.716,0.475-4.952c1.499-1.236,3.716-1.023,4.952,0.475c0.338,0.41,0.579,0.89,0.704,1.406l0,0l0,0
		C244.12,153.181,244.153,153.459,244.154,153.739z"/>
	<path id="Path_163" class="st5" d="M244.154,153.739c0.001,1.943-1.574,3.519-3.517,3.519c-1.05,0-2.046-0.468-2.714-1.278l0,0
		c-0.065-0.272-0.099-0.55-0.1-0.83c0-1.943,1.575-3.518,3.518-3.518c1.049,0,2.044,0.468,2.712,1.277l0,0l0,0
		C244.119,153.181,244.153,153.459,244.154,153.739z"/>
	<circle id="Ellipse_65" class="st2" cx="242" cy="155.564" r="3.5"/>
	<rect id="Rectangle_306" x="164.5" y="17.064" class="st0" width="18" height="18"/>
	<path id="Path_164" class="st7" d="M236.062,30.255c-2.332,0-4.222-1.89-4.222-4.222c0-2.332,1.89-4.222,4.222-4.222
		c2.332,0,4.222,1.89,4.222,4.222v0C240.284,28.365,238.394,30.255,236.062,30.255z M236.062,22.515
		c-1.943,0-3.518,1.575-3.518,3.518s1.575,3.518,3.518,3.518s3.518-1.575,3.518-3.518c0.002-1.943-1.572-3.519-3.515-3.521
		c-0.001,0-0.002,0-0.003,0V22.515z"/>
	<path id="Path_165" class="st8" d="M143.185,89.007h-9.147V79.86h9.147V89.007z M134.742,88.307h7.74V80.56h-7.744L134.742,88.307z
		"/>
	<path id="Path_166" class="st9" d="M282.5,157.257h-9.147v-9.147h9.147V157.257z M274.057,156.557h7.74v-7.747h-7.744
		L274.057,156.557z"/>
	<path id="Path_167" class="st10" d="M102.022,95.926l1.57,0.845l5.341,2.879l8.623,4.646l5.025-9.323
		c1.988-3.68,0.616-8.274-3.064-10.262c-0.004-0.002-0.008-0.004-0.012-0.007c-3.845-2.077-8.591-1.433-11.744,1.593l0,0
		c-0.756,0.726-1.394,1.566-1.891,2.489L102.022,95.926z"/>
	<path id="Path_168" class="st11" d="M125.56,191.013l-1.053,11.588l-3.951,0.527l-2.634-13.168L125.56,191.013z"/>
	<path id="Path_169" class="st10" d="M119.502,203.126c0,0,5-2.634,6.058-0.527c0,0-0.79,6.321,2.37,7.111s4.477,6.321,0,6.848
		s-7.374-1.054-8.955-1.054s0-5.531,0-5.531L119.502,203.126z"/>
	<path id="Path_170" class="st11" d="M93.691,191.013l1.054,11.588l3.95,0.527l2.634-13.168L93.691,191.013z"/>
	<path id="Path_171" class="st10" d="M99.749,203.126c0,0-5-2.634-6.058-0.527c0,0,0.79,6.321-2.37,7.111s-4.477,6.321,0,6.848
		s7.374-1.054,8.955-1.054s0-5.531,0-5.531L99.749,203.126z"/>
	<circle id="Ellipse_66" class="st11" cx="115.288" cy="91.191" r="6.848"/>
	<path id="Path_172" class="st11" d="M93.428,104.622l5.531,8.691l6.584-0.527l10.8,0.79c0,0,1.019-2.038,1.852-4.022
		c0.456-0.99,0.806-2.026,1.046-3.089c0.263-1.844-3.424-3.687-3.424-3.687s-0.145-0.026-0.387-0.084
		c-0.321-0.076-0.816-0.2-1.359-0.387c-1.225-0.416-2.7-1.122-2.995-2.162c-0.527-1.844,3.424-4.477,3.424-4.477l-4.741-4.477
		c0,0-4.211,5.849-9.326,7.182c-0.296,0.078-0.597,0.14-0.9,0.184l-0.045,0.008C96.326,98.972,93.836,101.46,93.428,104.622z"/>
	<path id="Path_173" class="st11" d="M96.325,102.252l-2.9,2.37c0,0-2.37,11.325-1.58,14.485s-0.263,6.058-0.263,6.584
		s-2.37,20.28-2.37,20.28s-4.741,10.535,0.263,9.481s3.16-11.588,3.16-11.588l6.058-18.436v-15.539L96.325,102.252z"/>
	<path id="Path_174" class="st11" d="M117.129,104.359l2.107,1.58l1.054,22.123l7.9,18.963c0,0,5.794,9.218,2.107,9.481
		s-6.057-9.481-6.057-9.481l-7.111-18.173l-1.053-17.646L117.129,104.359z"/>
	<path id="Path_175" class="st10" d="M103.963,105.939c0,0,5.267,3.687,13.7,2.37c0,0,2.37,4.741,1.053,7.374
		s1.58,8.955,2.107,9.745s6.584,17.119,8.691,34.765c2.107,17.646,7.9,29.761,2.9,31.341s-15.276,3.424-16.329,1.844
		s-2.634-40.823-2.634-40.823l-2.9,15.012c0,0,3.951,25.547,1.054,26.074s-21.07-1.053-20.543-4.214s5.794-19.753,5.794-19.753
		s-0.263-33.185,5-39.506c0,0,2.107-3.424-0.79-7.9s-2.634-11.588-2.634-11.588S100.539,110.68,103.963,105.939z"/>
	<path id="Path_176" class="st10" d="M99.53,98.556l4.433,9.753l1.053-0.527l-4.585-9.41L99.53,98.556z"/>
	<path id="Path_177" class="st10" d="M114.068,102.307l3.326,7.319l0.8-0.071l-0.271-1.246l-2.494-5.615
		C115.106,102.618,114.611,102.491,114.068,102.307z"/>
	<path id="Path_178" class="st10" d="M103.593,96.771c0.71,2.286,3.14,3.564,5.426,2.854c1.082-0.336,1.99-1.083,2.528-2.08
		c-3.332-4.356-0.474-7.093,4.938-9.163c0.832-1.547,0.648-3.442-0.466-4.8c-3.021-0.387-6.056,0.612-8.257,2.718l0,0l-3.845,7.132
		c-0.553,1.024-0.669,2.229-0.321,3.34L103.593,96.771z"/>
	<ellipse id="Ellipse_67" class="st12" cx="111.206" cy="91.98" rx="0.922" ry="1.58"/>
	<path id="Path_179" class="st10" d="M113.953,89.404l7.917,3.587l1.451-3.2c-0.25-1.171-0.774-2.266-1.528-3.195l-5.448-2.472
		L113.953,89.404z"/>
	<circle id="Ellipse_68" class="st2" cx="133" cy="156.564" r="3.5"/>
</g>
</svg>
