<svg xmlns="http://www.w3.org/2000/svg" width="46" height="32" viewBox="0 0 46 32"><defs><style>.a{fill:#64a15e;}</style></defs><path class="a" d="M49.9,38.911a.717.717,0,0,0,.7-.663v-8.5a.723.723,0,0,0-.7-.7h-1.86l-.814-5.573a.672.672,0,0,0-.775-.585l-10.5,1.559h-.039L5.22,29.09a.716.716,0,0,0-.581.663v8.457a.717.717,0,0,0,.659.7,3.079,3.079,0,0,1,0,6.158.717.717,0,0,0-.7.663v8.457a.723.723,0,0,0,.7.7H49.864a.722.722,0,0,0,.7-.7V45.77a.717.717,0,0,0-.659-.7,3.079,3.079,0,0,1,0-6.158ZM35.448,25.933l.271,1.832a.667.667,0,0,0,.659.585h.116a.675.675,0,0,0,.581-.779L36.8,25.738l9.185-1.364.7,4.716h-32.2Zm13.8,20.46v7.171H39.207V51.693a.7.7,0,1,0-1.4,0v1.871H6.034V46.393a4.441,4.441,0,0,0,0-8.769V30.454H37.85v1.832a.7.7,0,1,0,1.4,0V30.415H49.282v7.171A4.438,4.438,0,0,0,45.6,42.652,4.289,4.289,0,0,0,49.244,46.393Z" transform="translate(-4.6 -22.889)"/><path class="a" d="M91,74.6a.714.714,0,0,0-.7.658v4.489a.7.7,0,0,0,1.393,0V75.3A.694.694,0,0,0,91,74.6Z" transform="translate(-57.087 -54.415)"/><path class="a" d="M91,54.2a.714.714,0,0,0-.7.658v4.489a.7.7,0,0,0,1.393,0V54.858A.686.686,0,0,0,91,54.2Z" transform="translate(-57.087 -41.978)"/><path class="a" d="M26.2,54.854h8.4a.694.694,0,0,0,.7-.7.662.662,0,0,0-.7-.658H26.2a.694.694,0,0,0-.7.7A.662.662,0,0,0,26.2,54.854Z" transform="translate(-17.397 -41.567)"/><path class="a" d="M42.99,64.6H26.2a.7.7,0,0,0,0,1.393H42.99a.7.7,0,0,0,0-1.393Z" transform="translate(-17.392 -48.339)"/><path class="a" d="M42.99,75.7H26.2a.7.7,0,0,0,0,1.393H42.99a.7.7,0,0,0,0-1.393Z" transform="translate(-17.392 -55.112)"/><path class="a" d="M42.99,86.8H26.2a.7.7,0,0,0,0,1.393H42.99a.7.7,0,0,0,0-1.393Z" transform="translate(-17.392 -61.885)"/></svg>