<?xml version="1.0" encoding="utf-8"?>
<!-- Generator: Adobe Illustrator 24.0.0, SVG Export Plug-In . SVG Version: 6.00 Build 0)  -->
<svg version="1.1" id="Layer_1" xmlns="http://www.w3.org/2000/svg" xmlns:xlink="http://www.w3.org/1999/xlink" x="0px" y="0px"
	 viewBox="0 0 226.249 158.247" style="enable-background:new 0 0 226.249 158.247;" xml:space="preserve">
<style type="text/css">
	.st0{fill:#3F3D56;}
	.st1{fill:#64A15E;}
	.st2{fill:#FFD8D8;}
	.st3{fill:#1A60A5;}
	.st4{fill:none;stroke:#00FF00;stroke-miterlimit:10;}
	.st5{fill:#FFFFFF;}
	.st6{fill:#684ABA;}
	.st7{fill:#2F2E41;}
	.st8{fill:#F5F6FC;}
	.st9{fill:#EF8940;}
	.st10{fill:#FF9F5B;}
</style>
<path id="Path_415" class="st0" d="M33.451,132.646l-0.28-0.105c-0.062-0.023-6.194-2.373-9.067-7.7s-1.466-11.743-1.452-11.807
	l0.066-0.292l0.28,0.105c0.062,0.023,6.194,2.373,9.067,7.7s1.466,11.743,1.452,11.807L33.451,132.646z M24.563,124.592
	c2.429,4.5,7.275,6.814,8.5,7.341c0.233-1.316,0.966-6.638-1.461-11.138s-7.275-6.813-8.5-7.341
	C22.868,114.77,22.136,120.092,24.563,124.592z"/>
<path id="Path_416" class="st1" d="M26.299,123.233c5.163,3.106,7.151,9.276,7.151,9.276s-6.382,1.134-11.545-1.973
	s-7.151-9.276-7.151-9.276S21.136,120.127,26.299,123.233z"/>
<ellipse id="Ellipse_85" class="st0" cx="186.552" cy="75.509" rx="18.812" ry="4.18"/>
<rect id="Rectangle_351" x="129.685" y="107.388" transform="matrix(0.3671 -0.9302 0.9302 0.3671 -1.1672 213.5821)" class="st0" width="53.359" height="0.522"/>
<rect id="Rectangle_352" x="215.948" y="80.961" transform="matrix(0.9302 -0.3672 0.3672 0.9302 -24.4231 86.9032)" class="st0" width="0.522" height="53.37"/>
<rect id="Rectangle_353" x="186.03" y="82.825" class="st0" width="0.523" height="49.643"/>
<rect id="Rectangle_354" x="172.699" y="94.719" transform="matrix(0.4472 -0.8944 0.8944 0.4472 0.9673 213.1934)" class="st0" width="0.523" height="22.19"/>
<rect id="Rectangle_355" x="188.517" y="105.559" transform="matrix(0.8944 -0.4472 0.4472 0.8944 -26.251 100.4409)" class="st0" width="22.19" height="0.523"/>
<path id="Path_417" class="st2" d="M160.816,45.855c0,0-7.838-8.1-9.929-3.135s7.838,7.577,7.838,7.577L160.816,45.855z"/>
<path id="Path_418" class="st3" d="M177.799,59.964l-10.19,14.632l-10.712,14.893l-3.135,43.111l10.712,1.306
	c0,0-1.568-11.758,1.306-18.812s2.874-19.857,2.874-19.857l18.551-22.47l10.451,18.028l11.235,43.112l9.406-0.784
	c0,0-3.4-19.857-2.874-21.947s-5.487-19.6-5.487-19.6l-4.7-34.227C205.236,57.349,183.809,54.216,177.799,59.964z"/>
<circle id="Ellipse_86" class="st2" cx="182.235" cy="13.838" r="7.508"/>
<path id="Path_419" class="st2" d="M187.205,16.329l5.487,5.748l1.568,8.883l-13.848,2.352l1.045-8.1c0,0-0.261-3.919-1.306-4.7
	S187.205,16.329,187.205,16.329z"/>
<path id="Path_420" class="st4" d="M172.312,32.53"/>
<path id="Path_421" class="st5" d="M180.151,26.258l1.273-1.437l4.214,3.789l7.055-6.532l10.712,36.056
	c0,0-6.793-2.352-13.325,0.784s-15.154,2.352-15.154,2.352l0.261-29.263L180.151,26.258z"/>
<path id="Path_422" class="st6" d="M172.574,32.01l8.754-8.009c0,0,3,4.351,1.7,12.712s-2.352,24.821-7.055,29.263
	s-6.532,6.009-6.532,6.009l4.7-18.812C174.141,53.173,170.484,34.096,172.574,32.01z"/>
<path id="Path_423" class="st6" d="M190.187,19.453c0,0,15.57-1.555,15.831,0.274s-1.568,22.731-1.568,22.731
	s16.2,21.686,9.406,25.867c-3.168,1.949-5.905-2.332-9.8-7.708c-4.455-6.152-9.9-13.871-10.32-17.636
	C192.954,35.93,190.187,19.453,190.187,19.453z"/>
<path id="Path_424" class="st6" d="M173.358,39.322l-1.306,10.19l-11.5-4.964l-3.658,7.577l18.812,7.054
	C175.706,59.179,179.106,41.151,173.358,39.322z"/>
<path id="Path_425" class="st7" d="M154.807,131.292l-7.577,12.28c0,0-14.37,7.838-9.406,9.929s16.983-2.352,18.289-4.964
	s1.829-3.135,2.352-2.613s7.055-1.568,7.316-2.351s0-9.667-2.352-10.712S154.807,131.292,154.807,131.292z"/>
<path id="Path_426" class="st7" d="M209.153,132.598l1.568,9.667l1.829,6.793c0,0,1.306,9.929,7.577,9.145
	c3.135-0.392,4.246-2.613,4.572-4.736c0.292-2.019-0.075-4.079-1.047-5.873l-3.525-6.636l-3.135-8.883L209.153,132.598z"/>
<path id="Path_427" class="st7" d="M174.733,15.212c-0.603-0.685-0.93-1.569-0.917-2.481c0.068-0.785,0.018-1.575-0.149-2.345
	c0.169-1.208,0.434-2.4,0.791-3.566c0.472-1.309,0.074-1.764,2.1-2.478s0.737-3.3,6.713-1.239c0.465,0.469,1.166,0.613,1.778,0.364
	c1.1-0.4,1.768,1.112,1.768,1.112s0.688-0.565,1.074,0.022s2.254-0.751,2.939,3.52c0.324,2.802-0.26,5.634-1.666,8.079
	c0,0-0.33-6.834-4.211-6.958s-8.27-1.594-8.814,1.284C175.855,12.138,175.383,13.711,174.733,15.212L174.733,15.212z"/>
<path id="Path_428" class="st2" d="M201.914,54.497c0,0-9.426,6.181-4.941,9.165s8.912-6.279,8.912-6.279L201.914,54.497z"/>
<path id="Path_429" class="st6" d="M204.188,19.727c0.953-0.619,2.227-0.349,2.846,0.604c0.139,0.214,0.237,0.452,0.289,0.702
	c0.784,2.613,8.883,22.731,8.883,22.731l-10.19,15.677l-7.316-5.226l8.883-10.451l-6.009-7.316L204.188,19.727z"/>
<path id="Path_430" class="st0" d="M155.199,24.303h-0.278V16.81c0-2.395-1.942-4.337-4.337-4.337h-15.869
	c-2.395,0-4.337,1.942-4.337,4.337v41.106c0,2.395,1.942,4.337,4.337,4.337h15.875c2.395,0,4.337-1.942,4.337-4.337v-28.28h0.273
	L155.199,24.303z"/>
<path id="Path_431" class="st8" d="M150.661,13.704h-2.072c0.321,0.787-0.057,1.685-0.844,2.006
	c-0.184,0.075-0.382,0.114-0.581,0.114h-9.094c-0.85,0-1.539-0.689-1.539-1.539c0-0.199,0.039-0.396,0.114-0.581h-1.935
	c-1.789,0-3.239,1.45-3.239,3.239v0v41.046c0,1.789,1.45,3.239,3.239,3.239l0,0h15.951c1.789,0,3.239-1.45,3.239-3.239v0V16.944
	c0.001-1.789-1.449-3.239-3.238-3.24C150.662,13.704,150.661,13.704,150.661,13.704z"/>
<path id="Path_432" class="st9" d="M142.635,33.731l3.408,5.9l3.408,5.9h-13.632l3.408-5.9L142.635,33.731z"/>
<path id="Path_433" class="st8" d="M142.619,38.004l1.546,2.678l1.546,2.678h-6.184l1.546-2.678L142.619,38.004z"/>
<path id="Path_434" class="st10" d="M142.619,29.297l1.546,2.678l1.546,2.677h-6.184l1.546-2.677L142.619,29.297z"/>
<path id="Path_435" class="st1" d="M76.008,54.646l22.481,38.939l22.481,38.939H31.047l22.481-38.939L76.008,54.646z"/>
<path id="Path_436" class="st5" d="M75.903,82.836l10.2,17.664l10.2,17.664H55.507l10.2-17.664L75.903,82.836z"/>
<path id="Path_437" class="st1" d="M75.903,25.397l10.2,17.664l10.2,17.664H55.507l10.2-17.664L75.903,25.397z"/>
<rect id="Rectangle_356" y="132.207" class="st0" width="146.577" height="0.523"/>
<path id="Path_438" class="st1" d="M45.203,32.031c-1.066-1.344-1.905-2.852-2.485-4.466c-0.58,1.614-1.42,3.122-2.485,4.466
	l2.224-0.8v11.753h0.523V31.227L45.203,32.031z"/>
<path id="Path_439" class="st1" d="M116.921,71.092c-1.065-1.344-1.905-2.852-2.485-4.466c-0.58,1.614-1.42,3.122-2.485,4.466
	l2.224-0.8v11.753h0.523V70.287L116.921,71.092z"/>
<path id="Path_440" class="st1" d="M94.455,4.466C93.39,3.122,92.55,1.614,91.97,0c-0.58,1.614-1.42,3.122-2.485,4.466l2.224-0.8
	v11.745h0.523V3.662L94.455,4.466z"/>
</svg>
