<?xml version="1.0" standalone="no"?>
<!DOCTYPE svg PUBLIC "-//W3C//DTD SVG 20010904//EN"
 "http://www.w3.org/TR/2001/REC-SVG-20010904/DTD/svg10.dtd">
<svg version="1.0" xmlns="http://www.w3.org/2000/svg"
 width="552.000000pt" height="552.000000pt" viewBox="0 0 552.000000 552.000000"
 preserveAspectRatio="xMidYMid meet">
<metadata>
Created by potrace 1.11, written by Peter Selinger 2001-2013
</metadata>
<g transform="translate(0.000000,552.000000) scale(0.100000,-0.100000)"
fill="#000000" stroke="none">
<path d="M2280 5508 c-222 -58 -353 -279 -295 -494 l18 -66 -955 -956 c-717
-719 -961 -969 -980 -1007 -82 -157 -74 -361 21 -498 39 -58 2350 -2369 2405
-2405 81 -55 143 -74 251 -78 115 -3 181 13 270 67 36 22 430 409 1237 1218
1153 1155 1185 1188 1216 1256 69 155 58 331 -28 464 -16 25 -142 158 -280
296 l-250 250 0 -200 0 -200 141 -140 c77 -77 149 -157 160 -177 23 -44 25
-115 4 -164 -10 -24 -398 -418 -1182 -1202 -955 -954 -1175 -1170 -1206 -1179
-48 -14 -115 -10 -154 10 -16 9 -551 537 -1188 1174 -879 879 -1163 1168
-1177 1201 -22 48 -19 110 6 164 9 18 438 455 953 970 l938 936 69 -17 c121
-31 241 -7 341 68 47 36 110 116 129 166 82 211 -23 446 -234 529 -51 20 -177
28 -230 14z m167 -219 c11 -4 37 -24 57 -43 81 -81 69 -212 -26 -280 -157
-112 -359 66 -270 239 43 84 143 119 239 84z"/>
<path d="M3055 4353 c0 -641 -2 -1166 -5 -1168 -3 -2 -34 14 -70 36 -140 85
-298 129 -475 134 -372 9 -700 -182 -882 -515 -32 -58 -79 -182 -88 -228 -2
-15 -9 -49 -14 -77 -16 -84 -6 -289 19 -385 88 -340 363 -619 690 -702 113
-29 307 -41 392 -24 154 29 270 73 378 141 19 12 39 23 45 24 5 0 10 -36 10
-86 l0 -88 275 0 275 0 2 935 c1 514 2 960 3 991 l0 57 205 -206 c169 -169
205 -201 206 -181 1 29 1 438 0 460 -1 9 -94 109 -207 222 l-206 206 1 137 c0
75 2 138 3 140 2 1 238 -231 526 -517 331 -330 522 -513 523 -502 0 10 2 184
4 387 l3 368 -802 798 c-440 439 -803 801 -806 803 -3 3 -5 -519 -5 -1160z
m-452 -1567 c90 -26 181 -95 233 -177 72 -114 82 -269 25 -393 -121 -266 -465
-329 -674 -123 -128 127 -159 327 -75 491 29 56 124 148 183 176 99 48 203 57
308 26z"/>
</g>
</svg>
